G04 #@! TF.FileFunction,Soldermask,Bot*
%FSLAX46Y46*%
G04 Gerber Fmt 4.6, Leading zero omitted, Abs format (unit mm)*
G04 Created by KiCad (PCBNEW 4.0.7) date 2018 May 30, Wednesday 19:48:18*
%MOMM*%
%LPD*%
G01*
G04 APERTURE LIST*
%ADD10C,0.100000*%
%ADD11C,0.150000*%
%ADD12C,0.300000*%
%ADD13C,0.400000*%
%ADD14C,0.010000*%
%ADD15R,2.635200X2.635200*%
G04 APERTURE END LIST*
D10*
D11*
X177002200Y-166007200D02*
X177002200Y-198007200D01*
X285002200Y-198007200D01*
X285002200Y-166007200D01*
X177002200Y-166007200D01*
D10*
D11*
X10000000Y-10000000D02*
X10000000Y-200007200D01*
X287002200Y-200007200D01*
X287002200Y-10000000D01*
X10000000Y-10000000D01*
D10*
D11*
X12000000Y-12000000D02*
X12000000Y-198007200D01*
X285002200Y-198007200D01*
X285002200Y-12000000D01*
X12000000Y-12000000D01*
D10*
D11*
X60000000Y-12000000D02*
X60000000Y-10000000D01*
D10*
D11*
X110000000Y-12000000D02*
X110000000Y-10000000D01*
D10*
D11*
X160000000Y-12000000D02*
X160000000Y-10000000D01*
D10*
D11*
X210000000Y-12000000D02*
X210000000Y-10000000D01*
D10*
D11*
X260000000Y-12000000D02*
X260000000Y-10000000D01*
D10*
D11*
X35990476Y-11588095D02*
X35247619Y-11588095D01*
X35619048Y-11588095D02*
X35619048Y-10288095D01*
X35495238Y-10473810D01*
X35371429Y-10597619D01*
X35247619Y-10659524D01*
D10*
D11*
X85247619Y-10411905D02*
X85309524Y-10350000D01*
X85433333Y-10288095D01*
X85742857Y-10288095D01*
X85866667Y-10350000D01*
X85928571Y-10411905D01*
X85990476Y-10535714D01*
X85990476Y-10659524D01*
X85928571Y-10845238D01*
X85185714Y-11588095D01*
X85990476Y-11588095D01*
D10*
D11*
X135185714Y-10288095D02*
X135990476Y-10288095D01*
X135557143Y-10783333D01*
X135742857Y-10783333D01*
X135866667Y-10845238D01*
X135928571Y-10907143D01*
X135990476Y-11030952D01*
X135990476Y-11340476D01*
X135928571Y-11464286D01*
X135866667Y-11526190D01*
X135742857Y-11588095D01*
X135371429Y-11588095D01*
X135247619Y-11526190D01*
X135185714Y-11464286D01*
D10*
D11*
X185866667Y-10721429D02*
X185866667Y-11588095D01*
X185557143Y-10226190D02*
X185247619Y-11154762D01*
X186052381Y-11154762D01*
D10*
D11*
X235928571Y-10288095D02*
X235309524Y-10288095D01*
X235247619Y-10907143D01*
X235309524Y-10845238D01*
X235433333Y-10783333D01*
X235742857Y-10783333D01*
X235866667Y-10845238D01*
X235928571Y-10907143D01*
X235990476Y-11030952D01*
X235990476Y-11340476D01*
X235928571Y-11464286D01*
X235866667Y-11526190D01*
X235742857Y-11588095D01*
X235433333Y-11588095D01*
X235309524Y-11526190D01*
X235247619Y-11464286D01*
D10*
D11*
X285866667Y-10288095D02*
X285619048Y-10288095D01*
X285495238Y-10350000D01*
X285433333Y-10411905D01*
X285309524Y-10597619D01*
X285247619Y-10845238D01*
X285247619Y-11340476D01*
X285309524Y-11464286D01*
X285371429Y-11526190D01*
X285495238Y-11588095D01*
X285742857Y-11588095D01*
X285866667Y-11526190D01*
X285928571Y-11464286D01*
X285990476Y-11340476D01*
X285990476Y-11030952D01*
X285928571Y-10907143D01*
X285866667Y-10845238D01*
X285742857Y-10783333D01*
X285495238Y-10783333D01*
X285371429Y-10845238D01*
X285309524Y-10907143D01*
X285247619Y-11030952D01*
D10*
D11*
X60000000Y-198007200D02*
X60000000Y-200007200D01*
D10*
D11*
X110000000Y-198007200D02*
X110000000Y-200007200D01*
D10*
D11*
X160000000Y-198007200D02*
X160000000Y-200007200D01*
D10*
D11*
X210000000Y-198007200D02*
X210000000Y-200007200D01*
D10*
D11*
X260000000Y-198007200D02*
X260000000Y-200007200D01*
D10*
D11*
X35990476Y-199595295D02*
X35247619Y-199595295D01*
X35619048Y-199595295D02*
X35619048Y-198295295D01*
X35495238Y-198481010D01*
X35371429Y-198604819D01*
X35247619Y-198666724D01*
D10*
D11*
X85247619Y-198419105D02*
X85309524Y-198357200D01*
X85433333Y-198295295D01*
X85742857Y-198295295D01*
X85866667Y-198357200D01*
X85928571Y-198419105D01*
X85990476Y-198542914D01*
X85990476Y-198666724D01*
X85928571Y-198852438D01*
X85185714Y-199595295D01*
X85990476Y-199595295D01*
D10*
D11*
X135185714Y-198295295D02*
X135990476Y-198295295D01*
X135557143Y-198790533D01*
X135742857Y-198790533D01*
X135866667Y-198852438D01*
X135928571Y-198914343D01*
X135990476Y-199038152D01*
X135990476Y-199347676D01*
X135928571Y-199471486D01*
X135866667Y-199533390D01*
X135742857Y-199595295D01*
X135371429Y-199595295D01*
X135247619Y-199533390D01*
X135185714Y-199471486D01*
D10*
D11*
X185866667Y-198728629D02*
X185866667Y-199595295D01*
X185557143Y-198233390D02*
X185247619Y-199161962D01*
X186052381Y-199161962D01*
D10*
D11*
X235928571Y-198295295D02*
X235309524Y-198295295D01*
X235247619Y-198914343D01*
X235309524Y-198852438D01*
X235433333Y-198790533D01*
X235742857Y-198790533D01*
X235866667Y-198852438D01*
X235928571Y-198914343D01*
X235990476Y-199038152D01*
X235990476Y-199347676D01*
X235928571Y-199471486D01*
X235866667Y-199533390D01*
X235742857Y-199595295D01*
X235433333Y-199595295D01*
X235309524Y-199533390D01*
X235247619Y-199471486D01*
D10*
D11*
X285866667Y-198295295D02*
X285619048Y-198295295D01*
X285495238Y-198357200D01*
X285433333Y-198419105D01*
X285309524Y-198604819D01*
X285247619Y-198852438D01*
X285247619Y-199347676D01*
X285309524Y-199471486D01*
X285371429Y-199533390D01*
X285495238Y-199595295D01*
X285742857Y-199595295D01*
X285866667Y-199533390D01*
X285928571Y-199471486D01*
X285990476Y-199347676D01*
X285990476Y-199038152D01*
X285928571Y-198914343D01*
X285866667Y-198852438D01*
X285742857Y-198790533D01*
X285495238Y-198790533D01*
X285371429Y-198852438D01*
X285309524Y-198914343D01*
X285247619Y-199038152D01*
D10*
D11*
X10000000Y-60000000D02*
X12000000Y-60000000D01*
D10*
D11*
X10000000Y-110000000D02*
X12000000Y-110000000D01*
D10*
D11*
X10000000Y-160000000D02*
X12000000Y-160000000D01*
D10*
D11*
X10690476Y-35216667D02*
X11309524Y-35216667D01*
X10566667Y-35588095D02*
X11000000Y-34288095D01*
X11433333Y-35588095D01*
D10*
D11*
X11092857Y-84907143D02*
X11278571Y-84969048D01*
X11340476Y-85030952D01*
X11402381Y-85154762D01*
X11402381Y-85340476D01*
X11340476Y-85464286D01*
X11278571Y-85526190D01*
X11154762Y-85588095D01*
X10659524Y-85588095D01*
X10659524Y-84288095D01*
X11092857Y-84288095D01*
X11216667Y-84350000D01*
X11278571Y-84411905D01*
X11340476Y-84535714D01*
X11340476Y-84659524D01*
X11278571Y-84783333D01*
X11216667Y-84845238D01*
X11092857Y-84907143D01*
X10659524Y-84907143D01*
D10*
D11*
X11402381Y-135464286D02*
X11340476Y-135526190D01*
X11154762Y-135588095D01*
X11030952Y-135588095D01*
X10845238Y-135526190D01*
X10721429Y-135402381D01*
X10659524Y-135278571D01*
X10597619Y-135030952D01*
X10597619Y-134845238D01*
X10659524Y-134597619D01*
X10721429Y-134473810D01*
X10845238Y-134350000D01*
X11030952Y-134288095D01*
X11154762Y-134288095D01*
X11340476Y-134350000D01*
X11402381Y-134411905D01*
D10*
D11*
X10659524Y-185588095D02*
X10659524Y-184288095D01*
X10969048Y-184288095D01*
X11154762Y-184350000D01*
X11278571Y-184473810D01*
X11340476Y-184597619D01*
X11402381Y-184845238D01*
X11402381Y-185030952D01*
X11340476Y-185278571D01*
X11278571Y-185402381D01*
X11154762Y-185526190D01*
X10969048Y-185588095D01*
X10659524Y-185588095D01*
D10*
D11*
X287002200Y-60000000D02*
X285002200Y-60000000D01*
D10*
D11*
X287002200Y-110000000D02*
X285002200Y-110000000D01*
D10*
D11*
X287002200Y-160000000D02*
X285002200Y-160000000D01*
D10*
D11*
X285692676Y-35216667D02*
X286311724Y-35216667D01*
X285568867Y-35588095D02*
X286002200Y-34288095D01*
X286435533Y-35588095D01*
D10*
D11*
X286095057Y-84907143D02*
X286280771Y-84969048D01*
X286342676Y-85030952D01*
X286404581Y-85154762D01*
X286404581Y-85340476D01*
X286342676Y-85464286D01*
X286280771Y-85526190D01*
X286156962Y-85588095D01*
X285661724Y-85588095D01*
X285661724Y-84288095D01*
X286095057Y-84288095D01*
X286218867Y-84350000D01*
X286280771Y-84411905D01*
X286342676Y-84535714D01*
X286342676Y-84659524D01*
X286280771Y-84783333D01*
X286218867Y-84845238D01*
X286095057Y-84907143D01*
X285661724Y-84907143D01*
D10*
D11*
X286404581Y-135464286D02*
X286342676Y-135526190D01*
X286156962Y-135588095D01*
X286033152Y-135588095D01*
X285847438Y-135526190D01*
X285723629Y-135402381D01*
X285661724Y-135278571D01*
X285599819Y-135030952D01*
X285599819Y-134845238D01*
X285661724Y-134597619D01*
X285723629Y-134473810D01*
X285847438Y-134350000D01*
X286033152Y-134288095D01*
X286156962Y-134288095D01*
X286342676Y-134350000D01*
X286404581Y-134411905D01*
D10*
D11*
X285661724Y-185588095D02*
X285661724Y-184288095D01*
X285971248Y-184288095D01*
X286156962Y-184350000D01*
X286280771Y-184473810D01*
X286342676Y-184597619D01*
X286404581Y-184845238D01*
X286404581Y-185030952D01*
X286342676Y-185278571D01*
X286280771Y-185402381D01*
X286156962Y-185526190D01*
X285971248Y-185588095D01*
X285661724Y-185588095D01*
D10*
D11*
X200359343Y-193785771D02*
X200359343Y-192285771D01*
X200716486Y-192285771D01*
X200930771Y-192357200D01*
X201073629Y-192500057D01*
X201145057Y-192642914D01*
X201216486Y-192928629D01*
X201216486Y-193142914D01*
X201145057Y-193428629D01*
X201073629Y-193571486D01*
X200930771Y-193714343D01*
X200716486Y-193785771D01*
X200359343Y-193785771D01*
X202502200Y-193785771D02*
X202502200Y-193000057D01*
X202430771Y-192857200D01*
X202287914Y-192785771D01*
X202002200Y-192785771D01*
X201859343Y-192857200D01*
X202502200Y-193714343D02*
X202359343Y-193785771D01*
X202002200Y-193785771D01*
X201859343Y-193714343D01*
X201787914Y-193571486D01*
X201787914Y-193428629D01*
X201859343Y-193285771D01*
X202002200Y-193214343D01*
X202359343Y-193214343D01*
X202502200Y-193142914D01*
X203002200Y-192785771D02*
X203573629Y-192785771D01*
X203216486Y-192285771D02*
X203216486Y-193571486D01*
X203287914Y-193714343D01*
X203430772Y-193785771D01*
X203573629Y-193785771D01*
X204645057Y-193714343D02*
X204502200Y-193785771D01*
X204216486Y-193785771D01*
X204073629Y-193714343D01*
X204002200Y-193571486D01*
X204002200Y-193000057D01*
X204073629Y-192857200D01*
X204216486Y-192785771D01*
X204502200Y-192785771D01*
X204645057Y-192857200D01*
X204716486Y-193000057D01*
X204716486Y-193142914D01*
X204002200Y-193285771D01*
X205359343Y-193642914D02*
X205430771Y-193714343D01*
X205359343Y-193785771D01*
X205287914Y-193714343D01*
X205359343Y-193642914D01*
X205359343Y-193785771D01*
X205359343Y-192857200D02*
X205430771Y-192928629D01*
X205359343Y-193000057D01*
X205287914Y-192928629D01*
X205359343Y-192857200D01*
X205359343Y-193000057D01*
X207145057Y-192428629D02*
X207216486Y-192357200D01*
X207359343Y-192285771D01*
X207716486Y-192285771D01*
X207859343Y-192357200D01*
X207930772Y-192428629D01*
X208002200Y-192571486D01*
X208002200Y-192714343D01*
X207930772Y-192928629D01*
X207073629Y-193785771D01*
X208002200Y-193785771D01*
X208930771Y-192285771D02*
X209073628Y-192285771D01*
X209216485Y-192357200D01*
X209287914Y-192428629D01*
X209359343Y-192571486D01*
X209430771Y-192857200D01*
X209430771Y-193214343D01*
X209359343Y-193500057D01*
X209287914Y-193642914D01*
X209216485Y-193714343D01*
X209073628Y-193785771D01*
X208930771Y-193785771D01*
X208787914Y-193714343D01*
X208716485Y-193642914D01*
X208645057Y-193500057D01*
X208573628Y-193214343D01*
X208573628Y-192857200D01*
X208645057Y-192571486D01*
X208716485Y-192428629D01*
X208787914Y-192357200D01*
X208930771Y-192285771D01*
X210859342Y-193785771D02*
X210002199Y-193785771D01*
X210430771Y-193785771D02*
X210430771Y-192285771D01*
X210287914Y-192500057D01*
X210145056Y-192642914D01*
X210002199Y-192714343D01*
X211716485Y-192928629D02*
X211573627Y-192857200D01*
X211502199Y-192785771D01*
X211430770Y-192642914D01*
X211430770Y-192571486D01*
X211502199Y-192428629D01*
X211573627Y-192357200D01*
X211716485Y-192285771D01*
X212002199Y-192285771D01*
X212145056Y-192357200D01*
X212216485Y-192428629D01*
X212287913Y-192571486D01*
X212287913Y-192642914D01*
X212216485Y-192785771D01*
X212145056Y-192857200D01*
X212002199Y-192928629D01*
X211716485Y-192928629D01*
X211573627Y-193000057D01*
X211502199Y-193071486D01*
X211430770Y-193214343D01*
X211430770Y-193500057D01*
X211502199Y-193642914D01*
X211573627Y-193714343D01*
X211716485Y-193785771D01*
X212002199Y-193785771D01*
X212145056Y-193714343D01*
X212216485Y-193642914D01*
X212287913Y-193500057D01*
X212287913Y-193214343D01*
X212216485Y-193071486D01*
X212145056Y-193000057D01*
X212002199Y-192928629D01*
X212930770Y-193214343D02*
X214073627Y-193214343D01*
X215073627Y-192285771D02*
X215216484Y-192285771D01*
X215359341Y-192357200D01*
X215430770Y-192428629D01*
X215502199Y-192571486D01*
X215573627Y-192857200D01*
X215573627Y-193214343D01*
X215502199Y-193500057D01*
X215430770Y-193642914D01*
X215359341Y-193714343D01*
X215216484Y-193785771D01*
X215073627Y-193785771D01*
X214930770Y-193714343D01*
X214859341Y-193642914D01*
X214787913Y-193500057D01*
X214716484Y-193214343D01*
X214716484Y-192857200D01*
X214787913Y-192571486D01*
X214859341Y-192428629D01*
X214930770Y-192357200D01*
X215073627Y-192285771D01*
X216930770Y-192285771D02*
X216216484Y-192285771D01*
X216145055Y-193000057D01*
X216216484Y-192928629D01*
X216359341Y-192857200D01*
X216716484Y-192857200D01*
X216859341Y-192928629D01*
X216930770Y-193000057D01*
X217002198Y-193142914D01*
X217002198Y-193500057D01*
X216930770Y-193642914D01*
X216859341Y-193714343D01*
X216716484Y-193785771D01*
X216359341Y-193785771D01*
X216216484Y-193714343D01*
X216145055Y-193642914D01*
X217645055Y-193214343D02*
X218787912Y-193214343D01*
X219359341Y-192285771D02*
X220287912Y-192285771D01*
X219787912Y-192857200D01*
X220002198Y-192857200D01*
X220145055Y-192928629D01*
X220216484Y-193000057D01*
X220287912Y-193142914D01*
X220287912Y-193500057D01*
X220216484Y-193642914D01*
X220145055Y-193714343D01*
X220002198Y-193785771D01*
X219573626Y-193785771D01*
X219430769Y-193714343D01*
X219359341Y-193642914D01*
X221216483Y-192285771D02*
X221359340Y-192285771D01*
X221502197Y-192357200D01*
X221573626Y-192428629D01*
X221645055Y-192571486D01*
X221716483Y-192857200D01*
X221716483Y-193214343D01*
X221645055Y-193500057D01*
X221573626Y-193642914D01*
X221502197Y-193714343D01*
X221359340Y-193785771D01*
X221216483Y-193785771D01*
X221073626Y-193714343D01*
X221002197Y-193642914D01*
X220930769Y-193500057D01*
X220859340Y-193214343D01*
X220859340Y-192857200D01*
X220930769Y-192571486D01*
X221002197Y-192428629D01*
X221073626Y-192357200D01*
X221216483Y-192285771D01*
D10*
D11*
X177002200Y-194507200D02*
X285002200Y-194507200D01*
D10*
D11*
X178359343Y-196585771D02*
X178359343Y-195085771D01*
X179216486Y-196585771D02*
X178573629Y-195728629D01*
X179216486Y-195085771D02*
X178359343Y-195942914D01*
X179859343Y-196585771D02*
X179859343Y-195585771D01*
X179859343Y-195085771D02*
X179787914Y-195157200D01*
X179859343Y-195228629D01*
X179930771Y-195157200D01*
X179859343Y-195085771D01*
X179859343Y-195228629D01*
X181430772Y-196442914D02*
X181359343Y-196514343D01*
X181145057Y-196585771D01*
X181002200Y-196585771D01*
X180787915Y-196514343D01*
X180645057Y-196371486D01*
X180573629Y-196228629D01*
X180502200Y-195942914D01*
X180502200Y-195728629D01*
X180573629Y-195442914D01*
X180645057Y-195300057D01*
X180787915Y-195157200D01*
X181002200Y-195085771D01*
X181145057Y-195085771D01*
X181359343Y-195157200D01*
X181430772Y-195228629D01*
X182716486Y-196585771D02*
X182716486Y-195800057D01*
X182645057Y-195657200D01*
X182502200Y-195585771D01*
X182216486Y-195585771D01*
X182073629Y-195657200D01*
X182716486Y-196514343D02*
X182573629Y-196585771D01*
X182216486Y-196585771D01*
X182073629Y-196514343D01*
X182002200Y-196371486D01*
X182002200Y-196228629D01*
X182073629Y-196085771D01*
X182216486Y-196014343D01*
X182573629Y-196014343D01*
X182716486Y-195942914D01*
X184073629Y-196585771D02*
X184073629Y-195085771D01*
X184073629Y-196514343D02*
X183930772Y-196585771D01*
X183645058Y-196585771D01*
X183502200Y-196514343D01*
X183430772Y-196442914D01*
X183359343Y-196300057D01*
X183359343Y-195871486D01*
X183430772Y-195728629D01*
X183502200Y-195657200D01*
X183645058Y-195585771D01*
X183930772Y-195585771D01*
X184073629Y-195657200D01*
X185930772Y-195800057D02*
X186430772Y-195800057D01*
X186645058Y-196585771D02*
X185930772Y-196585771D01*
X185930772Y-195085771D01*
X186645058Y-195085771D01*
X187287915Y-196442914D02*
X187359343Y-196514343D01*
X187287915Y-196585771D01*
X187216486Y-196514343D01*
X187287915Y-196442914D01*
X187287915Y-196585771D01*
X188002201Y-196585771D02*
X188002201Y-195085771D01*
X188359344Y-195085771D01*
X188573629Y-195157200D01*
X188716487Y-195300057D01*
X188787915Y-195442914D01*
X188859344Y-195728629D01*
X188859344Y-195942914D01*
X188787915Y-196228629D01*
X188716487Y-196371486D01*
X188573629Y-196514343D01*
X188359344Y-196585771D01*
X188002201Y-196585771D01*
X189502201Y-196442914D02*
X189573629Y-196514343D01*
X189502201Y-196585771D01*
X189430772Y-196514343D01*
X189502201Y-196442914D01*
X189502201Y-196585771D01*
X190145058Y-196157200D02*
X190859344Y-196157200D01*
X190002201Y-196585771D02*
X190502201Y-195085771D01*
X191002201Y-196585771D01*
X191502201Y-196442914D02*
X191573629Y-196514343D01*
X191502201Y-196585771D01*
X191430772Y-196514343D01*
X191502201Y-196442914D01*
X191502201Y-196585771D01*
X194502201Y-196585771D02*
X194502201Y-195085771D01*
X194645058Y-196014343D02*
X195073629Y-196585771D01*
X195073629Y-195585771D02*
X194502201Y-196157200D01*
X195716487Y-196585771D02*
X195716487Y-195585771D01*
X195716487Y-195085771D02*
X195645058Y-195157200D01*
X195716487Y-195228629D01*
X195787915Y-195157200D01*
X195716487Y-195085771D01*
X195716487Y-195228629D01*
X197073630Y-196514343D02*
X196930773Y-196585771D01*
X196645059Y-196585771D01*
X196502201Y-196514343D01*
X196430773Y-196442914D01*
X196359344Y-196300057D01*
X196359344Y-195871486D01*
X196430773Y-195728629D01*
X196502201Y-195657200D01*
X196645059Y-195585771D01*
X196930773Y-195585771D01*
X197073630Y-195657200D01*
X198359344Y-196585771D02*
X198359344Y-195800057D01*
X198287915Y-195657200D01*
X198145058Y-195585771D01*
X197859344Y-195585771D01*
X197716487Y-195657200D01*
X198359344Y-196514343D02*
X198216487Y-196585771D01*
X197859344Y-196585771D01*
X197716487Y-196514343D01*
X197645058Y-196371486D01*
X197645058Y-196228629D01*
X197716487Y-196085771D01*
X197859344Y-196014343D01*
X198216487Y-196014343D01*
X198359344Y-195942914D01*
X199716487Y-196585771D02*
X199716487Y-195085771D01*
X199716487Y-196514343D02*
X199573630Y-196585771D01*
X199287916Y-196585771D01*
X199145058Y-196514343D01*
X199073630Y-196442914D01*
X199002201Y-196300057D01*
X199002201Y-195871486D01*
X199073630Y-195728629D01*
X199145058Y-195657200D01*
X199287916Y-195585771D01*
X199573630Y-195585771D01*
X199716487Y-195657200D01*
X202216487Y-195585771D02*
X202216487Y-196585771D01*
X201859344Y-195014343D02*
X201502201Y-196085771D01*
X202430773Y-196085771D01*
X203002201Y-196442914D02*
X203073629Y-196514343D01*
X203002201Y-196585771D01*
X202930772Y-196514343D01*
X203002201Y-196442914D01*
X203002201Y-196585771D01*
X204002201Y-195085771D02*
X204145058Y-195085771D01*
X204287915Y-195157200D01*
X204359344Y-195228629D01*
X204430773Y-195371486D01*
X204502201Y-195657200D01*
X204502201Y-196014343D01*
X204430773Y-196300057D01*
X204359344Y-196442914D01*
X204287915Y-196514343D01*
X204145058Y-196585771D01*
X204002201Y-196585771D01*
X203859344Y-196514343D01*
X203787915Y-196442914D01*
X203716487Y-196300057D01*
X203645058Y-196014343D01*
X203645058Y-195657200D01*
X203716487Y-195371486D01*
X203787915Y-195228629D01*
X203859344Y-195157200D01*
X204002201Y-195085771D01*
X205145058Y-196442914D02*
X205216486Y-196514343D01*
X205145058Y-196585771D01*
X205073629Y-196514343D01*
X205145058Y-196442914D01*
X205145058Y-196585771D01*
X205716487Y-195085771D02*
X206716487Y-195085771D01*
X206073630Y-196585771D01*
D10*
D11*
X177002200Y-191507200D02*
X285002200Y-191507200D01*
D10*
D12*
X264216486Y-193785771D02*
X263716486Y-193071486D01*
X263359343Y-193785771D02*
X263359343Y-192285771D01*
X263930771Y-192285771D01*
X264073629Y-192357200D01*
X264145057Y-192428629D01*
X264216486Y-192571486D01*
X264216486Y-192785771D01*
X264145057Y-192928629D01*
X264073629Y-193000057D01*
X263930771Y-193071486D01*
X263359343Y-193071486D01*
X265430771Y-193714343D02*
X265287914Y-193785771D01*
X265002200Y-193785771D01*
X264859343Y-193714343D01*
X264787914Y-193571486D01*
X264787914Y-193000057D01*
X264859343Y-192857200D01*
X265002200Y-192785771D01*
X265287914Y-192785771D01*
X265430771Y-192857200D01*
X265502200Y-193000057D01*
X265502200Y-193142914D01*
X264787914Y-193285771D01*
X266002200Y-192785771D02*
X266359343Y-193785771D01*
X266716485Y-192785771D01*
X267287914Y-193642914D02*
X267359342Y-193714343D01*
X267287914Y-193785771D01*
X267216485Y-193714343D01*
X267287914Y-193642914D01*
X267287914Y-193785771D01*
X267287914Y-192857200D02*
X267359342Y-192928629D01*
X267287914Y-193000057D01*
X267216485Y-192928629D01*
X267287914Y-192857200D01*
X267287914Y-193000057D01*
X269930771Y-193785771D02*
X269073628Y-193785771D01*
X269502200Y-193785771D02*
X269502200Y-192285771D01*
X269359343Y-192500057D01*
X269216485Y-192642914D01*
X269073628Y-192714343D01*
X270573628Y-193642914D02*
X270645056Y-193714343D01*
X270573628Y-193785771D01*
X270502199Y-193714343D01*
X270573628Y-193642914D01*
X270573628Y-193785771D01*
X271573628Y-192285771D02*
X271716485Y-192285771D01*
X271859342Y-192357200D01*
X271930771Y-192428629D01*
X272002200Y-192571486D01*
X272073628Y-192857200D01*
X272073628Y-193214343D01*
X272002200Y-193500057D01*
X271930771Y-193642914D01*
X271859342Y-193714343D01*
X271716485Y-193785771D01*
X271573628Y-193785771D01*
X271430771Y-193714343D01*
X271359342Y-193642914D01*
X271287914Y-193500057D01*
X271216485Y-193214343D01*
X271216485Y-192857200D01*
X271287914Y-192571486D01*
X271359342Y-192428629D01*
X271430771Y-192357200D01*
X271573628Y-192285771D01*
D10*
D11*
X178287914Y-193714343D02*
X178502200Y-193785771D01*
X178859343Y-193785771D01*
X179002200Y-193714343D01*
X179073629Y-193642914D01*
X179145057Y-193500057D01*
X179145057Y-193357200D01*
X179073629Y-193214343D01*
X179002200Y-193142914D01*
X178859343Y-193071486D01*
X178573629Y-193000057D01*
X178430771Y-192928629D01*
X178359343Y-192857200D01*
X178287914Y-192714343D01*
X178287914Y-192571486D01*
X178359343Y-192428629D01*
X178430771Y-192357200D01*
X178573629Y-192285771D01*
X178930771Y-192285771D01*
X179145057Y-192357200D01*
X179787914Y-193785771D02*
X179787914Y-192785771D01*
X179787914Y-192285771D02*
X179716485Y-192357200D01*
X179787914Y-192428629D01*
X179859342Y-192357200D01*
X179787914Y-192285771D01*
X179787914Y-192428629D01*
X180359343Y-192785771D02*
X181145057Y-192785771D01*
X180359343Y-193785771D01*
X181145057Y-193785771D01*
X182287914Y-193714343D02*
X182145057Y-193785771D01*
X181859343Y-193785771D01*
X181716486Y-193714343D01*
X181645057Y-193571486D01*
X181645057Y-193000057D01*
X181716486Y-192857200D01*
X181859343Y-192785771D01*
X182145057Y-192785771D01*
X182287914Y-192857200D01*
X182359343Y-193000057D01*
X182359343Y-193142914D01*
X181645057Y-193285771D01*
X183002200Y-193642914D02*
X183073628Y-193714343D01*
X183002200Y-193785771D01*
X182930771Y-193714343D01*
X183002200Y-193642914D01*
X183002200Y-193785771D01*
X183002200Y-192857200D02*
X183073628Y-192928629D01*
X183002200Y-193000057D01*
X182930771Y-192928629D01*
X183002200Y-192857200D01*
X183002200Y-193000057D01*
X184787914Y-193357200D02*
X185502200Y-193357200D01*
X184645057Y-193785771D02*
X185145057Y-192285771D01*
X185645057Y-193785771D01*
X186787914Y-192785771D02*
X186787914Y-193785771D01*
X186430771Y-192214343D02*
X186073628Y-193285771D01*
X187002200Y-193285771D01*
D10*
D11*
X263359343Y-196585771D02*
X263359343Y-195085771D01*
X264716486Y-196585771D02*
X264716486Y-195085771D01*
X264716486Y-196514343D02*
X264573629Y-196585771D01*
X264287915Y-196585771D01*
X264145057Y-196514343D01*
X264073629Y-196442914D01*
X264002200Y-196300057D01*
X264002200Y-195871486D01*
X264073629Y-195728629D01*
X264145057Y-195657200D01*
X264287915Y-195585771D01*
X264573629Y-195585771D01*
X264716486Y-195657200D01*
X265430772Y-196442914D02*
X265502200Y-196514343D01*
X265430772Y-196585771D01*
X265359343Y-196514343D01*
X265430772Y-196442914D01*
X265430772Y-196585771D01*
X265430772Y-195657200D02*
X265502200Y-195728629D01*
X265430772Y-195800057D01*
X265359343Y-195728629D01*
X265430772Y-195657200D01*
X265430772Y-195800057D01*
X268073629Y-196585771D02*
X267216486Y-196585771D01*
X267645058Y-196585771D02*
X267645058Y-195085771D01*
X267502201Y-195300057D01*
X267359343Y-195442914D01*
X267216486Y-195514343D01*
X269787914Y-195014343D02*
X268502200Y-196942914D01*
X271073629Y-196585771D02*
X270216486Y-196585771D01*
X270645058Y-196585771D02*
X270645058Y-195085771D01*
X270502201Y-195300057D01*
X270359343Y-195442914D01*
X270216486Y-195514343D01*
D10*
D11*
X177002200Y-187507200D02*
X285002200Y-187507200D01*
D10*
D13*
X178454581Y-188211962D02*
X179597438Y-188211962D01*
X178776010Y-190211962D02*
X179026010Y-188211962D01*
X180014105Y-190211962D02*
X180180771Y-188878629D01*
X180264105Y-188211962D02*
X180156962Y-188307200D01*
X180240295Y-188402438D01*
X180347439Y-188307200D01*
X180264105Y-188211962D01*
X180240295Y-188402438D01*
X180847438Y-188878629D02*
X181609343Y-188878629D01*
X181216486Y-188211962D02*
X181002200Y-189926248D01*
X181073630Y-190116724D01*
X181252201Y-190211962D01*
X181442677Y-190211962D01*
X182395058Y-190211962D02*
X182216487Y-190116724D01*
X182145057Y-189926248D01*
X182359343Y-188211962D01*
X183930772Y-190116724D02*
X183728391Y-190211962D01*
X183347439Y-190211962D01*
X183168867Y-190116724D01*
X183097438Y-189926248D01*
X183192676Y-189164343D01*
X183311724Y-188973867D01*
X183514105Y-188878629D01*
X183895057Y-188878629D01*
X184073629Y-188973867D01*
X184145057Y-189164343D01*
X184121248Y-189354819D01*
X183145057Y-189545295D01*
X184895057Y-190021486D02*
X184978392Y-190116724D01*
X184871248Y-190211962D01*
X184787915Y-190116724D01*
X184895057Y-190021486D01*
X184871248Y-190211962D01*
X185026010Y-188973867D02*
X185109344Y-189069105D01*
X185002200Y-189164343D01*
X184918867Y-189069105D01*
X185026010Y-188973867D01*
X185002200Y-189164343D01*
X188371248Y-188878629D02*
X188168867Y-190497676D01*
X188049820Y-190688152D01*
X187942677Y-190783390D01*
X187740296Y-190878629D01*
X187454582Y-190878629D01*
X187276010Y-190783390D01*
X188216487Y-190116724D02*
X188014106Y-190211962D01*
X187633154Y-190211962D01*
X187454583Y-190116724D01*
X187371248Y-190021486D01*
X187299820Y-189831010D01*
X187371248Y-189259581D01*
X187490296Y-189069105D01*
X187597440Y-188973867D01*
X187799820Y-188878629D01*
X188180772Y-188878629D01*
X188359344Y-188973867D01*
X189442678Y-190211962D02*
X189264107Y-190116724D01*
X189180772Y-190021486D01*
X189109344Y-189831010D01*
X189180772Y-189259581D01*
X189299820Y-189069105D01*
X189406964Y-188973867D01*
X189609344Y-188878629D01*
X189895058Y-188878629D01*
X190073630Y-188973867D01*
X190156963Y-189069105D01*
X190228391Y-189259581D01*
X190156963Y-189831010D01*
X190037915Y-190021486D01*
X189930773Y-190116724D01*
X189728392Y-190211962D01*
X189442678Y-190211962D01*
X191990296Y-188878629D02*
X191787915Y-190497676D01*
X191668868Y-190688152D01*
X191561725Y-190783390D01*
X191359344Y-190878629D01*
X191073630Y-190878629D01*
X190895058Y-190783390D01*
X191835535Y-190116724D02*
X191633154Y-190211962D01*
X191252202Y-190211962D01*
X191073631Y-190116724D01*
X190990296Y-190021486D01*
X190918868Y-189831010D01*
X190990296Y-189259581D01*
X191109344Y-189069105D01*
X191216488Y-188973867D01*
X191418868Y-188878629D01*
X191799820Y-188878629D01*
X191978392Y-188973867D01*
X193799820Y-188878629D02*
X193597439Y-190497676D01*
X193478392Y-190688152D01*
X193371249Y-190783390D01*
X193168868Y-190878629D01*
X192883154Y-190878629D01*
X192704582Y-190783390D01*
X193645059Y-190116724D02*
X193442678Y-190211962D01*
X193061726Y-190211962D01*
X192883155Y-190116724D01*
X192799820Y-190021486D01*
X192728392Y-189831010D01*
X192799820Y-189259581D01*
X192918868Y-189069105D01*
X193026012Y-188973867D01*
X193228392Y-188878629D01*
X193609344Y-188878629D01*
X193787916Y-188973867D01*
X195442678Y-190211962D02*
X195573630Y-189164343D01*
X195502202Y-188973867D01*
X195323630Y-188878629D01*
X194942678Y-188878629D01*
X194740297Y-188973867D01*
X195454583Y-190116724D02*
X195252202Y-190211962D01*
X194776012Y-190211962D01*
X194597440Y-190116724D01*
X194526011Y-189926248D01*
X194549821Y-189735771D01*
X194668868Y-189545295D01*
X194871250Y-189450057D01*
X195347440Y-189450057D01*
X195549821Y-189354819D01*
X196395059Y-190211962D02*
X196645059Y-188211962D01*
X196549821Y-188973867D02*
X196752202Y-188878629D01*
X197133154Y-188878629D01*
X197311726Y-188973867D01*
X197395059Y-189069105D01*
X197466487Y-189259581D01*
X197395059Y-189831010D01*
X197276011Y-190021486D01*
X197168869Y-190116724D01*
X196966488Y-190211962D01*
X196585536Y-190211962D01*
X196406964Y-190116724D01*
X198490298Y-190211962D02*
X198311727Y-190116724D01*
X198228392Y-190021486D01*
X198156964Y-189831010D01*
X198228392Y-189259581D01*
X198347440Y-189069105D01*
X198454584Y-188973867D01*
X198656964Y-188878629D01*
X198942678Y-188878629D01*
X199121250Y-188973867D01*
X199204583Y-189069105D01*
X199276011Y-189259581D01*
X199204583Y-189831010D01*
X199085535Y-190021486D01*
X198978393Y-190116724D01*
X198776012Y-190211962D01*
X198490298Y-190211962D01*
X199895059Y-188878629D02*
X200656964Y-188878629D01*
X200264107Y-188211962D02*
X200049821Y-189926248D01*
X200121251Y-190116724D01*
X200299822Y-190211962D01*
X200490298Y-190211962D01*
X202597441Y-190116724D02*
X202871251Y-190211962D01*
X203347441Y-190211962D01*
X203549822Y-190116724D01*
X203656964Y-190021486D01*
X203776013Y-189831010D01*
X203799822Y-189640533D01*
X203728393Y-189450057D01*
X203645060Y-189354819D01*
X203466488Y-189259581D01*
X203097441Y-189164343D01*
X202918870Y-189069105D01*
X202835536Y-188973867D01*
X202764107Y-188783390D01*
X202787917Y-188592914D01*
X202906964Y-188402438D01*
X203014108Y-188307200D01*
X203216489Y-188211962D01*
X203692679Y-188211962D01*
X203966489Y-188307200D01*
X204585536Y-190211962D02*
X204835536Y-188211962D01*
X205323631Y-189640533D01*
X206168870Y-188211962D01*
X205918870Y-190211962D01*
X206871250Y-190211962D02*
X207121250Y-188211962D01*
X207597441Y-188211962D01*
X207871250Y-188307200D01*
X208037917Y-188497676D01*
X208109346Y-188688152D01*
X208156965Y-189069105D01*
X208121251Y-189354819D01*
X207978394Y-189735771D01*
X207859345Y-189926248D01*
X207645060Y-190116724D01*
X207347441Y-190211962D01*
X206871250Y-190211962D01*
D10*
D11*
X178859343Y-185600057D02*
X178359343Y-185600057D01*
X178359343Y-186385771D02*
X178359343Y-184885771D01*
X179073629Y-184885771D01*
X179645057Y-186385771D02*
X179645057Y-185385771D01*
X179645057Y-184885771D02*
X179573628Y-184957200D01*
X179645057Y-185028629D01*
X179716485Y-184957200D01*
X179645057Y-184885771D01*
X179645057Y-185028629D01*
X180573629Y-186385771D02*
X180430771Y-186314343D01*
X180359343Y-186171486D01*
X180359343Y-184885771D01*
X181716485Y-186314343D02*
X181573628Y-186385771D01*
X181287914Y-186385771D01*
X181145057Y-186314343D01*
X181073628Y-186171486D01*
X181073628Y-185600057D01*
X181145057Y-185457200D01*
X181287914Y-185385771D01*
X181573628Y-185385771D01*
X181716485Y-185457200D01*
X181787914Y-185600057D01*
X181787914Y-185742914D01*
X181073628Y-185885771D01*
X182430771Y-186242914D02*
X182502199Y-186314343D01*
X182430771Y-186385771D01*
X182359342Y-186314343D01*
X182430771Y-186242914D01*
X182430771Y-186385771D01*
X182430771Y-185457200D02*
X182502199Y-185528629D01*
X182430771Y-185600057D01*
X182359342Y-185528629D01*
X182430771Y-185457200D01*
X182430771Y-185600057D01*
X184930771Y-185385771D02*
X184930771Y-186600057D01*
X184859342Y-186742914D01*
X184787914Y-186814343D01*
X184645057Y-186885771D01*
X184430771Y-186885771D01*
X184287914Y-186814343D01*
X184930771Y-186314343D02*
X184787914Y-186385771D01*
X184502200Y-186385771D01*
X184359342Y-186314343D01*
X184287914Y-186242914D01*
X184216485Y-186100057D01*
X184216485Y-185671486D01*
X184287914Y-185528629D01*
X184359342Y-185457200D01*
X184502200Y-185385771D01*
X184787914Y-185385771D01*
X184930771Y-185457200D01*
X185859343Y-186385771D02*
X185716485Y-186314343D01*
X185645057Y-186242914D01*
X185573628Y-186100057D01*
X185573628Y-185671486D01*
X185645057Y-185528629D01*
X185716485Y-185457200D01*
X185859343Y-185385771D01*
X186073628Y-185385771D01*
X186216485Y-185457200D01*
X186287914Y-185528629D01*
X186359343Y-185671486D01*
X186359343Y-186100057D01*
X186287914Y-186242914D01*
X186216485Y-186314343D01*
X186073628Y-186385771D01*
X185859343Y-186385771D01*
X187645057Y-185385771D02*
X187645057Y-186600057D01*
X187573628Y-186742914D01*
X187502200Y-186814343D01*
X187359343Y-186885771D01*
X187145057Y-186885771D01*
X187002200Y-186814343D01*
X187645057Y-186314343D02*
X187502200Y-186385771D01*
X187216486Y-186385771D01*
X187073628Y-186314343D01*
X187002200Y-186242914D01*
X186930771Y-186100057D01*
X186930771Y-185671486D01*
X187002200Y-185528629D01*
X187073628Y-185457200D01*
X187216486Y-185385771D01*
X187502200Y-185385771D01*
X187645057Y-185457200D01*
X189002200Y-185385771D02*
X189002200Y-186600057D01*
X188930771Y-186742914D01*
X188859343Y-186814343D01*
X188716486Y-186885771D01*
X188502200Y-186885771D01*
X188359343Y-186814343D01*
X189002200Y-186314343D02*
X188859343Y-186385771D01*
X188573629Y-186385771D01*
X188430771Y-186314343D01*
X188359343Y-186242914D01*
X188287914Y-186100057D01*
X188287914Y-185671486D01*
X188359343Y-185528629D01*
X188430771Y-185457200D01*
X188573629Y-185385771D01*
X188859343Y-185385771D01*
X189002200Y-185457200D01*
X190359343Y-186385771D02*
X190359343Y-185600057D01*
X190287914Y-185457200D01*
X190145057Y-185385771D01*
X189859343Y-185385771D01*
X189716486Y-185457200D01*
X190359343Y-186314343D02*
X190216486Y-186385771D01*
X189859343Y-186385771D01*
X189716486Y-186314343D01*
X189645057Y-186171486D01*
X189645057Y-186028629D01*
X189716486Y-185885771D01*
X189859343Y-185814343D01*
X190216486Y-185814343D01*
X190359343Y-185742914D01*
X191073629Y-186385771D02*
X191073629Y-184885771D01*
X191073629Y-185457200D02*
X191216486Y-185385771D01*
X191502200Y-185385771D01*
X191645057Y-185457200D01*
X191716486Y-185528629D01*
X191787915Y-185671486D01*
X191787915Y-186100057D01*
X191716486Y-186242914D01*
X191645057Y-186314343D01*
X191502200Y-186385771D01*
X191216486Y-186385771D01*
X191073629Y-186314343D01*
X192645058Y-186385771D02*
X192502200Y-186314343D01*
X192430772Y-186242914D01*
X192359343Y-186100057D01*
X192359343Y-185671486D01*
X192430772Y-185528629D01*
X192502200Y-185457200D01*
X192645058Y-185385771D01*
X192859343Y-185385771D01*
X193002200Y-185457200D01*
X193073629Y-185528629D01*
X193145058Y-185671486D01*
X193145058Y-186100057D01*
X193073629Y-186242914D01*
X193002200Y-186314343D01*
X192859343Y-186385771D01*
X192645058Y-186385771D01*
X193573629Y-185385771D02*
X194145058Y-185385771D01*
X193787915Y-184885771D02*
X193787915Y-186171486D01*
X193859343Y-186314343D01*
X194002201Y-186385771D01*
X194145058Y-186385771D01*
X194645058Y-186242914D02*
X194716486Y-186314343D01*
X194645058Y-186385771D01*
X194573629Y-186314343D01*
X194645058Y-186242914D01*
X194645058Y-186385771D01*
X195359344Y-186385771D02*
X195359344Y-184885771D01*
X195502201Y-185814343D02*
X195930772Y-186385771D01*
X195930772Y-185385771D02*
X195359344Y-185957200D01*
X196573630Y-186385771D02*
X196573630Y-185385771D01*
X196573630Y-184885771D02*
X196502201Y-184957200D01*
X196573630Y-185028629D01*
X196645058Y-184957200D01*
X196573630Y-184885771D01*
X196573630Y-185028629D01*
X197930773Y-186314343D02*
X197787916Y-186385771D01*
X197502202Y-186385771D01*
X197359344Y-186314343D01*
X197287916Y-186242914D01*
X197216487Y-186100057D01*
X197216487Y-185671486D01*
X197287916Y-185528629D01*
X197359344Y-185457200D01*
X197502202Y-185385771D01*
X197787916Y-185385771D01*
X197930773Y-185457200D01*
X199216487Y-186385771D02*
X199216487Y-185600057D01*
X199145058Y-185457200D01*
X199002201Y-185385771D01*
X198716487Y-185385771D01*
X198573630Y-185457200D01*
X199216487Y-186314343D02*
X199073630Y-186385771D01*
X198716487Y-186385771D01*
X198573630Y-186314343D01*
X198502201Y-186171486D01*
X198502201Y-186028629D01*
X198573630Y-185885771D01*
X198716487Y-185814343D01*
X199073630Y-185814343D01*
X199216487Y-185742914D01*
X200573630Y-186385771D02*
X200573630Y-184885771D01*
X200573630Y-186314343D02*
X200430773Y-186385771D01*
X200145059Y-186385771D01*
X200002201Y-186314343D01*
X199930773Y-186242914D01*
X199859344Y-186100057D01*
X199859344Y-185671486D01*
X199930773Y-185528629D01*
X200002201Y-185457200D01*
X200145059Y-185385771D01*
X200430773Y-185385771D01*
X200573630Y-185457200D01*
X200930773Y-186528629D02*
X202073630Y-186528629D01*
X202430773Y-185385771D02*
X202430773Y-186885771D01*
X202430773Y-185457200D02*
X202573630Y-185385771D01*
X202859344Y-185385771D01*
X203002201Y-185457200D01*
X203073630Y-185528629D01*
X203145059Y-185671486D01*
X203145059Y-186100057D01*
X203073630Y-186242914D01*
X203002201Y-186314343D01*
X202859344Y-186385771D01*
X202573630Y-186385771D01*
X202430773Y-186314343D01*
X204430773Y-186314343D02*
X204287916Y-186385771D01*
X204002202Y-186385771D01*
X203859344Y-186314343D01*
X203787916Y-186242914D01*
X203716487Y-186100057D01*
X203716487Y-185671486D01*
X203787916Y-185528629D01*
X203859344Y-185457200D01*
X204002202Y-185385771D01*
X204287916Y-185385771D01*
X204430773Y-185457200D01*
X205073630Y-186385771D02*
X205073630Y-184885771D01*
X205073630Y-185457200D02*
X205216487Y-185385771D01*
X205502201Y-185385771D01*
X205645058Y-185457200D01*
X205716487Y-185528629D01*
X205787916Y-185671486D01*
X205787916Y-186100057D01*
X205716487Y-186242914D01*
X205645058Y-186314343D01*
X205502201Y-186385771D01*
X205216487Y-186385771D01*
X205073630Y-186314343D01*
D10*
D11*
X177002200Y-181507200D02*
X285002200Y-181507200D01*
D10*
D11*
X178287914Y-183614343D02*
X178502200Y-183685771D01*
X178859343Y-183685771D01*
X179002200Y-183614343D01*
X179073629Y-183542914D01*
X179145057Y-183400057D01*
X179145057Y-183257200D01*
X179073629Y-183114343D01*
X179002200Y-183042914D01*
X178859343Y-182971486D01*
X178573629Y-182900057D01*
X178430771Y-182828629D01*
X178359343Y-182757200D01*
X178287914Y-182614343D01*
X178287914Y-182471486D01*
X178359343Y-182328629D01*
X178430771Y-182257200D01*
X178573629Y-182185771D01*
X178930771Y-182185771D01*
X179145057Y-182257200D01*
X179787914Y-183685771D02*
X179787914Y-182185771D01*
X180430771Y-183685771D02*
X180430771Y-182900057D01*
X180359342Y-182757200D01*
X180216485Y-182685771D01*
X180002200Y-182685771D01*
X179859342Y-182757200D01*
X179787914Y-182828629D01*
X181716485Y-183614343D02*
X181573628Y-183685771D01*
X181287914Y-183685771D01*
X181145057Y-183614343D01*
X181073628Y-183471486D01*
X181073628Y-182900057D01*
X181145057Y-182757200D01*
X181287914Y-182685771D01*
X181573628Y-182685771D01*
X181716485Y-182757200D01*
X181787914Y-182900057D01*
X181787914Y-183042914D01*
X181073628Y-183185771D01*
X183002199Y-183614343D02*
X182859342Y-183685771D01*
X182573628Y-183685771D01*
X182430771Y-183614343D01*
X182359342Y-183471486D01*
X182359342Y-182900057D01*
X182430771Y-182757200D01*
X182573628Y-182685771D01*
X182859342Y-182685771D01*
X183002199Y-182757200D01*
X183073628Y-182900057D01*
X183073628Y-183042914D01*
X182359342Y-183185771D01*
X183502199Y-182685771D02*
X184073628Y-182685771D01*
X183716485Y-182185771D02*
X183716485Y-183471486D01*
X183787913Y-183614343D01*
X183930771Y-183685771D01*
X184073628Y-183685771D01*
X184573628Y-183542914D02*
X184645056Y-183614343D01*
X184573628Y-183685771D01*
X184502199Y-183614343D01*
X184573628Y-183542914D01*
X184573628Y-183685771D01*
X184573628Y-182757200D02*
X184645056Y-182828629D01*
X184573628Y-182900057D01*
X184502199Y-182828629D01*
X184573628Y-182757200D01*
X184573628Y-182900057D01*
D10*
D11*
X197002200Y-191507200D02*
X197002200Y-194507200D01*
D10*
D11*
X261002200Y-191507200D02*
X261002200Y-198007200D01*
D14*
G36*
X131893489Y-91019527D02*
X131960678Y-90974236D01*
X132066984Y-90901877D01*
X132209974Y-90804124D01*
X132387216Y-90682649D01*
X132596279Y-90539126D01*
X132834728Y-90375227D01*
X133100132Y-90192626D01*
X133390057Y-89992995D01*
X133702072Y-89778008D01*
X134033745Y-89549338D01*
X134382641Y-89308657D01*
X134746330Y-89057640D01*
X135122378Y-88797958D01*
X135216058Y-88733246D01*
X135662025Y-88425174D01*
X136066151Y-88146065D01*
X136430590Y-87894488D01*
X136757497Y-87669013D01*
X137049027Y-87468209D01*
X137307334Y-87290645D01*
X137534572Y-87134891D01*
X137732897Y-86999516D01*
X137904463Y-86883090D01*
X138051425Y-86784180D01*
X138175938Y-86701358D01*
X138280156Y-86633193D01*
X138366233Y-86578252D01*
X138436325Y-86535107D01*
X138492586Y-86502327D01*
X138537171Y-86478480D01*
X138572235Y-86462136D01*
X138599931Y-86451864D01*
X138622415Y-86446234D01*
X138641842Y-86443815D01*
X138660366Y-86443176D01*
X138665110Y-86443127D01*
X138709132Y-86441532D01*
X138803052Y-86437209D01*
X138943375Y-86430340D01*
X139126605Y-86421109D01*
X139349247Y-86409698D01*
X139607804Y-86396289D01*
X139898780Y-86381065D01*
X140218680Y-86364209D01*
X140564008Y-86345903D01*
X140931269Y-86326329D01*
X141316966Y-86305670D01*
X141717603Y-86284109D01*
X141929158Y-86272684D01*
X145057368Y-86103534D01*
X147922587Y-88010590D01*
X150787805Y-89917646D01*
X151271376Y-89756193D01*
X151421841Y-89705063D01*
X151553165Y-89658732D01*
X151657554Y-89620089D01*
X151727214Y-89592025D01*
X151754352Y-89577432D01*
X151754459Y-89577002D01*
X151732979Y-89558895D01*
X151670557Y-89511960D01*
X151569969Y-89438165D01*
X151433987Y-89339476D01*
X151265389Y-89217859D01*
X151066947Y-89075281D01*
X150841438Y-88913709D01*
X150591635Y-88735109D01*
X150320314Y-88541448D01*
X150030250Y-88334692D01*
X149724217Y-88116809D01*
X149404990Y-87889764D01*
X149075344Y-87655525D01*
X148738054Y-87416057D01*
X148395894Y-87173329D01*
X148051640Y-86929305D01*
X147708066Y-86685953D01*
X147367948Y-86445240D01*
X147034059Y-86209131D01*
X146709175Y-85979594D01*
X146396070Y-85758596D01*
X146097519Y-85548102D01*
X145816298Y-85350080D01*
X145555181Y-85166496D01*
X145316942Y-84999317D01*
X145104357Y-84850509D01*
X144920201Y-84722039D01*
X144767247Y-84615874D01*
X144648272Y-84533980D01*
X144566050Y-84478323D01*
X144523355Y-84450871D01*
X144517959Y-84448228D01*
X144485387Y-84450053D01*
X144402985Y-84456475D01*
X144274171Y-84467191D01*
X144102364Y-84481898D01*
X143890983Y-84500295D01*
X143643445Y-84522078D01*
X143363171Y-84546945D01*
X143053577Y-84574593D01*
X142718084Y-84604720D01*
X142360109Y-84637023D01*
X141983071Y-84671199D01*
X141590388Y-84706947D01*
X141447894Y-84719955D01*
X141050232Y-84756434D01*
X140666860Y-84791891D01*
X140301212Y-84825992D01*
X139956721Y-84858405D01*
X139636820Y-84888798D01*
X139344944Y-84916837D01*
X139084524Y-84942191D01*
X138858995Y-84964525D01*
X138671791Y-84983509D01*
X138526343Y-84998808D01*
X138426087Y-85010090D01*
X138374454Y-85017023D01*
X138368509Y-85018359D01*
X138339634Y-85037496D01*
X138271588Y-85087081D01*
X138166984Y-85165096D01*
X138028434Y-85269522D01*
X137858553Y-85398344D01*
X137659952Y-85549542D01*
X137435245Y-85721099D01*
X137187046Y-85910998D01*
X136917967Y-86117220D01*
X136630622Y-86337749D01*
X136327624Y-86570566D01*
X136011586Y-86813654D01*
X135685120Y-87064995D01*
X135350842Y-87322571D01*
X135011362Y-87584365D01*
X134669295Y-87848359D01*
X134327254Y-88112536D01*
X133987851Y-88374877D01*
X133653701Y-88633365D01*
X133327416Y-88885983D01*
X133011609Y-89130712D01*
X132708894Y-89365535D01*
X132421884Y-89588434D01*
X132153191Y-89797393D01*
X131905429Y-89990392D01*
X131681211Y-90165414D01*
X131483151Y-90320442D01*
X131313861Y-90453458D01*
X131175955Y-90562444D01*
X131072045Y-90645382D01*
X131004745Y-90700256D01*
X130976669Y-90725046D01*
X130976023Y-90726271D01*
X131011136Y-90745234D01*
X131085615Y-90776321D01*
X131189212Y-90815970D01*
X131311675Y-90860622D01*
X131442755Y-90906716D01*
X131572203Y-90950692D01*
X131689769Y-90988988D01*
X131785204Y-91018044D01*
X131848256Y-91034299D01*
X131867851Y-91036078D01*
X131893489Y-91019527D01*
X131893489Y-91019527D01*
G37*
X131893489Y-91019527D02*
X131960678Y-90974236D01*
X132066984Y-90901877D01*
X132209974Y-90804124D01*
X132387216Y-90682649D01*
X132596279Y-90539126D01*
X132834728Y-90375227D01*
X133100132Y-90192626D01*
X133390057Y-89992995D01*
X133702072Y-89778008D01*
X134033745Y-89549338D01*
X134382641Y-89308657D01*
X134746330Y-89057640D01*
X135122378Y-88797958D01*
X135216058Y-88733246D01*
X135662025Y-88425174D01*
X136066151Y-88146065D01*
X136430590Y-87894488D01*
X136757497Y-87669013D01*
X137049027Y-87468209D01*
X137307334Y-87290645D01*
X137534572Y-87134891D01*
X137732897Y-86999516D01*
X137904463Y-86883090D01*
X138051425Y-86784180D01*
X138175938Y-86701358D01*
X138280156Y-86633193D01*
X138366233Y-86578252D01*
X138436325Y-86535107D01*
X138492586Y-86502327D01*
X138537171Y-86478480D01*
X138572235Y-86462136D01*
X138599931Y-86451864D01*
X138622415Y-86446234D01*
X138641842Y-86443815D01*
X138660366Y-86443176D01*
X138665110Y-86443127D01*
X138709132Y-86441532D01*
X138803052Y-86437209D01*
X138943375Y-86430340D01*
X139126605Y-86421109D01*
X139349247Y-86409698D01*
X139607804Y-86396289D01*
X139898780Y-86381065D01*
X140218680Y-86364209D01*
X140564008Y-86345903D01*
X140931269Y-86326329D01*
X141316966Y-86305670D01*
X141717603Y-86284109D01*
X141929158Y-86272684D01*
X145057368Y-86103534D01*
X147922587Y-88010590D01*
X150787805Y-89917646D01*
X151271376Y-89756193D01*
X151421841Y-89705063D01*
X151553165Y-89658732D01*
X151657554Y-89620089D01*
X151727214Y-89592025D01*
X151754352Y-89577432D01*
X151754459Y-89577002D01*
X151732979Y-89558895D01*
X151670557Y-89511960D01*
X151569969Y-89438165D01*
X151433987Y-89339476D01*
X151265389Y-89217859D01*
X151066947Y-89075281D01*
X150841438Y-88913709D01*
X150591635Y-88735109D01*
X150320314Y-88541448D01*
X150030250Y-88334692D01*
X149724217Y-88116809D01*
X149404990Y-87889764D01*
X149075344Y-87655525D01*
X148738054Y-87416057D01*
X148395894Y-87173329D01*
X148051640Y-86929305D01*
X147708066Y-86685953D01*
X147367948Y-86445240D01*
X147034059Y-86209131D01*
X146709175Y-85979594D01*
X146396070Y-85758596D01*
X146097519Y-85548102D01*
X145816298Y-85350080D01*
X145555181Y-85166496D01*
X145316942Y-84999317D01*
X145104357Y-84850509D01*
X144920201Y-84722039D01*
X144767247Y-84615874D01*
X144648272Y-84533980D01*
X144566050Y-84478323D01*
X144523355Y-84450871D01*
X144517959Y-84448228D01*
X144485387Y-84450053D01*
X144402985Y-84456475D01*
X144274171Y-84467191D01*
X144102364Y-84481898D01*
X143890983Y-84500295D01*
X143643445Y-84522078D01*
X143363171Y-84546945D01*
X143053577Y-84574593D01*
X142718084Y-84604720D01*
X142360109Y-84637023D01*
X141983071Y-84671199D01*
X141590388Y-84706947D01*
X141447894Y-84719955D01*
X141050232Y-84756434D01*
X140666860Y-84791891D01*
X140301212Y-84825992D01*
X139956721Y-84858405D01*
X139636820Y-84888798D01*
X139344944Y-84916837D01*
X139084524Y-84942191D01*
X138858995Y-84964525D01*
X138671791Y-84983509D01*
X138526343Y-84998808D01*
X138426087Y-85010090D01*
X138374454Y-85017023D01*
X138368509Y-85018359D01*
X138339634Y-85037496D01*
X138271588Y-85087081D01*
X138166984Y-85165096D01*
X138028434Y-85269522D01*
X137858553Y-85398344D01*
X137659952Y-85549542D01*
X137435245Y-85721099D01*
X137187046Y-85910998D01*
X136917967Y-86117220D01*
X136630622Y-86337749D01*
X136327624Y-86570566D01*
X136011586Y-86813654D01*
X135685120Y-87064995D01*
X135350842Y-87322571D01*
X135011362Y-87584365D01*
X134669295Y-87848359D01*
X134327254Y-88112536D01*
X133987851Y-88374877D01*
X133653701Y-88633365D01*
X133327416Y-88885983D01*
X133011609Y-89130712D01*
X132708894Y-89365535D01*
X132421884Y-89588434D01*
X132153191Y-89797393D01*
X131905429Y-89990392D01*
X131681211Y-90165414D01*
X131483151Y-90320442D01*
X131313861Y-90453458D01*
X131175955Y-90562444D01*
X131072045Y-90645382D01*
X131004745Y-90700256D01*
X130976669Y-90725046D01*
X130976023Y-90726271D01*
X131011136Y-90745234D01*
X131085615Y-90776321D01*
X131189212Y-90815970D01*
X131311675Y-90860622D01*
X131442755Y-90906716D01*
X131572203Y-90950692D01*
X131689769Y-90988988D01*
X131785204Y-91018044D01*
X131848256Y-91034299D01*
X131867851Y-91036078D01*
X131893489Y-91019527D01*
G36*
X169786294Y-93483593D02*
X169700274Y-93413847D01*
X169579301Y-93316072D01*
X169425907Y-93192302D01*
X169242625Y-93044572D01*
X169031988Y-92874915D01*
X168796529Y-92685366D01*
X168538780Y-92477959D01*
X168261274Y-92254728D01*
X167966544Y-92017707D01*
X167657123Y-91768931D01*
X167335543Y-91510433D01*
X167004337Y-91244247D01*
X166666038Y-90972409D01*
X166323179Y-90696951D01*
X165978292Y-90419909D01*
X165633910Y-90143316D01*
X165292567Y-89869206D01*
X164956793Y-89599614D01*
X164629124Y-89336574D01*
X164312090Y-89082120D01*
X164008225Y-88838286D01*
X163720062Y-88607106D01*
X163450133Y-88390615D01*
X163200972Y-88190846D01*
X162975110Y-88009834D01*
X162775081Y-87849613D01*
X162603417Y-87712217D01*
X162462652Y-87599681D01*
X162355317Y-87514037D01*
X162283946Y-87457321D01*
X162251072Y-87431567D01*
X162249158Y-87430201D01*
X162220904Y-87435725D01*
X162143802Y-87454790D01*
X162020536Y-87486670D01*
X161853791Y-87530637D01*
X161646253Y-87585963D01*
X161400606Y-87651920D01*
X161119537Y-87727781D01*
X160805730Y-87812817D01*
X160461871Y-87906301D01*
X160090645Y-88007506D01*
X159694736Y-88115704D01*
X159276832Y-88230166D01*
X158839616Y-88350166D01*
X158385774Y-88474975D01*
X157917992Y-88603866D01*
X157899162Y-88609060D01*
X157430962Y-88738269D01*
X156976711Y-88863766D01*
X156539086Y-88984805D01*
X156120766Y-89100640D01*
X155724431Y-89210525D01*
X155352758Y-89313714D01*
X155008427Y-89409459D01*
X154694115Y-89497016D01*
X154412501Y-89575638D01*
X154166265Y-89644578D01*
X153958085Y-89703091D01*
X153790638Y-89750430D01*
X153666605Y-89785849D01*
X153588663Y-89808602D01*
X153559491Y-89817943D01*
X153559376Y-89818027D01*
X153574827Y-89837689D01*
X153627934Y-89881984D01*
X153711941Y-89945758D01*
X153820093Y-90023860D01*
X153925468Y-90097321D01*
X154308087Y-90360087D01*
X161858099Y-90475099D01*
X168318421Y-93684589D01*
X169198083Y-93702597D01*
X170077746Y-93720605D01*
X169786294Y-93483593D01*
X169786294Y-93483593D01*
G37*
X169786294Y-93483593D02*
X169700274Y-93413847D01*
X169579301Y-93316072D01*
X169425907Y-93192302D01*
X169242625Y-93044572D01*
X169031988Y-92874915D01*
X168796529Y-92685366D01*
X168538780Y-92477959D01*
X168261274Y-92254728D01*
X167966544Y-92017707D01*
X167657123Y-91768931D01*
X167335543Y-91510433D01*
X167004337Y-91244247D01*
X166666038Y-90972409D01*
X166323179Y-90696951D01*
X165978292Y-90419909D01*
X165633910Y-90143316D01*
X165292567Y-89869206D01*
X164956793Y-89599614D01*
X164629124Y-89336574D01*
X164312090Y-89082120D01*
X164008225Y-88838286D01*
X163720062Y-88607106D01*
X163450133Y-88390615D01*
X163200972Y-88190846D01*
X162975110Y-88009834D01*
X162775081Y-87849613D01*
X162603417Y-87712217D01*
X162462652Y-87599681D01*
X162355317Y-87514037D01*
X162283946Y-87457321D01*
X162251072Y-87431567D01*
X162249158Y-87430201D01*
X162220904Y-87435725D01*
X162143802Y-87454790D01*
X162020536Y-87486670D01*
X161853791Y-87530637D01*
X161646253Y-87585963D01*
X161400606Y-87651920D01*
X161119537Y-87727781D01*
X160805730Y-87812817D01*
X160461871Y-87906301D01*
X160090645Y-88007506D01*
X159694736Y-88115704D01*
X159276832Y-88230166D01*
X158839616Y-88350166D01*
X158385774Y-88474975D01*
X157917992Y-88603866D01*
X157899162Y-88609060D01*
X157430962Y-88738269D01*
X156976711Y-88863766D01*
X156539086Y-88984805D01*
X156120766Y-89100640D01*
X155724431Y-89210525D01*
X155352758Y-89313714D01*
X155008427Y-89409459D01*
X154694115Y-89497016D01*
X154412501Y-89575638D01*
X154166265Y-89644578D01*
X153958085Y-89703091D01*
X153790638Y-89750430D01*
X153666605Y-89785849D01*
X153588663Y-89808602D01*
X153559491Y-89817943D01*
X153559376Y-89818027D01*
X153574827Y-89837689D01*
X153627934Y-89881984D01*
X153711941Y-89945758D01*
X153820093Y-90023860D01*
X153925468Y-90097321D01*
X154308087Y-90360087D01*
X161858099Y-90475099D01*
X168318421Y-93684589D01*
X169198083Y-93702597D01*
X170077746Y-93720605D01*
X169786294Y-93483593D01*
G36*
X117391421Y-97030807D02*
X117919473Y-97029403D01*
X120391401Y-93956070D01*
X120676718Y-93601570D01*
X120953089Y-93258641D01*
X121218642Y-92929582D01*
X121471508Y-92616694D01*
X121709816Y-92322276D01*
X121931694Y-92048628D01*
X122135272Y-91798049D01*
X122318679Y-91572840D01*
X122480044Y-91375300D01*
X122617497Y-91207729D01*
X122729167Y-91072427D01*
X122813182Y-90971694D01*
X122867673Y-90907829D01*
X122890769Y-90883133D01*
X122891296Y-90882905D01*
X122920909Y-90887761D01*
X122999555Y-90901847D01*
X123123716Y-90924507D01*
X123289872Y-90955089D01*
X123494505Y-90992938D01*
X123734096Y-91037402D01*
X124005125Y-91087826D01*
X124304074Y-91143557D01*
X124627424Y-91203941D01*
X124971656Y-91268324D01*
X125333250Y-91336052D01*
X125618567Y-91389559D01*
X125990976Y-91459180D01*
X126348711Y-91525557D01*
X126688254Y-91588066D01*
X127006088Y-91646082D01*
X127298695Y-91698978D01*
X127562559Y-91746130D01*
X127794163Y-91786912D01*
X127989990Y-91820699D01*
X128146522Y-91846867D01*
X128260243Y-91864789D01*
X128327636Y-91873840D01*
X128345725Y-91874388D01*
X128373594Y-91852762D01*
X128437866Y-91802913D01*
X128532684Y-91729381D01*
X128652192Y-91636707D01*
X128790532Y-91529434D01*
X128935052Y-91417374D01*
X129084849Y-91301192D01*
X129220419Y-91195981D01*
X129336127Y-91106122D01*
X129426338Y-91035991D01*
X129485417Y-90989967D01*
X129507666Y-90972482D01*
X129505015Y-90949173D01*
X129504439Y-90948579D01*
X129478863Y-90937971D01*
X129406736Y-90909388D01*
X129291390Y-90864119D01*
X129136158Y-90803454D01*
X128944370Y-90728684D01*
X128719359Y-90641098D01*
X128464457Y-90541988D01*
X128182995Y-90432642D01*
X127878305Y-90314351D01*
X127553719Y-90188405D01*
X127212569Y-90056095D01*
X126858187Y-89918709D01*
X126493904Y-89777539D01*
X126123053Y-89633874D01*
X125748965Y-89489005D01*
X125374972Y-89344221D01*
X125004406Y-89200813D01*
X124640599Y-89060070D01*
X124286883Y-88923284D01*
X123946589Y-88791743D01*
X123623049Y-88666738D01*
X123319595Y-88549560D01*
X123039560Y-88441497D01*
X122786274Y-88343841D01*
X122563070Y-88257881D01*
X122373280Y-88184908D01*
X122220234Y-88126211D01*
X122107266Y-88083081D01*
X122037707Y-88056807D01*
X122014897Y-88048632D01*
X122001177Y-88071440D01*
X121962099Y-88138378D01*
X121898951Y-88247210D01*
X121813021Y-88395703D01*
X121705595Y-88581623D01*
X121577962Y-88802736D01*
X121431409Y-89056808D01*
X121267223Y-89341605D01*
X121086693Y-89654894D01*
X120891104Y-89994440D01*
X120681746Y-90358010D01*
X120459905Y-90743370D01*
X120226868Y-91148286D01*
X119983924Y-91570523D01*
X119732360Y-92007849D01*
X119473464Y-92458029D01*
X119436137Y-92522942D01*
X119176266Y-92974974D01*
X118923608Y-93414634D01*
X118679448Y-93839679D01*
X118445071Y-94247864D01*
X118221764Y-94636944D01*
X118010812Y-95004676D01*
X117813501Y-95348814D01*
X117631115Y-95667115D01*
X117464940Y-95957334D01*
X117316263Y-96217226D01*
X117186368Y-96444548D01*
X117076540Y-96637055D01*
X116988067Y-96792503D01*
X116922232Y-96908646D01*
X116880322Y-96983242D01*
X116863621Y-97014045D01*
X116863368Y-97014731D01*
X116888761Y-97020008D01*
X116959571Y-97024504D01*
X117067744Y-97027974D01*
X117205227Y-97030173D01*
X117363964Y-97030856D01*
X117391421Y-97030807D01*
X117391421Y-97030807D01*
G37*
X117391421Y-97030807D02*
X117919473Y-97029403D01*
X120391401Y-93956070D01*
X120676718Y-93601570D01*
X120953089Y-93258641D01*
X121218642Y-92929582D01*
X121471508Y-92616694D01*
X121709816Y-92322276D01*
X121931694Y-92048628D01*
X122135272Y-91798049D01*
X122318679Y-91572840D01*
X122480044Y-91375300D01*
X122617497Y-91207729D01*
X122729167Y-91072427D01*
X122813182Y-90971694D01*
X122867673Y-90907829D01*
X122890769Y-90883133D01*
X122891296Y-90882905D01*
X122920909Y-90887761D01*
X122999555Y-90901847D01*
X123123716Y-90924507D01*
X123289872Y-90955089D01*
X123494505Y-90992938D01*
X123734096Y-91037402D01*
X124005125Y-91087826D01*
X124304074Y-91143557D01*
X124627424Y-91203941D01*
X124971656Y-91268324D01*
X125333250Y-91336052D01*
X125618567Y-91389559D01*
X125990976Y-91459180D01*
X126348711Y-91525557D01*
X126688254Y-91588066D01*
X127006088Y-91646082D01*
X127298695Y-91698978D01*
X127562559Y-91746130D01*
X127794163Y-91786912D01*
X127989990Y-91820699D01*
X128146522Y-91846867D01*
X128260243Y-91864789D01*
X128327636Y-91873840D01*
X128345725Y-91874388D01*
X128373594Y-91852762D01*
X128437866Y-91802913D01*
X128532684Y-91729381D01*
X128652192Y-91636707D01*
X128790532Y-91529434D01*
X128935052Y-91417374D01*
X129084849Y-91301192D01*
X129220419Y-91195981D01*
X129336127Y-91106122D01*
X129426338Y-91035991D01*
X129485417Y-90989967D01*
X129507666Y-90972482D01*
X129505015Y-90949173D01*
X129504439Y-90948579D01*
X129478863Y-90937971D01*
X129406736Y-90909388D01*
X129291390Y-90864119D01*
X129136158Y-90803454D01*
X128944370Y-90728684D01*
X128719359Y-90641098D01*
X128464457Y-90541988D01*
X128182995Y-90432642D01*
X127878305Y-90314351D01*
X127553719Y-90188405D01*
X127212569Y-90056095D01*
X126858187Y-89918709D01*
X126493904Y-89777539D01*
X126123053Y-89633874D01*
X125748965Y-89489005D01*
X125374972Y-89344221D01*
X125004406Y-89200813D01*
X124640599Y-89060070D01*
X124286883Y-88923284D01*
X123946589Y-88791743D01*
X123623049Y-88666738D01*
X123319595Y-88549560D01*
X123039560Y-88441497D01*
X122786274Y-88343841D01*
X122563070Y-88257881D01*
X122373280Y-88184908D01*
X122220234Y-88126211D01*
X122107266Y-88083081D01*
X122037707Y-88056807D01*
X122014897Y-88048632D01*
X122001177Y-88071440D01*
X121962099Y-88138378D01*
X121898951Y-88247210D01*
X121813021Y-88395703D01*
X121705595Y-88581623D01*
X121577962Y-88802736D01*
X121431409Y-89056808D01*
X121267223Y-89341605D01*
X121086693Y-89654894D01*
X120891104Y-89994440D01*
X120681746Y-90358010D01*
X120459905Y-90743370D01*
X120226868Y-91148286D01*
X119983924Y-91570523D01*
X119732360Y-92007849D01*
X119473464Y-92458029D01*
X119436137Y-92522942D01*
X119176266Y-92974974D01*
X118923608Y-93414634D01*
X118679448Y-93839679D01*
X118445071Y-94247864D01*
X118221764Y-94636944D01*
X118010812Y-95004676D01*
X117813501Y-95348814D01*
X117631115Y-95667115D01*
X117464940Y-95957334D01*
X117316263Y-96217226D01*
X117186368Y-96444548D01*
X117076540Y-96637055D01*
X116988067Y-96792503D01*
X116922232Y-96908646D01*
X116880322Y-96983242D01*
X116863621Y-97014045D01*
X116863368Y-97014731D01*
X116888761Y-97020008D01*
X116959571Y-97024504D01*
X117067744Y-97027974D01*
X117205227Y-97030173D01*
X117363964Y-97030856D01*
X117391421Y-97030807D01*
G36*
X122046279Y-111936896D02*
X122120008Y-111910325D01*
X122236900Y-111866980D01*
X122393611Y-111808150D01*
X122586797Y-111735124D01*
X122813115Y-111649190D01*
X123069222Y-111551638D01*
X123351775Y-111443755D01*
X123657429Y-111326830D01*
X123982841Y-111202152D01*
X124324668Y-111071010D01*
X124679566Y-110934692D01*
X125044192Y-110794488D01*
X125415202Y-110651685D01*
X125789252Y-110507572D01*
X126163001Y-110363438D01*
X126533102Y-110220571D01*
X126896215Y-110080261D01*
X127248994Y-109943796D01*
X127588096Y-109812465D01*
X127910179Y-109687555D01*
X128211897Y-109570357D01*
X128489909Y-109462158D01*
X128740870Y-109364248D01*
X128961437Y-109277914D01*
X129148267Y-109204446D01*
X129298015Y-109145132D01*
X129407339Y-109101261D01*
X129472895Y-109074121D01*
X129491600Y-109065304D01*
X129477756Y-109043886D01*
X129427272Y-108995738D01*
X129346558Y-108925849D01*
X129242024Y-108839206D01*
X129120079Y-108740799D01*
X128987134Y-108635617D01*
X128849598Y-108528648D01*
X128713883Y-108424882D01*
X128586397Y-108329306D01*
X128473550Y-108246909D01*
X128381754Y-108182681D01*
X128317417Y-108141610D01*
X128287991Y-108128565D01*
X128255544Y-108133489D01*
X128174110Y-108147664D01*
X128047253Y-108170430D01*
X127878532Y-108201131D01*
X127671512Y-108239107D01*
X127429753Y-108283702D01*
X127156816Y-108334257D01*
X126856265Y-108390113D01*
X126531660Y-108450613D01*
X126186563Y-108515099D01*
X125824536Y-108582913D01*
X125552842Y-108633909D01*
X125181865Y-108703557D01*
X124826005Y-108770283D01*
X124488745Y-108833439D01*
X124173567Y-108892376D01*
X123883955Y-108946447D01*
X123623389Y-108995003D01*
X123395354Y-109037395D01*
X123203333Y-109072975D01*
X123050806Y-109101094D01*
X122941258Y-109121104D01*
X122878171Y-109132357D01*
X122863441Y-109134660D01*
X122846712Y-109113743D01*
X122798303Y-109053464D01*
X122720064Y-108956121D01*
X122613842Y-108824009D01*
X122481483Y-108659426D01*
X122324836Y-108464668D01*
X122145748Y-108242031D01*
X121946067Y-107993814D01*
X121727640Y-107722311D01*
X121492315Y-107429821D01*
X121241939Y-107118640D01*
X120978361Y-106791064D01*
X120703427Y-106449391D01*
X120418985Y-106095916D01*
X120381400Y-106049210D01*
X117901706Y-102967789D01*
X117382537Y-102967789D01*
X117220719Y-102968962D01*
X117080007Y-102972237D01*
X116968309Y-102977250D01*
X116893535Y-102983634D01*
X116863594Y-102991026D01*
X116863368Y-102991745D01*
X116876476Y-103017884D01*
X116914753Y-103087527D01*
X116976627Y-103197943D01*
X117060523Y-103346402D01*
X117164871Y-103530173D01*
X117288098Y-103746525D01*
X117428631Y-103992728D01*
X117584899Y-104266049D01*
X117755327Y-104563760D01*
X117938345Y-104883128D01*
X118132380Y-105221423D01*
X118335858Y-105575915D01*
X118547209Y-105943873D01*
X118764858Y-106322565D01*
X118987235Y-106709261D01*
X119212766Y-107101230D01*
X119439880Y-107495742D01*
X119667002Y-107890066D01*
X119892562Y-108281471D01*
X120114987Y-108667225D01*
X120332704Y-109044599D01*
X120544141Y-109410862D01*
X120747726Y-109763282D01*
X120941885Y-110099130D01*
X121125047Y-110415674D01*
X121295639Y-110710183D01*
X121452089Y-110979927D01*
X121592824Y-111222175D01*
X121716272Y-111434196D01*
X121820860Y-111613259D01*
X121905017Y-111756634D01*
X121967169Y-111861589D01*
X122005743Y-111925395D01*
X122019056Y-111945405D01*
X122046279Y-111936896D01*
X122046279Y-111936896D01*
G37*
X122046279Y-111936896D02*
X122120008Y-111910325D01*
X122236900Y-111866980D01*
X122393611Y-111808150D01*
X122586797Y-111735124D01*
X122813115Y-111649190D01*
X123069222Y-111551638D01*
X123351775Y-111443755D01*
X123657429Y-111326830D01*
X123982841Y-111202152D01*
X124324668Y-111071010D01*
X124679566Y-110934692D01*
X125044192Y-110794488D01*
X125415202Y-110651685D01*
X125789252Y-110507572D01*
X126163001Y-110363438D01*
X126533102Y-110220571D01*
X126896215Y-110080261D01*
X127248994Y-109943796D01*
X127588096Y-109812465D01*
X127910179Y-109687555D01*
X128211897Y-109570357D01*
X128489909Y-109462158D01*
X128740870Y-109364248D01*
X128961437Y-109277914D01*
X129148267Y-109204446D01*
X129298015Y-109145132D01*
X129407339Y-109101261D01*
X129472895Y-109074121D01*
X129491600Y-109065304D01*
X129477756Y-109043886D01*
X129427272Y-108995738D01*
X129346558Y-108925849D01*
X129242024Y-108839206D01*
X129120079Y-108740799D01*
X128987134Y-108635617D01*
X128849598Y-108528648D01*
X128713883Y-108424882D01*
X128586397Y-108329306D01*
X128473550Y-108246909D01*
X128381754Y-108182681D01*
X128317417Y-108141610D01*
X128287991Y-108128565D01*
X128255544Y-108133489D01*
X128174110Y-108147664D01*
X128047253Y-108170430D01*
X127878532Y-108201131D01*
X127671512Y-108239107D01*
X127429753Y-108283702D01*
X127156816Y-108334257D01*
X126856265Y-108390113D01*
X126531660Y-108450613D01*
X126186563Y-108515099D01*
X125824536Y-108582913D01*
X125552842Y-108633909D01*
X125181865Y-108703557D01*
X124826005Y-108770283D01*
X124488745Y-108833439D01*
X124173567Y-108892376D01*
X123883955Y-108946447D01*
X123623389Y-108995003D01*
X123395354Y-109037395D01*
X123203333Y-109072975D01*
X123050806Y-109101094D01*
X122941258Y-109121104D01*
X122878171Y-109132357D01*
X122863441Y-109134660D01*
X122846712Y-109113743D01*
X122798303Y-109053464D01*
X122720064Y-108956121D01*
X122613842Y-108824009D01*
X122481483Y-108659426D01*
X122324836Y-108464668D01*
X122145748Y-108242031D01*
X121946067Y-107993814D01*
X121727640Y-107722311D01*
X121492315Y-107429821D01*
X121241939Y-107118640D01*
X120978361Y-106791064D01*
X120703427Y-106449391D01*
X120418985Y-106095916D01*
X120381400Y-106049210D01*
X117901706Y-102967789D01*
X117382537Y-102967789D01*
X117220719Y-102968962D01*
X117080007Y-102972237D01*
X116968309Y-102977250D01*
X116893535Y-102983634D01*
X116863594Y-102991026D01*
X116863368Y-102991745D01*
X116876476Y-103017884D01*
X116914753Y-103087527D01*
X116976627Y-103197943D01*
X117060523Y-103346402D01*
X117164871Y-103530173D01*
X117288098Y-103746525D01*
X117428631Y-103992728D01*
X117584899Y-104266049D01*
X117755327Y-104563760D01*
X117938345Y-104883128D01*
X118132380Y-105221423D01*
X118335858Y-105575915D01*
X118547209Y-105943873D01*
X118764858Y-106322565D01*
X118987235Y-106709261D01*
X119212766Y-107101230D01*
X119439880Y-107495742D01*
X119667002Y-107890066D01*
X119892562Y-108281471D01*
X120114987Y-108667225D01*
X120332704Y-109044599D01*
X120544141Y-109410862D01*
X120747726Y-109763282D01*
X120941885Y-110099130D01*
X121125047Y-110415674D01*
X121295639Y-110710183D01*
X121452089Y-110979927D01*
X121592824Y-111222175D01*
X121716272Y-111434196D01*
X121820860Y-111613259D01*
X121905017Y-111756634D01*
X121967169Y-111861589D01*
X122005743Y-111925395D01*
X122019056Y-111945405D01*
X122046279Y-111936896D01*
G36*
X162330242Y-112524197D02*
X162426146Y-112447403D01*
X162556424Y-112342934D01*
X162718573Y-112212805D01*
X162910090Y-112059029D01*
X163128474Y-111883618D01*
X163371221Y-111688586D01*
X163635829Y-111475946D01*
X163919795Y-111247711D01*
X164220617Y-111005893D01*
X164535792Y-110752507D01*
X164862817Y-110489564D01*
X165199190Y-110219079D01*
X165542409Y-109943064D01*
X165889969Y-109663532D01*
X166239370Y-109382496D01*
X166588108Y-109101969D01*
X166933681Y-108823965D01*
X167273585Y-108550496D01*
X167605320Y-108283576D01*
X167926381Y-108025218D01*
X168234266Y-107777434D01*
X168526473Y-107542237D01*
X168800500Y-107321642D01*
X169053842Y-107117660D01*
X169283999Y-106932305D01*
X169488466Y-106767590D01*
X169664742Y-106625528D01*
X169810324Y-106508132D01*
X169922710Y-106417415D01*
X169999396Y-106355391D01*
X170037880Y-106324071D01*
X170041992Y-106320616D01*
X170058315Y-106298725D01*
X170041685Y-106288345D01*
X169983567Y-106286440D01*
X169948413Y-106287319D01*
X169887076Y-106289197D01*
X169780637Y-106292406D01*
X169637443Y-106296696D01*
X169465842Y-106301819D01*
X169274183Y-106307524D01*
X169070812Y-106313562D01*
X169053684Y-106314070D01*
X168291684Y-106336658D01*
X165069894Y-107937827D01*
X161848105Y-109538996D01*
X158866947Y-109582308D01*
X158453069Y-109588374D01*
X158041331Y-109594510D01*
X157636442Y-109600640D01*
X157243112Y-109606690D01*
X156866049Y-109612582D01*
X156509963Y-109618243D01*
X156179564Y-109623596D01*
X155879560Y-109628566D01*
X155614662Y-109633077D01*
X155389578Y-109637055D01*
X155209018Y-109640423D01*
X155088550Y-109642869D01*
X154291311Y-109660116D01*
X153919464Y-109916742D01*
X153796804Y-110002190D01*
X153691116Y-110077332D01*
X153609625Y-110136908D01*
X153559557Y-110175656D01*
X153546966Y-110187967D01*
X153572106Y-110197837D01*
X153645635Y-110220731D01*
X153764313Y-110255765D01*
X153924896Y-110302051D01*
X154124142Y-110358704D01*
X154358809Y-110424839D01*
X154625655Y-110499569D01*
X154921436Y-110582009D01*
X155242910Y-110671274D01*
X155586836Y-110766476D01*
X155949970Y-110866731D01*
X156329071Y-110971153D01*
X156720895Y-111078856D01*
X157122201Y-111188954D01*
X157529745Y-111300561D01*
X157940287Y-111412792D01*
X158350582Y-111524761D01*
X158757389Y-111635581D01*
X159157466Y-111744369D01*
X159547570Y-111850236D01*
X159924458Y-111952298D01*
X160284888Y-112049670D01*
X160625618Y-112141464D01*
X160943406Y-112226796D01*
X161235008Y-112304779D01*
X161497183Y-112374528D01*
X161726688Y-112435158D01*
X161920281Y-112485781D01*
X162074719Y-112525513D01*
X162186760Y-112553468D01*
X162253161Y-112568760D01*
X162271215Y-112571306D01*
X162330242Y-112524197D01*
X162330242Y-112524197D01*
G37*
X162330242Y-112524197D02*
X162426146Y-112447403D01*
X162556424Y-112342934D01*
X162718573Y-112212805D01*
X162910090Y-112059029D01*
X163128474Y-111883618D01*
X163371221Y-111688586D01*
X163635829Y-111475946D01*
X163919795Y-111247711D01*
X164220617Y-111005893D01*
X164535792Y-110752507D01*
X164862817Y-110489564D01*
X165199190Y-110219079D01*
X165542409Y-109943064D01*
X165889969Y-109663532D01*
X166239370Y-109382496D01*
X166588108Y-109101969D01*
X166933681Y-108823965D01*
X167273585Y-108550496D01*
X167605320Y-108283576D01*
X167926381Y-108025218D01*
X168234266Y-107777434D01*
X168526473Y-107542237D01*
X168800500Y-107321642D01*
X169053842Y-107117660D01*
X169283999Y-106932305D01*
X169488466Y-106767590D01*
X169664742Y-106625528D01*
X169810324Y-106508132D01*
X169922710Y-106417415D01*
X169999396Y-106355391D01*
X170037880Y-106324071D01*
X170041992Y-106320616D01*
X170058315Y-106298725D01*
X170041685Y-106288345D01*
X169983567Y-106286440D01*
X169948413Y-106287319D01*
X169887076Y-106289197D01*
X169780637Y-106292406D01*
X169637443Y-106296696D01*
X169465842Y-106301819D01*
X169274183Y-106307524D01*
X169070812Y-106313562D01*
X169053684Y-106314070D01*
X168291684Y-106336658D01*
X165069894Y-107937827D01*
X161848105Y-109538996D01*
X158866947Y-109582308D01*
X158453069Y-109588374D01*
X158041331Y-109594510D01*
X157636442Y-109600640D01*
X157243112Y-109606690D01*
X156866049Y-109612582D01*
X156509963Y-109618243D01*
X156179564Y-109623596D01*
X155879560Y-109628566D01*
X155614662Y-109633077D01*
X155389578Y-109637055D01*
X155209018Y-109640423D01*
X155088550Y-109642869D01*
X154291311Y-109660116D01*
X153919464Y-109916742D01*
X153796804Y-110002190D01*
X153691116Y-110077332D01*
X153609625Y-110136908D01*
X153559557Y-110175656D01*
X153546966Y-110187967D01*
X153572106Y-110197837D01*
X153645635Y-110220731D01*
X153764313Y-110255765D01*
X153924896Y-110302051D01*
X154124142Y-110358704D01*
X154358809Y-110424839D01*
X154625655Y-110499569D01*
X154921436Y-110582009D01*
X155242910Y-110671274D01*
X155586836Y-110766476D01*
X155949970Y-110866731D01*
X156329071Y-110971153D01*
X156720895Y-111078856D01*
X157122201Y-111188954D01*
X157529745Y-111300561D01*
X157940287Y-111412792D01*
X158350582Y-111524761D01*
X158757389Y-111635581D01*
X159157466Y-111744369D01*
X159547570Y-111850236D01*
X159924458Y-111952298D01*
X160284888Y-112049670D01*
X160625618Y-112141464D01*
X160943406Y-112226796D01*
X161235008Y-112304779D01*
X161497183Y-112374528D01*
X161726688Y-112435158D01*
X161920281Y-112485781D01*
X162074719Y-112525513D01*
X162186760Y-112553468D01*
X162253161Y-112568760D01*
X162271215Y-112571306D01*
X162330242Y-112524197D01*
G36*
X148155525Y-113007797D02*
X148548043Y-112728618D01*
X148928361Y-112457714D01*
X149294222Y-112196709D01*
X149643374Y-111947227D01*
X149973562Y-111710892D01*
X150282532Y-111489328D01*
X150568029Y-111284159D01*
X150827800Y-111097008D01*
X151059589Y-110929500D01*
X151261144Y-110783259D01*
X151430208Y-110659908D01*
X151564530Y-110561072D01*
X151661853Y-110488374D01*
X151719923Y-110443439D01*
X151736700Y-110427960D01*
X151705078Y-110413413D01*
X151632669Y-110385794D01*
X151529551Y-110348537D01*
X151405799Y-110305079D01*
X151271489Y-110258856D01*
X151136698Y-110213305D01*
X151011499Y-110171860D01*
X150905971Y-110137958D01*
X150830188Y-110115035D01*
X150794227Y-110106527D01*
X150794118Y-110106526D01*
X150768737Y-110121088D01*
X150701559Y-110163599D01*
X150595249Y-110232302D01*
X150452471Y-110325438D01*
X150275891Y-110441247D01*
X150068174Y-110577971D01*
X149831982Y-110733851D01*
X149569983Y-110907127D01*
X149284839Y-111096042D01*
X148979216Y-111298836D01*
X148655779Y-111513750D01*
X148317191Y-111739026D01*
X147966118Y-111972904D01*
X147917066Y-112005605D01*
X145068639Y-113904683D01*
X141793595Y-113730845D01*
X138518552Y-113557007D01*
X138392381Y-113470951D01*
X138355861Y-113445860D01*
X138277915Y-113392164D01*
X138161120Y-113311642D01*
X138008055Y-113206072D01*
X137821295Y-113077233D01*
X137603420Y-112926903D01*
X137357005Y-112756862D01*
X137084628Y-112568887D01*
X136788867Y-112364758D01*
X136472299Y-112146252D01*
X136137501Y-111915150D01*
X135787051Y-111673228D01*
X135423526Y-111422266D01*
X135077156Y-111183135D01*
X134705720Y-110926774D01*
X134346107Y-110678739D01*
X134000796Y-110440730D01*
X133672266Y-110214449D01*
X133362997Y-110001599D01*
X133075466Y-109803881D01*
X132812153Y-109622997D01*
X132575537Y-109460650D01*
X132368096Y-109318540D01*
X132192310Y-109198370D01*
X132050657Y-109101842D01*
X131945615Y-109030658D01*
X131879665Y-108986519D01*
X131855367Y-108971149D01*
X131820535Y-108976695D01*
X131744726Y-108998506D01*
X131636890Y-109033693D01*
X131505975Y-109079366D01*
X131397360Y-109119013D01*
X131256732Y-109171632D01*
X131134567Y-109217995D01*
X131039271Y-109254857D01*
X130979255Y-109278975D01*
X130962368Y-109286825D01*
X130981819Y-109304089D01*
X131041074Y-109351890D01*
X131137515Y-109428208D01*
X131268524Y-109531026D01*
X131431481Y-109658325D01*
X131623770Y-109808087D01*
X131842772Y-109978294D01*
X132085868Y-110166927D01*
X132350440Y-110371969D01*
X132633870Y-110591402D01*
X132933539Y-110823206D01*
X133246830Y-111065364D01*
X133571124Y-111315858D01*
X133903803Y-111572668D01*
X134242248Y-111833778D01*
X134583841Y-112097169D01*
X134925964Y-112360823D01*
X135265999Y-112622721D01*
X135601327Y-112880845D01*
X135929330Y-113133177D01*
X136247390Y-113377699D01*
X136552888Y-113612392D01*
X136843207Y-113835239D01*
X137115727Y-114044221D01*
X137367831Y-114237320D01*
X137596901Y-114412517D01*
X137800318Y-114567795D01*
X137975463Y-114701135D01*
X138119719Y-114810519D01*
X138230467Y-114893928D01*
X138305089Y-114949346D01*
X138340967Y-114974752D01*
X138342878Y-114975867D01*
X138368212Y-114983926D01*
X138417271Y-114993509D01*
X138492403Y-115004854D01*
X138595958Y-115018196D01*
X138730285Y-115033775D01*
X138897733Y-115051827D01*
X139100651Y-115072590D01*
X139341388Y-115096301D01*
X139622293Y-115123198D01*
X139945715Y-115153518D01*
X140314003Y-115187498D01*
X140729507Y-115225376D01*
X141194575Y-115267389D01*
X141489561Y-115293890D01*
X144552491Y-115568571D01*
X148155525Y-113007797D01*
X148155525Y-113007797D01*
G37*
X148155525Y-113007797D02*
X148548043Y-112728618D01*
X148928361Y-112457714D01*
X149294222Y-112196709D01*
X149643374Y-111947227D01*
X149973562Y-111710892D01*
X150282532Y-111489328D01*
X150568029Y-111284159D01*
X150827800Y-111097008D01*
X151059589Y-110929500D01*
X151261144Y-110783259D01*
X151430208Y-110659908D01*
X151564530Y-110561072D01*
X151661853Y-110488374D01*
X151719923Y-110443439D01*
X151736700Y-110427960D01*
X151705078Y-110413413D01*
X151632669Y-110385794D01*
X151529551Y-110348537D01*
X151405799Y-110305079D01*
X151271489Y-110258856D01*
X151136698Y-110213305D01*
X151011499Y-110171860D01*
X150905971Y-110137958D01*
X150830188Y-110115035D01*
X150794227Y-110106527D01*
X150794118Y-110106526D01*
X150768737Y-110121088D01*
X150701559Y-110163599D01*
X150595249Y-110232302D01*
X150452471Y-110325438D01*
X150275891Y-110441247D01*
X150068174Y-110577971D01*
X149831982Y-110733851D01*
X149569983Y-110907127D01*
X149284839Y-111096042D01*
X148979216Y-111298836D01*
X148655779Y-111513750D01*
X148317191Y-111739026D01*
X147966118Y-111972904D01*
X147917066Y-112005605D01*
X145068639Y-113904683D01*
X141793595Y-113730845D01*
X138518552Y-113557007D01*
X138392381Y-113470951D01*
X138355861Y-113445860D01*
X138277915Y-113392164D01*
X138161120Y-113311642D01*
X138008055Y-113206072D01*
X137821295Y-113077233D01*
X137603420Y-112926903D01*
X137357005Y-112756862D01*
X137084628Y-112568887D01*
X136788867Y-112364758D01*
X136472299Y-112146252D01*
X136137501Y-111915150D01*
X135787051Y-111673228D01*
X135423526Y-111422266D01*
X135077156Y-111183135D01*
X134705720Y-110926774D01*
X134346107Y-110678739D01*
X134000796Y-110440730D01*
X133672266Y-110214449D01*
X133362997Y-110001599D01*
X133075466Y-109803881D01*
X132812153Y-109622997D01*
X132575537Y-109460650D01*
X132368096Y-109318540D01*
X132192310Y-109198370D01*
X132050657Y-109101842D01*
X131945615Y-109030658D01*
X131879665Y-108986519D01*
X131855367Y-108971149D01*
X131820535Y-108976695D01*
X131744726Y-108998506D01*
X131636890Y-109033693D01*
X131505975Y-109079366D01*
X131397360Y-109119013D01*
X131256732Y-109171632D01*
X131134567Y-109217995D01*
X131039271Y-109254857D01*
X130979255Y-109278975D01*
X130962368Y-109286825D01*
X130981819Y-109304089D01*
X131041074Y-109351890D01*
X131137515Y-109428208D01*
X131268524Y-109531026D01*
X131431481Y-109658325D01*
X131623770Y-109808087D01*
X131842772Y-109978294D01*
X132085868Y-110166927D01*
X132350440Y-110371969D01*
X132633870Y-110591402D01*
X132933539Y-110823206D01*
X133246830Y-111065364D01*
X133571124Y-111315858D01*
X133903803Y-111572668D01*
X134242248Y-111833778D01*
X134583841Y-112097169D01*
X134925964Y-112360823D01*
X135265999Y-112622721D01*
X135601327Y-112880845D01*
X135929330Y-113133177D01*
X136247390Y-113377699D01*
X136552888Y-113612392D01*
X136843207Y-113835239D01*
X137115727Y-114044221D01*
X137367831Y-114237320D01*
X137596901Y-114412517D01*
X137800318Y-114567795D01*
X137975463Y-114701135D01*
X138119719Y-114810519D01*
X138230467Y-114893928D01*
X138305089Y-114949346D01*
X138340967Y-114974752D01*
X138342878Y-114975867D01*
X138368212Y-114983926D01*
X138417271Y-114993509D01*
X138492403Y-115004854D01*
X138595958Y-115018196D01*
X138730285Y-115033775D01*
X138897733Y-115051827D01*
X139100651Y-115072590D01*
X139341388Y-115096301D01*
X139622293Y-115123198D01*
X139945715Y-115153518D01*
X140314003Y-115187498D01*
X140729507Y-115225376D01*
X141194575Y-115267389D01*
X141489561Y-115293890D01*
X144552491Y-115568571D01*
X148155525Y-113007797D01*
D15*
X146000000Y-90000000D03*
X146000000Y-110000000D03*
X124000000Y-104500000D03*
X124000000Y-95500000D03*
X165000000Y-104000000D03*
X165000000Y-96000000D03*
X138000000Y-110000000D03*
X138000000Y-90000000D03*
M02*
