G04 #@! TF.FileFunction,Other,User*
%FSLAX46Y46*%
G04 Gerber Fmt 4.6, Leading zero omitted, Abs format (unit mm)*
G04 Created by KiCad (PCBNEW 4.0.7) date 2018 May 30, Wednesday 19:48:18*
%MOMM*%
%LPD*%
G01*
G04 APERTURE LIST*
%ADD10C,0.100000*%
%ADD11C,0.150000*%
%ADD12C,0.300000*%
%ADD13C,0.400000*%
%ADD14C,0.050000*%
G04 APERTURE END LIST*
D10*
D11*
X177002200Y-166007200D02*
X177002200Y-198007200D01*
X285002200Y-198007200D01*
X285002200Y-166007200D01*
X177002200Y-166007200D01*
D10*
D11*
X10000000Y-10000000D02*
X10000000Y-200007200D01*
X287002200Y-200007200D01*
X287002200Y-10000000D01*
X10000000Y-10000000D01*
D10*
D11*
X12000000Y-12000000D02*
X12000000Y-198007200D01*
X285002200Y-198007200D01*
X285002200Y-12000000D01*
X12000000Y-12000000D01*
D10*
D11*
X60000000Y-12000000D02*
X60000000Y-10000000D01*
D10*
D11*
X110000000Y-12000000D02*
X110000000Y-10000000D01*
D10*
D11*
X160000000Y-12000000D02*
X160000000Y-10000000D01*
D10*
D11*
X210000000Y-12000000D02*
X210000000Y-10000000D01*
D10*
D11*
X260000000Y-12000000D02*
X260000000Y-10000000D01*
D10*
D11*
X35990476Y-11588095D02*
X35247619Y-11588095D01*
X35619048Y-11588095D02*
X35619048Y-10288095D01*
X35495238Y-10473810D01*
X35371429Y-10597619D01*
X35247619Y-10659524D01*
D10*
D11*
X85247619Y-10411905D02*
X85309524Y-10350000D01*
X85433333Y-10288095D01*
X85742857Y-10288095D01*
X85866667Y-10350000D01*
X85928571Y-10411905D01*
X85990476Y-10535714D01*
X85990476Y-10659524D01*
X85928571Y-10845238D01*
X85185714Y-11588095D01*
X85990476Y-11588095D01*
D10*
D11*
X135185714Y-10288095D02*
X135990476Y-10288095D01*
X135557143Y-10783333D01*
X135742857Y-10783333D01*
X135866667Y-10845238D01*
X135928571Y-10907143D01*
X135990476Y-11030952D01*
X135990476Y-11340476D01*
X135928571Y-11464286D01*
X135866667Y-11526190D01*
X135742857Y-11588095D01*
X135371429Y-11588095D01*
X135247619Y-11526190D01*
X135185714Y-11464286D01*
D10*
D11*
X185866667Y-10721429D02*
X185866667Y-11588095D01*
X185557143Y-10226190D02*
X185247619Y-11154762D01*
X186052381Y-11154762D01*
D10*
D11*
X235928571Y-10288095D02*
X235309524Y-10288095D01*
X235247619Y-10907143D01*
X235309524Y-10845238D01*
X235433333Y-10783333D01*
X235742857Y-10783333D01*
X235866667Y-10845238D01*
X235928571Y-10907143D01*
X235990476Y-11030952D01*
X235990476Y-11340476D01*
X235928571Y-11464286D01*
X235866667Y-11526190D01*
X235742857Y-11588095D01*
X235433333Y-11588095D01*
X235309524Y-11526190D01*
X235247619Y-11464286D01*
D10*
D11*
X285866667Y-10288095D02*
X285619048Y-10288095D01*
X285495238Y-10350000D01*
X285433333Y-10411905D01*
X285309524Y-10597619D01*
X285247619Y-10845238D01*
X285247619Y-11340476D01*
X285309524Y-11464286D01*
X285371429Y-11526190D01*
X285495238Y-11588095D01*
X285742857Y-11588095D01*
X285866667Y-11526190D01*
X285928571Y-11464286D01*
X285990476Y-11340476D01*
X285990476Y-11030952D01*
X285928571Y-10907143D01*
X285866667Y-10845238D01*
X285742857Y-10783333D01*
X285495238Y-10783333D01*
X285371429Y-10845238D01*
X285309524Y-10907143D01*
X285247619Y-11030952D01*
D10*
D11*
X60000000Y-198007200D02*
X60000000Y-200007200D01*
D10*
D11*
X110000000Y-198007200D02*
X110000000Y-200007200D01*
D10*
D11*
X160000000Y-198007200D02*
X160000000Y-200007200D01*
D10*
D11*
X210000000Y-198007200D02*
X210000000Y-200007200D01*
D10*
D11*
X260000000Y-198007200D02*
X260000000Y-200007200D01*
D10*
D11*
X35990476Y-199595295D02*
X35247619Y-199595295D01*
X35619048Y-199595295D02*
X35619048Y-198295295D01*
X35495238Y-198481010D01*
X35371429Y-198604819D01*
X35247619Y-198666724D01*
D10*
D11*
X85247619Y-198419105D02*
X85309524Y-198357200D01*
X85433333Y-198295295D01*
X85742857Y-198295295D01*
X85866667Y-198357200D01*
X85928571Y-198419105D01*
X85990476Y-198542914D01*
X85990476Y-198666724D01*
X85928571Y-198852438D01*
X85185714Y-199595295D01*
X85990476Y-199595295D01*
D10*
D11*
X135185714Y-198295295D02*
X135990476Y-198295295D01*
X135557143Y-198790533D01*
X135742857Y-198790533D01*
X135866667Y-198852438D01*
X135928571Y-198914343D01*
X135990476Y-199038152D01*
X135990476Y-199347676D01*
X135928571Y-199471486D01*
X135866667Y-199533390D01*
X135742857Y-199595295D01*
X135371429Y-199595295D01*
X135247619Y-199533390D01*
X135185714Y-199471486D01*
D10*
D11*
X185866667Y-198728629D02*
X185866667Y-199595295D01*
X185557143Y-198233390D02*
X185247619Y-199161962D01*
X186052381Y-199161962D01*
D10*
D11*
X235928571Y-198295295D02*
X235309524Y-198295295D01*
X235247619Y-198914343D01*
X235309524Y-198852438D01*
X235433333Y-198790533D01*
X235742857Y-198790533D01*
X235866667Y-198852438D01*
X235928571Y-198914343D01*
X235990476Y-199038152D01*
X235990476Y-199347676D01*
X235928571Y-199471486D01*
X235866667Y-199533390D01*
X235742857Y-199595295D01*
X235433333Y-199595295D01*
X235309524Y-199533390D01*
X235247619Y-199471486D01*
D10*
D11*
X285866667Y-198295295D02*
X285619048Y-198295295D01*
X285495238Y-198357200D01*
X285433333Y-198419105D01*
X285309524Y-198604819D01*
X285247619Y-198852438D01*
X285247619Y-199347676D01*
X285309524Y-199471486D01*
X285371429Y-199533390D01*
X285495238Y-199595295D01*
X285742857Y-199595295D01*
X285866667Y-199533390D01*
X285928571Y-199471486D01*
X285990476Y-199347676D01*
X285990476Y-199038152D01*
X285928571Y-198914343D01*
X285866667Y-198852438D01*
X285742857Y-198790533D01*
X285495238Y-198790533D01*
X285371429Y-198852438D01*
X285309524Y-198914343D01*
X285247619Y-199038152D01*
D10*
D11*
X10000000Y-60000000D02*
X12000000Y-60000000D01*
D10*
D11*
X10000000Y-110000000D02*
X12000000Y-110000000D01*
D10*
D11*
X10000000Y-160000000D02*
X12000000Y-160000000D01*
D10*
D11*
X10690476Y-35216667D02*
X11309524Y-35216667D01*
X10566667Y-35588095D02*
X11000000Y-34288095D01*
X11433333Y-35588095D01*
D10*
D11*
X11092857Y-84907143D02*
X11278571Y-84969048D01*
X11340476Y-85030952D01*
X11402381Y-85154762D01*
X11402381Y-85340476D01*
X11340476Y-85464286D01*
X11278571Y-85526190D01*
X11154762Y-85588095D01*
X10659524Y-85588095D01*
X10659524Y-84288095D01*
X11092857Y-84288095D01*
X11216667Y-84350000D01*
X11278571Y-84411905D01*
X11340476Y-84535714D01*
X11340476Y-84659524D01*
X11278571Y-84783333D01*
X11216667Y-84845238D01*
X11092857Y-84907143D01*
X10659524Y-84907143D01*
D10*
D11*
X11402381Y-135464286D02*
X11340476Y-135526190D01*
X11154762Y-135588095D01*
X11030952Y-135588095D01*
X10845238Y-135526190D01*
X10721429Y-135402381D01*
X10659524Y-135278571D01*
X10597619Y-135030952D01*
X10597619Y-134845238D01*
X10659524Y-134597619D01*
X10721429Y-134473810D01*
X10845238Y-134350000D01*
X11030952Y-134288095D01*
X11154762Y-134288095D01*
X11340476Y-134350000D01*
X11402381Y-134411905D01*
D10*
D11*
X10659524Y-185588095D02*
X10659524Y-184288095D01*
X10969048Y-184288095D01*
X11154762Y-184350000D01*
X11278571Y-184473810D01*
X11340476Y-184597619D01*
X11402381Y-184845238D01*
X11402381Y-185030952D01*
X11340476Y-185278571D01*
X11278571Y-185402381D01*
X11154762Y-185526190D01*
X10969048Y-185588095D01*
X10659524Y-185588095D01*
D10*
D11*
X287002200Y-60000000D02*
X285002200Y-60000000D01*
D10*
D11*
X287002200Y-110000000D02*
X285002200Y-110000000D01*
D10*
D11*
X287002200Y-160000000D02*
X285002200Y-160000000D01*
D10*
D11*
X285692676Y-35216667D02*
X286311724Y-35216667D01*
X285568867Y-35588095D02*
X286002200Y-34288095D01*
X286435533Y-35588095D01*
D10*
D11*
X286095057Y-84907143D02*
X286280771Y-84969048D01*
X286342676Y-85030952D01*
X286404581Y-85154762D01*
X286404581Y-85340476D01*
X286342676Y-85464286D01*
X286280771Y-85526190D01*
X286156962Y-85588095D01*
X285661724Y-85588095D01*
X285661724Y-84288095D01*
X286095057Y-84288095D01*
X286218867Y-84350000D01*
X286280771Y-84411905D01*
X286342676Y-84535714D01*
X286342676Y-84659524D01*
X286280771Y-84783333D01*
X286218867Y-84845238D01*
X286095057Y-84907143D01*
X285661724Y-84907143D01*
D10*
D11*
X286404581Y-135464286D02*
X286342676Y-135526190D01*
X286156962Y-135588095D01*
X286033152Y-135588095D01*
X285847438Y-135526190D01*
X285723629Y-135402381D01*
X285661724Y-135278571D01*
X285599819Y-135030952D01*
X285599819Y-134845238D01*
X285661724Y-134597619D01*
X285723629Y-134473810D01*
X285847438Y-134350000D01*
X286033152Y-134288095D01*
X286156962Y-134288095D01*
X286342676Y-134350000D01*
X286404581Y-134411905D01*
D10*
D11*
X285661724Y-185588095D02*
X285661724Y-184288095D01*
X285971248Y-184288095D01*
X286156962Y-184350000D01*
X286280771Y-184473810D01*
X286342676Y-184597619D01*
X286404581Y-184845238D01*
X286404581Y-185030952D01*
X286342676Y-185278571D01*
X286280771Y-185402381D01*
X286156962Y-185526190D01*
X285971248Y-185588095D01*
X285661724Y-185588095D01*
D10*
D11*
X200359343Y-193785771D02*
X200359343Y-192285771D01*
X200716486Y-192285771D01*
X200930771Y-192357200D01*
X201073629Y-192500057D01*
X201145057Y-192642914D01*
X201216486Y-192928629D01*
X201216486Y-193142914D01*
X201145057Y-193428629D01*
X201073629Y-193571486D01*
X200930771Y-193714343D01*
X200716486Y-193785771D01*
X200359343Y-193785771D01*
X202502200Y-193785771D02*
X202502200Y-193000057D01*
X202430771Y-192857200D01*
X202287914Y-192785771D01*
X202002200Y-192785771D01*
X201859343Y-192857200D01*
X202502200Y-193714343D02*
X202359343Y-193785771D01*
X202002200Y-193785771D01*
X201859343Y-193714343D01*
X201787914Y-193571486D01*
X201787914Y-193428629D01*
X201859343Y-193285771D01*
X202002200Y-193214343D01*
X202359343Y-193214343D01*
X202502200Y-193142914D01*
X203002200Y-192785771D02*
X203573629Y-192785771D01*
X203216486Y-192285771D02*
X203216486Y-193571486D01*
X203287914Y-193714343D01*
X203430772Y-193785771D01*
X203573629Y-193785771D01*
X204645057Y-193714343D02*
X204502200Y-193785771D01*
X204216486Y-193785771D01*
X204073629Y-193714343D01*
X204002200Y-193571486D01*
X204002200Y-193000057D01*
X204073629Y-192857200D01*
X204216486Y-192785771D01*
X204502200Y-192785771D01*
X204645057Y-192857200D01*
X204716486Y-193000057D01*
X204716486Y-193142914D01*
X204002200Y-193285771D01*
X205359343Y-193642914D02*
X205430771Y-193714343D01*
X205359343Y-193785771D01*
X205287914Y-193714343D01*
X205359343Y-193642914D01*
X205359343Y-193785771D01*
X205359343Y-192857200D02*
X205430771Y-192928629D01*
X205359343Y-193000057D01*
X205287914Y-192928629D01*
X205359343Y-192857200D01*
X205359343Y-193000057D01*
X207145057Y-192428629D02*
X207216486Y-192357200D01*
X207359343Y-192285771D01*
X207716486Y-192285771D01*
X207859343Y-192357200D01*
X207930772Y-192428629D01*
X208002200Y-192571486D01*
X208002200Y-192714343D01*
X207930772Y-192928629D01*
X207073629Y-193785771D01*
X208002200Y-193785771D01*
X208930771Y-192285771D02*
X209073628Y-192285771D01*
X209216485Y-192357200D01*
X209287914Y-192428629D01*
X209359343Y-192571486D01*
X209430771Y-192857200D01*
X209430771Y-193214343D01*
X209359343Y-193500057D01*
X209287914Y-193642914D01*
X209216485Y-193714343D01*
X209073628Y-193785771D01*
X208930771Y-193785771D01*
X208787914Y-193714343D01*
X208716485Y-193642914D01*
X208645057Y-193500057D01*
X208573628Y-193214343D01*
X208573628Y-192857200D01*
X208645057Y-192571486D01*
X208716485Y-192428629D01*
X208787914Y-192357200D01*
X208930771Y-192285771D01*
X210859342Y-193785771D02*
X210002199Y-193785771D01*
X210430771Y-193785771D02*
X210430771Y-192285771D01*
X210287914Y-192500057D01*
X210145056Y-192642914D01*
X210002199Y-192714343D01*
X211716485Y-192928629D02*
X211573627Y-192857200D01*
X211502199Y-192785771D01*
X211430770Y-192642914D01*
X211430770Y-192571486D01*
X211502199Y-192428629D01*
X211573627Y-192357200D01*
X211716485Y-192285771D01*
X212002199Y-192285771D01*
X212145056Y-192357200D01*
X212216485Y-192428629D01*
X212287913Y-192571486D01*
X212287913Y-192642914D01*
X212216485Y-192785771D01*
X212145056Y-192857200D01*
X212002199Y-192928629D01*
X211716485Y-192928629D01*
X211573627Y-193000057D01*
X211502199Y-193071486D01*
X211430770Y-193214343D01*
X211430770Y-193500057D01*
X211502199Y-193642914D01*
X211573627Y-193714343D01*
X211716485Y-193785771D01*
X212002199Y-193785771D01*
X212145056Y-193714343D01*
X212216485Y-193642914D01*
X212287913Y-193500057D01*
X212287913Y-193214343D01*
X212216485Y-193071486D01*
X212145056Y-193000057D01*
X212002199Y-192928629D01*
X212930770Y-193214343D02*
X214073627Y-193214343D01*
X215073627Y-192285771D02*
X215216484Y-192285771D01*
X215359341Y-192357200D01*
X215430770Y-192428629D01*
X215502199Y-192571486D01*
X215573627Y-192857200D01*
X215573627Y-193214343D01*
X215502199Y-193500057D01*
X215430770Y-193642914D01*
X215359341Y-193714343D01*
X215216484Y-193785771D01*
X215073627Y-193785771D01*
X214930770Y-193714343D01*
X214859341Y-193642914D01*
X214787913Y-193500057D01*
X214716484Y-193214343D01*
X214716484Y-192857200D01*
X214787913Y-192571486D01*
X214859341Y-192428629D01*
X214930770Y-192357200D01*
X215073627Y-192285771D01*
X216930770Y-192285771D02*
X216216484Y-192285771D01*
X216145055Y-193000057D01*
X216216484Y-192928629D01*
X216359341Y-192857200D01*
X216716484Y-192857200D01*
X216859341Y-192928629D01*
X216930770Y-193000057D01*
X217002198Y-193142914D01*
X217002198Y-193500057D01*
X216930770Y-193642914D01*
X216859341Y-193714343D01*
X216716484Y-193785771D01*
X216359341Y-193785771D01*
X216216484Y-193714343D01*
X216145055Y-193642914D01*
X217645055Y-193214343D02*
X218787912Y-193214343D01*
X219359341Y-192285771D02*
X220287912Y-192285771D01*
X219787912Y-192857200D01*
X220002198Y-192857200D01*
X220145055Y-192928629D01*
X220216484Y-193000057D01*
X220287912Y-193142914D01*
X220287912Y-193500057D01*
X220216484Y-193642914D01*
X220145055Y-193714343D01*
X220002198Y-193785771D01*
X219573626Y-193785771D01*
X219430769Y-193714343D01*
X219359341Y-193642914D01*
X221216483Y-192285771D02*
X221359340Y-192285771D01*
X221502197Y-192357200D01*
X221573626Y-192428629D01*
X221645055Y-192571486D01*
X221716483Y-192857200D01*
X221716483Y-193214343D01*
X221645055Y-193500057D01*
X221573626Y-193642914D01*
X221502197Y-193714343D01*
X221359340Y-193785771D01*
X221216483Y-193785771D01*
X221073626Y-193714343D01*
X221002197Y-193642914D01*
X220930769Y-193500057D01*
X220859340Y-193214343D01*
X220859340Y-192857200D01*
X220930769Y-192571486D01*
X221002197Y-192428629D01*
X221073626Y-192357200D01*
X221216483Y-192285771D01*
D10*
D11*
X177002200Y-194507200D02*
X285002200Y-194507200D01*
D10*
D11*
X178359343Y-196585771D02*
X178359343Y-195085771D01*
X179216486Y-196585771D02*
X178573629Y-195728629D01*
X179216486Y-195085771D02*
X178359343Y-195942914D01*
X179859343Y-196585771D02*
X179859343Y-195585771D01*
X179859343Y-195085771D02*
X179787914Y-195157200D01*
X179859343Y-195228629D01*
X179930771Y-195157200D01*
X179859343Y-195085771D01*
X179859343Y-195228629D01*
X181430772Y-196442914D02*
X181359343Y-196514343D01*
X181145057Y-196585771D01*
X181002200Y-196585771D01*
X180787915Y-196514343D01*
X180645057Y-196371486D01*
X180573629Y-196228629D01*
X180502200Y-195942914D01*
X180502200Y-195728629D01*
X180573629Y-195442914D01*
X180645057Y-195300057D01*
X180787915Y-195157200D01*
X181002200Y-195085771D01*
X181145057Y-195085771D01*
X181359343Y-195157200D01*
X181430772Y-195228629D01*
X182716486Y-196585771D02*
X182716486Y-195800057D01*
X182645057Y-195657200D01*
X182502200Y-195585771D01*
X182216486Y-195585771D01*
X182073629Y-195657200D01*
X182716486Y-196514343D02*
X182573629Y-196585771D01*
X182216486Y-196585771D01*
X182073629Y-196514343D01*
X182002200Y-196371486D01*
X182002200Y-196228629D01*
X182073629Y-196085771D01*
X182216486Y-196014343D01*
X182573629Y-196014343D01*
X182716486Y-195942914D01*
X184073629Y-196585771D02*
X184073629Y-195085771D01*
X184073629Y-196514343D02*
X183930772Y-196585771D01*
X183645058Y-196585771D01*
X183502200Y-196514343D01*
X183430772Y-196442914D01*
X183359343Y-196300057D01*
X183359343Y-195871486D01*
X183430772Y-195728629D01*
X183502200Y-195657200D01*
X183645058Y-195585771D01*
X183930772Y-195585771D01*
X184073629Y-195657200D01*
X185930772Y-195800057D02*
X186430772Y-195800057D01*
X186645058Y-196585771D02*
X185930772Y-196585771D01*
X185930772Y-195085771D01*
X186645058Y-195085771D01*
X187287915Y-196442914D02*
X187359343Y-196514343D01*
X187287915Y-196585771D01*
X187216486Y-196514343D01*
X187287915Y-196442914D01*
X187287915Y-196585771D01*
X188002201Y-196585771D02*
X188002201Y-195085771D01*
X188359344Y-195085771D01*
X188573629Y-195157200D01*
X188716487Y-195300057D01*
X188787915Y-195442914D01*
X188859344Y-195728629D01*
X188859344Y-195942914D01*
X188787915Y-196228629D01*
X188716487Y-196371486D01*
X188573629Y-196514343D01*
X188359344Y-196585771D01*
X188002201Y-196585771D01*
X189502201Y-196442914D02*
X189573629Y-196514343D01*
X189502201Y-196585771D01*
X189430772Y-196514343D01*
X189502201Y-196442914D01*
X189502201Y-196585771D01*
X190145058Y-196157200D02*
X190859344Y-196157200D01*
X190002201Y-196585771D02*
X190502201Y-195085771D01*
X191002201Y-196585771D01*
X191502201Y-196442914D02*
X191573629Y-196514343D01*
X191502201Y-196585771D01*
X191430772Y-196514343D01*
X191502201Y-196442914D01*
X191502201Y-196585771D01*
X194502201Y-196585771D02*
X194502201Y-195085771D01*
X194645058Y-196014343D02*
X195073629Y-196585771D01*
X195073629Y-195585771D02*
X194502201Y-196157200D01*
X195716487Y-196585771D02*
X195716487Y-195585771D01*
X195716487Y-195085771D02*
X195645058Y-195157200D01*
X195716487Y-195228629D01*
X195787915Y-195157200D01*
X195716487Y-195085771D01*
X195716487Y-195228629D01*
X197073630Y-196514343D02*
X196930773Y-196585771D01*
X196645059Y-196585771D01*
X196502201Y-196514343D01*
X196430773Y-196442914D01*
X196359344Y-196300057D01*
X196359344Y-195871486D01*
X196430773Y-195728629D01*
X196502201Y-195657200D01*
X196645059Y-195585771D01*
X196930773Y-195585771D01*
X197073630Y-195657200D01*
X198359344Y-196585771D02*
X198359344Y-195800057D01*
X198287915Y-195657200D01*
X198145058Y-195585771D01*
X197859344Y-195585771D01*
X197716487Y-195657200D01*
X198359344Y-196514343D02*
X198216487Y-196585771D01*
X197859344Y-196585771D01*
X197716487Y-196514343D01*
X197645058Y-196371486D01*
X197645058Y-196228629D01*
X197716487Y-196085771D01*
X197859344Y-196014343D01*
X198216487Y-196014343D01*
X198359344Y-195942914D01*
X199716487Y-196585771D02*
X199716487Y-195085771D01*
X199716487Y-196514343D02*
X199573630Y-196585771D01*
X199287916Y-196585771D01*
X199145058Y-196514343D01*
X199073630Y-196442914D01*
X199002201Y-196300057D01*
X199002201Y-195871486D01*
X199073630Y-195728629D01*
X199145058Y-195657200D01*
X199287916Y-195585771D01*
X199573630Y-195585771D01*
X199716487Y-195657200D01*
X202216487Y-195585771D02*
X202216487Y-196585771D01*
X201859344Y-195014343D02*
X201502201Y-196085771D01*
X202430773Y-196085771D01*
X203002201Y-196442914D02*
X203073629Y-196514343D01*
X203002201Y-196585771D01*
X202930772Y-196514343D01*
X203002201Y-196442914D01*
X203002201Y-196585771D01*
X204002201Y-195085771D02*
X204145058Y-195085771D01*
X204287915Y-195157200D01*
X204359344Y-195228629D01*
X204430773Y-195371486D01*
X204502201Y-195657200D01*
X204502201Y-196014343D01*
X204430773Y-196300057D01*
X204359344Y-196442914D01*
X204287915Y-196514343D01*
X204145058Y-196585771D01*
X204002201Y-196585771D01*
X203859344Y-196514343D01*
X203787915Y-196442914D01*
X203716487Y-196300057D01*
X203645058Y-196014343D01*
X203645058Y-195657200D01*
X203716487Y-195371486D01*
X203787915Y-195228629D01*
X203859344Y-195157200D01*
X204002201Y-195085771D01*
X205145058Y-196442914D02*
X205216486Y-196514343D01*
X205145058Y-196585771D01*
X205073629Y-196514343D01*
X205145058Y-196442914D01*
X205145058Y-196585771D01*
X205716487Y-195085771D02*
X206716487Y-195085771D01*
X206073630Y-196585771D01*
D10*
D11*
X177002200Y-191507200D02*
X285002200Y-191507200D01*
D10*
D12*
X264216486Y-193785771D02*
X263716486Y-193071486D01*
X263359343Y-193785771D02*
X263359343Y-192285771D01*
X263930771Y-192285771D01*
X264073629Y-192357200D01*
X264145057Y-192428629D01*
X264216486Y-192571486D01*
X264216486Y-192785771D01*
X264145057Y-192928629D01*
X264073629Y-193000057D01*
X263930771Y-193071486D01*
X263359343Y-193071486D01*
X265430771Y-193714343D02*
X265287914Y-193785771D01*
X265002200Y-193785771D01*
X264859343Y-193714343D01*
X264787914Y-193571486D01*
X264787914Y-193000057D01*
X264859343Y-192857200D01*
X265002200Y-192785771D01*
X265287914Y-192785771D01*
X265430771Y-192857200D01*
X265502200Y-193000057D01*
X265502200Y-193142914D01*
X264787914Y-193285771D01*
X266002200Y-192785771D02*
X266359343Y-193785771D01*
X266716485Y-192785771D01*
X267287914Y-193642914D02*
X267359342Y-193714343D01*
X267287914Y-193785771D01*
X267216485Y-193714343D01*
X267287914Y-193642914D01*
X267287914Y-193785771D01*
X267287914Y-192857200D02*
X267359342Y-192928629D01*
X267287914Y-193000057D01*
X267216485Y-192928629D01*
X267287914Y-192857200D01*
X267287914Y-193000057D01*
X269930771Y-193785771D02*
X269073628Y-193785771D01*
X269502200Y-193785771D02*
X269502200Y-192285771D01*
X269359343Y-192500057D01*
X269216485Y-192642914D01*
X269073628Y-192714343D01*
X270573628Y-193642914D02*
X270645056Y-193714343D01*
X270573628Y-193785771D01*
X270502199Y-193714343D01*
X270573628Y-193642914D01*
X270573628Y-193785771D01*
X271573628Y-192285771D02*
X271716485Y-192285771D01*
X271859342Y-192357200D01*
X271930771Y-192428629D01*
X272002200Y-192571486D01*
X272073628Y-192857200D01*
X272073628Y-193214343D01*
X272002200Y-193500057D01*
X271930771Y-193642914D01*
X271859342Y-193714343D01*
X271716485Y-193785771D01*
X271573628Y-193785771D01*
X271430771Y-193714343D01*
X271359342Y-193642914D01*
X271287914Y-193500057D01*
X271216485Y-193214343D01*
X271216485Y-192857200D01*
X271287914Y-192571486D01*
X271359342Y-192428629D01*
X271430771Y-192357200D01*
X271573628Y-192285771D01*
D10*
D11*
X178287914Y-193714343D02*
X178502200Y-193785771D01*
X178859343Y-193785771D01*
X179002200Y-193714343D01*
X179073629Y-193642914D01*
X179145057Y-193500057D01*
X179145057Y-193357200D01*
X179073629Y-193214343D01*
X179002200Y-193142914D01*
X178859343Y-193071486D01*
X178573629Y-193000057D01*
X178430771Y-192928629D01*
X178359343Y-192857200D01*
X178287914Y-192714343D01*
X178287914Y-192571486D01*
X178359343Y-192428629D01*
X178430771Y-192357200D01*
X178573629Y-192285771D01*
X178930771Y-192285771D01*
X179145057Y-192357200D01*
X179787914Y-193785771D02*
X179787914Y-192785771D01*
X179787914Y-192285771D02*
X179716485Y-192357200D01*
X179787914Y-192428629D01*
X179859342Y-192357200D01*
X179787914Y-192285771D01*
X179787914Y-192428629D01*
X180359343Y-192785771D02*
X181145057Y-192785771D01*
X180359343Y-193785771D01*
X181145057Y-193785771D01*
X182287914Y-193714343D02*
X182145057Y-193785771D01*
X181859343Y-193785771D01*
X181716486Y-193714343D01*
X181645057Y-193571486D01*
X181645057Y-193000057D01*
X181716486Y-192857200D01*
X181859343Y-192785771D01*
X182145057Y-192785771D01*
X182287914Y-192857200D01*
X182359343Y-193000057D01*
X182359343Y-193142914D01*
X181645057Y-193285771D01*
X183002200Y-193642914D02*
X183073628Y-193714343D01*
X183002200Y-193785771D01*
X182930771Y-193714343D01*
X183002200Y-193642914D01*
X183002200Y-193785771D01*
X183002200Y-192857200D02*
X183073628Y-192928629D01*
X183002200Y-193000057D01*
X182930771Y-192928629D01*
X183002200Y-192857200D01*
X183002200Y-193000057D01*
X184787914Y-193357200D02*
X185502200Y-193357200D01*
X184645057Y-193785771D02*
X185145057Y-192285771D01*
X185645057Y-193785771D01*
X186787914Y-192785771D02*
X186787914Y-193785771D01*
X186430771Y-192214343D02*
X186073628Y-193285771D01*
X187002200Y-193285771D01*
D10*
D11*
X263359343Y-196585771D02*
X263359343Y-195085771D01*
X264716486Y-196585771D02*
X264716486Y-195085771D01*
X264716486Y-196514343D02*
X264573629Y-196585771D01*
X264287915Y-196585771D01*
X264145057Y-196514343D01*
X264073629Y-196442914D01*
X264002200Y-196300057D01*
X264002200Y-195871486D01*
X264073629Y-195728629D01*
X264145057Y-195657200D01*
X264287915Y-195585771D01*
X264573629Y-195585771D01*
X264716486Y-195657200D01*
X265430772Y-196442914D02*
X265502200Y-196514343D01*
X265430772Y-196585771D01*
X265359343Y-196514343D01*
X265430772Y-196442914D01*
X265430772Y-196585771D01*
X265430772Y-195657200D02*
X265502200Y-195728629D01*
X265430772Y-195800057D01*
X265359343Y-195728629D01*
X265430772Y-195657200D01*
X265430772Y-195800057D01*
X268073629Y-196585771D02*
X267216486Y-196585771D01*
X267645058Y-196585771D02*
X267645058Y-195085771D01*
X267502201Y-195300057D01*
X267359343Y-195442914D01*
X267216486Y-195514343D01*
X269787914Y-195014343D02*
X268502200Y-196942914D01*
X271073629Y-196585771D02*
X270216486Y-196585771D01*
X270645058Y-196585771D02*
X270645058Y-195085771D01*
X270502201Y-195300057D01*
X270359343Y-195442914D01*
X270216486Y-195514343D01*
D10*
D11*
X177002200Y-187507200D02*
X285002200Y-187507200D01*
D10*
D13*
X178454581Y-188211962D02*
X179597438Y-188211962D01*
X178776010Y-190211962D02*
X179026010Y-188211962D01*
X180014105Y-190211962D02*
X180180771Y-188878629D01*
X180264105Y-188211962D02*
X180156962Y-188307200D01*
X180240295Y-188402438D01*
X180347439Y-188307200D01*
X180264105Y-188211962D01*
X180240295Y-188402438D01*
X180847438Y-188878629D02*
X181609343Y-188878629D01*
X181216486Y-188211962D02*
X181002200Y-189926248D01*
X181073630Y-190116724D01*
X181252201Y-190211962D01*
X181442677Y-190211962D01*
X182395058Y-190211962D02*
X182216487Y-190116724D01*
X182145057Y-189926248D01*
X182359343Y-188211962D01*
X183930772Y-190116724D02*
X183728391Y-190211962D01*
X183347439Y-190211962D01*
X183168867Y-190116724D01*
X183097438Y-189926248D01*
X183192676Y-189164343D01*
X183311724Y-188973867D01*
X183514105Y-188878629D01*
X183895057Y-188878629D01*
X184073629Y-188973867D01*
X184145057Y-189164343D01*
X184121248Y-189354819D01*
X183145057Y-189545295D01*
X184895057Y-190021486D02*
X184978392Y-190116724D01*
X184871248Y-190211962D01*
X184787915Y-190116724D01*
X184895057Y-190021486D01*
X184871248Y-190211962D01*
X185026010Y-188973867D02*
X185109344Y-189069105D01*
X185002200Y-189164343D01*
X184918867Y-189069105D01*
X185026010Y-188973867D01*
X185002200Y-189164343D01*
X188371248Y-188878629D02*
X188168867Y-190497676D01*
X188049820Y-190688152D01*
X187942677Y-190783390D01*
X187740296Y-190878629D01*
X187454582Y-190878629D01*
X187276010Y-190783390D01*
X188216487Y-190116724D02*
X188014106Y-190211962D01*
X187633154Y-190211962D01*
X187454583Y-190116724D01*
X187371248Y-190021486D01*
X187299820Y-189831010D01*
X187371248Y-189259581D01*
X187490296Y-189069105D01*
X187597440Y-188973867D01*
X187799820Y-188878629D01*
X188180772Y-188878629D01*
X188359344Y-188973867D01*
X189442678Y-190211962D02*
X189264107Y-190116724D01*
X189180772Y-190021486D01*
X189109344Y-189831010D01*
X189180772Y-189259581D01*
X189299820Y-189069105D01*
X189406964Y-188973867D01*
X189609344Y-188878629D01*
X189895058Y-188878629D01*
X190073630Y-188973867D01*
X190156963Y-189069105D01*
X190228391Y-189259581D01*
X190156963Y-189831010D01*
X190037915Y-190021486D01*
X189930773Y-190116724D01*
X189728392Y-190211962D01*
X189442678Y-190211962D01*
X191990296Y-188878629D02*
X191787915Y-190497676D01*
X191668868Y-190688152D01*
X191561725Y-190783390D01*
X191359344Y-190878629D01*
X191073630Y-190878629D01*
X190895058Y-190783390D01*
X191835535Y-190116724D02*
X191633154Y-190211962D01*
X191252202Y-190211962D01*
X191073631Y-190116724D01*
X190990296Y-190021486D01*
X190918868Y-189831010D01*
X190990296Y-189259581D01*
X191109344Y-189069105D01*
X191216488Y-188973867D01*
X191418868Y-188878629D01*
X191799820Y-188878629D01*
X191978392Y-188973867D01*
X193799820Y-188878629D02*
X193597439Y-190497676D01*
X193478392Y-190688152D01*
X193371249Y-190783390D01*
X193168868Y-190878629D01*
X192883154Y-190878629D01*
X192704582Y-190783390D01*
X193645059Y-190116724D02*
X193442678Y-190211962D01*
X193061726Y-190211962D01*
X192883155Y-190116724D01*
X192799820Y-190021486D01*
X192728392Y-189831010D01*
X192799820Y-189259581D01*
X192918868Y-189069105D01*
X193026012Y-188973867D01*
X193228392Y-188878629D01*
X193609344Y-188878629D01*
X193787916Y-188973867D01*
X195442678Y-190211962D02*
X195573630Y-189164343D01*
X195502202Y-188973867D01*
X195323630Y-188878629D01*
X194942678Y-188878629D01*
X194740297Y-188973867D01*
X195454583Y-190116724D02*
X195252202Y-190211962D01*
X194776012Y-190211962D01*
X194597440Y-190116724D01*
X194526011Y-189926248D01*
X194549821Y-189735771D01*
X194668868Y-189545295D01*
X194871250Y-189450057D01*
X195347440Y-189450057D01*
X195549821Y-189354819D01*
X196395059Y-190211962D02*
X196645059Y-188211962D01*
X196549821Y-188973867D02*
X196752202Y-188878629D01*
X197133154Y-188878629D01*
X197311726Y-188973867D01*
X197395059Y-189069105D01*
X197466487Y-189259581D01*
X197395059Y-189831010D01*
X197276011Y-190021486D01*
X197168869Y-190116724D01*
X196966488Y-190211962D01*
X196585536Y-190211962D01*
X196406964Y-190116724D01*
X198490298Y-190211962D02*
X198311727Y-190116724D01*
X198228392Y-190021486D01*
X198156964Y-189831010D01*
X198228392Y-189259581D01*
X198347440Y-189069105D01*
X198454584Y-188973867D01*
X198656964Y-188878629D01*
X198942678Y-188878629D01*
X199121250Y-188973867D01*
X199204583Y-189069105D01*
X199276011Y-189259581D01*
X199204583Y-189831010D01*
X199085535Y-190021486D01*
X198978393Y-190116724D01*
X198776012Y-190211962D01*
X198490298Y-190211962D01*
X199895059Y-188878629D02*
X200656964Y-188878629D01*
X200264107Y-188211962D02*
X200049821Y-189926248D01*
X200121251Y-190116724D01*
X200299822Y-190211962D01*
X200490298Y-190211962D01*
X202597441Y-190116724D02*
X202871251Y-190211962D01*
X203347441Y-190211962D01*
X203549822Y-190116724D01*
X203656964Y-190021486D01*
X203776013Y-189831010D01*
X203799822Y-189640533D01*
X203728393Y-189450057D01*
X203645060Y-189354819D01*
X203466488Y-189259581D01*
X203097441Y-189164343D01*
X202918870Y-189069105D01*
X202835536Y-188973867D01*
X202764107Y-188783390D01*
X202787917Y-188592914D01*
X202906964Y-188402438D01*
X203014108Y-188307200D01*
X203216489Y-188211962D01*
X203692679Y-188211962D01*
X203966489Y-188307200D01*
X204585536Y-190211962D02*
X204835536Y-188211962D01*
X205323631Y-189640533D01*
X206168870Y-188211962D01*
X205918870Y-190211962D01*
X206871250Y-190211962D02*
X207121250Y-188211962D01*
X207597441Y-188211962D01*
X207871250Y-188307200D01*
X208037917Y-188497676D01*
X208109346Y-188688152D01*
X208156965Y-189069105D01*
X208121251Y-189354819D01*
X207978394Y-189735771D01*
X207859345Y-189926248D01*
X207645060Y-190116724D01*
X207347441Y-190211962D01*
X206871250Y-190211962D01*
D10*
D11*
X178859343Y-185600057D02*
X178359343Y-185600057D01*
X178359343Y-186385771D02*
X178359343Y-184885771D01*
X179073629Y-184885771D01*
X179645057Y-186385771D02*
X179645057Y-185385771D01*
X179645057Y-184885771D02*
X179573628Y-184957200D01*
X179645057Y-185028629D01*
X179716485Y-184957200D01*
X179645057Y-184885771D01*
X179645057Y-185028629D01*
X180573629Y-186385771D02*
X180430771Y-186314343D01*
X180359343Y-186171486D01*
X180359343Y-184885771D01*
X181716485Y-186314343D02*
X181573628Y-186385771D01*
X181287914Y-186385771D01*
X181145057Y-186314343D01*
X181073628Y-186171486D01*
X181073628Y-185600057D01*
X181145057Y-185457200D01*
X181287914Y-185385771D01*
X181573628Y-185385771D01*
X181716485Y-185457200D01*
X181787914Y-185600057D01*
X181787914Y-185742914D01*
X181073628Y-185885771D01*
X182430771Y-186242914D02*
X182502199Y-186314343D01*
X182430771Y-186385771D01*
X182359342Y-186314343D01*
X182430771Y-186242914D01*
X182430771Y-186385771D01*
X182430771Y-185457200D02*
X182502199Y-185528629D01*
X182430771Y-185600057D01*
X182359342Y-185528629D01*
X182430771Y-185457200D01*
X182430771Y-185600057D01*
X184930771Y-185385771D02*
X184930771Y-186600057D01*
X184859342Y-186742914D01*
X184787914Y-186814343D01*
X184645057Y-186885771D01*
X184430771Y-186885771D01*
X184287914Y-186814343D01*
X184930771Y-186314343D02*
X184787914Y-186385771D01*
X184502200Y-186385771D01*
X184359342Y-186314343D01*
X184287914Y-186242914D01*
X184216485Y-186100057D01*
X184216485Y-185671486D01*
X184287914Y-185528629D01*
X184359342Y-185457200D01*
X184502200Y-185385771D01*
X184787914Y-185385771D01*
X184930771Y-185457200D01*
X185859343Y-186385771D02*
X185716485Y-186314343D01*
X185645057Y-186242914D01*
X185573628Y-186100057D01*
X185573628Y-185671486D01*
X185645057Y-185528629D01*
X185716485Y-185457200D01*
X185859343Y-185385771D01*
X186073628Y-185385771D01*
X186216485Y-185457200D01*
X186287914Y-185528629D01*
X186359343Y-185671486D01*
X186359343Y-186100057D01*
X186287914Y-186242914D01*
X186216485Y-186314343D01*
X186073628Y-186385771D01*
X185859343Y-186385771D01*
X187645057Y-185385771D02*
X187645057Y-186600057D01*
X187573628Y-186742914D01*
X187502200Y-186814343D01*
X187359343Y-186885771D01*
X187145057Y-186885771D01*
X187002200Y-186814343D01*
X187645057Y-186314343D02*
X187502200Y-186385771D01*
X187216486Y-186385771D01*
X187073628Y-186314343D01*
X187002200Y-186242914D01*
X186930771Y-186100057D01*
X186930771Y-185671486D01*
X187002200Y-185528629D01*
X187073628Y-185457200D01*
X187216486Y-185385771D01*
X187502200Y-185385771D01*
X187645057Y-185457200D01*
X189002200Y-185385771D02*
X189002200Y-186600057D01*
X188930771Y-186742914D01*
X188859343Y-186814343D01*
X188716486Y-186885771D01*
X188502200Y-186885771D01*
X188359343Y-186814343D01*
X189002200Y-186314343D02*
X188859343Y-186385771D01*
X188573629Y-186385771D01*
X188430771Y-186314343D01*
X188359343Y-186242914D01*
X188287914Y-186100057D01*
X188287914Y-185671486D01*
X188359343Y-185528629D01*
X188430771Y-185457200D01*
X188573629Y-185385771D01*
X188859343Y-185385771D01*
X189002200Y-185457200D01*
X190359343Y-186385771D02*
X190359343Y-185600057D01*
X190287914Y-185457200D01*
X190145057Y-185385771D01*
X189859343Y-185385771D01*
X189716486Y-185457200D01*
X190359343Y-186314343D02*
X190216486Y-186385771D01*
X189859343Y-186385771D01*
X189716486Y-186314343D01*
X189645057Y-186171486D01*
X189645057Y-186028629D01*
X189716486Y-185885771D01*
X189859343Y-185814343D01*
X190216486Y-185814343D01*
X190359343Y-185742914D01*
X191073629Y-186385771D02*
X191073629Y-184885771D01*
X191073629Y-185457200D02*
X191216486Y-185385771D01*
X191502200Y-185385771D01*
X191645057Y-185457200D01*
X191716486Y-185528629D01*
X191787915Y-185671486D01*
X191787915Y-186100057D01*
X191716486Y-186242914D01*
X191645057Y-186314343D01*
X191502200Y-186385771D01*
X191216486Y-186385771D01*
X191073629Y-186314343D01*
X192645058Y-186385771D02*
X192502200Y-186314343D01*
X192430772Y-186242914D01*
X192359343Y-186100057D01*
X192359343Y-185671486D01*
X192430772Y-185528629D01*
X192502200Y-185457200D01*
X192645058Y-185385771D01*
X192859343Y-185385771D01*
X193002200Y-185457200D01*
X193073629Y-185528629D01*
X193145058Y-185671486D01*
X193145058Y-186100057D01*
X193073629Y-186242914D01*
X193002200Y-186314343D01*
X192859343Y-186385771D01*
X192645058Y-186385771D01*
X193573629Y-185385771D02*
X194145058Y-185385771D01*
X193787915Y-184885771D02*
X193787915Y-186171486D01*
X193859343Y-186314343D01*
X194002201Y-186385771D01*
X194145058Y-186385771D01*
X194645058Y-186242914D02*
X194716486Y-186314343D01*
X194645058Y-186385771D01*
X194573629Y-186314343D01*
X194645058Y-186242914D01*
X194645058Y-186385771D01*
X195359344Y-186385771D02*
X195359344Y-184885771D01*
X195502201Y-185814343D02*
X195930772Y-186385771D01*
X195930772Y-185385771D02*
X195359344Y-185957200D01*
X196573630Y-186385771D02*
X196573630Y-185385771D01*
X196573630Y-184885771D02*
X196502201Y-184957200D01*
X196573630Y-185028629D01*
X196645058Y-184957200D01*
X196573630Y-184885771D01*
X196573630Y-185028629D01*
X197930773Y-186314343D02*
X197787916Y-186385771D01*
X197502202Y-186385771D01*
X197359344Y-186314343D01*
X197287916Y-186242914D01*
X197216487Y-186100057D01*
X197216487Y-185671486D01*
X197287916Y-185528629D01*
X197359344Y-185457200D01*
X197502202Y-185385771D01*
X197787916Y-185385771D01*
X197930773Y-185457200D01*
X199216487Y-186385771D02*
X199216487Y-185600057D01*
X199145058Y-185457200D01*
X199002201Y-185385771D01*
X198716487Y-185385771D01*
X198573630Y-185457200D01*
X199216487Y-186314343D02*
X199073630Y-186385771D01*
X198716487Y-186385771D01*
X198573630Y-186314343D01*
X198502201Y-186171486D01*
X198502201Y-186028629D01*
X198573630Y-185885771D01*
X198716487Y-185814343D01*
X199073630Y-185814343D01*
X199216487Y-185742914D01*
X200573630Y-186385771D02*
X200573630Y-184885771D01*
X200573630Y-186314343D02*
X200430773Y-186385771D01*
X200145059Y-186385771D01*
X200002201Y-186314343D01*
X199930773Y-186242914D01*
X199859344Y-186100057D01*
X199859344Y-185671486D01*
X199930773Y-185528629D01*
X200002201Y-185457200D01*
X200145059Y-185385771D01*
X200430773Y-185385771D01*
X200573630Y-185457200D01*
X200930773Y-186528629D02*
X202073630Y-186528629D01*
X202430773Y-185385771D02*
X202430773Y-186885771D01*
X202430773Y-185457200D02*
X202573630Y-185385771D01*
X202859344Y-185385771D01*
X203002201Y-185457200D01*
X203073630Y-185528629D01*
X203145059Y-185671486D01*
X203145059Y-186100057D01*
X203073630Y-186242914D01*
X203002201Y-186314343D01*
X202859344Y-186385771D01*
X202573630Y-186385771D01*
X202430773Y-186314343D01*
X204430773Y-186314343D02*
X204287916Y-186385771D01*
X204002202Y-186385771D01*
X203859344Y-186314343D01*
X203787916Y-186242914D01*
X203716487Y-186100057D01*
X203716487Y-185671486D01*
X203787916Y-185528629D01*
X203859344Y-185457200D01*
X204002202Y-185385771D01*
X204287916Y-185385771D01*
X204430773Y-185457200D01*
X205073630Y-186385771D02*
X205073630Y-184885771D01*
X205073630Y-185457200D02*
X205216487Y-185385771D01*
X205502201Y-185385771D01*
X205645058Y-185457200D01*
X205716487Y-185528629D01*
X205787916Y-185671486D01*
X205787916Y-186100057D01*
X205716487Y-186242914D01*
X205645058Y-186314343D01*
X205502201Y-186385771D01*
X205216487Y-186385771D01*
X205073630Y-186314343D01*
D10*
D11*
X177002200Y-181507200D02*
X285002200Y-181507200D01*
D10*
D11*
X178287914Y-183614343D02*
X178502200Y-183685771D01*
X178859343Y-183685771D01*
X179002200Y-183614343D01*
X179073629Y-183542914D01*
X179145057Y-183400057D01*
X179145057Y-183257200D01*
X179073629Y-183114343D01*
X179002200Y-183042914D01*
X178859343Y-182971486D01*
X178573629Y-182900057D01*
X178430771Y-182828629D01*
X178359343Y-182757200D01*
X178287914Y-182614343D01*
X178287914Y-182471486D01*
X178359343Y-182328629D01*
X178430771Y-182257200D01*
X178573629Y-182185771D01*
X178930771Y-182185771D01*
X179145057Y-182257200D01*
X179787914Y-183685771D02*
X179787914Y-182185771D01*
X180430771Y-183685771D02*
X180430771Y-182900057D01*
X180359342Y-182757200D01*
X180216485Y-182685771D01*
X180002200Y-182685771D01*
X179859342Y-182757200D01*
X179787914Y-182828629D01*
X181716485Y-183614343D02*
X181573628Y-183685771D01*
X181287914Y-183685771D01*
X181145057Y-183614343D01*
X181073628Y-183471486D01*
X181073628Y-182900057D01*
X181145057Y-182757200D01*
X181287914Y-182685771D01*
X181573628Y-182685771D01*
X181716485Y-182757200D01*
X181787914Y-182900057D01*
X181787914Y-183042914D01*
X181073628Y-183185771D01*
X183002199Y-183614343D02*
X182859342Y-183685771D01*
X182573628Y-183685771D01*
X182430771Y-183614343D01*
X182359342Y-183471486D01*
X182359342Y-182900057D01*
X182430771Y-182757200D01*
X182573628Y-182685771D01*
X182859342Y-182685771D01*
X183002199Y-182757200D01*
X183073628Y-182900057D01*
X183073628Y-183042914D01*
X182359342Y-183185771D01*
X183502199Y-182685771D02*
X184073628Y-182685771D01*
X183716485Y-182185771D02*
X183716485Y-183471486D01*
X183787913Y-183614343D01*
X183930771Y-183685771D01*
X184073628Y-183685771D01*
X184573628Y-183542914D02*
X184645056Y-183614343D01*
X184573628Y-183685771D01*
X184502199Y-183614343D01*
X184573628Y-183542914D01*
X184573628Y-183685771D01*
X184573628Y-182757200D02*
X184645056Y-182828629D01*
X184573628Y-182900057D01*
X184502199Y-182828629D01*
X184573628Y-182757200D01*
X184573628Y-182900057D01*
D10*
D11*
X197002200Y-191507200D02*
X197002200Y-194507200D01*
D10*
D11*
X261002200Y-191507200D02*
X261002200Y-198007200D01*
D14*
X155100000Y-98250000D02*
X160500000Y-98250000D01*
X160500000Y-98250000D02*
X160500000Y-101750000D01*
X160500000Y-101750000D02*
X155100000Y-101750000D01*
X155100000Y-101750000D02*
X155100000Y-98250000D01*
X144250000Y-88250000D02*
X144250000Y-91750000D01*
X147750000Y-88250000D02*
X147750000Y-91750000D01*
X144250000Y-88250000D02*
X147750000Y-88250000D01*
X144250000Y-91750000D02*
X147750000Y-91750000D01*
X144250000Y-108250000D02*
X144250000Y-111750000D01*
X147750000Y-108250000D02*
X147750000Y-111750000D01*
X144250000Y-108250000D02*
X147750000Y-108250000D01*
X144250000Y-111750000D02*
X147750000Y-111750000D01*
X140300000Y-105100000D02*
X146900000Y-105100000D01*
X140300000Y-107500000D02*
X146900000Y-107500000D01*
X140300000Y-105100000D02*
X140300000Y-107500000D01*
X146900000Y-105100000D02*
X146900000Y-107500000D01*
X134300000Y-101200000D02*
X127700000Y-101200000D01*
X134300000Y-98800000D02*
X127700000Y-98800000D01*
X134300000Y-101200000D02*
X134300000Y-98800000D01*
X127700000Y-101200000D02*
X127700000Y-98800000D01*
X122250000Y-102750000D02*
X122250000Y-106250000D01*
X125750000Y-102750000D02*
X125750000Y-106250000D01*
X122250000Y-102750000D02*
X125750000Y-102750000D01*
X122250000Y-106250000D02*
X125750000Y-106250000D01*
X122250000Y-93750000D02*
X122250000Y-97250000D01*
X125750000Y-93750000D02*
X125750000Y-97250000D01*
X122250000Y-93750000D02*
X125750000Y-93750000D01*
X122250000Y-97250000D02*
X125750000Y-97250000D01*
X163250000Y-102250000D02*
X163250000Y-105750000D01*
X166750000Y-102250000D02*
X166750000Y-105750000D01*
X163250000Y-102250000D02*
X166750000Y-102250000D01*
X163250000Y-105750000D02*
X166750000Y-105750000D01*
X146900000Y-104100000D02*
X140300000Y-104100000D01*
X146900000Y-101700000D02*
X140300000Y-101700000D01*
X146900000Y-104100000D02*
X146900000Y-101700000D01*
X140300000Y-104100000D02*
X140300000Y-101700000D01*
X140300000Y-92600000D02*
X146900000Y-92600000D01*
X140300000Y-95000000D02*
X146900000Y-95000000D01*
X140300000Y-92600000D02*
X140300000Y-95000000D01*
X146900000Y-92600000D02*
X146900000Y-95000000D01*
X163250000Y-94250000D02*
X163250000Y-97750000D01*
X166750000Y-94250000D02*
X166750000Y-97750000D01*
X163250000Y-94250000D02*
X166750000Y-94250000D01*
X163250000Y-97750000D02*
X166750000Y-97750000D01*
X136250000Y-108250000D02*
X136250000Y-111750000D01*
X139750000Y-108250000D02*
X139750000Y-111750000D01*
X136250000Y-108250000D02*
X139750000Y-108250000D01*
X136250000Y-111750000D02*
X139750000Y-111750000D01*
X136250000Y-88250000D02*
X136250000Y-91750000D01*
X139750000Y-88250000D02*
X139750000Y-91750000D01*
X136250000Y-88250000D02*
X139750000Y-88250000D01*
X136250000Y-91750000D02*
X139750000Y-91750000D01*
X140100000Y-101750000D02*
X134700000Y-101750000D01*
X134700000Y-101750000D02*
X134700000Y-98250000D01*
X134700000Y-98250000D02*
X140100000Y-98250000D01*
X140100000Y-98250000D02*
X140100000Y-101750000D01*
X147000000Y-98250000D02*
X152400000Y-98250000D01*
X152400000Y-98250000D02*
X152400000Y-101750000D01*
X152400000Y-101750000D02*
X147000000Y-101750000D01*
X147000000Y-101750000D02*
X147000000Y-98250000D01*
M02*
