G04 #@! TF.FileFunction,Legend,Bot*
%FSLAX46Y46*%
G04 Gerber Fmt 4.6, Leading zero omitted, Abs format (unit mm)*
G04 Created by KiCad (PCBNEW 4.0.7) date 2018 May 30, Wednesday 19:48:18*
%MOMM*%
%LPD*%
G01*
G04 APERTURE LIST*
%ADD10C,0.100000*%
%ADD11C,0.150000*%
%ADD12C,0.300000*%
%ADD13C,0.400000*%
%ADD14C,0.010000*%
G04 APERTURE END LIST*
D10*
D11*
X177002200Y-166007200D02*
X177002200Y-198007200D01*
X285002200Y-198007200D01*
X285002200Y-166007200D01*
X177002200Y-166007200D01*
D10*
D11*
X10000000Y-10000000D02*
X10000000Y-200007200D01*
X287002200Y-200007200D01*
X287002200Y-10000000D01*
X10000000Y-10000000D01*
D10*
D11*
X12000000Y-12000000D02*
X12000000Y-198007200D01*
X285002200Y-198007200D01*
X285002200Y-12000000D01*
X12000000Y-12000000D01*
D10*
D11*
X60000000Y-12000000D02*
X60000000Y-10000000D01*
D10*
D11*
X110000000Y-12000000D02*
X110000000Y-10000000D01*
D10*
D11*
X160000000Y-12000000D02*
X160000000Y-10000000D01*
D10*
D11*
X210000000Y-12000000D02*
X210000000Y-10000000D01*
D10*
D11*
X260000000Y-12000000D02*
X260000000Y-10000000D01*
D10*
D11*
X35990476Y-11588095D02*
X35247619Y-11588095D01*
X35619048Y-11588095D02*
X35619048Y-10288095D01*
X35495238Y-10473810D01*
X35371429Y-10597619D01*
X35247619Y-10659524D01*
D10*
D11*
X85247619Y-10411905D02*
X85309524Y-10350000D01*
X85433333Y-10288095D01*
X85742857Y-10288095D01*
X85866667Y-10350000D01*
X85928571Y-10411905D01*
X85990476Y-10535714D01*
X85990476Y-10659524D01*
X85928571Y-10845238D01*
X85185714Y-11588095D01*
X85990476Y-11588095D01*
D10*
D11*
X135185714Y-10288095D02*
X135990476Y-10288095D01*
X135557143Y-10783333D01*
X135742857Y-10783333D01*
X135866667Y-10845238D01*
X135928571Y-10907143D01*
X135990476Y-11030952D01*
X135990476Y-11340476D01*
X135928571Y-11464286D01*
X135866667Y-11526190D01*
X135742857Y-11588095D01*
X135371429Y-11588095D01*
X135247619Y-11526190D01*
X135185714Y-11464286D01*
D10*
D11*
X185866667Y-10721429D02*
X185866667Y-11588095D01*
X185557143Y-10226190D02*
X185247619Y-11154762D01*
X186052381Y-11154762D01*
D10*
D11*
X235928571Y-10288095D02*
X235309524Y-10288095D01*
X235247619Y-10907143D01*
X235309524Y-10845238D01*
X235433333Y-10783333D01*
X235742857Y-10783333D01*
X235866667Y-10845238D01*
X235928571Y-10907143D01*
X235990476Y-11030952D01*
X235990476Y-11340476D01*
X235928571Y-11464286D01*
X235866667Y-11526190D01*
X235742857Y-11588095D01*
X235433333Y-11588095D01*
X235309524Y-11526190D01*
X235247619Y-11464286D01*
D10*
D11*
X285866667Y-10288095D02*
X285619048Y-10288095D01*
X285495238Y-10350000D01*
X285433333Y-10411905D01*
X285309524Y-10597619D01*
X285247619Y-10845238D01*
X285247619Y-11340476D01*
X285309524Y-11464286D01*
X285371429Y-11526190D01*
X285495238Y-11588095D01*
X285742857Y-11588095D01*
X285866667Y-11526190D01*
X285928571Y-11464286D01*
X285990476Y-11340476D01*
X285990476Y-11030952D01*
X285928571Y-10907143D01*
X285866667Y-10845238D01*
X285742857Y-10783333D01*
X285495238Y-10783333D01*
X285371429Y-10845238D01*
X285309524Y-10907143D01*
X285247619Y-11030952D01*
D10*
D11*
X60000000Y-198007200D02*
X60000000Y-200007200D01*
D10*
D11*
X110000000Y-198007200D02*
X110000000Y-200007200D01*
D10*
D11*
X160000000Y-198007200D02*
X160000000Y-200007200D01*
D10*
D11*
X210000000Y-198007200D02*
X210000000Y-200007200D01*
D10*
D11*
X260000000Y-198007200D02*
X260000000Y-200007200D01*
D10*
D11*
X35990476Y-199595295D02*
X35247619Y-199595295D01*
X35619048Y-199595295D02*
X35619048Y-198295295D01*
X35495238Y-198481010D01*
X35371429Y-198604819D01*
X35247619Y-198666724D01*
D10*
D11*
X85247619Y-198419105D02*
X85309524Y-198357200D01*
X85433333Y-198295295D01*
X85742857Y-198295295D01*
X85866667Y-198357200D01*
X85928571Y-198419105D01*
X85990476Y-198542914D01*
X85990476Y-198666724D01*
X85928571Y-198852438D01*
X85185714Y-199595295D01*
X85990476Y-199595295D01*
D10*
D11*
X135185714Y-198295295D02*
X135990476Y-198295295D01*
X135557143Y-198790533D01*
X135742857Y-198790533D01*
X135866667Y-198852438D01*
X135928571Y-198914343D01*
X135990476Y-199038152D01*
X135990476Y-199347676D01*
X135928571Y-199471486D01*
X135866667Y-199533390D01*
X135742857Y-199595295D01*
X135371429Y-199595295D01*
X135247619Y-199533390D01*
X135185714Y-199471486D01*
D10*
D11*
X185866667Y-198728629D02*
X185866667Y-199595295D01*
X185557143Y-198233390D02*
X185247619Y-199161962D01*
X186052381Y-199161962D01*
D10*
D11*
X235928571Y-198295295D02*
X235309524Y-198295295D01*
X235247619Y-198914343D01*
X235309524Y-198852438D01*
X235433333Y-198790533D01*
X235742857Y-198790533D01*
X235866667Y-198852438D01*
X235928571Y-198914343D01*
X235990476Y-199038152D01*
X235990476Y-199347676D01*
X235928571Y-199471486D01*
X235866667Y-199533390D01*
X235742857Y-199595295D01*
X235433333Y-199595295D01*
X235309524Y-199533390D01*
X235247619Y-199471486D01*
D10*
D11*
X285866667Y-198295295D02*
X285619048Y-198295295D01*
X285495238Y-198357200D01*
X285433333Y-198419105D01*
X285309524Y-198604819D01*
X285247619Y-198852438D01*
X285247619Y-199347676D01*
X285309524Y-199471486D01*
X285371429Y-199533390D01*
X285495238Y-199595295D01*
X285742857Y-199595295D01*
X285866667Y-199533390D01*
X285928571Y-199471486D01*
X285990476Y-199347676D01*
X285990476Y-199038152D01*
X285928571Y-198914343D01*
X285866667Y-198852438D01*
X285742857Y-198790533D01*
X285495238Y-198790533D01*
X285371429Y-198852438D01*
X285309524Y-198914343D01*
X285247619Y-199038152D01*
D10*
D11*
X10000000Y-60000000D02*
X12000000Y-60000000D01*
D10*
D11*
X10000000Y-110000000D02*
X12000000Y-110000000D01*
D10*
D11*
X10000000Y-160000000D02*
X12000000Y-160000000D01*
D10*
D11*
X10690476Y-35216667D02*
X11309524Y-35216667D01*
X10566667Y-35588095D02*
X11000000Y-34288095D01*
X11433333Y-35588095D01*
D10*
D11*
X11092857Y-84907143D02*
X11278571Y-84969048D01*
X11340476Y-85030952D01*
X11402381Y-85154762D01*
X11402381Y-85340476D01*
X11340476Y-85464286D01*
X11278571Y-85526190D01*
X11154762Y-85588095D01*
X10659524Y-85588095D01*
X10659524Y-84288095D01*
X11092857Y-84288095D01*
X11216667Y-84350000D01*
X11278571Y-84411905D01*
X11340476Y-84535714D01*
X11340476Y-84659524D01*
X11278571Y-84783333D01*
X11216667Y-84845238D01*
X11092857Y-84907143D01*
X10659524Y-84907143D01*
D10*
D11*
X11402381Y-135464286D02*
X11340476Y-135526190D01*
X11154762Y-135588095D01*
X11030952Y-135588095D01*
X10845238Y-135526190D01*
X10721429Y-135402381D01*
X10659524Y-135278571D01*
X10597619Y-135030952D01*
X10597619Y-134845238D01*
X10659524Y-134597619D01*
X10721429Y-134473810D01*
X10845238Y-134350000D01*
X11030952Y-134288095D01*
X11154762Y-134288095D01*
X11340476Y-134350000D01*
X11402381Y-134411905D01*
D10*
D11*
X10659524Y-185588095D02*
X10659524Y-184288095D01*
X10969048Y-184288095D01*
X11154762Y-184350000D01*
X11278571Y-184473810D01*
X11340476Y-184597619D01*
X11402381Y-184845238D01*
X11402381Y-185030952D01*
X11340476Y-185278571D01*
X11278571Y-185402381D01*
X11154762Y-185526190D01*
X10969048Y-185588095D01*
X10659524Y-185588095D01*
D10*
D11*
X287002200Y-60000000D02*
X285002200Y-60000000D01*
D10*
D11*
X287002200Y-110000000D02*
X285002200Y-110000000D01*
D10*
D11*
X287002200Y-160000000D02*
X285002200Y-160000000D01*
D10*
D11*
X285692676Y-35216667D02*
X286311724Y-35216667D01*
X285568867Y-35588095D02*
X286002200Y-34288095D01*
X286435533Y-35588095D01*
D10*
D11*
X286095057Y-84907143D02*
X286280771Y-84969048D01*
X286342676Y-85030952D01*
X286404581Y-85154762D01*
X286404581Y-85340476D01*
X286342676Y-85464286D01*
X286280771Y-85526190D01*
X286156962Y-85588095D01*
X285661724Y-85588095D01*
X285661724Y-84288095D01*
X286095057Y-84288095D01*
X286218867Y-84350000D01*
X286280771Y-84411905D01*
X286342676Y-84535714D01*
X286342676Y-84659524D01*
X286280771Y-84783333D01*
X286218867Y-84845238D01*
X286095057Y-84907143D01*
X285661724Y-84907143D01*
D10*
D11*
X286404581Y-135464286D02*
X286342676Y-135526190D01*
X286156962Y-135588095D01*
X286033152Y-135588095D01*
X285847438Y-135526190D01*
X285723629Y-135402381D01*
X285661724Y-135278571D01*
X285599819Y-135030952D01*
X285599819Y-134845238D01*
X285661724Y-134597619D01*
X285723629Y-134473810D01*
X285847438Y-134350000D01*
X286033152Y-134288095D01*
X286156962Y-134288095D01*
X286342676Y-134350000D01*
X286404581Y-134411905D01*
D10*
D11*
X285661724Y-185588095D02*
X285661724Y-184288095D01*
X285971248Y-184288095D01*
X286156962Y-184350000D01*
X286280771Y-184473810D01*
X286342676Y-184597619D01*
X286404581Y-184845238D01*
X286404581Y-185030952D01*
X286342676Y-185278571D01*
X286280771Y-185402381D01*
X286156962Y-185526190D01*
X285971248Y-185588095D01*
X285661724Y-185588095D01*
D10*
D11*
X200359343Y-193785771D02*
X200359343Y-192285771D01*
X200716486Y-192285771D01*
X200930771Y-192357200D01*
X201073629Y-192500057D01*
X201145057Y-192642914D01*
X201216486Y-192928629D01*
X201216486Y-193142914D01*
X201145057Y-193428629D01*
X201073629Y-193571486D01*
X200930771Y-193714343D01*
X200716486Y-193785771D01*
X200359343Y-193785771D01*
X202502200Y-193785771D02*
X202502200Y-193000057D01*
X202430771Y-192857200D01*
X202287914Y-192785771D01*
X202002200Y-192785771D01*
X201859343Y-192857200D01*
X202502200Y-193714343D02*
X202359343Y-193785771D01*
X202002200Y-193785771D01*
X201859343Y-193714343D01*
X201787914Y-193571486D01*
X201787914Y-193428629D01*
X201859343Y-193285771D01*
X202002200Y-193214343D01*
X202359343Y-193214343D01*
X202502200Y-193142914D01*
X203002200Y-192785771D02*
X203573629Y-192785771D01*
X203216486Y-192285771D02*
X203216486Y-193571486D01*
X203287914Y-193714343D01*
X203430772Y-193785771D01*
X203573629Y-193785771D01*
X204645057Y-193714343D02*
X204502200Y-193785771D01*
X204216486Y-193785771D01*
X204073629Y-193714343D01*
X204002200Y-193571486D01*
X204002200Y-193000057D01*
X204073629Y-192857200D01*
X204216486Y-192785771D01*
X204502200Y-192785771D01*
X204645057Y-192857200D01*
X204716486Y-193000057D01*
X204716486Y-193142914D01*
X204002200Y-193285771D01*
X205359343Y-193642914D02*
X205430771Y-193714343D01*
X205359343Y-193785771D01*
X205287914Y-193714343D01*
X205359343Y-193642914D01*
X205359343Y-193785771D01*
X205359343Y-192857200D02*
X205430771Y-192928629D01*
X205359343Y-193000057D01*
X205287914Y-192928629D01*
X205359343Y-192857200D01*
X205359343Y-193000057D01*
X207145057Y-192428629D02*
X207216486Y-192357200D01*
X207359343Y-192285771D01*
X207716486Y-192285771D01*
X207859343Y-192357200D01*
X207930772Y-192428629D01*
X208002200Y-192571486D01*
X208002200Y-192714343D01*
X207930772Y-192928629D01*
X207073629Y-193785771D01*
X208002200Y-193785771D01*
X208930771Y-192285771D02*
X209073628Y-192285771D01*
X209216485Y-192357200D01*
X209287914Y-192428629D01*
X209359343Y-192571486D01*
X209430771Y-192857200D01*
X209430771Y-193214343D01*
X209359343Y-193500057D01*
X209287914Y-193642914D01*
X209216485Y-193714343D01*
X209073628Y-193785771D01*
X208930771Y-193785771D01*
X208787914Y-193714343D01*
X208716485Y-193642914D01*
X208645057Y-193500057D01*
X208573628Y-193214343D01*
X208573628Y-192857200D01*
X208645057Y-192571486D01*
X208716485Y-192428629D01*
X208787914Y-192357200D01*
X208930771Y-192285771D01*
X210859342Y-193785771D02*
X210002199Y-193785771D01*
X210430771Y-193785771D02*
X210430771Y-192285771D01*
X210287914Y-192500057D01*
X210145056Y-192642914D01*
X210002199Y-192714343D01*
X211716485Y-192928629D02*
X211573627Y-192857200D01*
X211502199Y-192785771D01*
X211430770Y-192642914D01*
X211430770Y-192571486D01*
X211502199Y-192428629D01*
X211573627Y-192357200D01*
X211716485Y-192285771D01*
X212002199Y-192285771D01*
X212145056Y-192357200D01*
X212216485Y-192428629D01*
X212287913Y-192571486D01*
X212287913Y-192642914D01*
X212216485Y-192785771D01*
X212145056Y-192857200D01*
X212002199Y-192928629D01*
X211716485Y-192928629D01*
X211573627Y-193000057D01*
X211502199Y-193071486D01*
X211430770Y-193214343D01*
X211430770Y-193500057D01*
X211502199Y-193642914D01*
X211573627Y-193714343D01*
X211716485Y-193785771D01*
X212002199Y-193785771D01*
X212145056Y-193714343D01*
X212216485Y-193642914D01*
X212287913Y-193500057D01*
X212287913Y-193214343D01*
X212216485Y-193071486D01*
X212145056Y-193000057D01*
X212002199Y-192928629D01*
X212930770Y-193214343D02*
X214073627Y-193214343D01*
X215073627Y-192285771D02*
X215216484Y-192285771D01*
X215359341Y-192357200D01*
X215430770Y-192428629D01*
X215502199Y-192571486D01*
X215573627Y-192857200D01*
X215573627Y-193214343D01*
X215502199Y-193500057D01*
X215430770Y-193642914D01*
X215359341Y-193714343D01*
X215216484Y-193785771D01*
X215073627Y-193785771D01*
X214930770Y-193714343D01*
X214859341Y-193642914D01*
X214787913Y-193500057D01*
X214716484Y-193214343D01*
X214716484Y-192857200D01*
X214787913Y-192571486D01*
X214859341Y-192428629D01*
X214930770Y-192357200D01*
X215073627Y-192285771D01*
X216930770Y-192285771D02*
X216216484Y-192285771D01*
X216145055Y-193000057D01*
X216216484Y-192928629D01*
X216359341Y-192857200D01*
X216716484Y-192857200D01*
X216859341Y-192928629D01*
X216930770Y-193000057D01*
X217002198Y-193142914D01*
X217002198Y-193500057D01*
X216930770Y-193642914D01*
X216859341Y-193714343D01*
X216716484Y-193785771D01*
X216359341Y-193785771D01*
X216216484Y-193714343D01*
X216145055Y-193642914D01*
X217645055Y-193214343D02*
X218787912Y-193214343D01*
X219359341Y-192285771D02*
X220287912Y-192285771D01*
X219787912Y-192857200D01*
X220002198Y-192857200D01*
X220145055Y-192928629D01*
X220216484Y-193000057D01*
X220287912Y-193142914D01*
X220287912Y-193500057D01*
X220216484Y-193642914D01*
X220145055Y-193714343D01*
X220002198Y-193785771D01*
X219573626Y-193785771D01*
X219430769Y-193714343D01*
X219359341Y-193642914D01*
X221216483Y-192285771D02*
X221359340Y-192285771D01*
X221502197Y-192357200D01*
X221573626Y-192428629D01*
X221645055Y-192571486D01*
X221716483Y-192857200D01*
X221716483Y-193214343D01*
X221645055Y-193500057D01*
X221573626Y-193642914D01*
X221502197Y-193714343D01*
X221359340Y-193785771D01*
X221216483Y-193785771D01*
X221073626Y-193714343D01*
X221002197Y-193642914D01*
X220930769Y-193500057D01*
X220859340Y-193214343D01*
X220859340Y-192857200D01*
X220930769Y-192571486D01*
X221002197Y-192428629D01*
X221073626Y-192357200D01*
X221216483Y-192285771D01*
D10*
D11*
X177002200Y-194507200D02*
X285002200Y-194507200D01*
D10*
D11*
X178359343Y-196585771D02*
X178359343Y-195085771D01*
X179216486Y-196585771D02*
X178573629Y-195728629D01*
X179216486Y-195085771D02*
X178359343Y-195942914D01*
X179859343Y-196585771D02*
X179859343Y-195585771D01*
X179859343Y-195085771D02*
X179787914Y-195157200D01*
X179859343Y-195228629D01*
X179930771Y-195157200D01*
X179859343Y-195085771D01*
X179859343Y-195228629D01*
X181430772Y-196442914D02*
X181359343Y-196514343D01*
X181145057Y-196585771D01*
X181002200Y-196585771D01*
X180787915Y-196514343D01*
X180645057Y-196371486D01*
X180573629Y-196228629D01*
X180502200Y-195942914D01*
X180502200Y-195728629D01*
X180573629Y-195442914D01*
X180645057Y-195300057D01*
X180787915Y-195157200D01*
X181002200Y-195085771D01*
X181145057Y-195085771D01*
X181359343Y-195157200D01*
X181430772Y-195228629D01*
X182716486Y-196585771D02*
X182716486Y-195800057D01*
X182645057Y-195657200D01*
X182502200Y-195585771D01*
X182216486Y-195585771D01*
X182073629Y-195657200D01*
X182716486Y-196514343D02*
X182573629Y-196585771D01*
X182216486Y-196585771D01*
X182073629Y-196514343D01*
X182002200Y-196371486D01*
X182002200Y-196228629D01*
X182073629Y-196085771D01*
X182216486Y-196014343D01*
X182573629Y-196014343D01*
X182716486Y-195942914D01*
X184073629Y-196585771D02*
X184073629Y-195085771D01*
X184073629Y-196514343D02*
X183930772Y-196585771D01*
X183645058Y-196585771D01*
X183502200Y-196514343D01*
X183430772Y-196442914D01*
X183359343Y-196300057D01*
X183359343Y-195871486D01*
X183430772Y-195728629D01*
X183502200Y-195657200D01*
X183645058Y-195585771D01*
X183930772Y-195585771D01*
X184073629Y-195657200D01*
X185930772Y-195800057D02*
X186430772Y-195800057D01*
X186645058Y-196585771D02*
X185930772Y-196585771D01*
X185930772Y-195085771D01*
X186645058Y-195085771D01*
X187287915Y-196442914D02*
X187359343Y-196514343D01*
X187287915Y-196585771D01*
X187216486Y-196514343D01*
X187287915Y-196442914D01*
X187287915Y-196585771D01*
X188002201Y-196585771D02*
X188002201Y-195085771D01*
X188359344Y-195085771D01*
X188573629Y-195157200D01*
X188716487Y-195300057D01*
X188787915Y-195442914D01*
X188859344Y-195728629D01*
X188859344Y-195942914D01*
X188787915Y-196228629D01*
X188716487Y-196371486D01*
X188573629Y-196514343D01*
X188359344Y-196585771D01*
X188002201Y-196585771D01*
X189502201Y-196442914D02*
X189573629Y-196514343D01*
X189502201Y-196585771D01*
X189430772Y-196514343D01*
X189502201Y-196442914D01*
X189502201Y-196585771D01*
X190145058Y-196157200D02*
X190859344Y-196157200D01*
X190002201Y-196585771D02*
X190502201Y-195085771D01*
X191002201Y-196585771D01*
X191502201Y-196442914D02*
X191573629Y-196514343D01*
X191502201Y-196585771D01*
X191430772Y-196514343D01*
X191502201Y-196442914D01*
X191502201Y-196585771D01*
X194502201Y-196585771D02*
X194502201Y-195085771D01*
X194645058Y-196014343D02*
X195073629Y-196585771D01*
X195073629Y-195585771D02*
X194502201Y-196157200D01*
X195716487Y-196585771D02*
X195716487Y-195585771D01*
X195716487Y-195085771D02*
X195645058Y-195157200D01*
X195716487Y-195228629D01*
X195787915Y-195157200D01*
X195716487Y-195085771D01*
X195716487Y-195228629D01*
X197073630Y-196514343D02*
X196930773Y-196585771D01*
X196645059Y-196585771D01*
X196502201Y-196514343D01*
X196430773Y-196442914D01*
X196359344Y-196300057D01*
X196359344Y-195871486D01*
X196430773Y-195728629D01*
X196502201Y-195657200D01*
X196645059Y-195585771D01*
X196930773Y-195585771D01*
X197073630Y-195657200D01*
X198359344Y-196585771D02*
X198359344Y-195800057D01*
X198287915Y-195657200D01*
X198145058Y-195585771D01*
X197859344Y-195585771D01*
X197716487Y-195657200D01*
X198359344Y-196514343D02*
X198216487Y-196585771D01*
X197859344Y-196585771D01*
X197716487Y-196514343D01*
X197645058Y-196371486D01*
X197645058Y-196228629D01*
X197716487Y-196085771D01*
X197859344Y-196014343D01*
X198216487Y-196014343D01*
X198359344Y-195942914D01*
X199716487Y-196585771D02*
X199716487Y-195085771D01*
X199716487Y-196514343D02*
X199573630Y-196585771D01*
X199287916Y-196585771D01*
X199145058Y-196514343D01*
X199073630Y-196442914D01*
X199002201Y-196300057D01*
X199002201Y-195871486D01*
X199073630Y-195728629D01*
X199145058Y-195657200D01*
X199287916Y-195585771D01*
X199573630Y-195585771D01*
X199716487Y-195657200D01*
X202216487Y-195585771D02*
X202216487Y-196585771D01*
X201859344Y-195014343D02*
X201502201Y-196085771D01*
X202430773Y-196085771D01*
X203002201Y-196442914D02*
X203073629Y-196514343D01*
X203002201Y-196585771D01*
X202930772Y-196514343D01*
X203002201Y-196442914D01*
X203002201Y-196585771D01*
X204002201Y-195085771D02*
X204145058Y-195085771D01*
X204287915Y-195157200D01*
X204359344Y-195228629D01*
X204430773Y-195371486D01*
X204502201Y-195657200D01*
X204502201Y-196014343D01*
X204430773Y-196300057D01*
X204359344Y-196442914D01*
X204287915Y-196514343D01*
X204145058Y-196585771D01*
X204002201Y-196585771D01*
X203859344Y-196514343D01*
X203787915Y-196442914D01*
X203716487Y-196300057D01*
X203645058Y-196014343D01*
X203645058Y-195657200D01*
X203716487Y-195371486D01*
X203787915Y-195228629D01*
X203859344Y-195157200D01*
X204002201Y-195085771D01*
X205145058Y-196442914D02*
X205216486Y-196514343D01*
X205145058Y-196585771D01*
X205073629Y-196514343D01*
X205145058Y-196442914D01*
X205145058Y-196585771D01*
X205716487Y-195085771D02*
X206716487Y-195085771D01*
X206073630Y-196585771D01*
D10*
D11*
X177002200Y-191507200D02*
X285002200Y-191507200D01*
D10*
D12*
X264216486Y-193785771D02*
X263716486Y-193071486D01*
X263359343Y-193785771D02*
X263359343Y-192285771D01*
X263930771Y-192285771D01*
X264073629Y-192357200D01*
X264145057Y-192428629D01*
X264216486Y-192571486D01*
X264216486Y-192785771D01*
X264145057Y-192928629D01*
X264073629Y-193000057D01*
X263930771Y-193071486D01*
X263359343Y-193071486D01*
X265430771Y-193714343D02*
X265287914Y-193785771D01*
X265002200Y-193785771D01*
X264859343Y-193714343D01*
X264787914Y-193571486D01*
X264787914Y-193000057D01*
X264859343Y-192857200D01*
X265002200Y-192785771D01*
X265287914Y-192785771D01*
X265430771Y-192857200D01*
X265502200Y-193000057D01*
X265502200Y-193142914D01*
X264787914Y-193285771D01*
X266002200Y-192785771D02*
X266359343Y-193785771D01*
X266716485Y-192785771D01*
X267287914Y-193642914D02*
X267359342Y-193714343D01*
X267287914Y-193785771D01*
X267216485Y-193714343D01*
X267287914Y-193642914D01*
X267287914Y-193785771D01*
X267287914Y-192857200D02*
X267359342Y-192928629D01*
X267287914Y-193000057D01*
X267216485Y-192928629D01*
X267287914Y-192857200D01*
X267287914Y-193000057D01*
X269930771Y-193785771D02*
X269073628Y-193785771D01*
X269502200Y-193785771D02*
X269502200Y-192285771D01*
X269359343Y-192500057D01*
X269216485Y-192642914D01*
X269073628Y-192714343D01*
X270573628Y-193642914D02*
X270645056Y-193714343D01*
X270573628Y-193785771D01*
X270502199Y-193714343D01*
X270573628Y-193642914D01*
X270573628Y-193785771D01*
X271573628Y-192285771D02*
X271716485Y-192285771D01*
X271859342Y-192357200D01*
X271930771Y-192428629D01*
X272002200Y-192571486D01*
X272073628Y-192857200D01*
X272073628Y-193214343D01*
X272002200Y-193500057D01*
X271930771Y-193642914D01*
X271859342Y-193714343D01*
X271716485Y-193785771D01*
X271573628Y-193785771D01*
X271430771Y-193714343D01*
X271359342Y-193642914D01*
X271287914Y-193500057D01*
X271216485Y-193214343D01*
X271216485Y-192857200D01*
X271287914Y-192571486D01*
X271359342Y-192428629D01*
X271430771Y-192357200D01*
X271573628Y-192285771D01*
D10*
D11*
X178287914Y-193714343D02*
X178502200Y-193785771D01*
X178859343Y-193785771D01*
X179002200Y-193714343D01*
X179073629Y-193642914D01*
X179145057Y-193500057D01*
X179145057Y-193357200D01*
X179073629Y-193214343D01*
X179002200Y-193142914D01*
X178859343Y-193071486D01*
X178573629Y-193000057D01*
X178430771Y-192928629D01*
X178359343Y-192857200D01*
X178287914Y-192714343D01*
X178287914Y-192571486D01*
X178359343Y-192428629D01*
X178430771Y-192357200D01*
X178573629Y-192285771D01*
X178930771Y-192285771D01*
X179145057Y-192357200D01*
X179787914Y-193785771D02*
X179787914Y-192785771D01*
X179787914Y-192285771D02*
X179716485Y-192357200D01*
X179787914Y-192428629D01*
X179859342Y-192357200D01*
X179787914Y-192285771D01*
X179787914Y-192428629D01*
X180359343Y-192785771D02*
X181145057Y-192785771D01*
X180359343Y-193785771D01*
X181145057Y-193785771D01*
X182287914Y-193714343D02*
X182145057Y-193785771D01*
X181859343Y-193785771D01*
X181716486Y-193714343D01*
X181645057Y-193571486D01*
X181645057Y-193000057D01*
X181716486Y-192857200D01*
X181859343Y-192785771D01*
X182145057Y-192785771D01*
X182287914Y-192857200D01*
X182359343Y-193000057D01*
X182359343Y-193142914D01*
X181645057Y-193285771D01*
X183002200Y-193642914D02*
X183073628Y-193714343D01*
X183002200Y-193785771D01*
X182930771Y-193714343D01*
X183002200Y-193642914D01*
X183002200Y-193785771D01*
X183002200Y-192857200D02*
X183073628Y-192928629D01*
X183002200Y-193000057D01*
X182930771Y-192928629D01*
X183002200Y-192857200D01*
X183002200Y-193000057D01*
X184787914Y-193357200D02*
X185502200Y-193357200D01*
X184645057Y-193785771D02*
X185145057Y-192285771D01*
X185645057Y-193785771D01*
X186787914Y-192785771D02*
X186787914Y-193785771D01*
X186430771Y-192214343D02*
X186073628Y-193285771D01*
X187002200Y-193285771D01*
D10*
D11*
X263359343Y-196585771D02*
X263359343Y-195085771D01*
X264716486Y-196585771D02*
X264716486Y-195085771D01*
X264716486Y-196514343D02*
X264573629Y-196585771D01*
X264287915Y-196585771D01*
X264145057Y-196514343D01*
X264073629Y-196442914D01*
X264002200Y-196300057D01*
X264002200Y-195871486D01*
X264073629Y-195728629D01*
X264145057Y-195657200D01*
X264287915Y-195585771D01*
X264573629Y-195585771D01*
X264716486Y-195657200D01*
X265430772Y-196442914D02*
X265502200Y-196514343D01*
X265430772Y-196585771D01*
X265359343Y-196514343D01*
X265430772Y-196442914D01*
X265430772Y-196585771D01*
X265430772Y-195657200D02*
X265502200Y-195728629D01*
X265430772Y-195800057D01*
X265359343Y-195728629D01*
X265430772Y-195657200D01*
X265430772Y-195800057D01*
X268073629Y-196585771D02*
X267216486Y-196585771D01*
X267645058Y-196585771D02*
X267645058Y-195085771D01*
X267502201Y-195300057D01*
X267359343Y-195442914D01*
X267216486Y-195514343D01*
X269787914Y-195014343D02*
X268502200Y-196942914D01*
X271073629Y-196585771D02*
X270216486Y-196585771D01*
X270645058Y-196585771D02*
X270645058Y-195085771D01*
X270502201Y-195300057D01*
X270359343Y-195442914D01*
X270216486Y-195514343D01*
D10*
D11*
X177002200Y-187507200D02*
X285002200Y-187507200D01*
D10*
D13*
X178454581Y-188211962D02*
X179597438Y-188211962D01*
X178776010Y-190211962D02*
X179026010Y-188211962D01*
X180014105Y-190211962D02*
X180180771Y-188878629D01*
X180264105Y-188211962D02*
X180156962Y-188307200D01*
X180240295Y-188402438D01*
X180347439Y-188307200D01*
X180264105Y-188211962D01*
X180240295Y-188402438D01*
X180847438Y-188878629D02*
X181609343Y-188878629D01*
X181216486Y-188211962D02*
X181002200Y-189926248D01*
X181073630Y-190116724D01*
X181252201Y-190211962D01*
X181442677Y-190211962D01*
X182395058Y-190211962D02*
X182216487Y-190116724D01*
X182145057Y-189926248D01*
X182359343Y-188211962D01*
X183930772Y-190116724D02*
X183728391Y-190211962D01*
X183347439Y-190211962D01*
X183168867Y-190116724D01*
X183097438Y-189926248D01*
X183192676Y-189164343D01*
X183311724Y-188973867D01*
X183514105Y-188878629D01*
X183895057Y-188878629D01*
X184073629Y-188973867D01*
X184145057Y-189164343D01*
X184121248Y-189354819D01*
X183145057Y-189545295D01*
X184895057Y-190021486D02*
X184978392Y-190116724D01*
X184871248Y-190211962D01*
X184787915Y-190116724D01*
X184895057Y-190021486D01*
X184871248Y-190211962D01*
X185026010Y-188973867D02*
X185109344Y-189069105D01*
X185002200Y-189164343D01*
X184918867Y-189069105D01*
X185026010Y-188973867D01*
X185002200Y-189164343D01*
X188371248Y-188878629D02*
X188168867Y-190497676D01*
X188049820Y-190688152D01*
X187942677Y-190783390D01*
X187740296Y-190878629D01*
X187454582Y-190878629D01*
X187276010Y-190783390D01*
X188216487Y-190116724D02*
X188014106Y-190211962D01*
X187633154Y-190211962D01*
X187454583Y-190116724D01*
X187371248Y-190021486D01*
X187299820Y-189831010D01*
X187371248Y-189259581D01*
X187490296Y-189069105D01*
X187597440Y-188973867D01*
X187799820Y-188878629D01*
X188180772Y-188878629D01*
X188359344Y-188973867D01*
X189442678Y-190211962D02*
X189264107Y-190116724D01*
X189180772Y-190021486D01*
X189109344Y-189831010D01*
X189180772Y-189259581D01*
X189299820Y-189069105D01*
X189406964Y-188973867D01*
X189609344Y-188878629D01*
X189895058Y-188878629D01*
X190073630Y-188973867D01*
X190156963Y-189069105D01*
X190228391Y-189259581D01*
X190156963Y-189831010D01*
X190037915Y-190021486D01*
X189930773Y-190116724D01*
X189728392Y-190211962D01*
X189442678Y-190211962D01*
X191990296Y-188878629D02*
X191787915Y-190497676D01*
X191668868Y-190688152D01*
X191561725Y-190783390D01*
X191359344Y-190878629D01*
X191073630Y-190878629D01*
X190895058Y-190783390D01*
X191835535Y-190116724D02*
X191633154Y-190211962D01*
X191252202Y-190211962D01*
X191073631Y-190116724D01*
X190990296Y-190021486D01*
X190918868Y-189831010D01*
X190990296Y-189259581D01*
X191109344Y-189069105D01*
X191216488Y-188973867D01*
X191418868Y-188878629D01*
X191799820Y-188878629D01*
X191978392Y-188973867D01*
X193799820Y-188878629D02*
X193597439Y-190497676D01*
X193478392Y-190688152D01*
X193371249Y-190783390D01*
X193168868Y-190878629D01*
X192883154Y-190878629D01*
X192704582Y-190783390D01*
X193645059Y-190116724D02*
X193442678Y-190211962D01*
X193061726Y-190211962D01*
X192883155Y-190116724D01*
X192799820Y-190021486D01*
X192728392Y-189831010D01*
X192799820Y-189259581D01*
X192918868Y-189069105D01*
X193026012Y-188973867D01*
X193228392Y-188878629D01*
X193609344Y-188878629D01*
X193787916Y-188973867D01*
X195442678Y-190211962D02*
X195573630Y-189164343D01*
X195502202Y-188973867D01*
X195323630Y-188878629D01*
X194942678Y-188878629D01*
X194740297Y-188973867D01*
X195454583Y-190116724D02*
X195252202Y-190211962D01*
X194776012Y-190211962D01*
X194597440Y-190116724D01*
X194526011Y-189926248D01*
X194549821Y-189735771D01*
X194668868Y-189545295D01*
X194871250Y-189450057D01*
X195347440Y-189450057D01*
X195549821Y-189354819D01*
X196395059Y-190211962D02*
X196645059Y-188211962D01*
X196549821Y-188973867D02*
X196752202Y-188878629D01*
X197133154Y-188878629D01*
X197311726Y-188973867D01*
X197395059Y-189069105D01*
X197466487Y-189259581D01*
X197395059Y-189831010D01*
X197276011Y-190021486D01*
X197168869Y-190116724D01*
X196966488Y-190211962D01*
X196585536Y-190211962D01*
X196406964Y-190116724D01*
X198490298Y-190211962D02*
X198311727Y-190116724D01*
X198228392Y-190021486D01*
X198156964Y-189831010D01*
X198228392Y-189259581D01*
X198347440Y-189069105D01*
X198454584Y-188973867D01*
X198656964Y-188878629D01*
X198942678Y-188878629D01*
X199121250Y-188973867D01*
X199204583Y-189069105D01*
X199276011Y-189259581D01*
X199204583Y-189831010D01*
X199085535Y-190021486D01*
X198978393Y-190116724D01*
X198776012Y-190211962D01*
X198490298Y-190211962D01*
X199895059Y-188878629D02*
X200656964Y-188878629D01*
X200264107Y-188211962D02*
X200049821Y-189926248D01*
X200121251Y-190116724D01*
X200299822Y-190211962D01*
X200490298Y-190211962D01*
X202597441Y-190116724D02*
X202871251Y-190211962D01*
X203347441Y-190211962D01*
X203549822Y-190116724D01*
X203656964Y-190021486D01*
X203776013Y-189831010D01*
X203799822Y-189640533D01*
X203728393Y-189450057D01*
X203645060Y-189354819D01*
X203466488Y-189259581D01*
X203097441Y-189164343D01*
X202918870Y-189069105D01*
X202835536Y-188973867D01*
X202764107Y-188783390D01*
X202787917Y-188592914D01*
X202906964Y-188402438D01*
X203014108Y-188307200D01*
X203216489Y-188211962D01*
X203692679Y-188211962D01*
X203966489Y-188307200D01*
X204585536Y-190211962D02*
X204835536Y-188211962D01*
X205323631Y-189640533D01*
X206168870Y-188211962D01*
X205918870Y-190211962D01*
X206871250Y-190211962D02*
X207121250Y-188211962D01*
X207597441Y-188211962D01*
X207871250Y-188307200D01*
X208037917Y-188497676D01*
X208109346Y-188688152D01*
X208156965Y-189069105D01*
X208121251Y-189354819D01*
X207978394Y-189735771D01*
X207859345Y-189926248D01*
X207645060Y-190116724D01*
X207347441Y-190211962D01*
X206871250Y-190211962D01*
D10*
D11*
X178859343Y-185600057D02*
X178359343Y-185600057D01*
X178359343Y-186385771D02*
X178359343Y-184885771D01*
X179073629Y-184885771D01*
X179645057Y-186385771D02*
X179645057Y-185385771D01*
X179645057Y-184885771D02*
X179573628Y-184957200D01*
X179645057Y-185028629D01*
X179716485Y-184957200D01*
X179645057Y-184885771D01*
X179645057Y-185028629D01*
X180573629Y-186385771D02*
X180430771Y-186314343D01*
X180359343Y-186171486D01*
X180359343Y-184885771D01*
X181716485Y-186314343D02*
X181573628Y-186385771D01*
X181287914Y-186385771D01*
X181145057Y-186314343D01*
X181073628Y-186171486D01*
X181073628Y-185600057D01*
X181145057Y-185457200D01*
X181287914Y-185385771D01*
X181573628Y-185385771D01*
X181716485Y-185457200D01*
X181787914Y-185600057D01*
X181787914Y-185742914D01*
X181073628Y-185885771D01*
X182430771Y-186242914D02*
X182502199Y-186314343D01*
X182430771Y-186385771D01*
X182359342Y-186314343D01*
X182430771Y-186242914D01*
X182430771Y-186385771D01*
X182430771Y-185457200D02*
X182502199Y-185528629D01*
X182430771Y-185600057D01*
X182359342Y-185528629D01*
X182430771Y-185457200D01*
X182430771Y-185600057D01*
X184930771Y-185385771D02*
X184930771Y-186600057D01*
X184859342Y-186742914D01*
X184787914Y-186814343D01*
X184645057Y-186885771D01*
X184430771Y-186885771D01*
X184287914Y-186814343D01*
X184930771Y-186314343D02*
X184787914Y-186385771D01*
X184502200Y-186385771D01*
X184359342Y-186314343D01*
X184287914Y-186242914D01*
X184216485Y-186100057D01*
X184216485Y-185671486D01*
X184287914Y-185528629D01*
X184359342Y-185457200D01*
X184502200Y-185385771D01*
X184787914Y-185385771D01*
X184930771Y-185457200D01*
X185859343Y-186385771D02*
X185716485Y-186314343D01*
X185645057Y-186242914D01*
X185573628Y-186100057D01*
X185573628Y-185671486D01*
X185645057Y-185528629D01*
X185716485Y-185457200D01*
X185859343Y-185385771D01*
X186073628Y-185385771D01*
X186216485Y-185457200D01*
X186287914Y-185528629D01*
X186359343Y-185671486D01*
X186359343Y-186100057D01*
X186287914Y-186242914D01*
X186216485Y-186314343D01*
X186073628Y-186385771D01*
X185859343Y-186385771D01*
X187645057Y-185385771D02*
X187645057Y-186600057D01*
X187573628Y-186742914D01*
X187502200Y-186814343D01*
X187359343Y-186885771D01*
X187145057Y-186885771D01*
X187002200Y-186814343D01*
X187645057Y-186314343D02*
X187502200Y-186385771D01*
X187216486Y-186385771D01*
X187073628Y-186314343D01*
X187002200Y-186242914D01*
X186930771Y-186100057D01*
X186930771Y-185671486D01*
X187002200Y-185528629D01*
X187073628Y-185457200D01*
X187216486Y-185385771D01*
X187502200Y-185385771D01*
X187645057Y-185457200D01*
X189002200Y-185385771D02*
X189002200Y-186600057D01*
X188930771Y-186742914D01*
X188859343Y-186814343D01*
X188716486Y-186885771D01*
X188502200Y-186885771D01*
X188359343Y-186814343D01*
X189002200Y-186314343D02*
X188859343Y-186385771D01*
X188573629Y-186385771D01*
X188430771Y-186314343D01*
X188359343Y-186242914D01*
X188287914Y-186100057D01*
X188287914Y-185671486D01*
X188359343Y-185528629D01*
X188430771Y-185457200D01*
X188573629Y-185385771D01*
X188859343Y-185385771D01*
X189002200Y-185457200D01*
X190359343Y-186385771D02*
X190359343Y-185600057D01*
X190287914Y-185457200D01*
X190145057Y-185385771D01*
X189859343Y-185385771D01*
X189716486Y-185457200D01*
X190359343Y-186314343D02*
X190216486Y-186385771D01*
X189859343Y-186385771D01*
X189716486Y-186314343D01*
X189645057Y-186171486D01*
X189645057Y-186028629D01*
X189716486Y-185885771D01*
X189859343Y-185814343D01*
X190216486Y-185814343D01*
X190359343Y-185742914D01*
X191073629Y-186385771D02*
X191073629Y-184885771D01*
X191073629Y-185457200D02*
X191216486Y-185385771D01*
X191502200Y-185385771D01*
X191645057Y-185457200D01*
X191716486Y-185528629D01*
X191787915Y-185671486D01*
X191787915Y-186100057D01*
X191716486Y-186242914D01*
X191645057Y-186314343D01*
X191502200Y-186385771D01*
X191216486Y-186385771D01*
X191073629Y-186314343D01*
X192645058Y-186385771D02*
X192502200Y-186314343D01*
X192430772Y-186242914D01*
X192359343Y-186100057D01*
X192359343Y-185671486D01*
X192430772Y-185528629D01*
X192502200Y-185457200D01*
X192645058Y-185385771D01*
X192859343Y-185385771D01*
X193002200Y-185457200D01*
X193073629Y-185528629D01*
X193145058Y-185671486D01*
X193145058Y-186100057D01*
X193073629Y-186242914D01*
X193002200Y-186314343D01*
X192859343Y-186385771D01*
X192645058Y-186385771D01*
X193573629Y-185385771D02*
X194145058Y-185385771D01*
X193787915Y-184885771D02*
X193787915Y-186171486D01*
X193859343Y-186314343D01*
X194002201Y-186385771D01*
X194145058Y-186385771D01*
X194645058Y-186242914D02*
X194716486Y-186314343D01*
X194645058Y-186385771D01*
X194573629Y-186314343D01*
X194645058Y-186242914D01*
X194645058Y-186385771D01*
X195359344Y-186385771D02*
X195359344Y-184885771D01*
X195502201Y-185814343D02*
X195930772Y-186385771D01*
X195930772Y-185385771D02*
X195359344Y-185957200D01*
X196573630Y-186385771D02*
X196573630Y-185385771D01*
X196573630Y-184885771D02*
X196502201Y-184957200D01*
X196573630Y-185028629D01*
X196645058Y-184957200D01*
X196573630Y-184885771D01*
X196573630Y-185028629D01*
X197930773Y-186314343D02*
X197787916Y-186385771D01*
X197502202Y-186385771D01*
X197359344Y-186314343D01*
X197287916Y-186242914D01*
X197216487Y-186100057D01*
X197216487Y-185671486D01*
X197287916Y-185528629D01*
X197359344Y-185457200D01*
X197502202Y-185385771D01*
X197787916Y-185385771D01*
X197930773Y-185457200D01*
X199216487Y-186385771D02*
X199216487Y-185600057D01*
X199145058Y-185457200D01*
X199002201Y-185385771D01*
X198716487Y-185385771D01*
X198573630Y-185457200D01*
X199216487Y-186314343D02*
X199073630Y-186385771D01*
X198716487Y-186385771D01*
X198573630Y-186314343D01*
X198502201Y-186171486D01*
X198502201Y-186028629D01*
X198573630Y-185885771D01*
X198716487Y-185814343D01*
X199073630Y-185814343D01*
X199216487Y-185742914D01*
X200573630Y-186385771D02*
X200573630Y-184885771D01*
X200573630Y-186314343D02*
X200430773Y-186385771D01*
X200145059Y-186385771D01*
X200002201Y-186314343D01*
X199930773Y-186242914D01*
X199859344Y-186100057D01*
X199859344Y-185671486D01*
X199930773Y-185528629D01*
X200002201Y-185457200D01*
X200145059Y-185385771D01*
X200430773Y-185385771D01*
X200573630Y-185457200D01*
X200930773Y-186528629D02*
X202073630Y-186528629D01*
X202430773Y-185385771D02*
X202430773Y-186885771D01*
X202430773Y-185457200D02*
X202573630Y-185385771D01*
X202859344Y-185385771D01*
X203002201Y-185457200D01*
X203073630Y-185528629D01*
X203145059Y-185671486D01*
X203145059Y-186100057D01*
X203073630Y-186242914D01*
X203002201Y-186314343D01*
X202859344Y-186385771D01*
X202573630Y-186385771D01*
X202430773Y-186314343D01*
X204430773Y-186314343D02*
X204287916Y-186385771D01*
X204002202Y-186385771D01*
X203859344Y-186314343D01*
X203787916Y-186242914D01*
X203716487Y-186100057D01*
X203716487Y-185671486D01*
X203787916Y-185528629D01*
X203859344Y-185457200D01*
X204002202Y-185385771D01*
X204287916Y-185385771D01*
X204430773Y-185457200D01*
X205073630Y-186385771D02*
X205073630Y-184885771D01*
X205073630Y-185457200D02*
X205216487Y-185385771D01*
X205502201Y-185385771D01*
X205645058Y-185457200D01*
X205716487Y-185528629D01*
X205787916Y-185671486D01*
X205787916Y-186100057D01*
X205716487Y-186242914D01*
X205645058Y-186314343D01*
X205502201Y-186385771D01*
X205216487Y-186385771D01*
X205073630Y-186314343D01*
D10*
D11*
X177002200Y-181507200D02*
X285002200Y-181507200D01*
D10*
D11*
X178287914Y-183614343D02*
X178502200Y-183685771D01*
X178859343Y-183685771D01*
X179002200Y-183614343D01*
X179073629Y-183542914D01*
X179145057Y-183400057D01*
X179145057Y-183257200D01*
X179073629Y-183114343D01*
X179002200Y-183042914D01*
X178859343Y-182971486D01*
X178573629Y-182900057D01*
X178430771Y-182828629D01*
X178359343Y-182757200D01*
X178287914Y-182614343D01*
X178287914Y-182471486D01*
X178359343Y-182328629D01*
X178430771Y-182257200D01*
X178573629Y-182185771D01*
X178930771Y-182185771D01*
X179145057Y-182257200D01*
X179787914Y-183685771D02*
X179787914Y-182185771D01*
X180430771Y-183685771D02*
X180430771Y-182900057D01*
X180359342Y-182757200D01*
X180216485Y-182685771D01*
X180002200Y-182685771D01*
X179859342Y-182757200D01*
X179787914Y-182828629D01*
X181716485Y-183614343D02*
X181573628Y-183685771D01*
X181287914Y-183685771D01*
X181145057Y-183614343D01*
X181073628Y-183471486D01*
X181073628Y-182900057D01*
X181145057Y-182757200D01*
X181287914Y-182685771D01*
X181573628Y-182685771D01*
X181716485Y-182757200D01*
X181787914Y-182900057D01*
X181787914Y-183042914D01*
X181073628Y-183185771D01*
X183002199Y-183614343D02*
X182859342Y-183685771D01*
X182573628Y-183685771D01*
X182430771Y-183614343D01*
X182359342Y-183471486D01*
X182359342Y-182900057D01*
X182430771Y-182757200D01*
X182573628Y-182685771D01*
X182859342Y-182685771D01*
X183002199Y-182757200D01*
X183073628Y-182900057D01*
X183073628Y-183042914D01*
X182359342Y-183185771D01*
X183502199Y-182685771D02*
X184073628Y-182685771D01*
X183716485Y-182185771D02*
X183716485Y-183471486D01*
X183787913Y-183614343D01*
X183930771Y-183685771D01*
X184073628Y-183685771D01*
X184573628Y-183542914D02*
X184645056Y-183614343D01*
X184573628Y-183685771D01*
X184502199Y-183614343D01*
X184573628Y-183542914D01*
X184573628Y-183685771D01*
X184573628Y-182757200D02*
X184645056Y-182828629D01*
X184573628Y-182900057D01*
X184502199Y-182828629D01*
X184573628Y-182757200D01*
X184573628Y-182900057D01*
D10*
D11*
X197002200Y-191507200D02*
X197002200Y-194507200D01*
D10*
D11*
X261002200Y-191507200D02*
X261002200Y-198007200D01*
D12*
X148128572Y-110092857D02*
X149271429Y-110092857D01*
X134628572Y-110092857D02*
X135771429Y-110092857D01*
X135200000Y-109521429D02*
X135200000Y-110664286D01*
X164892857Y-93571428D02*
X164892857Y-92428571D01*
X164321429Y-93000000D02*
X165464286Y-93000000D01*
X135771428Y-89907143D02*
X134628571Y-89907143D01*
X149271428Y-89907143D02*
X148128571Y-89907143D01*
X148700000Y-90478571D02*
X148700000Y-89335714D01*
X123892857Y-108071428D02*
X123892857Y-106928571D01*
X123892857Y-93071428D02*
X123892857Y-91928571D01*
X123321429Y-92500000D02*
X124464286Y-92500000D01*
X121892857Y-101000000D02*
X121821429Y-101142857D01*
X121821429Y-101428571D01*
X121892857Y-101571429D01*
X121964286Y-101642857D01*
X122107143Y-101714286D01*
X122535714Y-101714286D01*
X122678571Y-101642857D01*
X122750000Y-101571429D01*
X122821429Y-101428571D01*
X122821429Y-101142857D01*
X122750000Y-101000000D01*
X121821429Y-99714286D02*
X122607143Y-99714286D01*
X122750000Y-99785715D01*
X122821429Y-99928572D01*
X122821429Y-100214286D01*
X122750000Y-100357143D01*
X121892857Y-99714286D02*
X121821429Y-99857143D01*
X121821429Y-100214286D01*
X121892857Y-100357143D01*
X122035714Y-100428572D01*
X122178571Y-100428572D01*
X122321429Y-100357143D01*
X122392857Y-100214286D01*
X122392857Y-99857143D01*
X122464286Y-99714286D01*
X122821429Y-99000000D02*
X121321429Y-99000000D01*
X122750000Y-99000000D02*
X122821429Y-98857143D01*
X122821429Y-98571429D01*
X122750000Y-98428572D01*
X122678571Y-98357143D01*
X122535714Y-98285714D01*
X122107143Y-98285714D01*
X121964286Y-98357143D01*
X121892857Y-98428572D01*
X121821429Y-98571429D01*
X121821429Y-98857143D01*
X121892857Y-99000000D01*
X168278571Y-96907143D02*
X167278571Y-96907143D01*
X167421429Y-96907143D02*
X167350000Y-96978571D01*
X167278571Y-97121429D01*
X167278571Y-97335714D01*
X167350000Y-97478571D01*
X167492857Y-97550000D01*
X168278571Y-97550000D01*
X167492857Y-97550000D02*
X167350000Y-97621429D01*
X167278571Y-97764286D01*
X167278571Y-97978571D01*
X167350000Y-98121429D01*
X167492857Y-98192857D01*
X168278571Y-98192857D01*
X168278571Y-99121429D02*
X168207143Y-98978571D01*
X168135714Y-98907143D01*
X167992857Y-98835714D01*
X167564286Y-98835714D01*
X167421429Y-98907143D01*
X167350000Y-98978571D01*
X167278571Y-99121429D01*
X167278571Y-99335714D01*
X167350000Y-99478571D01*
X167421429Y-99550000D01*
X167564286Y-99621429D01*
X167992857Y-99621429D01*
X168135714Y-99550000D01*
X168207143Y-99478571D01*
X168278571Y-99335714D01*
X168278571Y-99121429D01*
X167278571Y-100050000D02*
X167278571Y-100621429D01*
X166778571Y-100264286D02*
X168064286Y-100264286D01*
X168207143Y-100335714D01*
X168278571Y-100478572D01*
X168278571Y-100621429D01*
X168278571Y-101335715D02*
X168207143Y-101192857D01*
X168135714Y-101121429D01*
X167992857Y-101050000D01*
X167564286Y-101050000D01*
X167421429Y-101121429D01*
X167350000Y-101192857D01*
X167278571Y-101335715D01*
X167278571Y-101550000D01*
X167350000Y-101692857D01*
X167421429Y-101764286D01*
X167564286Y-101835715D01*
X167992857Y-101835715D01*
X168135714Y-101764286D01*
X168207143Y-101692857D01*
X168278571Y-101550000D01*
X168278571Y-101335715D01*
X168278571Y-102478572D02*
X167278571Y-102478572D01*
X167564286Y-102478572D02*
X167421429Y-102550000D01*
X167350000Y-102621429D01*
X167278571Y-102764286D01*
X167278571Y-102907143D01*
X144535714Y-113207143D02*
X144392857Y-113278571D01*
X144107142Y-113278571D01*
X143964285Y-113207143D01*
X143892857Y-113064286D01*
X143892857Y-112992857D01*
X143964285Y-112850000D01*
X144107142Y-112778571D01*
X144321428Y-112778571D01*
X144464285Y-112707143D01*
X144535714Y-112564286D01*
X144535714Y-112492857D01*
X144464285Y-112350000D01*
X144321428Y-112278571D01*
X144107142Y-112278571D01*
X143964285Y-112350000D01*
X143035713Y-113278571D02*
X143178571Y-113207143D01*
X143249999Y-113135714D01*
X143321428Y-112992857D01*
X143321428Y-112564286D01*
X143249999Y-112421429D01*
X143178571Y-112350000D01*
X143035713Y-112278571D01*
X142821428Y-112278571D01*
X142678571Y-112350000D01*
X142607142Y-112421429D01*
X142535713Y-112564286D01*
X142535713Y-112992857D01*
X142607142Y-113135714D01*
X142678571Y-113207143D01*
X142821428Y-113278571D01*
X143035713Y-113278571D01*
X141678570Y-113278571D02*
X141821428Y-113207143D01*
X141892856Y-113064286D01*
X141892856Y-111778571D01*
X140464285Y-113278571D02*
X140464285Y-112492857D01*
X140535714Y-112350000D01*
X140678571Y-112278571D01*
X140964285Y-112278571D01*
X141107142Y-112350000D01*
X140464285Y-113207143D02*
X140607142Y-113278571D01*
X140964285Y-113278571D01*
X141107142Y-113207143D01*
X141178571Y-113064286D01*
X141178571Y-112921429D01*
X141107142Y-112778571D01*
X140964285Y-112707143D01*
X140607142Y-112707143D01*
X140464285Y-112635714D01*
X139749999Y-113278571D02*
X139749999Y-112278571D01*
X139749999Y-112564286D02*
X139678571Y-112421429D01*
X139607142Y-112350000D01*
X139464285Y-112278571D01*
X139321428Y-112278571D01*
X139334286Y-86792857D02*
X139477143Y-86721429D01*
X139762858Y-86721429D01*
X139905715Y-86792857D01*
X139977143Y-86935714D01*
X139977143Y-87007143D01*
X139905715Y-87150000D01*
X139762858Y-87221429D01*
X139548572Y-87221429D01*
X139405715Y-87292857D01*
X139334286Y-87435714D01*
X139334286Y-87507143D01*
X139405715Y-87650000D01*
X139548572Y-87721429D01*
X139762858Y-87721429D01*
X139905715Y-87650000D01*
X140834287Y-86721429D02*
X140691429Y-86792857D01*
X140620001Y-86864286D01*
X140548572Y-87007143D01*
X140548572Y-87435714D01*
X140620001Y-87578571D01*
X140691429Y-87650000D01*
X140834287Y-87721429D01*
X141048572Y-87721429D01*
X141191429Y-87650000D01*
X141262858Y-87578571D01*
X141334287Y-87435714D01*
X141334287Y-87007143D01*
X141262858Y-86864286D01*
X141191429Y-86792857D01*
X141048572Y-86721429D01*
X140834287Y-86721429D01*
X142191430Y-86721429D02*
X142048572Y-86792857D01*
X141977144Y-86935714D01*
X141977144Y-88221429D01*
X143405715Y-86721429D02*
X143405715Y-87507143D01*
X143334286Y-87650000D01*
X143191429Y-87721429D01*
X142905715Y-87721429D01*
X142762858Y-87650000D01*
X143405715Y-86792857D02*
X143262858Y-86721429D01*
X142905715Y-86721429D01*
X142762858Y-86792857D01*
X142691429Y-86935714D01*
X142691429Y-87078571D01*
X142762858Y-87221429D01*
X142905715Y-87292857D01*
X143262858Y-87292857D01*
X143405715Y-87364286D01*
X144120001Y-86721429D02*
X144120001Y-87721429D01*
X144120001Y-87435714D02*
X144191429Y-87578571D01*
X144262858Y-87650000D01*
X144405715Y-87721429D01*
X144548572Y-87721429D01*
D11*
X160076192Y-106904762D02*
X160171430Y-106952381D01*
X160361907Y-106952381D01*
X160457145Y-106904762D01*
X160504764Y-106857143D01*
X160552383Y-106761905D01*
X160552383Y-106476190D01*
X160504764Y-106380952D01*
X160457145Y-106333333D01*
X160361907Y-106285714D01*
X160171430Y-106285714D01*
X160076192Y-106333333D01*
X159647621Y-106952381D02*
X159647621Y-106285714D01*
X159647621Y-105952381D02*
X159695240Y-106000000D01*
X159647621Y-106047619D01*
X159600002Y-106000000D01*
X159647621Y-105952381D01*
X159647621Y-106047619D01*
X159171431Y-106952381D02*
X159171431Y-106285714D01*
X159171431Y-106476190D02*
X159123812Y-106380952D01*
X159076193Y-106333333D01*
X158980955Y-106285714D01*
X158885716Y-106285714D01*
X158123811Y-106904762D02*
X158219049Y-106952381D01*
X158409526Y-106952381D01*
X158504764Y-106904762D01*
X158552383Y-106857143D01*
X158600002Y-106761905D01*
X158600002Y-106476190D01*
X158552383Y-106380952D01*
X158504764Y-106333333D01*
X158409526Y-106285714D01*
X158219049Y-106285714D01*
X158123811Y-106333333D01*
X157266668Y-106285714D02*
X157266668Y-106952381D01*
X157695240Y-106285714D02*
X157695240Y-106809524D01*
X157647621Y-106904762D01*
X157552383Y-106952381D01*
X157409525Y-106952381D01*
X157314287Y-106904762D01*
X157266668Y-106857143D01*
X156790478Y-106952381D02*
X156790478Y-106285714D01*
X156790478Y-105952381D02*
X156838097Y-106000000D01*
X156790478Y-106047619D01*
X156742859Y-106000000D01*
X156790478Y-105952381D01*
X156790478Y-106047619D01*
X156457145Y-106285714D02*
X156076193Y-106285714D01*
X156314288Y-105952381D02*
X156314288Y-106809524D01*
X156266669Y-106904762D01*
X156171431Y-106952381D01*
X156076193Y-106952381D01*
X154409525Y-106857143D02*
X154457144Y-106904762D01*
X154600001Y-106952381D01*
X154695239Y-106952381D01*
X154838097Y-106904762D01*
X154933335Y-106809524D01*
X154980954Y-106714286D01*
X155028573Y-106523810D01*
X155028573Y-106380952D01*
X154980954Y-106190476D01*
X154933335Y-106095238D01*
X154838097Y-106000000D01*
X154695239Y-105952381D01*
X154600001Y-105952381D01*
X154457144Y-106000000D01*
X154409525Y-106047619D01*
X153409525Y-106857143D02*
X153457144Y-106904762D01*
X153600001Y-106952381D01*
X153695239Y-106952381D01*
X153838097Y-106904762D01*
X153933335Y-106809524D01*
X153980954Y-106714286D01*
X154028573Y-106523810D01*
X154028573Y-106380952D01*
X153980954Y-106190476D01*
X153933335Y-106095238D01*
X153838097Y-106000000D01*
X153695239Y-105952381D01*
X153600001Y-105952381D01*
X153457144Y-106000000D01*
X153409525Y-106047619D01*
X152219049Y-106952381D02*
X152219049Y-105952381D01*
X151647620Y-106952381D01*
X151647620Y-105952381D01*
X150600001Y-106857143D02*
X150647620Y-106904762D01*
X150790477Y-106952381D01*
X150885715Y-106952381D01*
X151028573Y-106904762D01*
X151123811Y-106809524D01*
X151171430Y-106714286D01*
X151219049Y-106523810D01*
X151219049Y-106380952D01*
X151171430Y-106190476D01*
X151123811Y-106095238D01*
X151028573Y-106000000D01*
X150885715Y-105952381D01*
X150790477Y-105952381D01*
X150647620Y-106000000D01*
X150600001Y-106047619D01*
X149076191Y-106428571D02*
X148933334Y-106476190D01*
X148885715Y-106523810D01*
X148838096Y-106619048D01*
X148838096Y-106761905D01*
X148885715Y-106857143D01*
X148933334Y-106904762D01*
X149028572Y-106952381D01*
X149409525Y-106952381D01*
X149409525Y-105952381D01*
X149076191Y-105952381D01*
X148980953Y-106000000D01*
X148933334Y-106047619D01*
X148885715Y-106142857D01*
X148885715Y-106238095D01*
X148933334Y-106333333D01*
X148980953Y-106380952D01*
X149076191Y-106428571D01*
X149409525Y-106428571D01*
X148219049Y-106476190D02*
X148219049Y-106952381D01*
X148552382Y-105952381D02*
X148219049Y-106476190D01*
X147885715Y-105952381D01*
X146790477Y-106952381D02*
X146790477Y-105952381D01*
X146695239Y-106571429D02*
X146409524Y-106952381D01*
X146409524Y-106285714D02*
X146790477Y-106666667D01*
X145552381Y-106285714D02*
X145552381Y-106952381D01*
X145980953Y-106285714D02*
X145980953Y-106809524D01*
X145933334Y-106904762D01*
X145838096Y-106952381D01*
X145695238Y-106952381D01*
X145600000Y-106904762D01*
X145552381Y-106857143D01*
X144933334Y-106952381D02*
X145028572Y-106904762D01*
X145076191Y-106809524D01*
X145076191Y-105952381D01*
X144695238Y-106285714D02*
X144314286Y-106285714D01*
X144552381Y-105952381D02*
X144552381Y-106809524D01*
X144504762Y-106904762D01*
X144409524Y-106952381D01*
X144314286Y-106952381D01*
X143552380Y-106285714D02*
X143552380Y-106952381D01*
X143980952Y-106285714D02*
X143980952Y-106809524D01*
X143933333Y-106904762D01*
X143838095Y-106952381D01*
X143695237Y-106952381D01*
X143599999Y-106904762D01*
X143552380Y-106857143D01*
X143076190Y-106952381D02*
X143076190Y-106285714D01*
X143076190Y-106476190D02*
X143028571Y-106380952D01*
X142980952Y-106333333D01*
X142885714Y-106285714D01*
X142790475Y-106285714D01*
X142028570Y-106285714D02*
X142028570Y-107095238D01*
X142076189Y-107190476D01*
X142123808Y-107238095D01*
X142219047Y-107285714D01*
X142361904Y-107285714D01*
X142457142Y-107238095D01*
X142028570Y-106904762D02*
X142123808Y-106952381D01*
X142314285Y-106952381D01*
X142409523Y-106904762D01*
X142457142Y-106857143D01*
X142504761Y-106761905D01*
X142504761Y-106476190D01*
X142457142Y-106380952D01*
X142409523Y-106333333D01*
X142314285Y-106285714D01*
X142123808Y-106285714D01*
X142028570Y-106333333D01*
X141123808Y-106285714D02*
X141123808Y-106952381D01*
X141552380Y-106285714D02*
X141552380Y-106809524D01*
X141504761Y-106904762D01*
X141409523Y-106952381D01*
X141266665Y-106952381D01*
X141171427Y-106904762D01*
X141123808Y-106857143D01*
X140266665Y-106904762D02*
X140361903Y-106952381D01*
X140552380Y-106952381D01*
X140647618Y-106904762D01*
X140695237Y-106809524D01*
X140695237Y-106428571D01*
X140647618Y-106333333D01*
X140552380Y-106285714D01*
X140361903Y-106285714D01*
X140266665Y-106333333D01*
X140219046Y-106428571D01*
X140219046Y-106523810D01*
X140695237Y-106619048D01*
X139933332Y-106285714D02*
X139552380Y-106285714D01*
X139790475Y-105952381D02*
X139790475Y-106809524D01*
X139742856Y-106904762D01*
X139647618Y-106952381D01*
X139552380Y-106952381D01*
X138838093Y-106904762D02*
X138933331Y-106952381D01*
X139123808Y-106952381D01*
X139219046Y-106904762D01*
X139266665Y-106809524D01*
X139266665Y-106428571D01*
X139219046Y-106333333D01*
X139123808Y-106285714D01*
X138933331Y-106285714D01*
X138838093Y-106333333D01*
X138790474Y-106428571D01*
X138790474Y-106523810D01*
X139266665Y-106619048D01*
X138361903Y-106952381D02*
X138361903Y-106285714D01*
X138361903Y-106476190D02*
X138314284Y-106380952D01*
X138266665Y-106333333D01*
X138171427Y-106285714D01*
X138076188Y-106285714D01*
X137742855Y-106571429D02*
X136980950Y-106571429D01*
X136552379Y-106904762D02*
X136457141Y-106952381D01*
X136266665Y-106952381D01*
X136171426Y-106904762D01*
X136123807Y-106809524D01*
X136123807Y-106761905D01*
X136171426Y-106666667D01*
X136266665Y-106619048D01*
X136409522Y-106619048D01*
X136504760Y-106571429D01*
X136552379Y-106476190D01*
X136552379Y-106428571D01*
X136504760Y-106333333D01*
X136409522Y-106285714D01*
X136266665Y-106285714D01*
X136171426Y-106333333D01*
X135266664Y-106904762D02*
X135361902Y-106952381D01*
X135552379Y-106952381D01*
X135647617Y-106904762D01*
X135695236Y-106857143D01*
X135742855Y-106761905D01*
X135742855Y-106476190D01*
X135695236Y-106380952D01*
X135647617Y-106333333D01*
X135552379Y-106285714D01*
X135361902Y-106285714D01*
X135266664Y-106333333D01*
X134838093Y-106952381D02*
X134838093Y-105952381D01*
X134409521Y-106952381D02*
X134409521Y-106428571D01*
X134457140Y-106333333D01*
X134552378Y-106285714D01*
X134695236Y-106285714D01*
X134790474Y-106333333D01*
X134838093Y-106380952D01*
X133504759Y-106285714D02*
X133504759Y-106952381D01*
X133933331Y-106285714D02*
X133933331Y-106809524D01*
X133885712Y-106904762D01*
X133790474Y-106952381D01*
X133647616Y-106952381D01*
X133552378Y-106904762D01*
X133504759Y-106857143D01*
X133028569Y-106285714D02*
X133028569Y-107285714D01*
X133028569Y-106333333D02*
X132933331Y-106285714D01*
X132742854Y-106285714D01*
X132647616Y-106333333D01*
X132599997Y-106380952D01*
X132552378Y-106476190D01*
X132552378Y-106761905D01*
X132599997Y-106857143D01*
X132647616Y-106904762D01*
X132742854Y-106952381D01*
X132933331Y-106952381D01*
X133028569Y-106904762D01*
X132123807Y-106285714D02*
X132123807Y-107285714D01*
X132123807Y-106333333D02*
X132028569Y-106285714D01*
X131838092Y-106285714D01*
X131742854Y-106333333D01*
X131695235Y-106380952D01*
X131647616Y-106476190D01*
X131647616Y-106761905D01*
X131695235Y-106857143D01*
X131742854Y-106904762D01*
X131838092Y-106952381D01*
X132028569Y-106952381D01*
X132123807Y-106904762D01*
X130838092Y-106904762D02*
X130933330Y-106952381D01*
X131123807Y-106952381D01*
X131219045Y-106904762D01*
X131266664Y-106809524D01*
X131266664Y-106428571D01*
X131219045Y-106333333D01*
X131123807Y-106285714D01*
X130933330Y-106285714D01*
X130838092Y-106333333D01*
X130790473Y-106428571D01*
X130790473Y-106523810D01*
X131266664Y-106619048D01*
X130361902Y-106285714D02*
X130361902Y-106952381D01*
X130361902Y-106380952D02*
X130314283Y-106333333D01*
X130219045Y-106285714D01*
X130076187Y-106285714D01*
X129980949Y-106333333D01*
X129933330Y-106428571D01*
X129933330Y-106952381D01*
X129457140Y-106857143D02*
X129409521Y-106904762D01*
X129457140Y-106952381D01*
X129504759Y-106904762D01*
X129457140Y-106857143D01*
X129457140Y-106952381D01*
X128552378Y-106952381D02*
X128552378Y-105952381D01*
X128552378Y-106904762D02*
X128647616Y-106952381D01*
X128838093Y-106952381D01*
X128933331Y-106904762D01*
X128980950Y-106857143D01*
X129028569Y-106761905D01*
X129028569Y-106476190D01*
X128980950Y-106380952D01*
X128933331Y-106333333D01*
X128838093Y-106285714D01*
X128647616Y-106285714D01*
X128552378Y-106333333D01*
X127695235Y-106904762D02*
X127790473Y-106952381D01*
X127980950Y-106952381D01*
X128076188Y-106904762D01*
X128123807Y-106809524D01*
X128123807Y-106428571D01*
X128076188Y-106333333D01*
X127980950Y-106285714D01*
X127790473Y-106285714D01*
X127695235Y-106333333D01*
X127647616Y-106428571D01*
X127647616Y-106523810D01*
X128123807Y-106619048D01*
D14*
G36*
X144794102Y-116466074D02*
X144823618Y-116452439D01*
X144867659Y-116427783D01*
X144928057Y-116390827D01*
X145006647Y-116340292D01*
X145105263Y-116274899D01*
X145225738Y-116193369D01*
X145369907Y-116094422D01*
X145539602Y-115976781D01*
X145736659Y-115839165D01*
X145962911Y-115680296D01*
X146220191Y-115498895D01*
X146510333Y-115293683D01*
X146835172Y-115063381D01*
X147196541Y-114806710D01*
X147596274Y-114522390D01*
X148036204Y-114209144D01*
X148518166Y-113865691D01*
X148828540Y-113644404D01*
X152796797Y-110814712D01*
X157643378Y-112186223D01*
X158147753Y-112328882D01*
X158638038Y-112467414D01*
X159111564Y-112601071D01*
X159565659Y-112729105D01*
X159997655Y-112850768D01*
X160404881Y-112965311D01*
X160784669Y-113071987D01*
X161134348Y-113170047D01*
X161451249Y-113258742D01*
X161732703Y-113337326D01*
X161976038Y-113405048D01*
X162178587Y-113461162D01*
X162337678Y-113504919D01*
X162450643Y-113535571D01*
X162514811Y-113552370D01*
X162529151Y-113555504D01*
X162554267Y-113538116D01*
X162620263Y-113487521D01*
X162725058Y-113405388D01*
X162866572Y-113293392D01*
X163042723Y-113153203D01*
X163251432Y-112986492D01*
X163490616Y-112794932D01*
X163758195Y-112580195D01*
X164052088Y-112343951D01*
X164370214Y-112087874D01*
X164710493Y-111813634D01*
X165070842Y-111522903D01*
X165449183Y-111217353D01*
X165843433Y-110898656D01*
X166251511Y-110568483D01*
X166671338Y-110228507D01*
X166774009Y-110145319D01*
X170979673Y-106737364D01*
X170979673Y-93238445D01*
X166761540Y-89824915D01*
X166255766Y-89415681D01*
X165791205Y-89039949D01*
X165366112Y-88696336D01*
X164978741Y-88383461D01*
X164627349Y-88099940D01*
X164310190Y-87844394D01*
X164025518Y-87615438D01*
X163771589Y-87411692D01*
X163546657Y-87231773D01*
X163348978Y-87074299D01*
X163176807Y-86937888D01*
X163028397Y-86821158D01*
X162902006Y-86722727D01*
X162795886Y-86641213D01*
X162708293Y-86575235D01*
X162637483Y-86523409D01*
X162581710Y-86484354D01*
X162539228Y-86456688D01*
X162508293Y-86439028D01*
X162487161Y-86429994D01*
X162474085Y-86428202D01*
X162472869Y-86428433D01*
X162439174Y-86437658D01*
X162354959Y-86461182D01*
X162222952Y-86498235D01*
X162045879Y-86548047D01*
X161826469Y-86609848D01*
X161567447Y-86682870D01*
X161271542Y-86766341D01*
X160941480Y-86859493D01*
X160579989Y-86961555D01*
X160189795Y-87071758D01*
X159773627Y-87189332D01*
X159334209Y-87313508D01*
X158874271Y-87443515D01*
X158396539Y-87578584D01*
X157903741Y-87717945D01*
X157670958Y-87783786D01*
X157172039Y-87924894D01*
X156686888Y-88062081D01*
X156218233Y-88194574D01*
X155768805Y-88321605D01*
X155341335Y-88442401D01*
X154938550Y-88556193D01*
X154563183Y-88662209D01*
X154217961Y-88759679D01*
X153905616Y-88847832D01*
X153628877Y-88925898D01*
X153390473Y-88993106D01*
X153193136Y-89048684D01*
X153039594Y-89091864D01*
X152932577Y-89121873D01*
X152874815Y-89137941D01*
X152865518Y-89140443D01*
X152852498Y-89140151D01*
X152831689Y-89133527D01*
X152801148Y-89119220D01*
X152758930Y-89095877D01*
X152703089Y-89062144D01*
X152631681Y-89016671D01*
X152542760Y-88958104D01*
X152434381Y-88885091D01*
X152304600Y-88796279D01*
X152151472Y-88690316D01*
X151973051Y-88565850D01*
X151767392Y-88421527D01*
X151532551Y-88255995D01*
X151266582Y-88067902D01*
X150967540Y-87855896D01*
X150633481Y-87618623D01*
X150262460Y-87354732D01*
X149852531Y-87062869D01*
X149401749Y-86741682D01*
X148908169Y-86389820D01*
X148839701Y-86341000D01*
X144887952Y-83523203D01*
X144721939Y-83518324D01*
X144673156Y-83520064D01*
X144572882Y-83526370D01*
X144424747Y-83536948D01*
X144232383Y-83551502D01*
X143999423Y-83569738D01*
X143729498Y-83591360D01*
X143426240Y-83616074D01*
X143093280Y-83643585D01*
X142734250Y-83673598D01*
X142352782Y-83705817D01*
X141952508Y-83739949D01*
X141537060Y-83775697D01*
X141303311Y-83795950D01*
X138050697Y-84078455D01*
X137014640Y-84882568D01*
X136861357Y-85001562D01*
X136668236Y-85151525D01*
X136439129Y-85329466D01*
X136177888Y-85532390D01*
X135888365Y-85757306D01*
X135574412Y-86001220D01*
X135239881Y-86261140D01*
X134888624Y-86534073D01*
X134524493Y-86817025D01*
X134151339Y-87107005D01*
X133773016Y-87401019D01*
X133393374Y-87696074D01*
X133037686Y-87972527D01*
X132614624Y-88301255D01*
X132233033Y-88597509D01*
X131890784Y-88862895D01*
X131585748Y-89099016D01*
X131315797Y-89307478D01*
X131078801Y-89489884D01*
X130872632Y-89647839D01*
X130695159Y-89782947D01*
X130544255Y-89896813D01*
X130417791Y-89991041D01*
X130313637Y-90067236D01*
X130229664Y-90127002D01*
X130163744Y-90171944D01*
X130113747Y-90203665D01*
X130077544Y-90223770D01*
X130053007Y-90233864D01*
X130038007Y-90235551D01*
X130035617Y-90234894D01*
X130003481Y-90222384D01*
X129922562Y-90190810D01*
X129795619Y-90141250D01*
X129625412Y-90074783D01*
X129414699Y-89992485D01*
X129166239Y-89895436D01*
X128882792Y-89784712D01*
X128567117Y-89661392D01*
X128221972Y-89526553D01*
X127850118Y-89381274D01*
X127454313Y-89226632D01*
X127037315Y-89063705D01*
X126601885Y-88893571D01*
X126150782Y-88717308D01*
X125785344Y-88574514D01*
X125324672Y-88394687D01*
X124877929Y-88220655D01*
X124447836Y-88053461D01*
X124037115Y-87894150D01*
X123648488Y-87743765D01*
X123284676Y-87603350D01*
X122948401Y-87473949D01*
X122642385Y-87356607D01*
X122369350Y-87252367D01*
X122132017Y-87162274D01*
X121933109Y-87087371D01*
X121775346Y-87028703D01*
X121661451Y-86987314D01*
X121594146Y-86964247D01*
X121575651Y-86959710D01*
X121560102Y-86985575D01*
X121518442Y-87057231D01*
X121451975Y-87172401D01*
X121362005Y-87328805D01*
X121249836Y-87524167D01*
X121116771Y-87756208D01*
X120964115Y-88022649D01*
X120793171Y-88321213D01*
X120605242Y-88649621D01*
X120401634Y-89005596D01*
X120183649Y-89386858D01*
X119952591Y-89791130D01*
X119709765Y-90216134D01*
X119456474Y-90659592D01*
X119194022Y-91119225D01*
X118923712Y-91592755D01*
X118785285Y-91835304D01*
X116015512Y-96688800D01*
X116015512Y-103041467D01*
X117039259Y-103041467D01*
X117039259Y-96935158D01*
X119532388Y-92567198D01*
X119791769Y-92112780D01*
X120043731Y-91671389D01*
X120286910Y-91245416D01*
X120519942Y-90837249D01*
X120741462Y-90449278D01*
X120950104Y-90083891D01*
X121144506Y-89743479D01*
X121323301Y-89430430D01*
X121485125Y-89147134D01*
X121628613Y-88895980D01*
X121752402Y-88679357D01*
X121855125Y-88499655D01*
X121935419Y-88359262D01*
X121991919Y-88260569D01*
X122023260Y-88205964D01*
X122029501Y-88195235D01*
X122055260Y-88204689D01*
X122129812Y-88233240D01*
X122250416Y-88279820D01*
X122414334Y-88343363D01*
X122618825Y-88422801D01*
X122861149Y-88517065D01*
X123138567Y-88625089D01*
X123448338Y-88745804D01*
X123787723Y-88878144D01*
X124153981Y-89021040D01*
X124544373Y-89173426D01*
X124956159Y-89334232D01*
X125386598Y-89502393D01*
X125832952Y-89676840D01*
X126128475Y-89792375D01*
X126584080Y-89970452D01*
X127025812Y-90142982D01*
X127450910Y-90308892D01*
X127856612Y-90467109D01*
X128240158Y-90616560D01*
X128598786Y-90756172D01*
X128929735Y-90884873D01*
X129230244Y-91001590D01*
X129497550Y-91105250D01*
X129728894Y-91194781D01*
X129921513Y-91269109D01*
X130072647Y-91327162D01*
X130179533Y-91367868D01*
X130239412Y-91390153D01*
X130251780Y-91394253D01*
X130276200Y-91377613D01*
X130342129Y-91328649D01*
X130447410Y-91249028D01*
X130589882Y-91140415D01*
X130767387Y-91004477D01*
X130977765Y-90842880D01*
X131218857Y-90657288D01*
X131488505Y-90449369D01*
X131784548Y-90220788D01*
X132104827Y-89973211D01*
X132447184Y-89708304D01*
X132809460Y-89427733D01*
X133189495Y-89133163D01*
X133585129Y-88826262D01*
X133994205Y-88508693D01*
X134356937Y-88226906D01*
X134815030Y-87871160D01*
X135254685Y-87530195D01*
X135674140Y-87205365D01*
X136071628Y-86898021D01*
X136445385Y-86609517D01*
X136793646Y-86341205D01*
X137114648Y-86094438D01*
X137406624Y-85870568D01*
X137667811Y-85670947D01*
X137896443Y-85496929D01*
X138090756Y-85349865D01*
X138248986Y-85231109D01*
X138369367Y-85142013D01*
X138450134Y-85083929D01*
X138489524Y-85058210D01*
X138492783Y-85056991D01*
X138527856Y-85054366D01*
X138614389Y-85047207D01*
X138748718Y-85035832D01*
X138927177Y-85020557D01*
X139146102Y-85001701D01*
X139401828Y-84979581D01*
X139690690Y-84954515D01*
X140009025Y-84926820D01*
X140353166Y-84896814D01*
X140719450Y-84864813D01*
X141104212Y-84831137D01*
X141498518Y-84796564D01*
X141898158Y-84761604D01*
X142283103Y-84728145D01*
X142649674Y-84696496D01*
X142994189Y-84666964D01*
X143312967Y-84639860D01*
X143602327Y-84615489D01*
X143858589Y-84594162D01*
X144078071Y-84576186D01*
X144257092Y-84561870D01*
X144391970Y-84551522D01*
X144479027Y-84545450D01*
X144514422Y-84543947D01*
X144545071Y-84560620D01*
X144619023Y-84608403D01*
X144734627Y-84686139D01*
X144890231Y-84792667D01*
X145084185Y-84926829D01*
X145314837Y-85087466D01*
X145580537Y-85273418D01*
X145879632Y-85483526D01*
X146210473Y-85716631D01*
X146571407Y-85971574D01*
X146960783Y-86247195D01*
X147376952Y-86542336D01*
X147818260Y-86855836D01*
X148283058Y-87186538D01*
X148593714Y-87407834D01*
X152603833Y-90265742D01*
X162308889Y-87519044D01*
X162438617Y-87626218D01*
X162473847Y-87654957D01*
X162549803Y-87716636D01*
X162664185Y-87809391D01*
X162814694Y-87931361D01*
X162999029Y-88080685D01*
X163214890Y-88255501D01*
X163459979Y-88453947D01*
X163731995Y-88674160D01*
X164028639Y-88914281D01*
X164347610Y-89172446D01*
X164686610Y-89446793D01*
X165043338Y-89735463D01*
X165415495Y-90036591D01*
X165800780Y-90348317D01*
X166196895Y-90668780D01*
X166269052Y-90727153D01*
X169969760Y-93720914D01*
X169967989Y-99993954D01*
X169966218Y-106266993D01*
X166149331Y-109352070D01*
X165747162Y-109677073D01*
X165356489Y-109992669D01*
X164979494Y-110297103D01*
X164618354Y-110588618D01*
X164275251Y-110865461D01*
X163952361Y-111125875D01*
X163651866Y-111368105D01*
X163375944Y-111590395D01*
X163126775Y-111790990D01*
X162906537Y-111968135D01*
X162717411Y-112120074D01*
X162561575Y-112245052D01*
X162441209Y-112341313D01*
X162358491Y-112407102D01*
X162315602Y-112440664D01*
X162309831Y-112444803D01*
X162281266Y-112438182D01*
X162202137Y-112417197D01*
X162075116Y-112382598D01*
X161902873Y-112335132D01*
X161688079Y-112275549D01*
X161433404Y-112204597D01*
X161141521Y-112123024D01*
X160815098Y-112031580D01*
X160456808Y-111931013D01*
X160069320Y-111822072D01*
X159655307Y-111705504D01*
X159217437Y-111582060D01*
X158758383Y-111452488D01*
X158280815Y-111317536D01*
X157787404Y-111177953D01*
X157488891Y-111093432D01*
X156986798Y-110951290D01*
X156498644Y-110813222D01*
X156027126Y-110679986D01*
X155574938Y-110552338D01*
X155144776Y-110431035D01*
X154739335Y-110316833D01*
X154361309Y-110210489D01*
X154013395Y-110112760D01*
X153698286Y-110024403D01*
X153418680Y-109946175D01*
X153177269Y-109878831D01*
X152976750Y-109823129D01*
X152819819Y-109779826D01*
X152709169Y-109749677D01*
X152647496Y-109733441D01*
X152635229Y-109730696D01*
X152606281Y-109746186D01*
X152534028Y-109792790D01*
X152420119Y-109869348D01*
X152266202Y-109974705D01*
X152073926Y-110107701D01*
X151844939Y-110267180D01*
X151580891Y-110451984D01*
X151283430Y-110660955D01*
X150954206Y-110892936D01*
X150594866Y-111146769D01*
X150207059Y-111421296D01*
X149792435Y-111715360D01*
X149352642Y-112027803D01*
X148889329Y-112357468D01*
X148571418Y-112583947D01*
X144562945Y-115440906D01*
X141495266Y-115177696D01*
X138427587Y-114914487D01*
X134383682Y-111771258D01*
X133966110Y-111446728D01*
X133559970Y-111131158D01*
X133167442Y-110826238D01*
X132790707Y-110533660D01*
X132431946Y-110255114D01*
X132093338Y-109992293D01*
X131777064Y-109746886D01*
X131485306Y-109520585D01*
X131220243Y-109315082D01*
X130984057Y-109132066D01*
X130778927Y-108973229D01*
X130607034Y-108840263D01*
X130470559Y-108734858D01*
X130371682Y-108658705D01*
X130312585Y-108613495D01*
X130295455Y-108600768D01*
X130276702Y-108601903D01*
X130232145Y-108613666D01*
X130160030Y-108636723D01*
X130058603Y-108671742D01*
X129926111Y-108719389D01*
X129760801Y-108780331D01*
X129560919Y-108855233D01*
X129324713Y-108944762D01*
X129050428Y-109049585D01*
X128736312Y-109170368D01*
X128380611Y-109307778D01*
X127981572Y-109462481D01*
X127537442Y-109635143D01*
X127046466Y-109826432D01*
X126506893Y-110037013D01*
X126143421Y-110179024D01*
X125687484Y-110357173D01*
X125245657Y-110529698D01*
X124820679Y-110695536D01*
X124415289Y-110853621D01*
X124032223Y-111002890D01*
X123674220Y-111142279D01*
X123344017Y-111270724D01*
X123044353Y-111387161D01*
X122777965Y-111490526D01*
X122547591Y-111579755D01*
X122355969Y-111653783D01*
X122205838Y-111711547D01*
X122099934Y-111751983D01*
X122040996Y-111774026D01*
X122029147Y-111777978D01*
X122014969Y-111753654D01*
X121974729Y-111683660D01*
X121909795Y-111570388D01*
X121821534Y-111416230D01*
X121711312Y-111223578D01*
X121580497Y-110994824D01*
X121430455Y-110732360D01*
X121262553Y-110438577D01*
X121078158Y-110115869D01*
X120878638Y-109766626D01*
X120665359Y-109393241D01*
X120439688Y-108998105D01*
X120202992Y-108583612D01*
X119956638Y-108152152D01*
X119701992Y-107706117D01*
X119530921Y-107406440D01*
X117039259Y-103041467D01*
X116015512Y-103041467D01*
X116015512Y-103290441D01*
X118784954Y-108140482D01*
X119058788Y-108619962D01*
X119325436Y-109086707D01*
X119583591Y-109538437D01*
X119831948Y-109972871D01*
X120069200Y-110387731D01*
X120294042Y-110780737D01*
X120505167Y-111149609D01*
X120701270Y-111492067D01*
X120881044Y-111805832D01*
X121043185Y-112088625D01*
X121186385Y-112338164D01*
X121309339Y-112552172D01*
X121410741Y-112728367D01*
X121489285Y-112864472D01*
X121543665Y-112958205D01*
X121572575Y-113007287D01*
X121577064Y-113014365D01*
X121604881Y-113007069D01*
X121681496Y-112980587D01*
X121804201Y-112935957D01*
X121970285Y-112874217D01*
X122177037Y-112796407D01*
X122421748Y-112703564D01*
X122701707Y-112596728D01*
X123014205Y-112476937D01*
X123356531Y-112345230D01*
X123725976Y-112202645D01*
X124119828Y-112050221D01*
X124535378Y-111888997D01*
X124969916Y-111720010D01*
X125420732Y-111544301D01*
X125828591Y-111385008D01*
X126291667Y-111204037D01*
X126740897Y-111028597D01*
X127173565Y-110859742D01*
X127586955Y-110698528D01*
X127978350Y-110546010D01*
X128345035Y-110403244D01*
X128684294Y-110271284D01*
X128993410Y-110151187D01*
X129269669Y-110044007D01*
X129510353Y-109950799D01*
X129712747Y-109872620D01*
X129874134Y-109810524D01*
X129991799Y-109765567D01*
X130063026Y-109738803D01*
X130085120Y-109731139D01*
X130109507Y-109747780D01*
X130175378Y-109796719D01*
X130280546Y-109876267D01*
X130422820Y-109984736D01*
X130600014Y-110120439D01*
X130809939Y-110281688D01*
X131050407Y-110466794D01*
X131319230Y-110674069D01*
X131614219Y-110901826D01*
X131933187Y-111148377D01*
X132273945Y-111412033D01*
X132634305Y-111691107D01*
X133012079Y-111983911D01*
X133405079Y-112288756D01*
X133811116Y-112603955D01*
X134083268Y-112815353D01*
X138053747Y-115900234D01*
X141374009Y-116183036D01*
X141798806Y-116219194D01*
X142209191Y-116254078D01*
X142601690Y-116287396D01*
X142972825Y-116318854D01*
X143319119Y-116348159D01*
X143637098Y-116375018D01*
X143923285Y-116399138D01*
X144174202Y-116420226D01*
X144386376Y-116437989D01*
X144556328Y-116452134D01*
X144680583Y-116462368D01*
X144755665Y-116468397D01*
X144777277Y-116469967D01*
X144794102Y-116466074D01*
X144794102Y-116466074D01*
G37*
X144794102Y-116466074D02*
X144823618Y-116452439D01*
X144867659Y-116427783D01*
X144928057Y-116390827D01*
X145006647Y-116340292D01*
X145105263Y-116274899D01*
X145225738Y-116193369D01*
X145369907Y-116094422D01*
X145539602Y-115976781D01*
X145736659Y-115839165D01*
X145962911Y-115680296D01*
X146220191Y-115498895D01*
X146510333Y-115293683D01*
X146835172Y-115063381D01*
X147196541Y-114806710D01*
X147596274Y-114522390D01*
X148036204Y-114209144D01*
X148518166Y-113865691D01*
X148828540Y-113644404D01*
X152796797Y-110814712D01*
X157643378Y-112186223D01*
X158147753Y-112328882D01*
X158638038Y-112467414D01*
X159111564Y-112601071D01*
X159565659Y-112729105D01*
X159997655Y-112850768D01*
X160404881Y-112965311D01*
X160784669Y-113071987D01*
X161134348Y-113170047D01*
X161451249Y-113258742D01*
X161732703Y-113337326D01*
X161976038Y-113405048D01*
X162178587Y-113461162D01*
X162337678Y-113504919D01*
X162450643Y-113535571D01*
X162514811Y-113552370D01*
X162529151Y-113555504D01*
X162554267Y-113538116D01*
X162620263Y-113487521D01*
X162725058Y-113405388D01*
X162866572Y-113293392D01*
X163042723Y-113153203D01*
X163251432Y-112986492D01*
X163490616Y-112794932D01*
X163758195Y-112580195D01*
X164052088Y-112343951D01*
X164370214Y-112087874D01*
X164710493Y-111813634D01*
X165070842Y-111522903D01*
X165449183Y-111217353D01*
X165843433Y-110898656D01*
X166251511Y-110568483D01*
X166671338Y-110228507D01*
X166774009Y-110145319D01*
X170979673Y-106737364D01*
X170979673Y-93238445D01*
X166761540Y-89824915D01*
X166255766Y-89415681D01*
X165791205Y-89039949D01*
X165366112Y-88696336D01*
X164978741Y-88383461D01*
X164627349Y-88099940D01*
X164310190Y-87844394D01*
X164025518Y-87615438D01*
X163771589Y-87411692D01*
X163546657Y-87231773D01*
X163348978Y-87074299D01*
X163176807Y-86937888D01*
X163028397Y-86821158D01*
X162902006Y-86722727D01*
X162795886Y-86641213D01*
X162708293Y-86575235D01*
X162637483Y-86523409D01*
X162581710Y-86484354D01*
X162539228Y-86456688D01*
X162508293Y-86439028D01*
X162487161Y-86429994D01*
X162474085Y-86428202D01*
X162472869Y-86428433D01*
X162439174Y-86437658D01*
X162354959Y-86461182D01*
X162222952Y-86498235D01*
X162045879Y-86548047D01*
X161826469Y-86609848D01*
X161567447Y-86682870D01*
X161271542Y-86766341D01*
X160941480Y-86859493D01*
X160579989Y-86961555D01*
X160189795Y-87071758D01*
X159773627Y-87189332D01*
X159334209Y-87313508D01*
X158874271Y-87443515D01*
X158396539Y-87578584D01*
X157903741Y-87717945D01*
X157670958Y-87783786D01*
X157172039Y-87924894D01*
X156686888Y-88062081D01*
X156218233Y-88194574D01*
X155768805Y-88321605D01*
X155341335Y-88442401D01*
X154938550Y-88556193D01*
X154563183Y-88662209D01*
X154217961Y-88759679D01*
X153905616Y-88847832D01*
X153628877Y-88925898D01*
X153390473Y-88993106D01*
X153193136Y-89048684D01*
X153039594Y-89091864D01*
X152932577Y-89121873D01*
X152874815Y-89137941D01*
X152865518Y-89140443D01*
X152852498Y-89140151D01*
X152831689Y-89133527D01*
X152801148Y-89119220D01*
X152758930Y-89095877D01*
X152703089Y-89062144D01*
X152631681Y-89016671D01*
X152542760Y-88958104D01*
X152434381Y-88885091D01*
X152304600Y-88796279D01*
X152151472Y-88690316D01*
X151973051Y-88565850D01*
X151767392Y-88421527D01*
X151532551Y-88255995D01*
X151266582Y-88067902D01*
X150967540Y-87855896D01*
X150633481Y-87618623D01*
X150262460Y-87354732D01*
X149852531Y-87062869D01*
X149401749Y-86741682D01*
X148908169Y-86389820D01*
X148839701Y-86341000D01*
X144887952Y-83523203D01*
X144721939Y-83518324D01*
X144673156Y-83520064D01*
X144572882Y-83526370D01*
X144424747Y-83536948D01*
X144232383Y-83551502D01*
X143999423Y-83569738D01*
X143729498Y-83591360D01*
X143426240Y-83616074D01*
X143093280Y-83643585D01*
X142734250Y-83673598D01*
X142352782Y-83705817D01*
X141952508Y-83739949D01*
X141537060Y-83775697D01*
X141303311Y-83795950D01*
X138050697Y-84078455D01*
X137014640Y-84882568D01*
X136861357Y-85001562D01*
X136668236Y-85151525D01*
X136439129Y-85329466D01*
X136177888Y-85532390D01*
X135888365Y-85757306D01*
X135574412Y-86001220D01*
X135239881Y-86261140D01*
X134888624Y-86534073D01*
X134524493Y-86817025D01*
X134151339Y-87107005D01*
X133773016Y-87401019D01*
X133393374Y-87696074D01*
X133037686Y-87972527D01*
X132614624Y-88301255D01*
X132233033Y-88597509D01*
X131890784Y-88862895D01*
X131585748Y-89099016D01*
X131315797Y-89307478D01*
X131078801Y-89489884D01*
X130872632Y-89647839D01*
X130695159Y-89782947D01*
X130544255Y-89896813D01*
X130417791Y-89991041D01*
X130313637Y-90067236D01*
X130229664Y-90127002D01*
X130163744Y-90171944D01*
X130113747Y-90203665D01*
X130077544Y-90223770D01*
X130053007Y-90233864D01*
X130038007Y-90235551D01*
X130035617Y-90234894D01*
X130003481Y-90222384D01*
X129922562Y-90190810D01*
X129795619Y-90141250D01*
X129625412Y-90074783D01*
X129414699Y-89992485D01*
X129166239Y-89895436D01*
X128882792Y-89784712D01*
X128567117Y-89661392D01*
X128221972Y-89526553D01*
X127850118Y-89381274D01*
X127454313Y-89226632D01*
X127037315Y-89063705D01*
X126601885Y-88893571D01*
X126150782Y-88717308D01*
X125785344Y-88574514D01*
X125324672Y-88394687D01*
X124877929Y-88220655D01*
X124447836Y-88053461D01*
X124037115Y-87894150D01*
X123648488Y-87743765D01*
X123284676Y-87603350D01*
X122948401Y-87473949D01*
X122642385Y-87356607D01*
X122369350Y-87252367D01*
X122132017Y-87162274D01*
X121933109Y-87087371D01*
X121775346Y-87028703D01*
X121661451Y-86987314D01*
X121594146Y-86964247D01*
X121575651Y-86959710D01*
X121560102Y-86985575D01*
X121518442Y-87057231D01*
X121451975Y-87172401D01*
X121362005Y-87328805D01*
X121249836Y-87524167D01*
X121116771Y-87756208D01*
X120964115Y-88022649D01*
X120793171Y-88321213D01*
X120605242Y-88649621D01*
X120401634Y-89005596D01*
X120183649Y-89386858D01*
X119952591Y-89791130D01*
X119709765Y-90216134D01*
X119456474Y-90659592D01*
X119194022Y-91119225D01*
X118923712Y-91592755D01*
X118785285Y-91835304D01*
X116015512Y-96688800D01*
X116015512Y-103041467D01*
X117039259Y-103041467D01*
X117039259Y-96935158D01*
X119532388Y-92567198D01*
X119791769Y-92112780D01*
X120043731Y-91671389D01*
X120286910Y-91245416D01*
X120519942Y-90837249D01*
X120741462Y-90449278D01*
X120950104Y-90083891D01*
X121144506Y-89743479D01*
X121323301Y-89430430D01*
X121485125Y-89147134D01*
X121628613Y-88895980D01*
X121752402Y-88679357D01*
X121855125Y-88499655D01*
X121935419Y-88359262D01*
X121991919Y-88260569D01*
X122023260Y-88205964D01*
X122029501Y-88195235D01*
X122055260Y-88204689D01*
X122129812Y-88233240D01*
X122250416Y-88279820D01*
X122414334Y-88343363D01*
X122618825Y-88422801D01*
X122861149Y-88517065D01*
X123138567Y-88625089D01*
X123448338Y-88745804D01*
X123787723Y-88878144D01*
X124153981Y-89021040D01*
X124544373Y-89173426D01*
X124956159Y-89334232D01*
X125386598Y-89502393D01*
X125832952Y-89676840D01*
X126128475Y-89792375D01*
X126584080Y-89970452D01*
X127025812Y-90142982D01*
X127450910Y-90308892D01*
X127856612Y-90467109D01*
X128240158Y-90616560D01*
X128598786Y-90756172D01*
X128929735Y-90884873D01*
X129230244Y-91001590D01*
X129497550Y-91105250D01*
X129728894Y-91194781D01*
X129921513Y-91269109D01*
X130072647Y-91327162D01*
X130179533Y-91367868D01*
X130239412Y-91390153D01*
X130251780Y-91394253D01*
X130276200Y-91377613D01*
X130342129Y-91328649D01*
X130447410Y-91249028D01*
X130589882Y-91140415D01*
X130767387Y-91004477D01*
X130977765Y-90842880D01*
X131218857Y-90657288D01*
X131488505Y-90449369D01*
X131784548Y-90220788D01*
X132104827Y-89973211D01*
X132447184Y-89708304D01*
X132809460Y-89427733D01*
X133189495Y-89133163D01*
X133585129Y-88826262D01*
X133994205Y-88508693D01*
X134356937Y-88226906D01*
X134815030Y-87871160D01*
X135254685Y-87530195D01*
X135674140Y-87205365D01*
X136071628Y-86898021D01*
X136445385Y-86609517D01*
X136793646Y-86341205D01*
X137114648Y-86094438D01*
X137406624Y-85870568D01*
X137667811Y-85670947D01*
X137896443Y-85496929D01*
X138090756Y-85349865D01*
X138248986Y-85231109D01*
X138369367Y-85142013D01*
X138450134Y-85083929D01*
X138489524Y-85058210D01*
X138492783Y-85056991D01*
X138527856Y-85054366D01*
X138614389Y-85047207D01*
X138748718Y-85035832D01*
X138927177Y-85020557D01*
X139146102Y-85001701D01*
X139401828Y-84979581D01*
X139690690Y-84954515D01*
X140009025Y-84926820D01*
X140353166Y-84896814D01*
X140719450Y-84864813D01*
X141104212Y-84831137D01*
X141498518Y-84796564D01*
X141898158Y-84761604D01*
X142283103Y-84728145D01*
X142649674Y-84696496D01*
X142994189Y-84666964D01*
X143312967Y-84639860D01*
X143602327Y-84615489D01*
X143858589Y-84594162D01*
X144078071Y-84576186D01*
X144257092Y-84561870D01*
X144391970Y-84551522D01*
X144479027Y-84545450D01*
X144514422Y-84543947D01*
X144545071Y-84560620D01*
X144619023Y-84608403D01*
X144734627Y-84686139D01*
X144890231Y-84792667D01*
X145084185Y-84926829D01*
X145314837Y-85087466D01*
X145580537Y-85273418D01*
X145879632Y-85483526D01*
X146210473Y-85716631D01*
X146571407Y-85971574D01*
X146960783Y-86247195D01*
X147376952Y-86542336D01*
X147818260Y-86855836D01*
X148283058Y-87186538D01*
X148593714Y-87407834D01*
X152603833Y-90265742D01*
X162308889Y-87519044D01*
X162438617Y-87626218D01*
X162473847Y-87654957D01*
X162549803Y-87716636D01*
X162664185Y-87809391D01*
X162814694Y-87931361D01*
X162999029Y-88080685D01*
X163214890Y-88255501D01*
X163459979Y-88453947D01*
X163731995Y-88674160D01*
X164028639Y-88914281D01*
X164347610Y-89172446D01*
X164686610Y-89446793D01*
X165043338Y-89735463D01*
X165415495Y-90036591D01*
X165800780Y-90348317D01*
X166196895Y-90668780D01*
X166269052Y-90727153D01*
X169969760Y-93720914D01*
X169967989Y-99993954D01*
X169966218Y-106266993D01*
X166149331Y-109352070D01*
X165747162Y-109677073D01*
X165356489Y-109992669D01*
X164979494Y-110297103D01*
X164618354Y-110588618D01*
X164275251Y-110865461D01*
X163952361Y-111125875D01*
X163651866Y-111368105D01*
X163375944Y-111590395D01*
X163126775Y-111790990D01*
X162906537Y-111968135D01*
X162717411Y-112120074D01*
X162561575Y-112245052D01*
X162441209Y-112341313D01*
X162358491Y-112407102D01*
X162315602Y-112440664D01*
X162309831Y-112444803D01*
X162281266Y-112438182D01*
X162202137Y-112417197D01*
X162075116Y-112382598D01*
X161902873Y-112335132D01*
X161688079Y-112275549D01*
X161433404Y-112204597D01*
X161141521Y-112123024D01*
X160815098Y-112031580D01*
X160456808Y-111931013D01*
X160069320Y-111822072D01*
X159655307Y-111705504D01*
X159217437Y-111582060D01*
X158758383Y-111452488D01*
X158280815Y-111317536D01*
X157787404Y-111177953D01*
X157488891Y-111093432D01*
X156986798Y-110951290D01*
X156498644Y-110813222D01*
X156027126Y-110679986D01*
X155574938Y-110552338D01*
X155144776Y-110431035D01*
X154739335Y-110316833D01*
X154361309Y-110210489D01*
X154013395Y-110112760D01*
X153698286Y-110024403D01*
X153418680Y-109946175D01*
X153177269Y-109878831D01*
X152976750Y-109823129D01*
X152819819Y-109779826D01*
X152709169Y-109749677D01*
X152647496Y-109733441D01*
X152635229Y-109730696D01*
X152606281Y-109746186D01*
X152534028Y-109792790D01*
X152420119Y-109869348D01*
X152266202Y-109974705D01*
X152073926Y-110107701D01*
X151844939Y-110267180D01*
X151580891Y-110451984D01*
X151283430Y-110660955D01*
X150954206Y-110892936D01*
X150594866Y-111146769D01*
X150207059Y-111421296D01*
X149792435Y-111715360D01*
X149352642Y-112027803D01*
X148889329Y-112357468D01*
X148571418Y-112583947D01*
X144562945Y-115440906D01*
X141495266Y-115177696D01*
X138427587Y-114914487D01*
X134383682Y-111771258D01*
X133966110Y-111446728D01*
X133559970Y-111131158D01*
X133167442Y-110826238D01*
X132790707Y-110533660D01*
X132431946Y-110255114D01*
X132093338Y-109992293D01*
X131777064Y-109746886D01*
X131485306Y-109520585D01*
X131220243Y-109315082D01*
X130984057Y-109132066D01*
X130778927Y-108973229D01*
X130607034Y-108840263D01*
X130470559Y-108734858D01*
X130371682Y-108658705D01*
X130312585Y-108613495D01*
X130295455Y-108600768D01*
X130276702Y-108601903D01*
X130232145Y-108613666D01*
X130160030Y-108636723D01*
X130058603Y-108671742D01*
X129926111Y-108719389D01*
X129760801Y-108780331D01*
X129560919Y-108855233D01*
X129324713Y-108944762D01*
X129050428Y-109049585D01*
X128736312Y-109170368D01*
X128380611Y-109307778D01*
X127981572Y-109462481D01*
X127537442Y-109635143D01*
X127046466Y-109826432D01*
X126506893Y-110037013D01*
X126143421Y-110179024D01*
X125687484Y-110357173D01*
X125245657Y-110529698D01*
X124820679Y-110695536D01*
X124415289Y-110853621D01*
X124032223Y-111002890D01*
X123674220Y-111142279D01*
X123344017Y-111270724D01*
X123044353Y-111387161D01*
X122777965Y-111490526D01*
X122547591Y-111579755D01*
X122355969Y-111653783D01*
X122205838Y-111711547D01*
X122099934Y-111751983D01*
X122040996Y-111774026D01*
X122029147Y-111777978D01*
X122014969Y-111753654D01*
X121974729Y-111683660D01*
X121909795Y-111570388D01*
X121821534Y-111416230D01*
X121711312Y-111223578D01*
X121580497Y-110994824D01*
X121430455Y-110732360D01*
X121262553Y-110438577D01*
X121078158Y-110115869D01*
X120878638Y-109766626D01*
X120665359Y-109393241D01*
X120439688Y-108998105D01*
X120202992Y-108583612D01*
X119956638Y-108152152D01*
X119701992Y-107706117D01*
X119530921Y-107406440D01*
X117039259Y-103041467D01*
X116015512Y-103041467D01*
X116015512Y-103290441D01*
X118784954Y-108140482D01*
X119058788Y-108619962D01*
X119325436Y-109086707D01*
X119583591Y-109538437D01*
X119831948Y-109972871D01*
X120069200Y-110387731D01*
X120294042Y-110780737D01*
X120505167Y-111149609D01*
X120701270Y-111492067D01*
X120881044Y-111805832D01*
X121043185Y-112088625D01*
X121186385Y-112338164D01*
X121309339Y-112552172D01*
X121410741Y-112728367D01*
X121489285Y-112864472D01*
X121543665Y-112958205D01*
X121572575Y-113007287D01*
X121577064Y-113014365D01*
X121604881Y-113007069D01*
X121681496Y-112980587D01*
X121804201Y-112935957D01*
X121970285Y-112874217D01*
X122177037Y-112796407D01*
X122421748Y-112703564D01*
X122701707Y-112596728D01*
X123014205Y-112476937D01*
X123356531Y-112345230D01*
X123725976Y-112202645D01*
X124119828Y-112050221D01*
X124535378Y-111888997D01*
X124969916Y-111720010D01*
X125420732Y-111544301D01*
X125828591Y-111385008D01*
X126291667Y-111204037D01*
X126740897Y-111028597D01*
X127173565Y-110859742D01*
X127586955Y-110698528D01*
X127978350Y-110546010D01*
X128345035Y-110403244D01*
X128684294Y-110271284D01*
X128993410Y-110151187D01*
X129269669Y-110044007D01*
X129510353Y-109950799D01*
X129712747Y-109872620D01*
X129874134Y-109810524D01*
X129991799Y-109765567D01*
X130063026Y-109738803D01*
X130085120Y-109731139D01*
X130109507Y-109747780D01*
X130175378Y-109796719D01*
X130280546Y-109876267D01*
X130422820Y-109984736D01*
X130600014Y-110120439D01*
X130809939Y-110281688D01*
X131050407Y-110466794D01*
X131319230Y-110674069D01*
X131614219Y-110901826D01*
X131933187Y-111148377D01*
X132273945Y-111412033D01*
X132634305Y-111691107D01*
X133012079Y-111983911D01*
X133405079Y-112288756D01*
X133811116Y-112603955D01*
X134083268Y-112815353D01*
X138053747Y-115900234D01*
X141374009Y-116183036D01*
X141798806Y-116219194D01*
X142209191Y-116254078D01*
X142601690Y-116287396D01*
X142972825Y-116318854D01*
X143319119Y-116348159D01*
X143637098Y-116375018D01*
X143923285Y-116399138D01*
X144174202Y-116420226D01*
X144386376Y-116437989D01*
X144556328Y-116452134D01*
X144680583Y-116462368D01*
X144755665Y-116468397D01*
X144777277Y-116469967D01*
X144794102Y-116466074D01*
G36*
X154402531Y-97587796D02*
X154400950Y-98095664D01*
X154365450Y-98099472D01*
X154215378Y-98121525D01*
X154070043Y-98154993D01*
X153929400Y-98199894D01*
X153793404Y-98256247D01*
X153662012Y-98324068D01*
X153535178Y-98403376D01*
X153454426Y-98461652D01*
X153407027Y-98497744D01*
X152972382Y-98068969D01*
X152537737Y-97640193D01*
X152486298Y-97690693D01*
X152462846Y-97714107D01*
X152434195Y-97743307D01*
X152403541Y-97775005D01*
X152374079Y-97805912D01*
X152366233Y-97814238D01*
X152297608Y-97887283D01*
X152729503Y-98319211D01*
X153161397Y-98751138D01*
X153141552Y-98777649D01*
X153120403Y-98806973D01*
X153095029Y-98843840D01*
X153067156Y-98885584D01*
X153038510Y-98929539D01*
X153010816Y-98973038D01*
X152985799Y-99013417D01*
X152965186Y-99048008D01*
X152955581Y-99064998D01*
X152906136Y-99162582D01*
X152861996Y-99264517D01*
X152824498Y-99367329D01*
X152794979Y-99467547D01*
X152785666Y-99506304D01*
X152778684Y-99540203D01*
X152771662Y-99578920D01*
X152765028Y-99619552D01*
X152759214Y-99659197D01*
X152754649Y-99694953D01*
X152751762Y-99723915D01*
X152750949Y-99740754D01*
X152750949Y-99758978D01*
X151737421Y-99758978D01*
X151737421Y-100080269D01*
X152245466Y-100081850D01*
X152753512Y-100083430D01*
X152761668Y-100148321D01*
X152783143Y-100274984D01*
X152815692Y-100403827D01*
X152858639Y-100533190D01*
X152911310Y-100661414D01*
X152973029Y-100786838D01*
X153043122Y-100907804D01*
X153112570Y-101011160D01*
X153129953Y-101035509D01*
X153144355Y-101056094D01*
X153154411Y-101070933D01*
X153158757Y-101078045D01*
X153158832Y-101078317D01*
X153154578Y-101083023D01*
X153142206Y-101095913D01*
X153122299Y-101116393D01*
X153095442Y-101143869D01*
X153062218Y-101177746D01*
X153023211Y-101217432D01*
X152979007Y-101262331D01*
X152930187Y-101311852D01*
X152877337Y-101365399D01*
X152821040Y-101422379D01*
X152761881Y-101482198D01*
X152725837Y-101518616D01*
X152292843Y-101955985D01*
X152342043Y-102002336D01*
X152364750Y-102023712D01*
X152393302Y-102050567D01*
X152424532Y-102079924D01*
X152455272Y-102108804D01*
X152464898Y-102117844D01*
X152538553Y-102187002D01*
X152970231Y-101765581D01*
X153031292Y-101705997D01*
X153089873Y-101648885D01*
X153145367Y-101594835D01*
X153197165Y-101544435D01*
X153244661Y-101498275D01*
X153287247Y-101456944D01*
X153324316Y-101421030D01*
X153355262Y-101391124D01*
X153379476Y-101367814D01*
X153396352Y-101351689D01*
X153405282Y-101343338D01*
X153406561Y-101342267D01*
X153413209Y-101344809D01*
X153427729Y-101353146D01*
X153447902Y-101365932D01*
X153468879Y-101380011D01*
X153591570Y-101458301D01*
X153719410Y-101528339D01*
X153850772Y-101589456D01*
X153984030Y-101640981D01*
X154117558Y-101682247D01*
X154249731Y-101712583D01*
X154295961Y-101720587D01*
X154325213Y-101725205D01*
X154351957Y-101729425D01*
X154372540Y-101732671D01*
X154380936Y-101733993D01*
X154401022Y-101737154D01*
X154401022Y-102756302D01*
X154747104Y-102756302D01*
X154747104Y-101730413D01*
X154764099Y-101730369D01*
X154779142Y-101728933D01*
X154803944Y-101724993D01*
X154836267Y-101719022D01*
X154873875Y-101711497D01*
X154914530Y-101702891D01*
X154955997Y-101693678D01*
X154996036Y-101684335D01*
X155032413Y-101675335D01*
X155062889Y-101667154D01*
X155065497Y-101666407D01*
X155185366Y-101627876D01*
X155304057Y-101582013D01*
X155419168Y-101529955D01*
X155528295Y-101472835D01*
X155629033Y-101411787D01*
X155682183Y-101375378D01*
X155730425Y-101340717D01*
X155747825Y-101354799D01*
X155754725Y-101361018D01*
X155769918Y-101375161D01*
X155792761Y-101396617D01*
X155822608Y-101424773D01*
X155858812Y-101459017D01*
X155900730Y-101498739D01*
X155947716Y-101543327D01*
X155999124Y-101592169D01*
X156054309Y-101644653D01*
X156112626Y-101700167D01*
X156173429Y-101758100D01*
X156193006Y-101776764D01*
X156254105Y-101834980D01*
X156312684Y-101890714D01*
X156368122Y-101943380D01*
X156419800Y-101992394D01*
X156467100Y-102037172D01*
X156509400Y-102077127D01*
X156546083Y-102111676D01*
X156576528Y-102140234D01*
X156600116Y-102162215D01*
X156616227Y-102177035D01*
X156624243Y-102184109D01*
X156625025Y-102184647D01*
X156630461Y-102180389D01*
X156642861Y-102168580D01*
X156660846Y-102150663D01*
X156683037Y-102128085D01*
X156708055Y-102102291D01*
X156734520Y-102074727D01*
X156761054Y-102046837D01*
X156786277Y-102020066D01*
X156808810Y-101995861D01*
X156827273Y-101975666D01*
X156840288Y-101960927D01*
X156846475Y-101953089D01*
X156846784Y-101952266D01*
X156842325Y-101947419D01*
X156829788Y-101934365D01*
X156809763Y-101913706D01*
X156782840Y-101886046D01*
X156749608Y-101851989D01*
X156710658Y-101812138D01*
X156666580Y-101767097D01*
X156617964Y-101717468D01*
X156565400Y-101663856D01*
X156509477Y-101606863D01*
X156450786Y-101547094D01*
X156421897Y-101517690D01*
X156362070Y-101456772D01*
X156304723Y-101398311D01*
X156250447Y-101342913D01*
X156199832Y-101291185D01*
X156153470Y-101243732D01*
X156111952Y-101201162D01*
X156075869Y-101164081D01*
X156045812Y-101133094D01*
X156022372Y-101108808D01*
X156006140Y-101091830D01*
X155997707Y-101082765D01*
X155996605Y-101081407D01*
X155999237Y-101074522D01*
X156007859Y-101059874D01*
X156021109Y-101039638D01*
X156037015Y-101016839D01*
X156124591Y-100884482D01*
X156200606Y-100747767D01*
X156265115Y-100606567D01*
X156318172Y-100460752D01*
X156359831Y-100310192D01*
X156384473Y-100189236D01*
X156389489Y-100158797D01*
X156393571Y-100131268D01*
X156396279Y-100109807D01*
X156397177Y-100098080D01*
X156397177Y-100080340D01*
X157423065Y-100080340D01*
X157423065Y-99915732D01*
X156068356Y-99915732D01*
X156067831Y-99978385D01*
X156065555Y-100036200D01*
X156061467Y-100085754D01*
X156061234Y-100087787D01*
X156039782Y-100222958D01*
X156007568Y-100352206D01*
X155964449Y-100475824D01*
X155910284Y-100594104D01*
X155844931Y-100707337D01*
X155768246Y-100815815D01*
X155680089Y-100919830D01*
X155631251Y-100970667D01*
X155530839Y-101063527D01*
X155426637Y-101144876D01*
X155318103Y-101214966D01*
X155204691Y-101274049D01*
X155085857Y-101322376D01*
X154961058Y-101360199D01*
X154829748Y-101387769D01*
X154691484Y-101405330D01*
X154662072Y-101406819D01*
X154623269Y-101407132D01*
X154577979Y-101406394D01*
X154529102Y-101404728D01*
X154479541Y-101402255D01*
X154432197Y-101399099D01*
X154389972Y-101395383D01*
X154355767Y-101391230D01*
X154354671Y-101391066D01*
X154223263Y-101365119D01*
X154096091Y-101327598D01*
X153973493Y-101278659D01*
X153855807Y-101218458D01*
X153743373Y-101147151D01*
X153636528Y-101064892D01*
X153625425Y-101055435D01*
X153522005Y-100958994D01*
X153429487Y-100856986D01*
X153347964Y-100749574D01*
X153277524Y-100636923D01*
X153218260Y-100519195D01*
X153170261Y-100396555D01*
X153133620Y-100269165D01*
X153108425Y-100137189D01*
X153105972Y-100119528D01*
X153101633Y-100077543D01*
X153098424Y-100027298D01*
X153096374Y-99971891D01*
X153095507Y-99914423D01*
X153095850Y-99857992D01*
X153097430Y-99805698D01*
X153100273Y-99760642D01*
X153102727Y-99737348D01*
X153126152Y-99601374D01*
X153160559Y-99471064D01*
X153205991Y-99346335D01*
X153262488Y-99227101D01*
X153330092Y-99113276D01*
X153408846Y-99004776D01*
X153498791Y-98901517D01*
X153529168Y-98870342D01*
X153631489Y-98776053D01*
X153738529Y-98693168D01*
X153850473Y-98621594D01*
X153967504Y-98561236D01*
X154089803Y-98512003D01*
X154217556Y-98473799D01*
X154350944Y-98446533D01*
X154363941Y-98444504D01*
X154405803Y-98439663D01*
X154456937Y-98436159D01*
X154514377Y-98433989D01*
X154575161Y-98433153D01*
X154636323Y-98433651D01*
X154694900Y-98435482D01*
X154747926Y-98438646D01*
X154792438Y-98443141D01*
X154802725Y-98444600D01*
X154910247Y-98464399D01*
X155010129Y-98490030D01*
X155106173Y-98522656D01*
X155202184Y-98563440D01*
X155221748Y-98572693D01*
X155335235Y-98633912D01*
X155444117Y-98705915D01*
X155547317Y-98787642D01*
X155643756Y-98878031D01*
X155732357Y-98976021D01*
X155812041Y-99080551D01*
X155881731Y-99190558D01*
X155918121Y-99258394D01*
X155971974Y-99379327D01*
X156014257Y-99504200D01*
X156045177Y-99633658D01*
X156054146Y-99685186D01*
X156060024Y-99732967D01*
X156064392Y-99789600D01*
X156067189Y-99851663D01*
X156068356Y-99915732D01*
X157423065Y-99915732D01*
X157423065Y-99758978D01*
X156403917Y-99758978D01*
X156400931Y-99738893D01*
X156393205Y-99687297D01*
X156386859Y-99645878D01*
X156381547Y-99612574D01*
X156376923Y-99585321D01*
X156372643Y-99562057D01*
X156368361Y-99540719D01*
X156365483Y-99527226D01*
X156329979Y-99391488D01*
X156282962Y-99256587D01*
X156225245Y-99124278D01*
X156157640Y-98996317D01*
X156080959Y-98874459D01*
X156031589Y-98805872D01*
X156016093Y-98784867D01*
X156003923Y-98767375D01*
X155996725Y-98755810D01*
X155995474Y-98752754D01*
X155999629Y-98745081D01*
X156008546Y-98735593D01*
X156014696Y-98729582D01*
X156028913Y-98715406D01*
X156050575Y-98693692D01*
X156079060Y-98665064D01*
X156113749Y-98630150D01*
X156154019Y-98589576D01*
X156199248Y-98543968D01*
X156248816Y-98493952D01*
X156302101Y-98440154D01*
X156358481Y-98383200D01*
X156417336Y-98323717D01*
X156435230Y-98305626D01*
X156848842Y-97887433D01*
X156739518Y-97764872D01*
X156710376Y-97732194D01*
X156684024Y-97702633D01*
X156661556Y-97677417D01*
X156644063Y-97657770D01*
X156632639Y-97644919D01*
X156628384Y-97640103D01*
X156625657Y-97642173D01*
X156617844Y-97649182D01*
X156604702Y-97661364D01*
X156585988Y-97678951D01*
X156561459Y-97702176D01*
X156530874Y-97731271D01*
X156493988Y-97766468D01*
X156450559Y-97808001D01*
X156400344Y-97856101D01*
X156343101Y-97911001D01*
X156278587Y-97972934D01*
X156206558Y-98042132D01*
X156126773Y-98118828D01*
X156038987Y-98203254D01*
X155942959Y-98295643D01*
X155838446Y-98396227D01*
X155762898Y-98468951D01*
X155731174Y-98499492D01*
X155667107Y-98456636D01*
X155542626Y-98378233D01*
X155416914Y-98308558D01*
X155291035Y-98248052D01*
X155166056Y-98197154D01*
X155043043Y-98156304D01*
X154923063Y-98125942D01*
X154824355Y-98108723D01*
X154799127Y-98105178D01*
X154777211Y-98101892D01*
X154762678Y-98099481D01*
X154761045Y-98099164D01*
X154747176Y-98096327D01*
X154744014Y-97079927D01*
X154404112Y-97079927D01*
X154402531Y-97587796D01*
X154402531Y-97587796D01*
G37*
X154402531Y-97587796D02*
X154400950Y-98095664D01*
X154365450Y-98099472D01*
X154215378Y-98121525D01*
X154070043Y-98154993D01*
X153929400Y-98199894D01*
X153793404Y-98256247D01*
X153662012Y-98324068D01*
X153535178Y-98403376D01*
X153454426Y-98461652D01*
X153407027Y-98497744D01*
X152972382Y-98068969D01*
X152537737Y-97640193D01*
X152486298Y-97690693D01*
X152462846Y-97714107D01*
X152434195Y-97743307D01*
X152403541Y-97775005D01*
X152374079Y-97805912D01*
X152366233Y-97814238D01*
X152297608Y-97887283D01*
X152729503Y-98319211D01*
X153161397Y-98751138D01*
X153141552Y-98777649D01*
X153120403Y-98806973D01*
X153095029Y-98843840D01*
X153067156Y-98885584D01*
X153038510Y-98929539D01*
X153010816Y-98973038D01*
X152985799Y-99013417D01*
X152965186Y-99048008D01*
X152955581Y-99064998D01*
X152906136Y-99162582D01*
X152861996Y-99264517D01*
X152824498Y-99367329D01*
X152794979Y-99467547D01*
X152785666Y-99506304D01*
X152778684Y-99540203D01*
X152771662Y-99578920D01*
X152765028Y-99619552D01*
X152759214Y-99659197D01*
X152754649Y-99694953D01*
X152751762Y-99723915D01*
X152750949Y-99740754D01*
X152750949Y-99758978D01*
X151737421Y-99758978D01*
X151737421Y-100080269D01*
X152245466Y-100081850D01*
X152753512Y-100083430D01*
X152761668Y-100148321D01*
X152783143Y-100274984D01*
X152815692Y-100403827D01*
X152858639Y-100533190D01*
X152911310Y-100661414D01*
X152973029Y-100786838D01*
X153043122Y-100907804D01*
X153112570Y-101011160D01*
X153129953Y-101035509D01*
X153144355Y-101056094D01*
X153154411Y-101070933D01*
X153158757Y-101078045D01*
X153158832Y-101078317D01*
X153154578Y-101083023D01*
X153142206Y-101095913D01*
X153122299Y-101116393D01*
X153095442Y-101143869D01*
X153062218Y-101177746D01*
X153023211Y-101217432D01*
X152979007Y-101262331D01*
X152930187Y-101311852D01*
X152877337Y-101365399D01*
X152821040Y-101422379D01*
X152761881Y-101482198D01*
X152725837Y-101518616D01*
X152292843Y-101955985D01*
X152342043Y-102002336D01*
X152364750Y-102023712D01*
X152393302Y-102050567D01*
X152424532Y-102079924D01*
X152455272Y-102108804D01*
X152464898Y-102117844D01*
X152538553Y-102187002D01*
X152970231Y-101765581D01*
X153031292Y-101705997D01*
X153089873Y-101648885D01*
X153145367Y-101594835D01*
X153197165Y-101544435D01*
X153244661Y-101498275D01*
X153287247Y-101456944D01*
X153324316Y-101421030D01*
X153355262Y-101391124D01*
X153379476Y-101367814D01*
X153396352Y-101351689D01*
X153405282Y-101343338D01*
X153406561Y-101342267D01*
X153413209Y-101344809D01*
X153427729Y-101353146D01*
X153447902Y-101365932D01*
X153468879Y-101380011D01*
X153591570Y-101458301D01*
X153719410Y-101528339D01*
X153850772Y-101589456D01*
X153984030Y-101640981D01*
X154117558Y-101682247D01*
X154249731Y-101712583D01*
X154295961Y-101720587D01*
X154325213Y-101725205D01*
X154351957Y-101729425D01*
X154372540Y-101732671D01*
X154380936Y-101733993D01*
X154401022Y-101737154D01*
X154401022Y-102756302D01*
X154747104Y-102756302D01*
X154747104Y-101730413D01*
X154764099Y-101730369D01*
X154779142Y-101728933D01*
X154803944Y-101724993D01*
X154836267Y-101719022D01*
X154873875Y-101711497D01*
X154914530Y-101702891D01*
X154955997Y-101693678D01*
X154996036Y-101684335D01*
X155032413Y-101675335D01*
X155062889Y-101667154D01*
X155065497Y-101666407D01*
X155185366Y-101627876D01*
X155304057Y-101582013D01*
X155419168Y-101529955D01*
X155528295Y-101472835D01*
X155629033Y-101411787D01*
X155682183Y-101375378D01*
X155730425Y-101340717D01*
X155747825Y-101354799D01*
X155754725Y-101361018D01*
X155769918Y-101375161D01*
X155792761Y-101396617D01*
X155822608Y-101424773D01*
X155858812Y-101459017D01*
X155900730Y-101498739D01*
X155947716Y-101543327D01*
X155999124Y-101592169D01*
X156054309Y-101644653D01*
X156112626Y-101700167D01*
X156173429Y-101758100D01*
X156193006Y-101776764D01*
X156254105Y-101834980D01*
X156312684Y-101890714D01*
X156368122Y-101943380D01*
X156419800Y-101992394D01*
X156467100Y-102037172D01*
X156509400Y-102077127D01*
X156546083Y-102111676D01*
X156576528Y-102140234D01*
X156600116Y-102162215D01*
X156616227Y-102177035D01*
X156624243Y-102184109D01*
X156625025Y-102184647D01*
X156630461Y-102180389D01*
X156642861Y-102168580D01*
X156660846Y-102150663D01*
X156683037Y-102128085D01*
X156708055Y-102102291D01*
X156734520Y-102074727D01*
X156761054Y-102046837D01*
X156786277Y-102020066D01*
X156808810Y-101995861D01*
X156827273Y-101975666D01*
X156840288Y-101960927D01*
X156846475Y-101953089D01*
X156846784Y-101952266D01*
X156842325Y-101947419D01*
X156829788Y-101934365D01*
X156809763Y-101913706D01*
X156782840Y-101886046D01*
X156749608Y-101851989D01*
X156710658Y-101812138D01*
X156666580Y-101767097D01*
X156617964Y-101717468D01*
X156565400Y-101663856D01*
X156509477Y-101606863D01*
X156450786Y-101547094D01*
X156421897Y-101517690D01*
X156362070Y-101456772D01*
X156304723Y-101398311D01*
X156250447Y-101342913D01*
X156199832Y-101291185D01*
X156153470Y-101243732D01*
X156111952Y-101201162D01*
X156075869Y-101164081D01*
X156045812Y-101133094D01*
X156022372Y-101108808D01*
X156006140Y-101091830D01*
X155997707Y-101082765D01*
X155996605Y-101081407D01*
X155999237Y-101074522D01*
X156007859Y-101059874D01*
X156021109Y-101039638D01*
X156037015Y-101016839D01*
X156124591Y-100884482D01*
X156200606Y-100747767D01*
X156265115Y-100606567D01*
X156318172Y-100460752D01*
X156359831Y-100310192D01*
X156384473Y-100189236D01*
X156389489Y-100158797D01*
X156393571Y-100131268D01*
X156396279Y-100109807D01*
X156397177Y-100098080D01*
X156397177Y-100080340D01*
X157423065Y-100080340D01*
X157423065Y-99915732D01*
X156068356Y-99915732D01*
X156067831Y-99978385D01*
X156065555Y-100036200D01*
X156061467Y-100085754D01*
X156061234Y-100087787D01*
X156039782Y-100222958D01*
X156007568Y-100352206D01*
X155964449Y-100475824D01*
X155910284Y-100594104D01*
X155844931Y-100707337D01*
X155768246Y-100815815D01*
X155680089Y-100919830D01*
X155631251Y-100970667D01*
X155530839Y-101063527D01*
X155426637Y-101144876D01*
X155318103Y-101214966D01*
X155204691Y-101274049D01*
X155085857Y-101322376D01*
X154961058Y-101360199D01*
X154829748Y-101387769D01*
X154691484Y-101405330D01*
X154662072Y-101406819D01*
X154623269Y-101407132D01*
X154577979Y-101406394D01*
X154529102Y-101404728D01*
X154479541Y-101402255D01*
X154432197Y-101399099D01*
X154389972Y-101395383D01*
X154355767Y-101391230D01*
X154354671Y-101391066D01*
X154223263Y-101365119D01*
X154096091Y-101327598D01*
X153973493Y-101278659D01*
X153855807Y-101218458D01*
X153743373Y-101147151D01*
X153636528Y-101064892D01*
X153625425Y-101055435D01*
X153522005Y-100958994D01*
X153429487Y-100856986D01*
X153347964Y-100749574D01*
X153277524Y-100636923D01*
X153218260Y-100519195D01*
X153170261Y-100396555D01*
X153133620Y-100269165D01*
X153108425Y-100137189D01*
X153105972Y-100119528D01*
X153101633Y-100077543D01*
X153098424Y-100027298D01*
X153096374Y-99971891D01*
X153095507Y-99914423D01*
X153095850Y-99857992D01*
X153097430Y-99805698D01*
X153100273Y-99760642D01*
X153102727Y-99737348D01*
X153126152Y-99601374D01*
X153160559Y-99471064D01*
X153205991Y-99346335D01*
X153262488Y-99227101D01*
X153330092Y-99113276D01*
X153408846Y-99004776D01*
X153498791Y-98901517D01*
X153529168Y-98870342D01*
X153631489Y-98776053D01*
X153738529Y-98693168D01*
X153850473Y-98621594D01*
X153967504Y-98561236D01*
X154089803Y-98512003D01*
X154217556Y-98473799D01*
X154350944Y-98446533D01*
X154363941Y-98444504D01*
X154405803Y-98439663D01*
X154456937Y-98436159D01*
X154514377Y-98433989D01*
X154575161Y-98433153D01*
X154636323Y-98433651D01*
X154694900Y-98435482D01*
X154747926Y-98438646D01*
X154792438Y-98443141D01*
X154802725Y-98444600D01*
X154910247Y-98464399D01*
X155010129Y-98490030D01*
X155106173Y-98522656D01*
X155202184Y-98563440D01*
X155221748Y-98572693D01*
X155335235Y-98633912D01*
X155444117Y-98705915D01*
X155547317Y-98787642D01*
X155643756Y-98878031D01*
X155732357Y-98976021D01*
X155812041Y-99080551D01*
X155881731Y-99190558D01*
X155918121Y-99258394D01*
X155971974Y-99379327D01*
X156014257Y-99504200D01*
X156045177Y-99633658D01*
X156054146Y-99685186D01*
X156060024Y-99732967D01*
X156064392Y-99789600D01*
X156067189Y-99851663D01*
X156068356Y-99915732D01*
X157423065Y-99915732D01*
X157423065Y-99758978D01*
X156403917Y-99758978D01*
X156400931Y-99738893D01*
X156393205Y-99687297D01*
X156386859Y-99645878D01*
X156381547Y-99612574D01*
X156376923Y-99585321D01*
X156372643Y-99562057D01*
X156368361Y-99540719D01*
X156365483Y-99527226D01*
X156329979Y-99391488D01*
X156282962Y-99256587D01*
X156225245Y-99124278D01*
X156157640Y-98996317D01*
X156080959Y-98874459D01*
X156031589Y-98805872D01*
X156016093Y-98784867D01*
X156003923Y-98767375D01*
X155996725Y-98755810D01*
X155995474Y-98752754D01*
X155999629Y-98745081D01*
X156008546Y-98735593D01*
X156014696Y-98729582D01*
X156028913Y-98715406D01*
X156050575Y-98693692D01*
X156079060Y-98665064D01*
X156113749Y-98630150D01*
X156154019Y-98589576D01*
X156199248Y-98543968D01*
X156248816Y-98493952D01*
X156302101Y-98440154D01*
X156358481Y-98383200D01*
X156417336Y-98323717D01*
X156435230Y-98305626D01*
X156848842Y-97887433D01*
X156739518Y-97764872D01*
X156710376Y-97732194D01*
X156684024Y-97702633D01*
X156661556Y-97677417D01*
X156644063Y-97657770D01*
X156632639Y-97644919D01*
X156628384Y-97640103D01*
X156625657Y-97642173D01*
X156617844Y-97649182D01*
X156604702Y-97661364D01*
X156585988Y-97678951D01*
X156561459Y-97702176D01*
X156530874Y-97731271D01*
X156493988Y-97766468D01*
X156450559Y-97808001D01*
X156400344Y-97856101D01*
X156343101Y-97911001D01*
X156278587Y-97972934D01*
X156206558Y-98042132D01*
X156126773Y-98118828D01*
X156038987Y-98203254D01*
X155942959Y-98295643D01*
X155838446Y-98396227D01*
X155762898Y-98468951D01*
X155731174Y-98499492D01*
X155667107Y-98456636D01*
X155542626Y-98378233D01*
X155416914Y-98308558D01*
X155291035Y-98248052D01*
X155166056Y-98197154D01*
X155043043Y-98156304D01*
X154923063Y-98125942D01*
X154824355Y-98108723D01*
X154799127Y-98105178D01*
X154777211Y-98101892D01*
X154762678Y-98099481D01*
X154761045Y-98099164D01*
X154747176Y-98096327D01*
X154744014Y-97079927D01*
X154404112Y-97079927D01*
X154402531Y-97587796D01*
G36*
X133314696Y-98095655D02*
X133279160Y-98099504D01*
X133188907Y-98111333D01*
X133099083Y-98126998D01*
X133013224Y-98145776D01*
X132934870Y-98166947D01*
X132909902Y-98174780D01*
X132789430Y-98219501D01*
X132668681Y-98274611D01*
X132550600Y-98338563D01*
X132438130Y-98409813D01*
X132372940Y-98456648D01*
X132318021Y-98498099D01*
X131910736Y-98094925D01*
X131851033Y-98035863D01*
X131793364Y-97978886D01*
X131738396Y-97924649D01*
X131686795Y-97873807D01*
X131639229Y-97827014D01*
X131596365Y-97784926D01*
X131558869Y-97748197D01*
X131527408Y-97717482D01*
X131502651Y-97693436D01*
X131485262Y-97676714D01*
X131475910Y-97667970D01*
X131475407Y-97667529D01*
X131447364Y-97643307D01*
X131204245Y-97886426D01*
X132071361Y-98754720D01*
X132013358Y-98835061D01*
X131935683Y-98950223D01*
X131866880Y-99067928D01*
X131807375Y-99187111D01*
X131757594Y-99306706D01*
X131717963Y-99425648D01*
X131688908Y-99542871D01*
X131670856Y-99657308D01*
X131666828Y-99701812D01*
X131662798Y-99758978D01*
X130644915Y-99758978D01*
X130644915Y-100080340D01*
X131663865Y-100080340D01*
X131667841Y-100109696D01*
X131694221Y-100264159D01*
X131730795Y-100412057D01*
X131777936Y-100554328D01*
X131836017Y-100691913D01*
X131905414Y-100825753D01*
X131986499Y-100956788D01*
X132028969Y-101017972D01*
X132072386Y-101078409D01*
X131968589Y-101183475D01*
X131946860Y-101205460D01*
X131917413Y-101235238D01*
X131881228Y-101271820D01*
X131839285Y-101314216D01*
X131792562Y-101361436D01*
X131742038Y-101412491D01*
X131688694Y-101466391D01*
X131633508Y-101522146D01*
X131577460Y-101578767D01*
X131534779Y-101621880D01*
X131204766Y-101955219D01*
X131287918Y-102034672D01*
X131317736Y-102063029D01*
X131347731Y-102091317D01*
X131375477Y-102117265D01*
X131398548Y-102138603D01*
X131411241Y-102150139D01*
X131451411Y-102186154D01*
X131710973Y-101932935D01*
X131765214Y-101880024D01*
X131822490Y-101824160D01*
X131881153Y-101766951D01*
X131939555Y-101710002D01*
X131996048Y-101654923D01*
X132048983Y-101603319D01*
X132096711Y-101556797D01*
X132137586Y-101516966D01*
X132145097Y-101509648D01*
X132319658Y-101339581D01*
X132404659Y-101395095D01*
X132453075Y-101426380D01*
X132494678Y-101452381D01*
X132532725Y-101474983D01*
X132570471Y-101496071D01*
X132611173Y-101517530D01*
X132651167Y-101537790D01*
X132793427Y-101602489D01*
X132937602Y-101655160D01*
X133084608Y-101696095D01*
X133235362Y-101725585D01*
X133246915Y-101727353D01*
X133273086Y-101731240D01*
X133294384Y-101734321D01*
X133308053Y-101736201D01*
X133311565Y-101736594D01*
X133312045Y-101742622D01*
X133312503Y-101760099D01*
X133312932Y-101788115D01*
X133313328Y-101825758D01*
X133313685Y-101872117D01*
X133313997Y-101926282D01*
X133314258Y-101987341D01*
X133314464Y-102054384D01*
X133314607Y-102126500D01*
X133314684Y-102202777D01*
X133314696Y-102246448D01*
X133314696Y-102756302D01*
X133660778Y-102756302D01*
X133660778Y-101732552D01*
X133711764Y-101724903D01*
X133865285Y-101695785D01*
X134016957Y-101654982D01*
X134165487Y-101603000D01*
X134309583Y-101540344D01*
X134447953Y-101467520D01*
X134577768Y-101386084D01*
X134645000Y-101340191D01*
X134664288Y-101358506D01*
X134671479Y-101365343D01*
X134686973Y-101380079D01*
X134710116Y-101402093D01*
X134740258Y-101430767D01*
X134776746Y-101465478D01*
X134818927Y-101505607D01*
X134866150Y-101550533D01*
X134917762Y-101599636D01*
X134973111Y-101652294D01*
X135031546Y-101707889D01*
X135092413Y-101765799D01*
X135109563Y-101782116D01*
X135184061Y-101852933D01*
X135250103Y-101915570D01*
X135308129Y-101970430D01*
X135358577Y-102017916D01*
X135401887Y-102058432D01*
X135438497Y-102092379D01*
X135468847Y-102120162D01*
X135493375Y-102142182D01*
X135512520Y-102158843D01*
X135526721Y-102170548D01*
X135536418Y-102177699D01*
X135542049Y-102180700D01*
X135543722Y-102180629D01*
X135550132Y-102174420D01*
X135563802Y-102160576D01*
X135583461Y-102140406D01*
X135607838Y-102115217D01*
X135635660Y-102086320D01*
X135657188Y-102063871D01*
X135762483Y-101953894D01*
X135384306Y-101568687D01*
X135326472Y-101509770D01*
X135270156Y-101452385D01*
X135216096Y-101397284D01*
X135165028Y-101345219D01*
X135117688Y-101296941D01*
X135074815Y-101253201D01*
X135037143Y-101214752D01*
X135005410Y-101182344D01*
X134980354Y-101156730D01*
X134962710Y-101138660D01*
X134955208Y-101130949D01*
X134904287Y-101078418D01*
X134956807Y-101004258D01*
X135043278Y-100872102D01*
X135117983Y-100736328D01*
X135181099Y-100596503D01*
X135232804Y-100452196D01*
X135273273Y-100302976D01*
X135299859Y-100166465D01*
X135313703Y-100080340D01*
X136330559Y-100080340D01*
X136330559Y-99892156D01*
X134982423Y-99892156D01*
X134979092Y-100022153D01*
X134964791Y-100151670D01*
X134939436Y-100279682D01*
X134902945Y-100405163D01*
X134882320Y-100461950D01*
X134832542Y-100574130D01*
X134771406Y-100683661D01*
X134699816Y-100789439D01*
X134618677Y-100890362D01*
X134528894Y-100985328D01*
X134431370Y-101073233D01*
X134327012Y-101152976D01*
X134300413Y-101171204D01*
X134256858Y-101198320D01*
X134204905Y-101227333D01*
X134147992Y-101256567D01*
X134089553Y-101284346D01*
X134033023Y-101308994D01*
X133981838Y-101328834D01*
X133966691Y-101334046D01*
X133846313Y-101367796D01*
X133720718Y-101391485D01*
X133592226Y-101404847D01*
X133463155Y-101407617D01*
X133367226Y-101402572D01*
X133232465Y-101385380D01*
X133103342Y-101357271D01*
X132979350Y-101318052D01*
X132859984Y-101267529D01*
X132744737Y-101205510D01*
X132633102Y-101131801D01*
X132608066Y-101113311D01*
X132568353Y-101081497D01*
X132523700Y-101042532D01*
X132476792Y-100998989D01*
X132430315Y-100953447D01*
X132386953Y-100908478D01*
X132349392Y-100866660D01*
X132342918Y-100859027D01*
X132262651Y-100753768D01*
X132192649Y-100641818D01*
X132133142Y-100523707D01*
X132084360Y-100399964D01*
X132046536Y-100271116D01*
X132019901Y-100137692D01*
X132016038Y-100111241D01*
X132012210Y-100073272D01*
X132009595Y-100025949D01*
X132008167Y-99972217D01*
X132007904Y-99915018D01*
X132008779Y-99857297D01*
X132010770Y-99801998D01*
X132013852Y-99752064D01*
X132018002Y-99710441D01*
X132019413Y-99700267D01*
X132045326Y-99566800D01*
X132082067Y-99439138D01*
X132129756Y-99317042D01*
X132188517Y-99200274D01*
X132258470Y-99088593D01*
X132339738Y-98981761D01*
X132432442Y-98879538D01*
X132443023Y-98868884D01*
X132493852Y-98819580D01*
X132541125Y-98777150D01*
X132588604Y-98738506D01*
X132640050Y-98700562D01*
X132688556Y-98667321D01*
X132800302Y-98600032D01*
X132917179Y-98543986D01*
X133039173Y-98499188D01*
X133166272Y-98465640D01*
X133298463Y-98443348D01*
X133435732Y-98432315D01*
X133444477Y-98432000D01*
X133582122Y-98433265D01*
X133716649Y-98446335D01*
X133847733Y-98471130D01*
X133975050Y-98507567D01*
X134098275Y-98555568D01*
X134217084Y-98615051D01*
X134244523Y-98630802D01*
X134335229Y-98689844D01*
X134425247Y-98759279D01*
X134512657Y-98837202D01*
X134595542Y-98921708D01*
X134671984Y-99010890D01*
X134740066Y-99102844D01*
X134776689Y-99159513D01*
X134837433Y-99270858D01*
X134887707Y-99387874D01*
X134927426Y-99509538D01*
X134956507Y-99634823D01*
X134974867Y-99762704D01*
X134982423Y-99892156D01*
X136330559Y-99892156D01*
X136330559Y-99758978D01*
X135312556Y-99758978D01*
X135308235Y-99711083D01*
X135301481Y-99656722D01*
X135290599Y-99594199D01*
X135276334Y-99526708D01*
X135259435Y-99457444D01*
X135240651Y-99389602D01*
X135220727Y-99326377D01*
X135213058Y-99304353D01*
X135157619Y-99167457D01*
X135091145Y-99034312D01*
X135014718Y-98906907D01*
X134939525Y-98800383D01*
X134903345Y-98752855D01*
X135332249Y-98320679D01*
X135761154Y-97888503D01*
X135649571Y-97763198D01*
X135537989Y-97637893D01*
X135481586Y-97693178D01*
X135467828Y-97706570D01*
X135446003Y-97727694D01*
X135416967Y-97755726D01*
X135381574Y-97789844D01*
X135340679Y-97829225D01*
X135295136Y-97873046D01*
X135245802Y-97920484D01*
X135193529Y-97970716D01*
X135139175Y-98022919D01*
X135091460Y-98068720D01*
X135035990Y-98121967D01*
X134981863Y-98173957D01*
X134929934Y-98223865D01*
X134881058Y-98270867D01*
X134836091Y-98314141D01*
X134795889Y-98352862D01*
X134761307Y-98386207D01*
X134733202Y-98413352D01*
X134712428Y-98433473D01*
X134701094Y-98444516D01*
X134644450Y-98500054D01*
X134574403Y-98453712D01*
X134435556Y-98367258D01*
X134298322Y-98292660D01*
X134162838Y-98229975D01*
X134029239Y-98179260D01*
X133897658Y-98140570D01*
X133768233Y-98113962D01*
X133756569Y-98112142D01*
X133727587Y-98107687D01*
X133702005Y-98103651D01*
X133682991Y-98100541D01*
X133674719Y-98099075D01*
X133660850Y-98096327D01*
X133657688Y-97079927D01*
X133314696Y-97076641D01*
X133314696Y-98095655D01*
X133314696Y-98095655D01*
G37*
X133314696Y-98095655D02*
X133279160Y-98099504D01*
X133188907Y-98111333D01*
X133099083Y-98126998D01*
X133013224Y-98145776D01*
X132934870Y-98166947D01*
X132909902Y-98174780D01*
X132789430Y-98219501D01*
X132668681Y-98274611D01*
X132550600Y-98338563D01*
X132438130Y-98409813D01*
X132372940Y-98456648D01*
X132318021Y-98498099D01*
X131910736Y-98094925D01*
X131851033Y-98035863D01*
X131793364Y-97978886D01*
X131738396Y-97924649D01*
X131686795Y-97873807D01*
X131639229Y-97827014D01*
X131596365Y-97784926D01*
X131558869Y-97748197D01*
X131527408Y-97717482D01*
X131502651Y-97693436D01*
X131485262Y-97676714D01*
X131475910Y-97667970D01*
X131475407Y-97667529D01*
X131447364Y-97643307D01*
X131204245Y-97886426D01*
X132071361Y-98754720D01*
X132013358Y-98835061D01*
X131935683Y-98950223D01*
X131866880Y-99067928D01*
X131807375Y-99187111D01*
X131757594Y-99306706D01*
X131717963Y-99425648D01*
X131688908Y-99542871D01*
X131670856Y-99657308D01*
X131666828Y-99701812D01*
X131662798Y-99758978D01*
X130644915Y-99758978D01*
X130644915Y-100080340D01*
X131663865Y-100080340D01*
X131667841Y-100109696D01*
X131694221Y-100264159D01*
X131730795Y-100412057D01*
X131777936Y-100554328D01*
X131836017Y-100691913D01*
X131905414Y-100825753D01*
X131986499Y-100956788D01*
X132028969Y-101017972D01*
X132072386Y-101078409D01*
X131968589Y-101183475D01*
X131946860Y-101205460D01*
X131917413Y-101235238D01*
X131881228Y-101271820D01*
X131839285Y-101314216D01*
X131792562Y-101361436D01*
X131742038Y-101412491D01*
X131688694Y-101466391D01*
X131633508Y-101522146D01*
X131577460Y-101578767D01*
X131534779Y-101621880D01*
X131204766Y-101955219D01*
X131287918Y-102034672D01*
X131317736Y-102063029D01*
X131347731Y-102091317D01*
X131375477Y-102117265D01*
X131398548Y-102138603D01*
X131411241Y-102150139D01*
X131451411Y-102186154D01*
X131710973Y-101932935D01*
X131765214Y-101880024D01*
X131822490Y-101824160D01*
X131881153Y-101766951D01*
X131939555Y-101710002D01*
X131996048Y-101654923D01*
X132048983Y-101603319D01*
X132096711Y-101556797D01*
X132137586Y-101516966D01*
X132145097Y-101509648D01*
X132319658Y-101339581D01*
X132404659Y-101395095D01*
X132453075Y-101426380D01*
X132494678Y-101452381D01*
X132532725Y-101474983D01*
X132570471Y-101496071D01*
X132611173Y-101517530D01*
X132651167Y-101537790D01*
X132793427Y-101602489D01*
X132937602Y-101655160D01*
X133084608Y-101696095D01*
X133235362Y-101725585D01*
X133246915Y-101727353D01*
X133273086Y-101731240D01*
X133294384Y-101734321D01*
X133308053Y-101736201D01*
X133311565Y-101736594D01*
X133312045Y-101742622D01*
X133312503Y-101760099D01*
X133312932Y-101788115D01*
X133313328Y-101825758D01*
X133313685Y-101872117D01*
X133313997Y-101926282D01*
X133314258Y-101987341D01*
X133314464Y-102054384D01*
X133314607Y-102126500D01*
X133314684Y-102202777D01*
X133314696Y-102246448D01*
X133314696Y-102756302D01*
X133660778Y-102756302D01*
X133660778Y-101732552D01*
X133711764Y-101724903D01*
X133865285Y-101695785D01*
X134016957Y-101654982D01*
X134165487Y-101603000D01*
X134309583Y-101540344D01*
X134447953Y-101467520D01*
X134577768Y-101386084D01*
X134645000Y-101340191D01*
X134664288Y-101358506D01*
X134671479Y-101365343D01*
X134686973Y-101380079D01*
X134710116Y-101402093D01*
X134740258Y-101430767D01*
X134776746Y-101465478D01*
X134818927Y-101505607D01*
X134866150Y-101550533D01*
X134917762Y-101599636D01*
X134973111Y-101652294D01*
X135031546Y-101707889D01*
X135092413Y-101765799D01*
X135109563Y-101782116D01*
X135184061Y-101852933D01*
X135250103Y-101915570D01*
X135308129Y-101970430D01*
X135358577Y-102017916D01*
X135401887Y-102058432D01*
X135438497Y-102092379D01*
X135468847Y-102120162D01*
X135493375Y-102142182D01*
X135512520Y-102158843D01*
X135526721Y-102170548D01*
X135536418Y-102177699D01*
X135542049Y-102180700D01*
X135543722Y-102180629D01*
X135550132Y-102174420D01*
X135563802Y-102160576D01*
X135583461Y-102140406D01*
X135607838Y-102115217D01*
X135635660Y-102086320D01*
X135657188Y-102063871D01*
X135762483Y-101953894D01*
X135384306Y-101568687D01*
X135326472Y-101509770D01*
X135270156Y-101452385D01*
X135216096Y-101397284D01*
X135165028Y-101345219D01*
X135117688Y-101296941D01*
X135074815Y-101253201D01*
X135037143Y-101214752D01*
X135005410Y-101182344D01*
X134980354Y-101156730D01*
X134962710Y-101138660D01*
X134955208Y-101130949D01*
X134904287Y-101078418D01*
X134956807Y-101004258D01*
X135043278Y-100872102D01*
X135117983Y-100736328D01*
X135181099Y-100596503D01*
X135232804Y-100452196D01*
X135273273Y-100302976D01*
X135299859Y-100166465D01*
X135313703Y-100080340D01*
X136330559Y-100080340D01*
X136330559Y-99892156D01*
X134982423Y-99892156D01*
X134979092Y-100022153D01*
X134964791Y-100151670D01*
X134939436Y-100279682D01*
X134902945Y-100405163D01*
X134882320Y-100461950D01*
X134832542Y-100574130D01*
X134771406Y-100683661D01*
X134699816Y-100789439D01*
X134618677Y-100890362D01*
X134528894Y-100985328D01*
X134431370Y-101073233D01*
X134327012Y-101152976D01*
X134300413Y-101171204D01*
X134256858Y-101198320D01*
X134204905Y-101227333D01*
X134147992Y-101256567D01*
X134089553Y-101284346D01*
X134033023Y-101308994D01*
X133981838Y-101328834D01*
X133966691Y-101334046D01*
X133846313Y-101367796D01*
X133720718Y-101391485D01*
X133592226Y-101404847D01*
X133463155Y-101407617D01*
X133367226Y-101402572D01*
X133232465Y-101385380D01*
X133103342Y-101357271D01*
X132979350Y-101318052D01*
X132859984Y-101267529D01*
X132744737Y-101205510D01*
X132633102Y-101131801D01*
X132608066Y-101113311D01*
X132568353Y-101081497D01*
X132523700Y-101042532D01*
X132476792Y-100998989D01*
X132430315Y-100953447D01*
X132386953Y-100908478D01*
X132349392Y-100866660D01*
X132342918Y-100859027D01*
X132262651Y-100753768D01*
X132192649Y-100641818D01*
X132133142Y-100523707D01*
X132084360Y-100399964D01*
X132046536Y-100271116D01*
X132019901Y-100137692D01*
X132016038Y-100111241D01*
X132012210Y-100073272D01*
X132009595Y-100025949D01*
X132008167Y-99972217D01*
X132007904Y-99915018D01*
X132008779Y-99857297D01*
X132010770Y-99801998D01*
X132013852Y-99752064D01*
X132018002Y-99710441D01*
X132019413Y-99700267D01*
X132045326Y-99566800D01*
X132082067Y-99439138D01*
X132129756Y-99317042D01*
X132188517Y-99200274D01*
X132258470Y-99088593D01*
X132339738Y-98981761D01*
X132432442Y-98879538D01*
X132443023Y-98868884D01*
X132493852Y-98819580D01*
X132541125Y-98777150D01*
X132588604Y-98738506D01*
X132640050Y-98700562D01*
X132688556Y-98667321D01*
X132800302Y-98600032D01*
X132917179Y-98543986D01*
X133039173Y-98499188D01*
X133166272Y-98465640D01*
X133298463Y-98443348D01*
X133435732Y-98432315D01*
X133444477Y-98432000D01*
X133582122Y-98433265D01*
X133716649Y-98446335D01*
X133847733Y-98471130D01*
X133975050Y-98507567D01*
X134098275Y-98555568D01*
X134217084Y-98615051D01*
X134244523Y-98630802D01*
X134335229Y-98689844D01*
X134425247Y-98759279D01*
X134512657Y-98837202D01*
X134595542Y-98921708D01*
X134671984Y-99010890D01*
X134740066Y-99102844D01*
X134776689Y-99159513D01*
X134837433Y-99270858D01*
X134887707Y-99387874D01*
X134927426Y-99509538D01*
X134956507Y-99634823D01*
X134974867Y-99762704D01*
X134982423Y-99892156D01*
X136330559Y-99892156D01*
X136330559Y-99758978D01*
X135312556Y-99758978D01*
X135308235Y-99711083D01*
X135301481Y-99656722D01*
X135290599Y-99594199D01*
X135276334Y-99526708D01*
X135259435Y-99457444D01*
X135240651Y-99389602D01*
X135220727Y-99326377D01*
X135213058Y-99304353D01*
X135157619Y-99167457D01*
X135091145Y-99034312D01*
X135014718Y-98906907D01*
X134939525Y-98800383D01*
X134903345Y-98752855D01*
X135332249Y-98320679D01*
X135761154Y-97888503D01*
X135649571Y-97763198D01*
X135537989Y-97637893D01*
X135481586Y-97693178D01*
X135467828Y-97706570D01*
X135446003Y-97727694D01*
X135416967Y-97755726D01*
X135381574Y-97789844D01*
X135340679Y-97829225D01*
X135295136Y-97873046D01*
X135245802Y-97920484D01*
X135193529Y-97970716D01*
X135139175Y-98022919D01*
X135091460Y-98068720D01*
X135035990Y-98121967D01*
X134981863Y-98173957D01*
X134929934Y-98223865D01*
X134881058Y-98270867D01*
X134836091Y-98314141D01*
X134795889Y-98352862D01*
X134761307Y-98386207D01*
X134733202Y-98413352D01*
X134712428Y-98433473D01*
X134701094Y-98444516D01*
X134644450Y-98500054D01*
X134574403Y-98453712D01*
X134435556Y-98367258D01*
X134298322Y-98292660D01*
X134162838Y-98229975D01*
X134029239Y-98179260D01*
X133897658Y-98140570D01*
X133768233Y-98113962D01*
X133756569Y-98112142D01*
X133727587Y-98107687D01*
X133702005Y-98103651D01*
X133682991Y-98100541D01*
X133674719Y-98099075D01*
X133660850Y-98096327D01*
X133657688Y-97079927D01*
X133314696Y-97076641D01*
X133314696Y-98095655D01*
G36*
X158306812Y-102088856D02*
X159541792Y-102088856D01*
X159664450Y-102088836D01*
X159783812Y-102088776D01*
X159899290Y-102088679D01*
X160010298Y-102088547D01*
X160116247Y-102088381D01*
X160216548Y-102088184D01*
X160310615Y-102087957D01*
X160397859Y-102087703D01*
X160477692Y-102087423D01*
X160549527Y-102087119D01*
X160612775Y-102086793D01*
X160666849Y-102086448D01*
X160711160Y-102086085D01*
X160745122Y-102085706D01*
X160768145Y-102085314D01*
X160779642Y-102084909D01*
X160780892Y-102084736D01*
X160781705Y-102077922D01*
X160782465Y-102059947D01*
X160783155Y-102032010D01*
X160783760Y-101995311D01*
X160784265Y-101951050D01*
X160784652Y-101900425D01*
X160784905Y-101844635D01*
X160785010Y-101784881D01*
X160785012Y-101775734D01*
X160785012Y-101470851D01*
X158930997Y-101470851D01*
X158930997Y-100859067D01*
X159856460Y-100857502D01*
X160781922Y-100855937D01*
X160784255Y-99005012D01*
X160160827Y-99005012D01*
X160160827Y-100234842D01*
X158930997Y-100234842D01*
X158930997Y-99005012D01*
X160160827Y-99005012D01*
X160784255Y-99005012D01*
X160785042Y-98380827D01*
X158306812Y-98380827D01*
X158306812Y-102088856D01*
X158306812Y-102088856D01*
G37*
X158306812Y-102088856D02*
X159541792Y-102088856D01*
X159664450Y-102088836D01*
X159783812Y-102088776D01*
X159899290Y-102088679D01*
X160010298Y-102088547D01*
X160116247Y-102088381D01*
X160216548Y-102088184D01*
X160310615Y-102087957D01*
X160397859Y-102087703D01*
X160477692Y-102087423D01*
X160549527Y-102087119D01*
X160612775Y-102086793D01*
X160666849Y-102086448D01*
X160711160Y-102086085D01*
X160745122Y-102085706D01*
X160768145Y-102085314D01*
X160779642Y-102084909D01*
X160780892Y-102084736D01*
X160781705Y-102077922D01*
X160782465Y-102059947D01*
X160783155Y-102032010D01*
X160783760Y-101995311D01*
X160784265Y-101951050D01*
X160784652Y-101900425D01*
X160784905Y-101844635D01*
X160785010Y-101784881D01*
X160785012Y-101775734D01*
X160785012Y-101470851D01*
X158930997Y-101470851D01*
X158930997Y-100859067D01*
X159856460Y-100857502D01*
X160781922Y-100855937D01*
X160784255Y-99005012D01*
X160160827Y-99005012D01*
X160160827Y-100234842D01*
X158930997Y-100234842D01*
X158930997Y-99005012D01*
X160160827Y-99005012D01*
X160784255Y-99005012D01*
X160785042Y-98380827D01*
X158306812Y-98380827D01*
X158306812Y-102088856D01*
G36*
X148295133Y-102088856D02*
X149530113Y-102088856D01*
X149652771Y-102088836D01*
X149772133Y-102088776D01*
X149887612Y-102088679D01*
X149998619Y-102088547D01*
X150104568Y-102088381D01*
X150204869Y-102088184D01*
X150298936Y-102087957D01*
X150386180Y-102087703D01*
X150466013Y-102087423D01*
X150537848Y-102087119D01*
X150601096Y-102086793D01*
X150655170Y-102086448D01*
X150699482Y-102086085D01*
X150733443Y-102085706D01*
X150756466Y-102085314D01*
X150767963Y-102084909D01*
X150769213Y-102084736D01*
X150770026Y-102077922D01*
X150770786Y-102059947D01*
X150771476Y-102032010D01*
X150772082Y-101995311D01*
X150772586Y-101951050D01*
X150772973Y-101900425D01*
X150773227Y-101844635D01*
X150773331Y-101784881D01*
X150773333Y-101775734D01*
X150773333Y-101470851D01*
X148919318Y-101470851D01*
X148919318Y-100859067D01*
X149844781Y-100857502D01*
X150770243Y-100855937D01*
X150772576Y-99005012D01*
X150149148Y-99005012D01*
X150149148Y-100234842D01*
X148919318Y-100234842D01*
X148919318Y-99005012D01*
X150149148Y-99005012D01*
X150772576Y-99005012D01*
X150773363Y-98380827D01*
X148295133Y-98380827D01*
X148295133Y-102088856D01*
X148295133Y-102088856D01*
G37*
X148295133Y-102088856D02*
X149530113Y-102088856D01*
X149652771Y-102088836D01*
X149772133Y-102088776D01*
X149887612Y-102088679D01*
X149998619Y-102088547D01*
X150104568Y-102088381D01*
X150204869Y-102088184D01*
X150298936Y-102087957D01*
X150386180Y-102087703D01*
X150466013Y-102087423D01*
X150537848Y-102087119D01*
X150601096Y-102086793D01*
X150655170Y-102086448D01*
X150699482Y-102086085D01*
X150733443Y-102085706D01*
X150756466Y-102085314D01*
X150767963Y-102084909D01*
X150769213Y-102084736D01*
X150770026Y-102077922D01*
X150770786Y-102059947D01*
X150771476Y-102032010D01*
X150772082Y-101995311D01*
X150772586Y-101951050D01*
X150772973Y-101900425D01*
X150773227Y-101844635D01*
X150773331Y-101784881D01*
X150773333Y-101775734D01*
X150773333Y-101470851D01*
X148919318Y-101470851D01*
X148919318Y-100859067D01*
X149844781Y-100857502D01*
X150770243Y-100855937D01*
X150772576Y-99005012D01*
X150149148Y-99005012D01*
X150149148Y-100234842D01*
X148919318Y-100234842D01*
X148919318Y-99005012D01*
X150149148Y-99005012D01*
X150772576Y-99005012D01*
X150773363Y-98380827D01*
X148295133Y-98380827D01*
X148295133Y-102088856D01*
G36*
X144587104Y-102088856D02*
X145822084Y-102088856D01*
X145944741Y-102088836D01*
X146064104Y-102088776D01*
X146179582Y-102088679D01*
X146290590Y-102088547D01*
X146396539Y-102088381D01*
X146496840Y-102088184D01*
X146590907Y-102087957D01*
X146678151Y-102087703D01*
X146757984Y-102087423D01*
X146829819Y-102087119D01*
X146893067Y-102086793D01*
X146947141Y-102086448D01*
X146991452Y-102086085D01*
X147025414Y-102085706D01*
X147048437Y-102085314D01*
X147059934Y-102084909D01*
X147061184Y-102084736D01*
X147061997Y-102077922D01*
X147062757Y-102059947D01*
X147063447Y-102032010D01*
X147064052Y-101995311D01*
X147064557Y-101951050D01*
X147064944Y-101900425D01*
X147065197Y-101844635D01*
X147065302Y-101784881D01*
X147065304Y-101775734D01*
X147065304Y-101470851D01*
X145211289Y-101470851D01*
X145211289Y-100859067D01*
X146136752Y-100857502D01*
X147062214Y-100855937D01*
X147064547Y-99005012D01*
X146441119Y-99005012D01*
X146441119Y-100234842D01*
X145211289Y-100234842D01*
X145211289Y-99005012D01*
X146441119Y-99005012D01*
X147064547Y-99005012D01*
X147065334Y-98380827D01*
X144587104Y-98380827D01*
X144587104Y-102088856D01*
X144587104Y-102088856D01*
G37*
X144587104Y-102088856D02*
X145822084Y-102088856D01*
X145944741Y-102088836D01*
X146064104Y-102088776D01*
X146179582Y-102088679D01*
X146290590Y-102088547D01*
X146396539Y-102088381D01*
X146496840Y-102088184D01*
X146590907Y-102087957D01*
X146678151Y-102087703D01*
X146757984Y-102087423D01*
X146829819Y-102087119D01*
X146893067Y-102086793D01*
X146947141Y-102086448D01*
X146991452Y-102086085D01*
X147025414Y-102085706D01*
X147048437Y-102085314D01*
X147059934Y-102084909D01*
X147061184Y-102084736D01*
X147061997Y-102077922D01*
X147062757Y-102059947D01*
X147063447Y-102032010D01*
X147064052Y-101995311D01*
X147064557Y-101951050D01*
X147064944Y-101900425D01*
X147065197Y-101844635D01*
X147065302Y-101784881D01*
X147065304Y-101775734D01*
X147065304Y-101470851D01*
X145211289Y-101470851D01*
X145211289Y-100859067D01*
X146136752Y-100857502D01*
X147062214Y-100855937D01*
X147064547Y-99005012D01*
X146441119Y-99005012D01*
X146441119Y-100234842D01*
X145211289Y-100234842D01*
X145211289Y-99005012D01*
X146441119Y-99005012D01*
X147064547Y-99005012D01*
X147065334Y-98380827D01*
X144587104Y-98380827D01*
X144587104Y-102088856D01*
G36*
X140879075Y-101477031D02*
X142114055Y-101477031D01*
X142236712Y-101477011D01*
X142356074Y-101476952D01*
X142471553Y-101476855D01*
X142582561Y-101476722D01*
X142688509Y-101476556D01*
X142788811Y-101476359D01*
X142882878Y-101476132D01*
X142970122Y-101475878D01*
X143049955Y-101475598D01*
X143121790Y-101475294D01*
X143185038Y-101474969D01*
X143239112Y-101474623D01*
X143283423Y-101474260D01*
X143317384Y-101473881D01*
X143340408Y-101473489D01*
X143351905Y-101473084D01*
X143353155Y-101472911D01*
X143353626Y-101466366D01*
X143354083Y-101448141D01*
X143354521Y-101418916D01*
X143354937Y-101379371D01*
X143355330Y-101330185D01*
X143355695Y-101272039D01*
X143356030Y-101205612D01*
X143356332Y-101131585D01*
X143356597Y-101050638D01*
X143356823Y-100963450D01*
X143357007Y-100870702D01*
X143357145Y-100773072D01*
X143357235Y-100671243D01*
X143357273Y-100565892D01*
X143357275Y-100542814D01*
X143357275Y-100241022D01*
X142733090Y-100241022D01*
X142733090Y-100852847D01*
X141503260Y-100852847D01*
X141503260Y-100241022D01*
X142733090Y-100241022D01*
X143357275Y-100241022D01*
X143357275Y-99616837D01*
X141503260Y-99616837D01*
X141503260Y-99005052D01*
X142428722Y-99003487D01*
X143354185Y-99001922D01*
X143355787Y-98691375D01*
X143357389Y-98380827D01*
X140879075Y-98380827D01*
X140879075Y-101477031D01*
X140879075Y-101477031D01*
G37*
X140879075Y-101477031D02*
X142114055Y-101477031D01*
X142236712Y-101477011D01*
X142356074Y-101476952D01*
X142471553Y-101476855D01*
X142582561Y-101476722D01*
X142688509Y-101476556D01*
X142788811Y-101476359D01*
X142882878Y-101476132D01*
X142970122Y-101475878D01*
X143049955Y-101475598D01*
X143121790Y-101475294D01*
X143185038Y-101474969D01*
X143239112Y-101474623D01*
X143283423Y-101474260D01*
X143317384Y-101473881D01*
X143340408Y-101473489D01*
X143351905Y-101473084D01*
X143353155Y-101472911D01*
X143353626Y-101466366D01*
X143354083Y-101448141D01*
X143354521Y-101418916D01*
X143354937Y-101379371D01*
X143355330Y-101330185D01*
X143355695Y-101272039D01*
X143356030Y-101205612D01*
X143356332Y-101131585D01*
X143356597Y-101050638D01*
X143356823Y-100963450D01*
X143357007Y-100870702D01*
X143357145Y-100773072D01*
X143357235Y-100671243D01*
X143357273Y-100565892D01*
X143357275Y-100542814D01*
X143357275Y-100241022D01*
X142733090Y-100241022D01*
X142733090Y-100852847D01*
X141503260Y-100852847D01*
X141503260Y-100241022D01*
X142733090Y-100241022D01*
X143357275Y-100241022D01*
X143357275Y-99616837D01*
X141503260Y-99616837D01*
X141503260Y-99005052D01*
X142428722Y-99003487D01*
X143354185Y-99001922D01*
X143355787Y-98691375D01*
X143357389Y-98380827D01*
X140879075Y-98380827D01*
X140879075Y-101477031D01*
G36*
X139025061Y-98380827D02*
X137171046Y-98380827D01*
X137171046Y-101477031D01*
X138406026Y-101477031D01*
X138528683Y-101477011D01*
X138648045Y-101476952D01*
X138763524Y-101476855D01*
X138874532Y-101476722D01*
X138980480Y-101476556D01*
X139080782Y-101476359D01*
X139174849Y-101476132D01*
X139262093Y-101475878D01*
X139341926Y-101475598D01*
X139413761Y-101475294D01*
X139477009Y-101474969D01*
X139531082Y-101474623D01*
X139575394Y-101474260D01*
X139609355Y-101473881D01*
X139632378Y-101473489D01*
X139643876Y-101473084D01*
X139645125Y-101472911D01*
X139645436Y-101466492D01*
X139645740Y-101448157D01*
X139646037Y-101418348D01*
X139646326Y-101377510D01*
X139646607Y-101326085D01*
X139646878Y-101264518D01*
X139647139Y-101193252D01*
X139647389Y-101112730D01*
X139647627Y-101023395D01*
X139647852Y-100925693D01*
X139648063Y-100820065D01*
X139648260Y-100706955D01*
X139648441Y-100586807D01*
X139648607Y-100460064D01*
X139648755Y-100327170D01*
X139648885Y-100188568D01*
X139648997Y-100044702D01*
X139649089Y-99896015D01*
X139649161Y-99742951D01*
X139649211Y-99585953D01*
X139649239Y-99425465D01*
X139649245Y-99306804D01*
X139649245Y-99005012D01*
X139025061Y-99005012D01*
X139025061Y-100852847D01*
X137795231Y-100852847D01*
X137795231Y-99005012D01*
X139025061Y-99005012D01*
X139649245Y-99005012D01*
X139649245Y-97144817D01*
X139025061Y-97144817D01*
X139025061Y-98380827D01*
X139025061Y-98380827D01*
G37*
X139025061Y-98380827D02*
X137171046Y-98380827D01*
X137171046Y-101477031D01*
X138406026Y-101477031D01*
X138528683Y-101477011D01*
X138648045Y-101476952D01*
X138763524Y-101476855D01*
X138874532Y-101476722D01*
X138980480Y-101476556D01*
X139080782Y-101476359D01*
X139174849Y-101476132D01*
X139262093Y-101475878D01*
X139341926Y-101475598D01*
X139413761Y-101475294D01*
X139477009Y-101474969D01*
X139531082Y-101474623D01*
X139575394Y-101474260D01*
X139609355Y-101473881D01*
X139632378Y-101473489D01*
X139643876Y-101473084D01*
X139645125Y-101472911D01*
X139645436Y-101466492D01*
X139645740Y-101448157D01*
X139646037Y-101418348D01*
X139646326Y-101377510D01*
X139646607Y-101326085D01*
X139646878Y-101264518D01*
X139647139Y-101193252D01*
X139647389Y-101112730D01*
X139647627Y-101023395D01*
X139647852Y-100925693D01*
X139648063Y-100820065D01*
X139648260Y-100706955D01*
X139648441Y-100586807D01*
X139648607Y-100460064D01*
X139648755Y-100327170D01*
X139648885Y-100188568D01*
X139648997Y-100044702D01*
X139649089Y-99896015D01*
X139649161Y-99742951D01*
X139649211Y-99585953D01*
X139649239Y-99425465D01*
X139649245Y-99306804D01*
X139649245Y-99005012D01*
X139025061Y-99005012D01*
X139025061Y-100852847D01*
X137795231Y-100852847D01*
X137795231Y-99005012D01*
X139025061Y-99005012D01*
X139649245Y-99005012D01*
X139649245Y-97144817D01*
X139025061Y-97144817D01*
X139025061Y-98380827D01*
G36*
X129013382Y-98380827D02*
X127777372Y-98380827D01*
X127777372Y-99005012D01*
X129013382Y-99005012D01*
X129013382Y-100852847D01*
X127783552Y-100852847D01*
X127783552Y-100234842D01*
X127159367Y-100234842D01*
X127159367Y-101477031D01*
X128394347Y-101477031D01*
X128517004Y-101477011D01*
X128636366Y-101476952D01*
X128751845Y-101476855D01*
X128862853Y-101476722D01*
X128968801Y-101476556D01*
X129069103Y-101476359D01*
X129163170Y-101476132D01*
X129250414Y-101475878D01*
X129330247Y-101475598D01*
X129402082Y-101475294D01*
X129465330Y-101474969D01*
X129519404Y-101474623D01*
X129563715Y-101474260D01*
X129597676Y-101473881D01*
X129620700Y-101473489D01*
X129632197Y-101473084D01*
X129633447Y-101472911D01*
X129633757Y-101466492D01*
X129634061Y-101448157D01*
X129634358Y-101418348D01*
X129634647Y-101377510D01*
X129634928Y-101326085D01*
X129635199Y-101264518D01*
X129635460Y-101193252D01*
X129635710Y-101112730D01*
X129635948Y-101023395D01*
X129636173Y-100925693D01*
X129636384Y-100820065D01*
X129636581Y-100706955D01*
X129636763Y-100586807D01*
X129636928Y-100460064D01*
X129637076Y-100327170D01*
X129637207Y-100188568D01*
X129637318Y-100044702D01*
X129637410Y-99896015D01*
X129637482Y-99742951D01*
X129637532Y-99585953D01*
X129637560Y-99425465D01*
X129637567Y-99306804D01*
X129637567Y-97144817D01*
X129013382Y-97144817D01*
X129013382Y-98380827D01*
X129013382Y-98380827D01*
G37*
X129013382Y-98380827D02*
X127777372Y-98380827D01*
X127777372Y-99005012D01*
X129013382Y-99005012D01*
X129013382Y-100852847D01*
X127783552Y-100852847D01*
X127783552Y-100234842D01*
X127159367Y-100234842D01*
X127159367Y-101477031D01*
X128394347Y-101477031D01*
X128517004Y-101477011D01*
X128636366Y-101476952D01*
X128751845Y-101476855D01*
X128862853Y-101476722D01*
X128968801Y-101476556D01*
X129069103Y-101476359D01*
X129163170Y-101476132D01*
X129250414Y-101475878D01*
X129330247Y-101475598D01*
X129402082Y-101475294D01*
X129465330Y-101474969D01*
X129519404Y-101474623D01*
X129563715Y-101474260D01*
X129597676Y-101473881D01*
X129620700Y-101473489D01*
X129632197Y-101473084D01*
X129633447Y-101472911D01*
X129633757Y-101466492D01*
X129634061Y-101448157D01*
X129634358Y-101418348D01*
X129634647Y-101377510D01*
X129634928Y-101326085D01*
X129635199Y-101264518D01*
X129635460Y-101193252D01*
X129635710Y-101112730D01*
X129635948Y-101023395D01*
X129636173Y-100925693D01*
X129636384Y-100820065D01*
X129636581Y-100706955D01*
X129636763Y-100586807D01*
X129636928Y-100460064D01*
X129637076Y-100327170D01*
X129637207Y-100188568D01*
X129637318Y-100044702D01*
X129637410Y-99896015D01*
X129637482Y-99742951D01*
X129637532Y-99585953D01*
X129637560Y-99425465D01*
X129637567Y-99306804D01*
X129637567Y-97144817D01*
X129013382Y-97144817D01*
X129013382Y-98380827D01*
M02*
