G04 #@! TF.FileFunction,Soldermask,Top*
%FSLAX46Y46*%
G04 Gerber Fmt 4.6, Leading zero omitted, Abs format (unit mm)*
G04 Created by KiCad (PCBNEW 4.0.7) date 2018 May 30, Wednesday 19:48:18*
%MOMM*%
%LPD*%
G01*
G04 APERTURE LIST*
%ADD10C,0.100000*%
%ADD11C,0.150000*%
%ADD12C,0.300000*%
%ADD13C,0.400000*%
%ADD14C,0.010000*%
%ADD15R,2.300000X1.200000*%
%ADD16R,2.635200X2.635200*%
%ADD17R,2.400000X2.100000*%
G04 APERTURE END LIST*
D10*
D11*
X177002200Y-166007200D02*
X177002200Y-198007200D01*
X285002200Y-198007200D01*
X285002200Y-166007200D01*
X177002200Y-166007200D01*
D10*
D11*
X10000000Y-10000000D02*
X10000000Y-200007200D01*
X287002200Y-200007200D01*
X287002200Y-10000000D01*
X10000000Y-10000000D01*
D10*
D11*
X12000000Y-12000000D02*
X12000000Y-198007200D01*
X285002200Y-198007200D01*
X285002200Y-12000000D01*
X12000000Y-12000000D01*
D10*
D11*
X60000000Y-12000000D02*
X60000000Y-10000000D01*
D10*
D11*
X110000000Y-12000000D02*
X110000000Y-10000000D01*
D10*
D11*
X160000000Y-12000000D02*
X160000000Y-10000000D01*
D10*
D11*
X210000000Y-12000000D02*
X210000000Y-10000000D01*
D10*
D11*
X260000000Y-12000000D02*
X260000000Y-10000000D01*
D10*
D11*
X35990476Y-11588095D02*
X35247619Y-11588095D01*
X35619048Y-11588095D02*
X35619048Y-10288095D01*
X35495238Y-10473810D01*
X35371429Y-10597619D01*
X35247619Y-10659524D01*
D10*
D11*
X85247619Y-10411905D02*
X85309524Y-10350000D01*
X85433333Y-10288095D01*
X85742857Y-10288095D01*
X85866667Y-10350000D01*
X85928571Y-10411905D01*
X85990476Y-10535714D01*
X85990476Y-10659524D01*
X85928571Y-10845238D01*
X85185714Y-11588095D01*
X85990476Y-11588095D01*
D10*
D11*
X135185714Y-10288095D02*
X135990476Y-10288095D01*
X135557143Y-10783333D01*
X135742857Y-10783333D01*
X135866667Y-10845238D01*
X135928571Y-10907143D01*
X135990476Y-11030952D01*
X135990476Y-11340476D01*
X135928571Y-11464286D01*
X135866667Y-11526190D01*
X135742857Y-11588095D01*
X135371429Y-11588095D01*
X135247619Y-11526190D01*
X135185714Y-11464286D01*
D10*
D11*
X185866667Y-10721429D02*
X185866667Y-11588095D01*
X185557143Y-10226190D02*
X185247619Y-11154762D01*
X186052381Y-11154762D01*
D10*
D11*
X235928571Y-10288095D02*
X235309524Y-10288095D01*
X235247619Y-10907143D01*
X235309524Y-10845238D01*
X235433333Y-10783333D01*
X235742857Y-10783333D01*
X235866667Y-10845238D01*
X235928571Y-10907143D01*
X235990476Y-11030952D01*
X235990476Y-11340476D01*
X235928571Y-11464286D01*
X235866667Y-11526190D01*
X235742857Y-11588095D01*
X235433333Y-11588095D01*
X235309524Y-11526190D01*
X235247619Y-11464286D01*
D10*
D11*
X285866667Y-10288095D02*
X285619048Y-10288095D01*
X285495238Y-10350000D01*
X285433333Y-10411905D01*
X285309524Y-10597619D01*
X285247619Y-10845238D01*
X285247619Y-11340476D01*
X285309524Y-11464286D01*
X285371429Y-11526190D01*
X285495238Y-11588095D01*
X285742857Y-11588095D01*
X285866667Y-11526190D01*
X285928571Y-11464286D01*
X285990476Y-11340476D01*
X285990476Y-11030952D01*
X285928571Y-10907143D01*
X285866667Y-10845238D01*
X285742857Y-10783333D01*
X285495238Y-10783333D01*
X285371429Y-10845238D01*
X285309524Y-10907143D01*
X285247619Y-11030952D01*
D10*
D11*
X60000000Y-198007200D02*
X60000000Y-200007200D01*
D10*
D11*
X110000000Y-198007200D02*
X110000000Y-200007200D01*
D10*
D11*
X160000000Y-198007200D02*
X160000000Y-200007200D01*
D10*
D11*
X210000000Y-198007200D02*
X210000000Y-200007200D01*
D10*
D11*
X260000000Y-198007200D02*
X260000000Y-200007200D01*
D10*
D11*
X35990476Y-199595295D02*
X35247619Y-199595295D01*
X35619048Y-199595295D02*
X35619048Y-198295295D01*
X35495238Y-198481010D01*
X35371429Y-198604819D01*
X35247619Y-198666724D01*
D10*
D11*
X85247619Y-198419105D02*
X85309524Y-198357200D01*
X85433333Y-198295295D01*
X85742857Y-198295295D01*
X85866667Y-198357200D01*
X85928571Y-198419105D01*
X85990476Y-198542914D01*
X85990476Y-198666724D01*
X85928571Y-198852438D01*
X85185714Y-199595295D01*
X85990476Y-199595295D01*
D10*
D11*
X135185714Y-198295295D02*
X135990476Y-198295295D01*
X135557143Y-198790533D01*
X135742857Y-198790533D01*
X135866667Y-198852438D01*
X135928571Y-198914343D01*
X135990476Y-199038152D01*
X135990476Y-199347676D01*
X135928571Y-199471486D01*
X135866667Y-199533390D01*
X135742857Y-199595295D01*
X135371429Y-199595295D01*
X135247619Y-199533390D01*
X135185714Y-199471486D01*
D10*
D11*
X185866667Y-198728629D02*
X185866667Y-199595295D01*
X185557143Y-198233390D02*
X185247619Y-199161962D01*
X186052381Y-199161962D01*
D10*
D11*
X235928571Y-198295295D02*
X235309524Y-198295295D01*
X235247619Y-198914343D01*
X235309524Y-198852438D01*
X235433333Y-198790533D01*
X235742857Y-198790533D01*
X235866667Y-198852438D01*
X235928571Y-198914343D01*
X235990476Y-199038152D01*
X235990476Y-199347676D01*
X235928571Y-199471486D01*
X235866667Y-199533390D01*
X235742857Y-199595295D01*
X235433333Y-199595295D01*
X235309524Y-199533390D01*
X235247619Y-199471486D01*
D10*
D11*
X285866667Y-198295295D02*
X285619048Y-198295295D01*
X285495238Y-198357200D01*
X285433333Y-198419105D01*
X285309524Y-198604819D01*
X285247619Y-198852438D01*
X285247619Y-199347676D01*
X285309524Y-199471486D01*
X285371429Y-199533390D01*
X285495238Y-199595295D01*
X285742857Y-199595295D01*
X285866667Y-199533390D01*
X285928571Y-199471486D01*
X285990476Y-199347676D01*
X285990476Y-199038152D01*
X285928571Y-198914343D01*
X285866667Y-198852438D01*
X285742857Y-198790533D01*
X285495238Y-198790533D01*
X285371429Y-198852438D01*
X285309524Y-198914343D01*
X285247619Y-199038152D01*
D10*
D11*
X10000000Y-60000000D02*
X12000000Y-60000000D01*
D10*
D11*
X10000000Y-110000000D02*
X12000000Y-110000000D01*
D10*
D11*
X10000000Y-160000000D02*
X12000000Y-160000000D01*
D10*
D11*
X10690476Y-35216667D02*
X11309524Y-35216667D01*
X10566667Y-35588095D02*
X11000000Y-34288095D01*
X11433333Y-35588095D01*
D10*
D11*
X11092857Y-84907143D02*
X11278571Y-84969048D01*
X11340476Y-85030952D01*
X11402381Y-85154762D01*
X11402381Y-85340476D01*
X11340476Y-85464286D01*
X11278571Y-85526190D01*
X11154762Y-85588095D01*
X10659524Y-85588095D01*
X10659524Y-84288095D01*
X11092857Y-84288095D01*
X11216667Y-84350000D01*
X11278571Y-84411905D01*
X11340476Y-84535714D01*
X11340476Y-84659524D01*
X11278571Y-84783333D01*
X11216667Y-84845238D01*
X11092857Y-84907143D01*
X10659524Y-84907143D01*
D10*
D11*
X11402381Y-135464286D02*
X11340476Y-135526190D01*
X11154762Y-135588095D01*
X11030952Y-135588095D01*
X10845238Y-135526190D01*
X10721429Y-135402381D01*
X10659524Y-135278571D01*
X10597619Y-135030952D01*
X10597619Y-134845238D01*
X10659524Y-134597619D01*
X10721429Y-134473810D01*
X10845238Y-134350000D01*
X11030952Y-134288095D01*
X11154762Y-134288095D01*
X11340476Y-134350000D01*
X11402381Y-134411905D01*
D10*
D11*
X10659524Y-185588095D02*
X10659524Y-184288095D01*
X10969048Y-184288095D01*
X11154762Y-184350000D01*
X11278571Y-184473810D01*
X11340476Y-184597619D01*
X11402381Y-184845238D01*
X11402381Y-185030952D01*
X11340476Y-185278571D01*
X11278571Y-185402381D01*
X11154762Y-185526190D01*
X10969048Y-185588095D01*
X10659524Y-185588095D01*
D10*
D11*
X287002200Y-60000000D02*
X285002200Y-60000000D01*
D10*
D11*
X287002200Y-110000000D02*
X285002200Y-110000000D01*
D10*
D11*
X287002200Y-160000000D02*
X285002200Y-160000000D01*
D10*
D11*
X285692676Y-35216667D02*
X286311724Y-35216667D01*
X285568867Y-35588095D02*
X286002200Y-34288095D01*
X286435533Y-35588095D01*
D10*
D11*
X286095057Y-84907143D02*
X286280771Y-84969048D01*
X286342676Y-85030952D01*
X286404581Y-85154762D01*
X286404581Y-85340476D01*
X286342676Y-85464286D01*
X286280771Y-85526190D01*
X286156962Y-85588095D01*
X285661724Y-85588095D01*
X285661724Y-84288095D01*
X286095057Y-84288095D01*
X286218867Y-84350000D01*
X286280771Y-84411905D01*
X286342676Y-84535714D01*
X286342676Y-84659524D01*
X286280771Y-84783333D01*
X286218867Y-84845238D01*
X286095057Y-84907143D01*
X285661724Y-84907143D01*
D10*
D11*
X286404581Y-135464286D02*
X286342676Y-135526190D01*
X286156962Y-135588095D01*
X286033152Y-135588095D01*
X285847438Y-135526190D01*
X285723629Y-135402381D01*
X285661724Y-135278571D01*
X285599819Y-135030952D01*
X285599819Y-134845238D01*
X285661724Y-134597619D01*
X285723629Y-134473810D01*
X285847438Y-134350000D01*
X286033152Y-134288095D01*
X286156962Y-134288095D01*
X286342676Y-134350000D01*
X286404581Y-134411905D01*
D10*
D11*
X285661724Y-185588095D02*
X285661724Y-184288095D01*
X285971248Y-184288095D01*
X286156962Y-184350000D01*
X286280771Y-184473810D01*
X286342676Y-184597619D01*
X286404581Y-184845238D01*
X286404581Y-185030952D01*
X286342676Y-185278571D01*
X286280771Y-185402381D01*
X286156962Y-185526190D01*
X285971248Y-185588095D01*
X285661724Y-185588095D01*
D10*
D11*
X200359343Y-193785771D02*
X200359343Y-192285771D01*
X200716486Y-192285771D01*
X200930771Y-192357200D01*
X201073629Y-192500057D01*
X201145057Y-192642914D01*
X201216486Y-192928629D01*
X201216486Y-193142914D01*
X201145057Y-193428629D01*
X201073629Y-193571486D01*
X200930771Y-193714343D01*
X200716486Y-193785771D01*
X200359343Y-193785771D01*
X202502200Y-193785771D02*
X202502200Y-193000057D01*
X202430771Y-192857200D01*
X202287914Y-192785771D01*
X202002200Y-192785771D01*
X201859343Y-192857200D01*
X202502200Y-193714343D02*
X202359343Y-193785771D01*
X202002200Y-193785771D01*
X201859343Y-193714343D01*
X201787914Y-193571486D01*
X201787914Y-193428629D01*
X201859343Y-193285771D01*
X202002200Y-193214343D01*
X202359343Y-193214343D01*
X202502200Y-193142914D01*
X203002200Y-192785771D02*
X203573629Y-192785771D01*
X203216486Y-192285771D02*
X203216486Y-193571486D01*
X203287914Y-193714343D01*
X203430772Y-193785771D01*
X203573629Y-193785771D01*
X204645057Y-193714343D02*
X204502200Y-193785771D01*
X204216486Y-193785771D01*
X204073629Y-193714343D01*
X204002200Y-193571486D01*
X204002200Y-193000057D01*
X204073629Y-192857200D01*
X204216486Y-192785771D01*
X204502200Y-192785771D01*
X204645057Y-192857200D01*
X204716486Y-193000057D01*
X204716486Y-193142914D01*
X204002200Y-193285771D01*
X205359343Y-193642914D02*
X205430771Y-193714343D01*
X205359343Y-193785771D01*
X205287914Y-193714343D01*
X205359343Y-193642914D01*
X205359343Y-193785771D01*
X205359343Y-192857200D02*
X205430771Y-192928629D01*
X205359343Y-193000057D01*
X205287914Y-192928629D01*
X205359343Y-192857200D01*
X205359343Y-193000057D01*
X207145057Y-192428629D02*
X207216486Y-192357200D01*
X207359343Y-192285771D01*
X207716486Y-192285771D01*
X207859343Y-192357200D01*
X207930772Y-192428629D01*
X208002200Y-192571486D01*
X208002200Y-192714343D01*
X207930772Y-192928629D01*
X207073629Y-193785771D01*
X208002200Y-193785771D01*
X208930771Y-192285771D02*
X209073628Y-192285771D01*
X209216485Y-192357200D01*
X209287914Y-192428629D01*
X209359343Y-192571486D01*
X209430771Y-192857200D01*
X209430771Y-193214343D01*
X209359343Y-193500057D01*
X209287914Y-193642914D01*
X209216485Y-193714343D01*
X209073628Y-193785771D01*
X208930771Y-193785771D01*
X208787914Y-193714343D01*
X208716485Y-193642914D01*
X208645057Y-193500057D01*
X208573628Y-193214343D01*
X208573628Y-192857200D01*
X208645057Y-192571486D01*
X208716485Y-192428629D01*
X208787914Y-192357200D01*
X208930771Y-192285771D01*
X210859342Y-193785771D02*
X210002199Y-193785771D01*
X210430771Y-193785771D02*
X210430771Y-192285771D01*
X210287914Y-192500057D01*
X210145056Y-192642914D01*
X210002199Y-192714343D01*
X211716485Y-192928629D02*
X211573627Y-192857200D01*
X211502199Y-192785771D01*
X211430770Y-192642914D01*
X211430770Y-192571486D01*
X211502199Y-192428629D01*
X211573627Y-192357200D01*
X211716485Y-192285771D01*
X212002199Y-192285771D01*
X212145056Y-192357200D01*
X212216485Y-192428629D01*
X212287913Y-192571486D01*
X212287913Y-192642914D01*
X212216485Y-192785771D01*
X212145056Y-192857200D01*
X212002199Y-192928629D01*
X211716485Y-192928629D01*
X211573627Y-193000057D01*
X211502199Y-193071486D01*
X211430770Y-193214343D01*
X211430770Y-193500057D01*
X211502199Y-193642914D01*
X211573627Y-193714343D01*
X211716485Y-193785771D01*
X212002199Y-193785771D01*
X212145056Y-193714343D01*
X212216485Y-193642914D01*
X212287913Y-193500057D01*
X212287913Y-193214343D01*
X212216485Y-193071486D01*
X212145056Y-193000057D01*
X212002199Y-192928629D01*
X212930770Y-193214343D02*
X214073627Y-193214343D01*
X215073627Y-192285771D02*
X215216484Y-192285771D01*
X215359341Y-192357200D01*
X215430770Y-192428629D01*
X215502199Y-192571486D01*
X215573627Y-192857200D01*
X215573627Y-193214343D01*
X215502199Y-193500057D01*
X215430770Y-193642914D01*
X215359341Y-193714343D01*
X215216484Y-193785771D01*
X215073627Y-193785771D01*
X214930770Y-193714343D01*
X214859341Y-193642914D01*
X214787913Y-193500057D01*
X214716484Y-193214343D01*
X214716484Y-192857200D01*
X214787913Y-192571486D01*
X214859341Y-192428629D01*
X214930770Y-192357200D01*
X215073627Y-192285771D01*
X216930770Y-192285771D02*
X216216484Y-192285771D01*
X216145055Y-193000057D01*
X216216484Y-192928629D01*
X216359341Y-192857200D01*
X216716484Y-192857200D01*
X216859341Y-192928629D01*
X216930770Y-193000057D01*
X217002198Y-193142914D01*
X217002198Y-193500057D01*
X216930770Y-193642914D01*
X216859341Y-193714343D01*
X216716484Y-193785771D01*
X216359341Y-193785771D01*
X216216484Y-193714343D01*
X216145055Y-193642914D01*
X217645055Y-193214343D02*
X218787912Y-193214343D01*
X219359341Y-192285771D02*
X220287912Y-192285771D01*
X219787912Y-192857200D01*
X220002198Y-192857200D01*
X220145055Y-192928629D01*
X220216484Y-193000057D01*
X220287912Y-193142914D01*
X220287912Y-193500057D01*
X220216484Y-193642914D01*
X220145055Y-193714343D01*
X220002198Y-193785771D01*
X219573626Y-193785771D01*
X219430769Y-193714343D01*
X219359341Y-193642914D01*
X221216483Y-192285771D02*
X221359340Y-192285771D01*
X221502197Y-192357200D01*
X221573626Y-192428629D01*
X221645055Y-192571486D01*
X221716483Y-192857200D01*
X221716483Y-193214343D01*
X221645055Y-193500057D01*
X221573626Y-193642914D01*
X221502197Y-193714343D01*
X221359340Y-193785771D01*
X221216483Y-193785771D01*
X221073626Y-193714343D01*
X221002197Y-193642914D01*
X220930769Y-193500057D01*
X220859340Y-193214343D01*
X220859340Y-192857200D01*
X220930769Y-192571486D01*
X221002197Y-192428629D01*
X221073626Y-192357200D01*
X221216483Y-192285771D01*
D10*
D11*
X177002200Y-194507200D02*
X285002200Y-194507200D01*
D10*
D11*
X178359343Y-196585771D02*
X178359343Y-195085771D01*
X179216486Y-196585771D02*
X178573629Y-195728629D01*
X179216486Y-195085771D02*
X178359343Y-195942914D01*
X179859343Y-196585771D02*
X179859343Y-195585771D01*
X179859343Y-195085771D02*
X179787914Y-195157200D01*
X179859343Y-195228629D01*
X179930771Y-195157200D01*
X179859343Y-195085771D01*
X179859343Y-195228629D01*
X181430772Y-196442914D02*
X181359343Y-196514343D01*
X181145057Y-196585771D01*
X181002200Y-196585771D01*
X180787915Y-196514343D01*
X180645057Y-196371486D01*
X180573629Y-196228629D01*
X180502200Y-195942914D01*
X180502200Y-195728629D01*
X180573629Y-195442914D01*
X180645057Y-195300057D01*
X180787915Y-195157200D01*
X181002200Y-195085771D01*
X181145057Y-195085771D01*
X181359343Y-195157200D01*
X181430772Y-195228629D01*
X182716486Y-196585771D02*
X182716486Y-195800057D01*
X182645057Y-195657200D01*
X182502200Y-195585771D01*
X182216486Y-195585771D01*
X182073629Y-195657200D01*
X182716486Y-196514343D02*
X182573629Y-196585771D01*
X182216486Y-196585771D01*
X182073629Y-196514343D01*
X182002200Y-196371486D01*
X182002200Y-196228629D01*
X182073629Y-196085771D01*
X182216486Y-196014343D01*
X182573629Y-196014343D01*
X182716486Y-195942914D01*
X184073629Y-196585771D02*
X184073629Y-195085771D01*
X184073629Y-196514343D02*
X183930772Y-196585771D01*
X183645058Y-196585771D01*
X183502200Y-196514343D01*
X183430772Y-196442914D01*
X183359343Y-196300057D01*
X183359343Y-195871486D01*
X183430772Y-195728629D01*
X183502200Y-195657200D01*
X183645058Y-195585771D01*
X183930772Y-195585771D01*
X184073629Y-195657200D01*
X185930772Y-195800057D02*
X186430772Y-195800057D01*
X186645058Y-196585771D02*
X185930772Y-196585771D01*
X185930772Y-195085771D01*
X186645058Y-195085771D01*
X187287915Y-196442914D02*
X187359343Y-196514343D01*
X187287915Y-196585771D01*
X187216486Y-196514343D01*
X187287915Y-196442914D01*
X187287915Y-196585771D01*
X188002201Y-196585771D02*
X188002201Y-195085771D01*
X188359344Y-195085771D01*
X188573629Y-195157200D01*
X188716487Y-195300057D01*
X188787915Y-195442914D01*
X188859344Y-195728629D01*
X188859344Y-195942914D01*
X188787915Y-196228629D01*
X188716487Y-196371486D01*
X188573629Y-196514343D01*
X188359344Y-196585771D01*
X188002201Y-196585771D01*
X189502201Y-196442914D02*
X189573629Y-196514343D01*
X189502201Y-196585771D01*
X189430772Y-196514343D01*
X189502201Y-196442914D01*
X189502201Y-196585771D01*
X190145058Y-196157200D02*
X190859344Y-196157200D01*
X190002201Y-196585771D02*
X190502201Y-195085771D01*
X191002201Y-196585771D01*
X191502201Y-196442914D02*
X191573629Y-196514343D01*
X191502201Y-196585771D01*
X191430772Y-196514343D01*
X191502201Y-196442914D01*
X191502201Y-196585771D01*
X194502201Y-196585771D02*
X194502201Y-195085771D01*
X194645058Y-196014343D02*
X195073629Y-196585771D01*
X195073629Y-195585771D02*
X194502201Y-196157200D01*
X195716487Y-196585771D02*
X195716487Y-195585771D01*
X195716487Y-195085771D02*
X195645058Y-195157200D01*
X195716487Y-195228629D01*
X195787915Y-195157200D01*
X195716487Y-195085771D01*
X195716487Y-195228629D01*
X197073630Y-196514343D02*
X196930773Y-196585771D01*
X196645059Y-196585771D01*
X196502201Y-196514343D01*
X196430773Y-196442914D01*
X196359344Y-196300057D01*
X196359344Y-195871486D01*
X196430773Y-195728629D01*
X196502201Y-195657200D01*
X196645059Y-195585771D01*
X196930773Y-195585771D01*
X197073630Y-195657200D01*
X198359344Y-196585771D02*
X198359344Y-195800057D01*
X198287915Y-195657200D01*
X198145058Y-195585771D01*
X197859344Y-195585771D01*
X197716487Y-195657200D01*
X198359344Y-196514343D02*
X198216487Y-196585771D01*
X197859344Y-196585771D01*
X197716487Y-196514343D01*
X197645058Y-196371486D01*
X197645058Y-196228629D01*
X197716487Y-196085771D01*
X197859344Y-196014343D01*
X198216487Y-196014343D01*
X198359344Y-195942914D01*
X199716487Y-196585771D02*
X199716487Y-195085771D01*
X199716487Y-196514343D02*
X199573630Y-196585771D01*
X199287916Y-196585771D01*
X199145058Y-196514343D01*
X199073630Y-196442914D01*
X199002201Y-196300057D01*
X199002201Y-195871486D01*
X199073630Y-195728629D01*
X199145058Y-195657200D01*
X199287916Y-195585771D01*
X199573630Y-195585771D01*
X199716487Y-195657200D01*
X202216487Y-195585771D02*
X202216487Y-196585771D01*
X201859344Y-195014343D02*
X201502201Y-196085771D01*
X202430773Y-196085771D01*
X203002201Y-196442914D02*
X203073629Y-196514343D01*
X203002201Y-196585771D01*
X202930772Y-196514343D01*
X203002201Y-196442914D01*
X203002201Y-196585771D01*
X204002201Y-195085771D02*
X204145058Y-195085771D01*
X204287915Y-195157200D01*
X204359344Y-195228629D01*
X204430773Y-195371486D01*
X204502201Y-195657200D01*
X204502201Y-196014343D01*
X204430773Y-196300057D01*
X204359344Y-196442914D01*
X204287915Y-196514343D01*
X204145058Y-196585771D01*
X204002201Y-196585771D01*
X203859344Y-196514343D01*
X203787915Y-196442914D01*
X203716487Y-196300057D01*
X203645058Y-196014343D01*
X203645058Y-195657200D01*
X203716487Y-195371486D01*
X203787915Y-195228629D01*
X203859344Y-195157200D01*
X204002201Y-195085771D01*
X205145058Y-196442914D02*
X205216486Y-196514343D01*
X205145058Y-196585771D01*
X205073629Y-196514343D01*
X205145058Y-196442914D01*
X205145058Y-196585771D01*
X205716487Y-195085771D02*
X206716487Y-195085771D01*
X206073630Y-196585771D01*
D10*
D11*
X177002200Y-191507200D02*
X285002200Y-191507200D01*
D10*
D12*
X264216486Y-193785771D02*
X263716486Y-193071486D01*
X263359343Y-193785771D02*
X263359343Y-192285771D01*
X263930771Y-192285771D01*
X264073629Y-192357200D01*
X264145057Y-192428629D01*
X264216486Y-192571486D01*
X264216486Y-192785771D01*
X264145057Y-192928629D01*
X264073629Y-193000057D01*
X263930771Y-193071486D01*
X263359343Y-193071486D01*
X265430771Y-193714343D02*
X265287914Y-193785771D01*
X265002200Y-193785771D01*
X264859343Y-193714343D01*
X264787914Y-193571486D01*
X264787914Y-193000057D01*
X264859343Y-192857200D01*
X265002200Y-192785771D01*
X265287914Y-192785771D01*
X265430771Y-192857200D01*
X265502200Y-193000057D01*
X265502200Y-193142914D01*
X264787914Y-193285771D01*
X266002200Y-192785771D02*
X266359343Y-193785771D01*
X266716485Y-192785771D01*
X267287914Y-193642914D02*
X267359342Y-193714343D01*
X267287914Y-193785771D01*
X267216485Y-193714343D01*
X267287914Y-193642914D01*
X267287914Y-193785771D01*
X267287914Y-192857200D02*
X267359342Y-192928629D01*
X267287914Y-193000057D01*
X267216485Y-192928629D01*
X267287914Y-192857200D01*
X267287914Y-193000057D01*
X269930771Y-193785771D02*
X269073628Y-193785771D01*
X269502200Y-193785771D02*
X269502200Y-192285771D01*
X269359343Y-192500057D01*
X269216485Y-192642914D01*
X269073628Y-192714343D01*
X270573628Y-193642914D02*
X270645056Y-193714343D01*
X270573628Y-193785771D01*
X270502199Y-193714343D01*
X270573628Y-193642914D01*
X270573628Y-193785771D01*
X271573628Y-192285771D02*
X271716485Y-192285771D01*
X271859342Y-192357200D01*
X271930771Y-192428629D01*
X272002200Y-192571486D01*
X272073628Y-192857200D01*
X272073628Y-193214343D01*
X272002200Y-193500057D01*
X271930771Y-193642914D01*
X271859342Y-193714343D01*
X271716485Y-193785771D01*
X271573628Y-193785771D01*
X271430771Y-193714343D01*
X271359342Y-193642914D01*
X271287914Y-193500057D01*
X271216485Y-193214343D01*
X271216485Y-192857200D01*
X271287914Y-192571486D01*
X271359342Y-192428629D01*
X271430771Y-192357200D01*
X271573628Y-192285771D01*
D10*
D11*
X178287914Y-193714343D02*
X178502200Y-193785771D01*
X178859343Y-193785771D01*
X179002200Y-193714343D01*
X179073629Y-193642914D01*
X179145057Y-193500057D01*
X179145057Y-193357200D01*
X179073629Y-193214343D01*
X179002200Y-193142914D01*
X178859343Y-193071486D01*
X178573629Y-193000057D01*
X178430771Y-192928629D01*
X178359343Y-192857200D01*
X178287914Y-192714343D01*
X178287914Y-192571486D01*
X178359343Y-192428629D01*
X178430771Y-192357200D01*
X178573629Y-192285771D01*
X178930771Y-192285771D01*
X179145057Y-192357200D01*
X179787914Y-193785771D02*
X179787914Y-192785771D01*
X179787914Y-192285771D02*
X179716485Y-192357200D01*
X179787914Y-192428629D01*
X179859342Y-192357200D01*
X179787914Y-192285771D01*
X179787914Y-192428629D01*
X180359343Y-192785771D02*
X181145057Y-192785771D01*
X180359343Y-193785771D01*
X181145057Y-193785771D01*
X182287914Y-193714343D02*
X182145057Y-193785771D01*
X181859343Y-193785771D01*
X181716486Y-193714343D01*
X181645057Y-193571486D01*
X181645057Y-193000057D01*
X181716486Y-192857200D01*
X181859343Y-192785771D01*
X182145057Y-192785771D01*
X182287914Y-192857200D01*
X182359343Y-193000057D01*
X182359343Y-193142914D01*
X181645057Y-193285771D01*
X183002200Y-193642914D02*
X183073628Y-193714343D01*
X183002200Y-193785771D01*
X182930771Y-193714343D01*
X183002200Y-193642914D01*
X183002200Y-193785771D01*
X183002200Y-192857200D02*
X183073628Y-192928629D01*
X183002200Y-193000057D01*
X182930771Y-192928629D01*
X183002200Y-192857200D01*
X183002200Y-193000057D01*
X184787914Y-193357200D02*
X185502200Y-193357200D01*
X184645057Y-193785771D02*
X185145057Y-192285771D01*
X185645057Y-193785771D01*
X186787914Y-192785771D02*
X186787914Y-193785771D01*
X186430771Y-192214343D02*
X186073628Y-193285771D01*
X187002200Y-193285771D01*
D10*
D11*
X263359343Y-196585771D02*
X263359343Y-195085771D01*
X264716486Y-196585771D02*
X264716486Y-195085771D01*
X264716486Y-196514343D02*
X264573629Y-196585771D01*
X264287915Y-196585771D01*
X264145057Y-196514343D01*
X264073629Y-196442914D01*
X264002200Y-196300057D01*
X264002200Y-195871486D01*
X264073629Y-195728629D01*
X264145057Y-195657200D01*
X264287915Y-195585771D01*
X264573629Y-195585771D01*
X264716486Y-195657200D01*
X265430772Y-196442914D02*
X265502200Y-196514343D01*
X265430772Y-196585771D01*
X265359343Y-196514343D01*
X265430772Y-196442914D01*
X265430772Y-196585771D01*
X265430772Y-195657200D02*
X265502200Y-195728629D01*
X265430772Y-195800057D01*
X265359343Y-195728629D01*
X265430772Y-195657200D01*
X265430772Y-195800057D01*
X268073629Y-196585771D02*
X267216486Y-196585771D01*
X267645058Y-196585771D02*
X267645058Y-195085771D01*
X267502201Y-195300057D01*
X267359343Y-195442914D01*
X267216486Y-195514343D01*
X269787914Y-195014343D02*
X268502200Y-196942914D01*
X271073629Y-196585771D02*
X270216486Y-196585771D01*
X270645058Y-196585771D02*
X270645058Y-195085771D01*
X270502201Y-195300057D01*
X270359343Y-195442914D01*
X270216486Y-195514343D01*
D10*
D11*
X177002200Y-187507200D02*
X285002200Y-187507200D01*
D10*
D13*
X178454581Y-188211962D02*
X179597438Y-188211962D01*
X178776010Y-190211962D02*
X179026010Y-188211962D01*
X180014105Y-190211962D02*
X180180771Y-188878629D01*
X180264105Y-188211962D02*
X180156962Y-188307200D01*
X180240295Y-188402438D01*
X180347439Y-188307200D01*
X180264105Y-188211962D01*
X180240295Y-188402438D01*
X180847438Y-188878629D02*
X181609343Y-188878629D01*
X181216486Y-188211962D02*
X181002200Y-189926248D01*
X181073630Y-190116724D01*
X181252201Y-190211962D01*
X181442677Y-190211962D01*
X182395058Y-190211962D02*
X182216487Y-190116724D01*
X182145057Y-189926248D01*
X182359343Y-188211962D01*
X183930772Y-190116724D02*
X183728391Y-190211962D01*
X183347439Y-190211962D01*
X183168867Y-190116724D01*
X183097438Y-189926248D01*
X183192676Y-189164343D01*
X183311724Y-188973867D01*
X183514105Y-188878629D01*
X183895057Y-188878629D01*
X184073629Y-188973867D01*
X184145057Y-189164343D01*
X184121248Y-189354819D01*
X183145057Y-189545295D01*
X184895057Y-190021486D02*
X184978392Y-190116724D01*
X184871248Y-190211962D01*
X184787915Y-190116724D01*
X184895057Y-190021486D01*
X184871248Y-190211962D01*
X185026010Y-188973867D02*
X185109344Y-189069105D01*
X185002200Y-189164343D01*
X184918867Y-189069105D01*
X185026010Y-188973867D01*
X185002200Y-189164343D01*
X188371248Y-188878629D02*
X188168867Y-190497676D01*
X188049820Y-190688152D01*
X187942677Y-190783390D01*
X187740296Y-190878629D01*
X187454582Y-190878629D01*
X187276010Y-190783390D01*
X188216487Y-190116724D02*
X188014106Y-190211962D01*
X187633154Y-190211962D01*
X187454583Y-190116724D01*
X187371248Y-190021486D01*
X187299820Y-189831010D01*
X187371248Y-189259581D01*
X187490296Y-189069105D01*
X187597440Y-188973867D01*
X187799820Y-188878629D01*
X188180772Y-188878629D01*
X188359344Y-188973867D01*
X189442678Y-190211962D02*
X189264107Y-190116724D01*
X189180772Y-190021486D01*
X189109344Y-189831010D01*
X189180772Y-189259581D01*
X189299820Y-189069105D01*
X189406964Y-188973867D01*
X189609344Y-188878629D01*
X189895058Y-188878629D01*
X190073630Y-188973867D01*
X190156963Y-189069105D01*
X190228391Y-189259581D01*
X190156963Y-189831010D01*
X190037915Y-190021486D01*
X189930773Y-190116724D01*
X189728392Y-190211962D01*
X189442678Y-190211962D01*
X191990296Y-188878629D02*
X191787915Y-190497676D01*
X191668868Y-190688152D01*
X191561725Y-190783390D01*
X191359344Y-190878629D01*
X191073630Y-190878629D01*
X190895058Y-190783390D01*
X191835535Y-190116724D02*
X191633154Y-190211962D01*
X191252202Y-190211962D01*
X191073631Y-190116724D01*
X190990296Y-190021486D01*
X190918868Y-189831010D01*
X190990296Y-189259581D01*
X191109344Y-189069105D01*
X191216488Y-188973867D01*
X191418868Y-188878629D01*
X191799820Y-188878629D01*
X191978392Y-188973867D01*
X193799820Y-188878629D02*
X193597439Y-190497676D01*
X193478392Y-190688152D01*
X193371249Y-190783390D01*
X193168868Y-190878629D01*
X192883154Y-190878629D01*
X192704582Y-190783390D01*
X193645059Y-190116724D02*
X193442678Y-190211962D01*
X193061726Y-190211962D01*
X192883155Y-190116724D01*
X192799820Y-190021486D01*
X192728392Y-189831010D01*
X192799820Y-189259581D01*
X192918868Y-189069105D01*
X193026012Y-188973867D01*
X193228392Y-188878629D01*
X193609344Y-188878629D01*
X193787916Y-188973867D01*
X195442678Y-190211962D02*
X195573630Y-189164343D01*
X195502202Y-188973867D01*
X195323630Y-188878629D01*
X194942678Y-188878629D01*
X194740297Y-188973867D01*
X195454583Y-190116724D02*
X195252202Y-190211962D01*
X194776012Y-190211962D01*
X194597440Y-190116724D01*
X194526011Y-189926248D01*
X194549821Y-189735771D01*
X194668868Y-189545295D01*
X194871250Y-189450057D01*
X195347440Y-189450057D01*
X195549821Y-189354819D01*
X196395059Y-190211962D02*
X196645059Y-188211962D01*
X196549821Y-188973867D02*
X196752202Y-188878629D01*
X197133154Y-188878629D01*
X197311726Y-188973867D01*
X197395059Y-189069105D01*
X197466487Y-189259581D01*
X197395059Y-189831010D01*
X197276011Y-190021486D01*
X197168869Y-190116724D01*
X196966488Y-190211962D01*
X196585536Y-190211962D01*
X196406964Y-190116724D01*
X198490298Y-190211962D02*
X198311727Y-190116724D01*
X198228392Y-190021486D01*
X198156964Y-189831010D01*
X198228392Y-189259581D01*
X198347440Y-189069105D01*
X198454584Y-188973867D01*
X198656964Y-188878629D01*
X198942678Y-188878629D01*
X199121250Y-188973867D01*
X199204583Y-189069105D01*
X199276011Y-189259581D01*
X199204583Y-189831010D01*
X199085535Y-190021486D01*
X198978393Y-190116724D01*
X198776012Y-190211962D01*
X198490298Y-190211962D01*
X199895059Y-188878629D02*
X200656964Y-188878629D01*
X200264107Y-188211962D02*
X200049821Y-189926248D01*
X200121251Y-190116724D01*
X200299822Y-190211962D01*
X200490298Y-190211962D01*
X202597441Y-190116724D02*
X202871251Y-190211962D01*
X203347441Y-190211962D01*
X203549822Y-190116724D01*
X203656964Y-190021486D01*
X203776013Y-189831010D01*
X203799822Y-189640533D01*
X203728393Y-189450057D01*
X203645060Y-189354819D01*
X203466488Y-189259581D01*
X203097441Y-189164343D01*
X202918870Y-189069105D01*
X202835536Y-188973867D01*
X202764107Y-188783390D01*
X202787917Y-188592914D01*
X202906964Y-188402438D01*
X203014108Y-188307200D01*
X203216489Y-188211962D01*
X203692679Y-188211962D01*
X203966489Y-188307200D01*
X204585536Y-190211962D02*
X204835536Y-188211962D01*
X205323631Y-189640533D01*
X206168870Y-188211962D01*
X205918870Y-190211962D01*
X206871250Y-190211962D02*
X207121250Y-188211962D01*
X207597441Y-188211962D01*
X207871250Y-188307200D01*
X208037917Y-188497676D01*
X208109346Y-188688152D01*
X208156965Y-189069105D01*
X208121251Y-189354819D01*
X207978394Y-189735771D01*
X207859345Y-189926248D01*
X207645060Y-190116724D01*
X207347441Y-190211962D01*
X206871250Y-190211962D01*
D10*
D11*
X178859343Y-185600057D02*
X178359343Y-185600057D01*
X178359343Y-186385771D02*
X178359343Y-184885771D01*
X179073629Y-184885771D01*
X179645057Y-186385771D02*
X179645057Y-185385771D01*
X179645057Y-184885771D02*
X179573628Y-184957200D01*
X179645057Y-185028629D01*
X179716485Y-184957200D01*
X179645057Y-184885771D01*
X179645057Y-185028629D01*
X180573629Y-186385771D02*
X180430771Y-186314343D01*
X180359343Y-186171486D01*
X180359343Y-184885771D01*
X181716485Y-186314343D02*
X181573628Y-186385771D01*
X181287914Y-186385771D01*
X181145057Y-186314343D01*
X181073628Y-186171486D01*
X181073628Y-185600057D01*
X181145057Y-185457200D01*
X181287914Y-185385771D01*
X181573628Y-185385771D01*
X181716485Y-185457200D01*
X181787914Y-185600057D01*
X181787914Y-185742914D01*
X181073628Y-185885771D01*
X182430771Y-186242914D02*
X182502199Y-186314343D01*
X182430771Y-186385771D01*
X182359342Y-186314343D01*
X182430771Y-186242914D01*
X182430771Y-186385771D01*
X182430771Y-185457200D02*
X182502199Y-185528629D01*
X182430771Y-185600057D01*
X182359342Y-185528629D01*
X182430771Y-185457200D01*
X182430771Y-185600057D01*
X184930771Y-185385771D02*
X184930771Y-186600057D01*
X184859342Y-186742914D01*
X184787914Y-186814343D01*
X184645057Y-186885771D01*
X184430771Y-186885771D01*
X184287914Y-186814343D01*
X184930771Y-186314343D02*
X184787914Y-186385771D01*
X184502200Y-186385771D01*
X184359342Y-186314343D01*
X184287914Y-186242914D01*
X184216485Y-186100057D01*
X184216485Y-185671486D01*
X184287914Y-185528629D01*
X184359342Y-185457200D01*
X184502200Y-185385771D01*
X184787914Y-185385771D01*
X184930771Y-185457200D01*
X185859343Y-186385771D02*
X185716485Y-186314343D01*
X185645057Y-186242914D01*
X185573628Y-186100057D01*
X185573628Y-185671486D01*
X185645057Y-185528629D01*
X185716485Y-185457200D01*
X185859343Y-185385771D01*
X186073628Y-185385771D01*
X186216485Y-185457200D01*
X186287914Y-185528629D01*
X186359343Y-185671486D01*
X186359343Y-186100057D01*
X186287914Y-186242914D01*
X186216485Y-186314343D01*
X186073628Y-186385771D01*
X185859343Y-186385771D01*
X187645057Y-185385771D02*
X187645057Y-186600057D01*
X187573628Y-186742914D01*
X187502200Y-186814343D01*
X187359343Y-186885771D01*
X187145057Y-186885771D01*
X187002200Y-186814343D01*
X187645057Y-186314343D02*
X187502200Y-186385771D01*
X187216486Y-186385771D01*
X187073628Y-186314343D01*
X187002200Y-186242914D01*
X186930771Y-186100057D01*
X186930771Y-185671486D01*
X187002200Y-185528629D01*
X187073628Y-185457200D01*
X187216486Y-185385771D01*
X187502200Y-185385771D01*
X187645057Y-185457200D01*
X189002200Y-185385771D02*
X189002200Y-186600057D01*
X188930771Y-186742914D01*
X188859343Y-186814343D01*
X188716486Y-186885771D01*
X188502200Y-186885771D01*
X188359343Y-186814343D01*
X189002200Y-186314343D02*
X188859343Y-186385771D01*
X188573629Y-186385771D01*
X188430771Y-186314343D01*
X188359343Y-186242914D01*
X188287914Y-186100057D01*
X188287914Y-185671486D01*
X188359343Y-185528629D01*
X188430771Y-185457200D01*
X188573629Y-185385771D01*
X188859343Y-185385771D01*
X189002200Y-185457200D01*
X190359343Y-186385771D02*
X190359343Y-185600057D01*
X190287914Y-185457200D01*
X190145057Y-185385771D01*
X189859343Y-185385771D01*
X189716486Y-185457200D01*
X190359343Y-186314343D02*
X190216486Y-186385771D01*
X189859343Y-186385771D01*
X189716486Y-186314343D01*
X189645057Y-186171486D01*
X189645057Y-186028629D01*
X189716486Y-185885771D01*
X189859343Y-185814343D01*
X190216486Y-185814343D01*
X190359343Y-185742914D01*
X191073629Y-186385771D02*
X191073629Y-184885771D01*
X191073629Y-185457200D02*
X191216486Y-185385771D01*
X191502200Y-185385771D01*
X191645057Y-185457200D01*
X191716486Y-185528629D01*
X191787915Y-185671486D01*
X191787915Y-186100057D01*
X191716486Y-186242914D01*
X191645057Y-186314343D01*
X191502200Y-186385771D01*
X191216486Y-186385771D01*
X191073629Y-186314343D01*
X192645058Y-186385771D02*
X192502200Y-186314343D01*
X192430772Y-186242914D01*
X192359343Y-186100057D01*
X192359343Y-185671486D01*
X192430772Y-185528629D01*
X192502200Y-185457200D01*
X192645058Y-185385771D01*
X192859343Y-185385771D01*
X193002200Y-185457200D01*
X193073629Y-185528629D01*
X193145058Y-185671486D01*
X193145058Y-186100057D01*
X193073629Y-186242914D01*
X193002200Y-186314343D01*
X192859343Y-186385771D01*
X192645058Y-186385771D01*
X193573629Y-185385771D02*
X194145058Y-185385771D01*
X193787915Y-184885771D02*
X193787915Y-186171486D01*
X193859343Y-186314343D01*
X194002201Y-186385771D01*
X194145058Y-186385771D01*
X194645058Y-186242914D02*
X194716486Y-186314343D01*
X194645058Y-186385771D01*
X194573629Y-186314343D01*
X194645058Y-186242914D01*
X194645058Y-186385771D01*
X195359344Y-186385771D02*
X195359344Y-184885771D01*
X195502201Y-185814343D02*
X195930772Y-186385771D01*
X195930772Y-185385771D02*
X195359344Y-185957200D01*
X196573630Y-186385771D02*
X196573630Y-185385771D01*
X196573630Y-184885771D02*
X196502201Y-184957200D01*
X196573630Y-185028629D01*
X196645058Y-184957200D01*
X196573630Y-184885771D01*
X196573630Y-185028629D01*
X197930773Y-186314343D02*
X197787916Y-186385771D01*
X197502202Y-186385771D01*
X197359344Y-186314343D01*
X197287916Y-186242914D01*
X197216487Y-186100057D01*
X197216487Y-185671486D01*
X197287916Y-185528629D01*
X197359344Y-185457200D01*
X197502202Y-185385771D01*
X197787916Y-185385771D01*
X197930773Y-185457200D01*
X199216487Y-186385771D02*
X199216487Y-185600057D01*
X199145058Y-185457200D01*
X199002201Y-185385771D01*
X198716487Y-185385771D01*
X198573630Y-185457200D01*
X199216487Y-186314343D02*
X199073630Y-186385771D01*
X198716487Y-186385771D01*
X198573630Y-186314343D01*
X198502201Y-186171486D01*
X198502201Y-186028629D01*
X198573630Y-185885771D01*
X198716487Y-185814343D01*
X199073630Y-185814343D01*
X199216487Y-185742914D01*
X200573630Y-186385771D02*
X200573630Y-184885771D01*
X200573630Y-186314343D02*
X200430773Y-186385771D01*
X200145059Y-186385771D01*
X200002201Y-186314343D01*
X199930773Y-186242914D01*
X199859344Y-186100057D01*
X199859344Y-185671486D01*
X199930773Y-185528629D01*
X200002201Y-185457200D01*
X200145059Y-185385771D01*
X200430773Y-185385771D01*
X200573630Y-185457200D01*
X200930773Y-186528629D02*
X202073630Y-186528629D01*
X202430773Y-185385771D02*
X202430773Y-186885771D01*
X202430773Y-185457200D02*
X202573630Y-185385771D01*
X202859344Y-185385771D01*
X203002201Y-185457200D01*
X203073630Y-185528629D01*
X203145059Y-185671486D01*
X203145059Y-186100057D01*
X203073630Y-186242914D01*
X203002201Y-186314343D01*
X202859344Y-186385771D01*
X202573630Y-186385771D01*
X202430773Y-186314343D01*
X204430773Y-186314343D02*
X204287916Y-186385771D01*
X204002202Y-186385771D01*
X203859344Y-186314343D01*
X203787916Y-186242914D01*
X203716487Y-186100057D01*
X203716487Y-185671486D01*
X203787916Y-185528629D01*
X203859344Y-185457200D01*
X204002202Y-185385771D01*
X204287916Y-185385771D01*
X204430773Y-185457200D01*
X205073630Y-186385771D02*
X205073630Y-184885771D01*
X205073630Y-185457200D02*
X205216487Y-185385771D01*
X205502201Y-185385771D01*
X205645058Y-185457200D01*
X205716487Y-185528629D01*
X205787916Y-185671486D01*
X205787916Y-186100057D01*
X205716487Y-186242914D01*
X205645058Y-186314343D01*
X205502201Y-186385771D01*
X205216487Y-186385771D01*
X205073630Y-186314343D01*
D10*
D11*
X177002200Y-181507200D02*
X285002200Y-181507200D01*
D10*
D11*
X178287914Y-183614343D02*
X178502200Y-183685771D01*
X178859343Y-183685771D01*
X179002200Y-183614343D01*
X179073629Y-183542914D01*
X179145057Y-183400057D01*
X179145057Y-183257200D01*
X179073629Y-183114343D01*
X179002200Y-183042914D01*
X178859343Y-182971486D01*
X178573629Y-182900057D01*
X178430771Y-182828629D01*
X178359343Y-182757200D01*
X178287914Y-182614343D01*
X178287914Y-182471486D01*
X178359343Y-182328629D01*
X178430771Y-182257200D01*
X178573629Y-182185771D01*
X178930771Y-182185771D01*
X179145057Y-182257200D01*
X179787914Y-183685771D02*
X179787914Y-182185771D01*
X180430771Y-183685771D02*
X180430771Y-182900057D01*
X180359342Y-182757200D01*
X180216485Y-182685771D01*
X180002200Y-182685771D01*
X179859342Y-182757200D01*
X179787914Y-182828629D01*
X181716485Y-183614343D02*
X181573628Y-183685771D01*
X181287914Y-183685771D01*
X181145057Y-183614343D01*
X181073628Y-183471486D01*
X181073628Y-182900057D01*
X181145057Y-182757200D01*
X181287914Y-182685771D01*
X181573628Y-182685771D01*
X181716485Y-182757200D01*
X181787914Y-182900057D01*
X181787914Y-183042914D01*
X181073628Y-183185771D01*
X183002199Y-183614343D02*
X182859342Y-183685771D01*
X182573628Y-183685771D01*
X182430771Y-183614343D01*
X182359342Y-183471486D01*
X182359342Y-182900057D01*
X182430771Y-182757200D01*
X182573628Y-182685771D01*
X182859342Y-182685771D01*
X183002199Y-182757200D01*
X183073628Y-182900057D01*
X183073628Y-183042914D01*
X182359342Y-183185771D01*
X183502199Y-182685771D02*
X184073628Y-182685771D01*
X183716485Y-182185771D02*
X183716485Y-183471486D01*
X183787913Y-183614343D01*
X183930771Y-183685771D01*
X184073628Y-183685771D01*
X184573628Y-183542914D02*
X184645056Y-183614343D01*
X184573628Y-183685771D01*
X184502199Y-183614343D01*
X184573628Y-183542914D01*
X184573628Y-183685771D01*
X184573628Y-182757200D02*
X184645056Y-182828629D01*
X184573628Y-182900057D01*
X184502199Y-182828629D01*
X184573628Y-182757200D01*
X184573628Y-182900057D01*
D10*
D11*
X197002200Y-191507200D02*
X197002200Y-194507200D01*
D10*
D11*
X261002200Y-191507200D02*
X261002200Y-198007200D01*
D14*
G36*
X131923489Y-108980473D02*
X131990678Y-109025764D01*
X132096984Y-109098123D01*
X132239974Y-109195876D01*
X132417216Y-109317351D01*
X132626279Y-109460874D01*
X132864728Y-109624773D01*
X133130132Y-109807374D01*
X133420057Y-110007005D01*
X133732072Y-110221992D01*
X134063745Y-110450662D01*
X134412641Y-110691343D01*
X134776330Y-110942360D01*
X135152378Y-111202042D01*
X135246058Y-111266754D01*
X135692025Y-111574826D01*
X136096151Y-111853935D01*
X136460590Y-112105512D01*
X136787497Y-112330987D01*
X137079027Y-112531791D01*
X137337334Y-112709355D01*
X137564572Y-112865109D01*
X137762897Y-113000484D01*
X137934463Y-113116910D01*
X138081425Y-113215820D01*
X138205938Y-113298642D01*
X138310156Y-113366807D01*
X138396233Y-113421748D01*
X138466325Y-113464893D01*
X138522586Y-113497673D01*
X138567171Y-113521520D01*
X138602235Y-113537864D01*
X138629931Y-113548136D01*
X138652415Y-113553766D01*
X138671842Y-113556185D01*
X138690366Y-113556824D01*
X138695110Y-113556873D01*
X138739132Y-113558468D01*
X138833052Y-113562791D01*
X138973375Y-113569660D01*
X139156605Y-113578891D01*
X139379247Y-113590302D01*
X139637804Y-113603711D01*
X139928780Y-113618935D01*
X140248680Y-113635791D01*
X140594008Y-113654097D01*
X140961269Y-113673671D01*
X141346966Y-113694330D01*
X141747603Y-113715891D01*
X141959158Y-113727316D01*
X145087368Y-113896466D01*
X147952587Y-111989410D01*
X150817805Y-110082354D01*
X151301376Y-110243807D01*
X151451841Y-110294937D01*
X151583165Y-110341268D01*
X151687554Y-110379911D01*
X151757214Y-110407975D01*
X151784352Y-110422568D01*
X151784459Y-110422998D01*
X151762979Y-110441105D01*
X151700557Y-110488040D01*
X151599969Y-110561835D01*
X151463987Y-110660524D01*
X151295389Y-110782141D01*
X151096947Y-110924719D01*
X150871438Y-111086291D01*
X150621635Y-111264891D01*
X150350314Y-111458552D01*
X150060250Y-111665308D01*
X149754217Y-111883191D01*
X149434990Y-112110236D01*
X149105344Y-112344475D01*
X148768054Y-112583943D01*
X148425894Y-112826671D01*
X148081640Y-113070695D01*
X147738066Y-113314047D01*
X147397948Y-113554760D01*
X147064059Y-113790869D01*
X146739175Y-114020406D01*
X146426070Y-114241404D01*
X146127519Y-114451898D01*
X145846298Y-114649920D01*
X145585181Y-114833504D01*
X145346942Y-115000683D01*
X145134357Y-115149491D01*
X144950201Y-115277961D01*
X144797247Y-115384126D01*
X144678272Y-115466020D01*
X144596050Y-115521677D01*
X144553355Y-115549129D01*
X144547959Y-115551772D01*
X144515387Y-115549947D01*
X144432985Y-115543525D01*
X144304171Y-115532809D01*
X144132364Y-115518102D01*
X143920983Y-115499705D01*
X143673445Y-115477922D01*
X143393171Y-115453055D01*
X143083577Y-115425407D01*
X142748084Y-115395280D01*
X142390109Y-115362977D01*
X142013071Y-115328801D01*
X141620388Y-115293053D01*
X141477894Y-115280045D01*
X141080232Y-115243566D01*
X140696860Y-115208109D01*
X140331212Y-115174008D01*
X139986721Y-115141595D01*
X139666820Y-115111202D01*
X139374944Y-115083163D01*
X139114524Y-115057809D01*
X138888995Y-115035475D01*
X138701791Y-115016491D01*
X138556343Y-115001192D01*
X138456087Y-114989910D01*
X138404454Y-114982977D01*
X138398509Y-114981641D01*
X138369634Y-114962504D01*
X138301588Y-114912919D01*
X138196984Y-114834904D01*
X138058434Y-114730478D01*
X137888553Y-114601656D01*
X137689952Y-114450458D01*
X137465245Y-114278901D01*
X137217046Y-114089002D01*
X136947967Y-113882780D01*
X136660622Y-113662251D01*
X136357624Y-113429434D01*
X136041586Y-113186346D01*
X135715120Y-112935005D01*
X135380842Y-112677429D01*
X135041362Y-112415635D01*
X134699295Y-112151641D01*
X134357254Y-111887464D01*
X134017851Y-111625123D01*
X133683701Y-111366635D01*
X133357416Y-111114017D01*
X133041609Y-110869288D01*
X132738894Y-110634465D01*
X132451884Y-110411566D01*
X132183191Y-110202607D01*
X131935429Y-110009608D01*
X131711211Y-109834586D01*
X131513151Y-109679558D01*
X131343861Y-109546542D01*
X131205955Y-109437556D01*
X131102045Y-109354618D01*
X131034745Y-109299744D01*
X131006669Y-109274954D01*
X131006023Y-109273729D01*
X131041136Y-109254766D01*
X131115615Y-109223679D01*
X131219212Y-109184030D01*
X131341675Y-109139378D01*
X131472755Y-109093284D01*
X131602203Y-109049308D01*
X131719769Y-109011012D01*
X131815204Y-108981956D01*
X131878256Y-108965701D01*
X131897851Y-108963922D01*
X131923489Y-108980473D01*
X131923489Y-108980473D01*
G37*
X131923489Y-108980473D02*
X131990678Y-109025764D01*
X132096984Y-109098123D01*
X132239974Y-109195876D01*
X132417216Y-109317351D01*
X132626279Y-109460874D01*
X132864728Y-109624773D01*
X133130132Y-109807374D01*
X133420057Y-110007005D01*
X133732072Y-110221992D01*
X134063745Y-110450662D01*
X134412641Y-110691343D01*
X134776330Y-110942360D01*
X135152378Y-111202042D01*
X135246058Y-111266754D01*
X135692025Y-111574826D01*
X136096151Y-111853935D01*
X136460590Y-112105512D01*
X136787497Y-112330987D01*
X137079027Y-112531791D01*
X137337334Y-112709355D01*
X137564572Y-112865109D01*
X137762897Y-113000484D01*
X137934463Y-113116910D01*
X138081425Y-113215820D01*
X138205938Y-113298642D01*
X138310156Y-113366807D01*
X138396233Y-113421748D01*
X138466325Y-113464893D01*
X138522586Y-113497673D01*
X138567171Y-113521520D01*
X138602235Y-113537864D01*
X138629931Y-113548136D01*
X138652415Y-113553766D01*
X138671842Y-113556185D01*
X138690366Y-113556824D01*
X138695110Y-113556873D01*
X138739132Y-113558468D01*
X138833052Y-113562791D01*
X138973375Y-113569660D01*
X139156605Y-113578891D01*
X139379247Y-113590302D01*
X139637804Y-113603711D01*
X139928780Y-113618935D01*
X140248680Y-113635791D01*
X140594008Y-113654097D01*
X140961269Y-113673671D01*
X141346966Y-113694330D01*
X141747603Y-113715891D01*
X141959158Y-113727316D01*
X145087368Y-113896466D01*
X147952587Y-111989410D01*
X150817805Y-110082354D01*
X151301376Y-110243807D01*
X151451841Y-110294937D01*
X151583165Y-110341268D01*
X151687554Y-110379911D01*
X151757214Y-110407975D01*
X151784352Y-110422568D01*
X151784459Y-110422998D01*
X151762979Y-110441105D01*
X151700557Y-110488040D01*
X151599969Y-110561835D01*
X151463987Y-110660524D01*
X151295389Y-110782141D01*
X151096947Y-110924719D01*
X150871438Y-111086291D01*
X150621635Y-111264891D01*
X150350314Y-111458552D01*
X150060250Y-111665308D01*
X149754217Y-111883191D01*
X149434990Y-112110236D01*
X149105344Y-112344475D01*
X148768054Y-112583943D01*
X148425894Y-112826671D01*
X148081640Y-113070695D01*
X147738066Y-113314047D01*
X147397948Y-113554760D01*
X147064059Y-113790869D01*
X146739175Y-114020406D01*
X146426070Y-114241404D01*
X146127519Y-114451898D01*
X145846298Y-114649920D01*
X145585181Y-114833504D01*
X145346942Y-115000683D01*
X145134357Y-115149491D01*
X144950201Y-115277961D01*
X144797247Y-115384126D01*
X144678272Y-115466020D01*
X144596050Y-115521677D01*
X144553355Y-115549129D01*
X144547959Y-115551772D01*
X144515387Y-115549947D01*
X144432985Y-115543525D01*
X144304171Y-115532809D01*
X144132364Y-115518102D01*
X143920983Y-115499705D01*
X143673445Y-115477922D01*
X143393171Y-115453055D01*
X143083577Y-115425407D01*
X142748084Y-115395280D01*
X142390109Y-115362977D01*
X142013071Y-115328801D01*
X141620388Y-115293053D01*
X141477894Y-115280045D01*
X141080232Y-115243566D01*
X140696860Y-115208109D01*
X140331212Y-115174008D01*
X139986721Y-115141595D01*
X139666820Y-115111202D01*
X139374944Y-115083163D01*
X139114524Y-115057809D01*
X138888995Y-115035475D01*
X138701791Y-115016491D01*
X138556343Y-115001192D01*
X138456087Y-114989910D01*
X138404454Y-114982977D01*
X138398509Y-114981641D01*
X138369634Y-114962504D01*
X138301588Y-114912919D01*
X138196984Y-114834904D01*
X138058434Y-114730478D01*
X137888553Y-114601656D01*
X137689952Y-114450458D01*
X137465245Y-114278901D01*
X137217046Y-114089002D01*
X136947967Y-113882780D01*
X136660622Y-113662251D01*
X136357624Y-113429434D01*
X136041586Y-113186346D01*
X135715120Y-112935005D01*
X135380842Y-112677429D01*
X135041362Y-112415635D01*
X134699295Y-112151641D01*
X134357254Y-111887464D01*
X134017851Y-111625123D01*
X133683701Y-111366635D01*
X133357416Y-111114017D01*
X133041609Y-110869288D01*
X132738894Y-110634465D01*
X132451884Y-110411566D01*
X132183191Y-110202607D01*
X131935429Y-110009608D01*
X131711211Y-109834586D01*
X131513151Y-109679558D01*
X131343861Y-109546542D01*
X131205955Y-109437556D01*
X131102045Y-109354618D01*
X131034745Y-109299744D01*
X131006669Y-109274954D01*
X131006023Y-109273729D01*
X131041136Y-109254766D01*
X131115615Y-109223679D01*
X131219212Y-109184030D01*
X131341675Y-109139378D01*
X131472755Y-109093284D01*
X131602203Y-109049308D01*
X131719769Y-109011012D01*
X131815204Y-108981956D01*
X131878256Y-108965701D01*
X131897851Y-108963922D01*
X131923489Y-108980473D01*
G36*
X169816294Y-106516407D02*
X169730274Y-106586153D01*
X169609301Y-106683928D01*
X169455907Y-106807698D01*
X169272625Y-106955428D01*
X169061988Y-107125085D01*
X168826529Y-107314634D01*
X168568780Y-107522041D01*
X168291274Y-107745272D01*
X167996544Y-107982293D01*
X167687123Y-108231069D01*
X167365543Y-108489567D01*
X167034337Y-108755753D01*
X166696038Y-109027591D01*
X166353179Y-109303049D01*
X166008292Y-109580091D01*
X165663910Y-109856684D01*
X165322567Y-110130794D01*
X164986793Y-110400386D01*
X164659124Y-110663426D01*
X164342090Y-110917880D01*
X164038225Y-111161714D01*
X163750062Y-111392894D01*
X163480133Y-111609385D01*
X163230972Y-111809154D01*
X163005110Y-111990166D01*
X162805081Y-112150387D01*
X162633417Y-112287783D01*
X162492652Y-112400319D01*
X162385317Y-112485963D01*
X162313946Y-112542679D01*
X162281072Y-112568433D01*
X162279158Y-112569799D01*
X162250904Y-112564275D01*
X162173802Y-112545210D01*
X162050536Y-112513330D01*
X161883791Y-112469363D01*
X161676253Y-112414037D01*
X161430606Y-112348080D01*
X161149537Y-112272219D01*
X160835730Y-112187183D01*
X160491871Y-112093699D01*
X160120645Y-111992494D01*
X159724736Y-111884296D01*
X159306832Y-111769834D01*
X158869616Y-111649834D01*
X158415774Y-111525025D01*
X157947992Y-111396134D01*
X157929162Y-111390940D01*
X157460962Y-111261731D01*
X157006711Y-111136234D01*
X156569086Y-111015195D01*
X156150766Y-110899360D01*
X155754431Y-110789475D01*
X155382758Y-110686286D01*
X155038427Y-110590541D01*
X154724115Y-110502984D01*
X154442501Y-110424362D01*
X154196265Y-110355422D01*
X153988085Y-110296909D01*
X153820638Y-110249570D01*
X153696605Y-110214151D01*
X153618663Y-110191398D01*
X153589491Y-110182057D01*
X153589376Y-110181973D01*
X153604827Y-110162311D01*
X153657934Y-110118016D01*
X153741941Y-110054242D01*
X153850093Y-109976140D01*
X153955468Y-109902679D01*
X154338087Y-109639913D01*
X161888099Y-109524901D01*
X168348421Y-106315411D01*
X169228083Y-106297403D01*
X170107746Y-106279395D01*
X169816294Y-106516407D01*
X169816294Y-106516407D01*
G37*
X169816294Y-106516407D02*
X169730274Y-106586153D01*
X169609301Y-106683928D01*
X169455907Y-106807698D01*
X169272625Y-106955428D01*
X169061988Y-107125085D01*
X168826529Y-107314634D01*
X168568780Y-107522041D01*
X168291274Y-107745272D01*
X167996544Y-107982293D01*
X167687123Y-108231069D01*
X167365543Y-108489567D01*
X167034337Y-108755753D01*
X166696038Y-109027591D01*
X166353179Y-109303049D01*
X166008292Y-109580091D01*
X165663910Y-109856684D01*
X165322567Y-110130794D01*
X164986793Y-110400386D01*
X164659124Y-110663426D01*
X164342090Y-110917880D01*
X164038225Y-111161714D01*
X163750062Y-111392894D01*
X163480133Y-111609385D01*
X163230972Y-111809154D01*
X163005110Y-111990166D01*
X162805081Y-112150387D01*
X162633417Y-112287783D01*
X162492652Y-112400319D01*
X162385317Y-112485963D01*
X162313946Y-112542679D01*
X162281072Y-112568433D01*
X162279158Y-112569799D01*
X162250904Y-112564275D01*
X162173802Y-112545210D01*
X162050536Y-112513330D01*
X161883791Y-112469363D01*
X161676253Y-112414037D01*
X161430606Y-112348080D01*
X161149537Y-112272219D01*
X160835730Y-112187183D01*
X160491871Y-112093699D01*
X160120645Y-111992494D01*
X159724736Y-111884296D01*
X159306832Y-111769834D01*
X158869616Y-111649834D01*
X158415774Y-111525025D01*
X157947992Y-111396134D01*
X157929162Y-111390940D01*
X157460962Y-111261731D01*
X157006711Y-111136234D01*
X156569086Y-111015195D01*
X156150766Y-110899360D01*
X155754431Y-110789475D01*
X155382758Y-110686286D01*
X155038427Y-110590541D01*
X154724115Y-110502984D01*
X154442501Y-110424362D01*
X154196265Y-110355422D01*
X153988085Y-110296909D01*
X153820638Y-110249570D01*
X153696605Y-110214151D01*
X153618663Y-110191398D01*
X153589491Y-110182057D01*
X153589376Y-110181973D01*
X153604827Y-110162311D01*
X153657934Y-110118016D01*
X153741941Y-110054242D01*
X153850093Y-109976140D01*
X153955468Y-109902679D01*
X154338087Y-109639913D01*
X161888099Y-109524901D01*
X168348421Y-106315411D01*
X169228083Y-106297403D01*
X170107746Y-106279395D01*
X169816294Y-106516407D01*
G36*
X117421421Y-102969193D02*
X117949473Y-102970597D01*
X120421401Y-106043930D01*
X120706718Y-106398430D01*
X120983089Y-106741359D01*
X121248642Y-107070418D01*
X121501508Y-107383306D01*
X121739816Y-107677724D01*
X121961694Y-107951372D01*
X122165272Y-108201951D01*
X122348679Y-108427160D01*
X122510044Y-108624700D01*
X122647497Y-108792271D01*
X122759167Y-108927573D01*
X122843182Y-109028306D01*
X122897673Y-109092171D01*
X122920769Y-109116867D01*
X122921296Y-109117095D01*
X122950909Y-109112239D01*
X123029555Y-109098153D01*
X123153716Y-109075493D01*
X123319872Y-109044911D01*
X123524505Y-109007062D01*
X123764096Y-108962598D01*
X124035125Y-108912174D01*
X124334074Y-108856443D01*
X124657424Y-108796059D01*
X125001656Y-108731676D01*
X125363250Y-108663948D01*
X125648567Y-108610441D01*
X126020976Y-108540820D01*
X126378711Y-108474443D01*
X126718254Y-108411934D01*
X127036088Y-108353918D01*
X127328695Y-108301022D01*
X127592559Y-108253870D01*
X127824163Y-108213088D01*
X128019990Y-108179301D01*
X128176522Y-108153133D01*
X128290243Y-108135211D01*
X128357636Y-108126160D01*
X128375725Y-108125612D01*
X128403594Y-108147238D01*
X128467866Y-108197087D01*
X128562684Y-108270619D01*
X128682192Y-108363293D01*
X128820532Y-108470566D01*
X128965052Y-108582626D01*
X129114849Y-108698808D01*
X129250419Y-108804019D01*
X129366127Y-108893878D01*
X129456338Y-108964009D01*
X129515417Y-109010033D01*
X129537666Y-109027518D01*
X129535015Y-109050827D01*
X129534439Y-109051421D01*
X129508863Y-109062029D01*
X129436736Y-109090612D01*
X129321390Y-109135881D01*
X129166158Y-109196546D01*
X128974370Y-109271316D01*
X128749359Y-109358902D01*
X128494457Y-109458012D01*
X128212995Y-109567358D01*
X127908305Y-109685649D01*
X127583719Y-109811595D01*
X127242569Y-109943905D01*
X126888187Y-110081291D01*
X126523904Y-110222461D01*
X126153053Y-110366126D01*
X125778965Y-110510995D01*
X125404972Y-110655779D01*
X125034406Y-110799187D01*
X124670599Y-110939930D01*
X124316883Y-111076716D01*
X123976589Y-111208257D01*
X123653049Y-111333262D01*
X123349595Y-111450440D01*
X123069560Y-111558503D01*
X122816274Y-111656159D01*
X122593070Y-111742119D01*
X122403280Y-111815092D01*
X122250234Y-111873789D01*
X122137266Y-111916919D01*
X122067707Y-111943193D01*
X122044897Y-111951368D01*
X122031177Y-111928560D01*
X121992099Y-111861622D01*
X121928951Y-111752790D01*
X121843021Y-111604297D01*
X121735595Y-111418377D01*
X121607962Y-111197264D01*
X121461409Y-110943192D01*
X121297223Y-110658395D01*
X121116693Y-110345106D01*
X120921104Y-110005560D01*
X120711746Y-109641990D01*
X120489905Y-109256630D01*
X120256868Y-108851714D01*
X120013924Y-108429477D01*
X119762360Y-107992151D01*
X119503464Y-107541971D01*
X119466137Y-107477058D01*
X119206266Y-107025026D01*
X118953608Y-106585366D01*
X118709448Y-106160321D01*
X118475071Y-105752136D01*
X118251764Y-105363056D01*
X118040812Y-104995324D01*
X117843501Y-104651186D01*
X117661115Y-104332885D01*
X117494940Y-104042666D01*
X117346263Y-103782774D01*
X117216368Y-103555452D01*
X117106540Y-103362945D01*
X117018067Y-103207497D01*
X116952232Y-103091354D01*
X116910322Y-103016758D01*
X116893621Y-102985955D01*
X116893368Y-102985269D01*
X116918761Y-102979992D01*
X116989571Y-102975496D01*
X117097744Y-102972026D01*
X117235227Y-102969827D01*
X117393964Y-102969144D01*
X117421421Y-102969193D01*
X117421421Y-102969193D01*
G37*
X117421421Y-102969193D02*
X117949473Y-102970597D01*
X120421401Y-106043930D01*
X120706718Y-106398430D01*
X120983089Y-106741359D01*
X121248642Y-107070418D01*
X121501508Y-107383306D01*
X121739816Y-107677724D01*
X121961694Y-107951372D01*
X122165272Y-108201951D01*
X122348679Y-108427160D01*
X122510044Y-108624700D01*
X122647497Y-108792271D01*
X122759167Y-108927573D01*
X122843182Y-109028306D01*
X122897673Y-109092171D01*
X122920769Y-109116867D01*
X122921296Y-109117095D01*
X122950909Y-109112239D01*
X123029555Y-109098153D01*
X123153716Y-109075493D01*
X123319872Y-109044911D01*
X123524505Y-109007062D01*
X123764096Y-108962598D01*
X124035125Y-108912174D01*
X124334074Y-108856443D01*
X124657424Y-108796059D01*
X125001656Y-108731676D01*
X125363250Y-108663948D01*
X125648567Y-108610441D01*
X126020976Y-108540820D01*
X126378711Y-108474443D01*
X126718254Y-108411934D01*
X127036088Y-108353918D01*
X127328695Y-108301022D01*
X127592559Y-108253870D01*
X127824163Y-108213088D01*
X128019990Y-108179301D01*
X128176522Y-108153133D01*
X128290243Y-108135211D01*
X128357636Y-108126160D01*
X128375725Y-108125612D01*
X128403594Y-108147238D01*
X128467866Y-108197087D01*
X128562684Y-108270619D01*
X128682192Y-108363293D01*
X128820532Y-108470566D01*
X128965052Y-108582626D01*
X129114849Y-108698808D01*
X129250419Y-108804019D01*
X129366127Y-108893878D01*
X129456338Y-108964009D01*
X129515417Y-109010033D01*
X129537666Y-109027518D01*
X129535015Y-109050827D01*
X129534439Y-109051421D01*
X129508863Y-109062029D01*
X129436736Y-109090612D01*
X129321390Y-109135881D01*
X129166158Y-109196546D01*
X128974370Y-109271316D01*
X128749359Y-109358902D01*
X128494457Y-109458012D01*
X128212995Y-109567358D01*
X127908305Y-109685649D01*
X127583719Y-109811595D01*
X127242569Y-109943905D01*
X126888187Y-110081291D01*
X126523904Y-110222461D01*
X126153053Y-110366126D01*
X125778965Y-110510995D01*
X125404972Y-110655779D01*
X125034406Y-110799187D01*
X124670599Y-110939930D01*
X124316883Y-111076716D01*
X123976589Y-111208257D01*
X123653049Y-111333262D01*
X123349595Y-111450440D01*
X123069560Y-111558503D01*
X122816274Y-111656159D01*
X122593070Y-111742119D01*
X122403280Y-111815092D01*
X122250234Y-111873789D01*
X122137266Y-111916919D01*
X122067707Y-111943193D01*
X122044897Y-111951368D01*
X122031177Y-111928560D01*
X121992099Y-111861622D01*
X121928951Y-111752790D01*
X121843021Y-111604297D01*
X121735595Y-111418377D01*
X121607962Y-111197264D01*
X121461409Y-110943192D01*
X121297223Y-110658395D01*
X121116693Y-110345106D01*
X120921104Y-110005560D01*
X120711746Y-109641990D01*
X120489905Y-109256630D01*
X120256868Y-108851714D01*
X120013924Y-108429477D01*
X119762360Y-107992151D01*
X119503464Y-107541971D01*
X119466137Y-107477058D01*
X119206266Y-107025026D01*
X118953608Y-106585366D01*
X118709448Y-106160321D01*
X118475071Y-105752136D01*
X118251764Y-105363056D01*
X118040812Y-104995324D01*
X117843501Y-104651186D01*
X117661115Y-104332885D01*
X117494940Y-104042666D01*
X117346263Y-103782774D01*
X117216368Y-103555452D01*
X117106540Y-103362945D01*
X117018067Y-103207497D01*
X116952232Y-103091354D01*
X116910322Y-103016758D01*
X116893621Y-102985955D01*
X116893368Y-102985269D01*
X116918761Y-102979992D01*
X116989571Y-102975496D01*
X117097744Y-102972026D01*
X117235227Y-102969827D01*
X117393964Y-102969144D01*
X117421421Y-102969193D01*
G36*
X122076279Y-88063104D02*
X122150008Y-88089675D01*
X122266900Y-88133020D01*
X122423611Y-88191850D01*
X122616797Y-88264876D01*
X122843115Y-88350810D01*
X123099222Y-88448362D01*
X123381775Y-88556245D01*
X123687429Y-88673170D01*
X124012841Y-88797848D01*
X124354668Y-88928990D01*
X124709566Y-89065308D01*
X125074192Y-89205512D01*
X125445202Y-89348315D01*
X125819252Y-89492428D01*
X126193001Y-89636562D01*
X126563102Y-89779429D01*
X126926215Y-89919739D01*
X127278994Y-90056204D01*
X127618096Y-90187535D01*
X127940179Y-90312445D01*
X128241897Y-90429643D01*
X128519909Y-90537842D01*
X128770870Y-90635752D01*
X128991437Y-90722086D01*
X129178267Y-90795554D01*
X129328015Y-90854868D01*
X129437339Y-90898739D01*
X129502895Y-90925879D01*
X129521600Y-90934696D01*
X129507756Y-90956114D01*
X129457272Y-91004262D01*
X129376558Y-91074151D01*
X129272024Y-91160794D01*
X129150079Y-91259201D01*
X129017134Y-91364383D01*
X128879598Y-91471352D01*
X128743883Y-91575118D01*
X128616397Y-91670694D01*
X128503550Y-91753091D01*
X128411754Y-91817319D01*
X128347417Y-91858390D01*
X128317991Y-91871435D01*
X128285544Y-91866511D01*
X128204110Y-91852336D01*
X128077253Y-91829570D01*
X127908532Y-91798869D01*
X127701512Y-91760893D01*
X127459753Y-91716298D01*
X127186816Y-91665743D01*
X126886265Y-91609887D01*
X126561660Y-91549387D01*
X126216563Y-91484901D01*
X125854536Y-91417087D01*
X125582842Y-91366091D01*
X125211865Y-91296443D01*
X124856005Y-91229717D01*
X124518745Y-91166561D01*
X124203567Y-91107624D01*
X123913955Y-91053553D01*
X123653389Y-91004997D01*
X123425354Y-90962605D01*
X123233333Y-90927025D01*
X123080806Y-90898906D01*
X122971258Y-90878896D01*
X122908171Y-90867643D01*
X122893441Y-90865340D01*
X122876712Y-90886257D01*
X122828303Y-90946536D01*
X122750064Y-91043879D01*
X122643842Y-91175991D01*
X122511483Y-91340574D01*
X122354836Y-91535332D01*
X122175748Y-91757969D01*
X121976067Y-92006186D01*
X121757640Y-92277689D01*
X121522315Y-92570179D01*
X121271939Y-92881360D01*
X121008361Y-93208936D01*
X120733427Y-93550609D01*
X120448985Y-93904084D01*
X120411400Y-93950790D01*
X117931706Y-97032211D01*
X117412537Y-97032211D01*
X117250719Y-97031038D01*
X117110007Y-97027763D01*
X116998309Y-97022750D01*
X116923535Y-97016366D01*
X116893594Y-97008974D01*
X116893368Y-97008255D01*
X116906476Y-96982116D01*
X116944753Y-96912473D01*
X117006627Y-96802057D01*
X117090523Y-96653598D01*
X117194871Y-96469827D01*
X117318098Y-96253475D01*
X117458631Y-96007272D01*
X117614899Y-95733951D01*
X117785327Y-95436240D01*
X117968345Y-95116872D01*
X118162380Y-94778577D01*
X118365858Y-94424085D01*
X118577209Y-94056127D01*
X118794858Y-93677435D01*
X119017235Y-93290739D01*
X119242766Y-92898770D01*
X119469880Y-92504258D01*
X119697002Y-92109934D01*
X119922562Y-91718529D01*
X120144987Y-91332775D01*
X120362704Y-90955401D01*
X120574141Y-90589138D01*
X120777726Y-90236718D01*
X120971885Y-89900870D01*
X121155047Y-89584326D01*
X121325639Y-89289817D01*
X121482089Y-89020073D01*
X121622824Y-88777825D01*
X121746272Y-88565804D01*
X121850860Y-88386741D01*
X121935017Y-88243366D01*
X121997169Y-88138411D01*
X122035743Y-88074605D01*
X122049056Y-88054595D01*
X122076279Y-88063104D01*
X122076279Y-88063104D01*
G37*
X122076279Y-88063104D02*
X122150008Y-88089675D01*
X122266900Y-88133020D01*
X122423611Y-88191850D01*
X122616797Y-88264876D01*
X122843115Y-88350810D01*
X123099222Y-88448362D01*
X123381775Y-88556245D01*
X123687429Y-88673170D01*
X124012841Y-88797848D01*
X124354668Y-88928990D01*
X124709566Y-89065308D01*
X125074192Y-89205512D01*
X125445202Y-89348315D01*
X125819252Y-89492428D01*
X126193001Y-89636562D01*
X126563102Y-89779429D01*
X126926215Y-89919739D01*
X127278994Y-90056204D01*
X127618096Y-90187535D01*
X127940179Y-90312445D01*
X128241897Y-90429643D01*
X128519909Y-90537842D01*
X128770870Y-90635752D01*
X128991437Y-90722086D01*
X129178267Y-90795554D01*
X129328015Y-90854868D01*
X129437339Y-90898739D01*
X129502895Y-90925879D01*
X129521600Y-90934696D01*
X129507756Y-90956114D01*
X129457272Y-91004262D01*
X129376558Y-91074151D01*
X129272024Y-91160794D01*
X129150079Y-91259201D01*
X129017134Y-91364383D01*
X128879598Y-91471352D01*
X128743883Y-91575118D01*
X128616397Y-91670694D01*
X128503550Y-91753091D01*
X128411754Y-91817319D01*
X128347417Y-91858390D01*
X128317991Y-91871435D01*
X128285544Y-91866511D01*
X128204110Y-91852336D01*
X128077253Y-91829570D01*
X127908532Y-91798869D01*
X127701512Y-91760893D01*
X127459753Y-91716298D01*
X127186816Y-91665743D01*
X126886265Y-91609887D01*
X126561660Y-91549387D01*
X126216563Y-91484901D01*
X125854536Y-91417087D01*
X125582842Y-91366091D01*
X125211865Y-91296443D01*
X124856005Y-91229717D01*
X124518745Y-91166561D01*
X124203567Y-91107624D01*
X123913955Y-91053553D01*
X123653389Y-91004997D01*
X123425354Y-90962605D01*
X123233333Y-90927025D01*
X123080806Y-90898906D01*
X122971258Y-90878896D01*
X122908171Y-90867643D01*
X122893441Y-90865340D01*
X122876712Y-90886257D01*
X122828303Y-90946536D01*
X122750064Y-91043879D01*
X122643842Y-91175991D01*
X122511483Y-91340574D01*
X122354836Y-91535332D01*
X122175748Y-91757969D01*
X121976067Y-92006186D01*
X121757640Y-92277689D01*
X121522315Y-92570179D01*
X121271939Y-92881360D01*
X121008361Y-93208936D01*
X120733427Y-93550609D01*
X120448985Y-93904084D01*
X120411400Y-93950790D01*
X117931706Y-97032211D01*
X117412537Y-97032211D01*
X117250719Y-97031038D01*
X117110007Y-97027763D01*
X116998309Y-97022750D01*
X116923535Y-97016366D01*
X116893594Y-97008974D01*
X116893368Y-97008255D01*
X116906476Y-96982116D01*
X116944753Y-96912473D01*
X117006627Y-96802057D01*
X117090523Y-96653598D01*
X117194871Y-96469827D01*
X117318098Y-96253475D01*
X117458631Y-96007272D01*
X117614899Y-95733951D01*
X117785327Y-95436240D01*
X117968345Y-95116872D01*
X118162380Y-94778577D01*
X118365858Y-94424085D01*
X118577209Y-94056127D01*
X118794858Y-93677435D01*
X119017235Y-93290739D01*
X119242766Y-92898770D01*
X119469880Y-92504258D01*
X119697002Y-92109934D01*
X119922562Y-91718529D01*
X120144987Y-91332775D01*
X120362704Y-90955401D01*
X120574141Y-90589138D01*
X120777726Y-90236718D01*
X120971885Y-89900870D01*
X121155047Y-89584326D01*
X121325639Y-89289817D01*
X121482089Y-89020073D01*
X121622824Y-88777825D01*
X121746272Y-88565804D01*
X121850860Y-88386741D01*
X121935017Y-88243366D01*
X121997169Y-88138411D01*
X122035743Y-88074605D01*
X122049056Y-88054595D01*
X122076279Y-88063104D01*
G36*
X162360242Y-87475803D02*
X162456146Y-87552597D01*
X162586424Y-87657066D01*
X162748573Y-87787195D01*
X162940090Y-87940971D01*
X163158474Y-88116382D01*
X163401221Y-88311414D01*
X163665829Y-88524054D01*
X163949795Y-88752289D01*
X164250617Y-88994107D01*
X164565792Y-89247493D01*
X164892817Y-89510436D01*
X165229190Y-89780921D01*
X165572409Y-90056936D01*
X165919969Y-90336468D01*
X166269370Y-90617504D01*
X166618108Y-90898031D01*
X166963681Y-91176035D01*
X167303585Y-91449504D01*
X167635320Y-91716424D01*
X167956381Y-91974782D01*
X168264266Y-92222566D01*
X168556473Y-92457763D01*
X168830500Y-92678358D01*
X169083842Y-92882340D01*
X169313999Y-93067695D01*
X169518466Y-93232410D01*
X169694742Y-93374472D01*
X169840324Y-93491868D01*
X169952710Y-93582585D01*
X170029396Y-93644609D01*
X170067880Y-93675929D01*
X170071992Y-93679384D01*
X170088315Y-93701275D01*
X170071685Y-93711655D01*
X170013567Y-93713560D01*
X169978413Y-93712681D01*
X169917076Y-93710803D01*
X169810637Y-93707594D01*
X169667443Y-93703304D01*
X169495842Y-93698181D01*
X169304183Y-93692476D01*
X169100812Y-93686438D01*
X169083684Y-93685930D01*
X168321684Y-93663342D01*
X165099894Y-92062173D01*
X161878105Y-90461004D01*
X158896947Y-90417692D01*
X158483069Y-90411626D01*
X158071331Y-90405490D01*
X157666442Y-90399360D01*
X157273112Y-90393310D01*
X156896049Y-90387418D01*
X156539963Y-90381757D01*
X156209564Y-90376404D01*
X155909560Y-90371434D01*
X155644662Y-90366923D01*
X155419578Y-90362945D01*
X155239018Y-90359577D01*
X155118550Y-90357131D01*
X154321311Y-90339884D01*
X153949464Y-90083258D01*
X153826804Y-89997810D01*
X153721116Y-89922668D01*
X153639625Y-89863092D01*
X153589557Y-89824344D01*
X153576966Y-89812033D01*
X153602106Y-89802163D01*
X153675635Y-89779269D01*
X153794313Y-89744235D01*
X153954896Y-89697949D01*
X154154142Y-89641296D01*
X154388809Y-89575161D01*
X154655655Y-89500431D01*
X154951436Y-89417991D01*
X155272910Y-89328726D01*
X155616836Y-89233524D01*
X155979970Y-89133269D01*
X156359071Y-89028847D01*
X156750895Y-88921144D01*
X157152201Y-88811046D01*
X157559745Y-88699439D01*
X157970287Y-88587208D01*
X158380582Y-88475239D01*
X158787389Y-88364419D01*
X159187466Y-88255631D01*
X159577570Y-88149764D01*
X159954458Y-88047702D01*
X160314888Y-87950330D01*
X160655618Y-87858536D01*
X160973406Y-87773204D01*
X161265008Y-87695221D01*
X161527183Y-87625472D01*
X161756688Y-87564842D01*
X161950281Y-87514219D01*
X162104719Y-87474487D01*
X162216760Y-87446532D01*
X162283161Y-87431240D01*
X162301215Y-87428694D01*
X162360242Y-87475803D01*
X162360242Y-87475803D01*
G37*
X162360242Y-87475803D02*
X162456146Y-87552597D01*
X162586424Y-87657066D01*
X162748573Y-87787195D01*
X162940090Y-87940971D01*
X163158474Y-88116382D01*
X163401221Y-88311414D01*
X163665829Y-88524054D01*
X163949795Y-88752289D01*
X164250617Y-88994107D01*
X164565792Y-89247493D01*
X164892817Y-89510436D01*
X165229190Y-89780921D01*
X165572409Y-90056936D01*
X165919969Y-90336468D01*
X166269370Y-90617504D01*
X166618108Y-90898031D01*
X166963681Y-91176035D01*
X167303585Y-91449504D01*
X167635320Y-91716424D01*
X167956381Y-91974782D01*
X168264266Y-92222566D01*
X168556473Y-92457763D01*
X168830500Y-92678358D01*
X169083842Y-92882340D01*
X169313999Y-93067695D01*
X169518466Y-93232410D01*
X169694742Y-93374472D01*
X169840324Y-93491868D01*
X169952710Y-93582585D01*
X170029396Y-93644609D01*
X170067880Y-93675929D01*
X170071992Y-93679384D01*
X170088315Y-93701275D01*
X170071685Y-93711655D01*
X170013567Y-93713560D01*
X169978413Y-93712681D01*
X169917076Y-93710803D01*
X169810637Y-93707594D01*
X169667443Y-93703304D01*
X169495842Y-93698181D01*
X169304183Y-93692476D01*
X169100812Y-93686438D01*
X169083684Y-93685930D01*
X168321684Y-93663342D01*
X165099894Y-92062173D01*
X161878105Y-90461004D01*
X158896947Y-90417692D01*
X158483069Y-90411626D01*
X158071331Y-90405490D01*
X157666442Y-90399360D01*
X157273112Y-90393310D01*
X156896049Y-90387418D01*
X156539963Y-90381757D01*
X156209564Y-90376404D01*
X155909560Y-90371434D01*
X155644662Y-90366923D01*
X155419578Y-90362945D01*
X155239018Y-90359577D01*
X155118550Y-90357131D01*
X154321311Y-90339884D01*
X153949464Y-90083258D01*
X153826804Y-89997810D01*
X153721116Y-89922668D01*
X153639625Y-89863092D01*
X153589557Y-89824344D01*
X153576966Y-89812033D01*
X153602106Y-89802163D01*
X153675635Y-89779269D01*
X153794313Y-89744235D01*
X153954896Y-89697949D01*
X154154142Y-89641296D01*
X154388809Y-89575161D01*
X154655655Y-89500431D01*
X154951436Y-89417991D01*
X155272910Y-89328726D01*
X155616836Y-89233524D01*
X155979970Y-89133269D01*
X156359071Y-89028847D01*
X156750895Y-88921144D01*
X157152201Y-88811046D01*
X157559745Y-88699439D01*
X157970287Y-88587208D01*
X158380582Y-88475239D01*
X158787389Y-88364419D01*
X159187466Y-88255631D01*
X159577570Y-88149764D01*
X159954458Y-88047702D01*
X160314888Y-87950330D01*
X160655618Y-87858536D01*
X160973406Y-87773204D01*
X161265008Y-87695221D01*
X161527183Y-87625472D01*
X161756688Y-87564842D01*
X161950281Y-87514219D01*
X162104719Y-87474487D01*
X162216760Y-87446532D01*
X162283161Y-87431240D01*
X162301215Y-87428694D01*
X162360242Y-87475803D01*
G36*
X148185525Y-86992203D02*
X148578043Y-87271382D01*
X148958361Y-87542286D01*
X149324222Y-87803291D01*
X149673374Y-88052773D01*
X150003562Y-88289108D01*
X150312532Y-88510672D01*
X150598029Y-88715841D01*
X150857800Y-88902992D01*
X151089589Y-89070500D01*
X151291144Y-89216741D01*
X151460208Y-89340092D01*
X151594530Y-89438928D01*
X151691853Y-89511626D01*
X151749923Y-89556561D01*
X151766700Y-89572040D01*
X151735078Y-89586587D01*
X151662669Y-89614206D01*
X151559551Y-89651463D01*
X151435799Y-89694921D01*
X151301489Y-89741144D01*
X151166698Y-89786695D01*
X151041499Y-89828140D01*
X150935971Y-89862042D01*
X150860188Y-89884965D01*
X150824227Y-89893473D01*
X150824118Y-89893474D01*
X150798737Y-89878912D01*
X150731559Y-89836401D01*
X150625249Y-89767698D01*
X150482471Y-89674562D01*
X150305891Y-89558753D01*
X150098174Y-89422029D01*
X149861982Y-89266149D01*
X149599983Y-89092873D01*
X149314839Y-88903958D01*
X149009216Y-88701164D01*
X148685779Y-88486250D01*
X148347191Y-88260974D01*
X147996118Y-88027096D01*
X147947066Y-87994395D01*
X145098639Y-86095317D01*
X141823595Y-86269155D01*
X138548552Y-86442993D01*
X138422381Y-86529049D01*
X138385861Y-86554140D01*
X138307915Y-86607836D01*
X138191120Y-86688358D01*
X138038055Y-86793928D01*
X137851295Y-86922767D01*
X137633420Y-87073097D01*
X137387005Y-87243138D01*
X137114628Y-87431113D01*
X136818867Y-87635242D01*
X136502299Y-87853748D01*
X136167501Y-88084850D01*
X135817051Y-88326772D01*
X135453526Y-88577734D01*
X135107156Y-88816865D01*
X134735720Y-89073226D01*
X134376107Y-89321261D01*
X134030796Y-89559270D01*
X133702266Y-89785551D01*
X133392997Y-89998401D01*
X133105466Y-90196119D01*
X132842153Y-90377003D01*
X132605537Y-90539350D01*
X132398096Y-90681460D01*
X132222310Y-90801630D01*
X132080657Y-90898158D01*
X131975615Y-90969342D01*
X131909665Y-91013481D01*
X131885367Y-91028851D01*
X131850535Y-91023305D01*
X131774726Y-91001494D01*
X131666890Y-90966307D01*
X131535975Y-90920634D01*
X131427360Y-90880987D01*
X131286732Y-90828368D01*
X131164567Y-90782005D01*
X131069271Y-90745143D01*
X131009255Y-90721025D01*
X130992368Y-90713175D01*
X131011819Y-90695911D01*
X131071074Y-90648110D01*
X131167515Y-90571792D01*
X131298524Y-90468974D01*
X131461481Y-90341675D01*
X131653770Y-90191913D01*
X131872772Y-90021706D01*
X132115868Y-89833073D01*
X132380440Y-89628031D01*
X132663870Y-89408598D01*
X132963539Y-89176794D01*
X133276830Y-88934636D01*
X133601124Y-88684142D01*
X133933803Y-88427332D01*
X134272248Y-88166222D01*
X134613841Y-87902831D01*
X134955964Y-87639177D01*
X135295999Y-87377279D01*
X135631327Y-87119155D01*
X135959330Y-86866823D01*
X136277390Y-86622301D01*
X136582888Y-86387608D01*
X136873207Y-86164761D01*
X137145727Y-85955779D01*
X137397831Y-85762680D01*
X137626901Y-85587483D01*
X137830318Y-85432205D01*
X138005463Y-85298865D01*
X138149719Y-85189481D01*
X138260467Y-85106072D01*
X138335089Y-85050654D01*
X138370967Y-85025248D01*
X138372878Y-85024133D01*
X138398212Y-85016074D01*
X138447271Y-85006491D01*
X138522403Y-84995146D01*
X138625958Y-84981804D01*
X138760285Y-84966225D01*
X138927733Y-84948173D01*
X139130651Y-84927410D01*
X139371388Y-84903699D01*
X139652293Y-84876802D01*
X139975715Y-84846482D01*
X140344003Y-84812502D01*
X140759507Y-84774624D01*
X141224575Y-84732611D01*
X141519561Y-84706110D01*
X144582491Y-84431429D01*
X148185525Y-86992203D01*
X148185525Y-86992203D01*
G37*
X148185525Y-86992203D02*
X148578043Y-87271382D01*
X148958361Y-87542286D01*
X149324222Y-87803291D01*
X149673374Y-88052773D01*
X150003562Y-88289108D01*
X150312532Y-88510672D01*
X150598029Y-88715841D01*
X150857800Y-88902992D01*
X151089589Y-89070500D01*
X151291144Y-89216741D01*
X151460208Y-89340092D01*
X151594530Y-89438928D01*
X151691853Y-89511626D01*
X151749923Y-89556561D01*
X151766700Y-89572040D01*
X151735078Y-89586587D01*
X151662669Y-89614206D01*
X151559551Y-89651463D01*
X151435799Y-89694921D01*
X151301489Y-89741144D01*
X151166698Y-89786695D01*
X151041499Y-89828140D01*
X150935971Y-89862042D01*
X150860188Y-89884965D01*
X150824227Y-89893473D01*
X150824118Y-89893474D01*
X150798737Y-89878912D01*
X150731559Y-89836401D01*
X150625249Y-89767698D01*
X150482471Y-89674562D01*
X150305891Y-89558753D01*
X150098174Y-89422029D01*
X149861982Y-89266149D01*
X149599983Y-89092873D01*
X149314839Y-88903958D01*
X149009216Y-88701164D01*
X148685779Y-88486250D01*
X148347191Y-88260974D01*
X147996118Y-88027096D01*
X147947066Y-87994395D01*
X145098639Y-86095317D01*
X141823595Y-86269155D01*
X138548552Y-86442993D01*
X138422381Y-86529049D01*
X138385861Y-86554140D01*
X138307915Y-86607836D01*
X138191120Y-86688358D01*
X138038055Y-86793928D01*
X137851295Y-86922767D01*
X137633420Y-87073097D01*
X137387005Y-87243138D01*
X137114628Y-87431113D01*
X136818867Y-87635242D01*
X136502299Y-87853748D01*
X136167501Y-88084850D01*
X135817051Y-88326772D01*
X135453526Y-88577734D01*
X135107156Y-88816865D01*
X134735720Y-89073226D01*
X134376107Y-89321261D01*
X134030796Y-89559270D01*
X133702266Y-89785551D01*
X133392997Y-89998401D01*
X133105466Y-90196119D01*
X132842153Y-90377003D01*
X132605537Y-90539350D01*
X132398096Y-90681460D01*
X132222310Y-90801630D01*
X132080657Y-90898158D01*
X131975615Y-90969342D01*
X131909665Y-91013481D01*
X131885367Y-91028851D01*
X131850535Y-91023305D01*
X131774726Y-91001494D01*
X131666890Y-90966307D01*
X131535975Y-90920634D01*
X131427360Y-90880987D01*
X131286732Y-90828368D01*
X131164567Y-90782005D01*
X131069271Y-90745143D01*
X131009255Y-90721025D01*
X130992368Y-90713175D01*
X131011819Y-90695911D01*
X131071074Y-90648110D01*
X131167515Y-90571792D01*
X131298524Y-90468974D01*
X131461481Y-90341675D01*
X131653770Y-90191913D01*
X131872772Y-90021706D01*
X132115868Y-89833073D01*
X132380440Y-89628031D01*
X132663870Y-89408598D01*
X132963539Y-89176794D01*
X133276830Y-88934636D01*
X133601124Y-88684142D01*
X133933803Y-88427332D01*
X134272248Y-88166222D01*
X134613841Y-87902831D01*
X134955964Y-87639177D01*
X135295999Y-87377279D01*
X135631327Y-87119155D01*
X135959330Y-86866823D01*
X136277390Y-86622301D01*
X136582888Y-86387608D01*
X136873207Y-86164761D01*
X137145727Y-85955779D01*
X137397831Y-85762680D01*
X137626901Y-85587483D01*
X137830318Y-85432205D01*
X138005463Y-85298865D01*
X138149719Y-85189481D01*
X138260467Y-85106072D01*
X138335089Y-85050654D01*
X138370967Y-85025248D01*
X138372878Y-85024133D01*
X138398212Y-85016074D01*
X138447271Y-85006491D01*
X138522403Y-84995146D01*
X138625958Y-84981804D01*
X138760285Y-84966225D01*
X138927733Y-84948173D01*
X139130651Y-84927410D01*
X139371388Y-84903699D01*
X139652293Y-84876802D01*
X139975715Y-84846482D01*
X140344003Y-84812502D01*
X140759507Y-84774624D01*
X141224575Y-84732611D01*
X141519561Y-84706110D01*
X144582491Y-84431429D01*
X148185525Y-86992203D01*
D15*
X156300000Y-99050000D03*
X156300000Y-100950000D03*
X159300000Y-100000000D03*
D16*
X146000000Y-90000000D03*
X146000000Y-110000000D03*
D17*
X141600000Y-106300000D03*
X145600000Y-106300000D03*
X133000000Y-100000000D03*
X129000000Y-100000000D03*
D16*
X124000000Y-104500000D03*
X124000000Y-95500000D03*
X165000000Y-104000000D03*
D17*
X145600000Y-102900000D03*
X141600000Y-102900000D03*
X141600000Y-93800000D03*
X145600000Y-93800000D03*
D16*
X165000000Y-96000000D03*
X138000000Y-110000000D03*
X138000000Y-90000000D03*
D15*
X138900000Y-100950000D03*
X138900000Y-99050000D03*
X135900000Y-100000000D03*
X148200000Y-99050000D03*
X148200000Y-100950000D03*
X151200000Y-100000000D03*
M02*
