G04 Generated by CircuitCAM Version 4.0*
%FSLAX24Y24*%
%MOIN*%
%ADD10C,0.000000*%
%ADD11C,0.007874*%
%LNCuttingOutside*%
G54D10*
X0Y14370D02*
X0Y200591D01*
X01969Y202559D01*
X12402Y202559D01*
X12402Y212992D01*
X14370Y214961D01*
X200591Y214961D01*
X202559Y212992D01*
X202559Y202559D01*
X212992Y202559D01*
X214961Y200591D01*
X214961Y14370D01*
X212992Y12402D01*
X202559Y12402D01*
X202559Y01968D01*
X200591Y-00000D01*
X14370Y0D01*
X12402Y01969D01*
X12402Y12402D01*
X01969Y12402D01*
X0Y14370D01*
%LNTextBottom*%
G54D11*
X171121Y26717D02*
X169743Y24650D01*
X169743Y26717D02*
X171121Y26717D01*
X169743Y24650D02*
X171121Y24650D01*
X172696Y26717D02*
X171712Y25339D01*
X173188Y25339D01*
X172696Y26717D02*
X172696Y24650D01*
X173779Y26717D02*
X173779Y24650D01*
X173779Y26717D02*
X174665Y26717D01*
X174960Y26619D01*
X175058Y26520D01*
X175157Y26323D01*
X175157Y26028D01*
X175058Y25831D01*
X174960Y25733D01*
X174665Y25634D01*
X173779Y25634D01*
X178995Y26717D02*
X178011Y26717D01*
X177913Y25831D01*
X178011Y25930D01*
X178306Y26028D01*
X178602Y26028D01*
X178897Y25930D01*
X179094Y25733D01*
X179192Y25438D01*
X179094Y25241D01*
X178995Y24945D01*
X178799Y24749D01*
X178503Y24650D01*
X178208Y24650D01*
X177913Y24749D01*
X177814Y24847D01*
X177716Y25044D01*
X180275Y26717D02*
X179980Y26619D01*
X179881Y26422D01*
X179881Y26225D01*
X179980Y26028D01*
X180176Y25930D01*
X180570Y25831D01*
X180865Y25733D01*
X181062Y25536D01*
X181161Y25339D01*
X181161Y25044D01*
X181062Y24847D01*
X180964Y24749D01*
X180669Y24650D01*
X180275Y24650D01*
X179980Y24749D01*
X179881Y24847D01*
X179783Y25044D01*
X179783Y25339D01*
X179881Y25536D01*
X180078Y25733D01*
X180373Y25831D01*
X180767Y25930D01*
X180964Y26028D01*
X181062Y26225D01*
X181062Y26422D01*
X180964Y26619D01*
X180669Y26717D01*
X180275Y26717D01*
X182736Y26717D02*
X181751Y25339D01*
X183228Y25339D01*
X182736Y26717D02*
X182736Y24650D01*
X183818Y26028D02*
X184901Y24650D01*
X184901Y26028D02*
X183818Y24650D01*
X186771Y26717D02*
X185787Y26717D01*
X185688Y25831D01*
X185787Y25930D01*
X186082Y26028D01*
X186377Y26028D01*
X186673Y25930D01*
X186869Y25733D01*
X186968Y25438D01*
X186869Y25241D01*
X186771Y24945D01*
X186574Y24749D01*
X186279Y24650D01*
X185984Y24650D01*
X185688Y24749D01*
X185590Y24847D01*
X185491Y25044D01*
X188050Y26717D02*
X187755Y26619D01*
X187657Y26422D01*
X187657Y26225D01*
X187755Y26028D01*
X187952Y25930D01*
X188346Y25831D01*
X188641Y25733D01*
X188838Y25536D01*
X188936Y25339D01*
X188936Y25044D01*
X188838Y24847D01*
X188739Y24749D01*
X188444Y24650D01*
X188050Y24650D01*
X187755Y24749D01*
X187657Y24847D01*
X187558Y25044D01*
X187558Y25339D01*
X187657Y25536D01*
X187854Y25733D01*
X188149Y25831D01*
X188543Y25930D01*
X188739Y26028D01*
X188838Y26225D01*
X188838Y26422D01*
X188739Y26619D01*
X188444Y26717D01*
X188050Y26717D01*
X190511Y26717D02*
X189527Y25339D01*
X191003Y25339D01*
X190511Y26717D02*
X190511Y24650D01*
X171023Y23764D02*
X170039Y23764D01*
X169940Y22878D01*
X170039Y22977D01*
X170334Y23075D01*
X170629Y23075D01*
X170925Y22977D01*
X171121Y22780D01*
X171220Y22485D01*
X171121Y22288D01*
X171023Y21993D01*
X170826Y21796D01*
X170531Y21697D01*
X170236Y21697D01*
X169940Y21796D01*
X169842Y21894D01*
X169743Y22091D01*
X172795Y23764D02*
X171810Y22386D01*
X173287Y22386D01*
X172795Y23764D02*
X172795Y21697D01*
X175058Y23469D02*
X174960Y23666D01*
X174665Y23764D01*
X174468Y23764D01*
X174173Y23666D01*
X173976Y23371D01*
X173877Y22878D01*
X173877Y22386D01*
X173976Y21993D01*
X174173Y21796D01*
X174468Y21697D01*
X174566Y21697D01*
X174862Y21796D01*
X175058Y21993D01*
X175157Y22288D01*
X175157Y22386D01*
X175058Y22682D01*
X174862Y22878D01*
X174566Y22977D01*
X174468Y22977D01*
X174173Y22878D01*
X173976Y22682D01*
X173877Y22386D01*
X175747Y23075D02*
X176830Y21697D01*
X176830Y23075D02*
X175747Y21697D01*
X178700Y23764D02*
X177716Y23764D01*
X177617Y22878D01*
X177716Y22977D01*
X178011Y23075D01*
X178306Y23075D01*
X178602Y22977D01*
X178799Y22780D01*
X178897Y22485D01*
X178799Y22288D01*
X178700Y21993D01*
X178503Y21796D01*
X178208Y21697D01*
X177913Y21697D01*
X177617Y21796D01*
X177519Y21894D01*
X177421Y22091D01*
X180472Y23764D02*
X179488Y22386D01*
X180964Y22386D01*
X180472Y23764D02*
X180472Y21697D01*
X182736Y23469D02*
X182637Y23666D01*
X182342Y23764D01*
X182145Y23764D01*
X181850Y23666D01*
X181653Y23371D01*
X181554Y22878D01*
X181554Y22386D01*
X181653Y21993D01*
X181850Y21796D01*
X182145Y21697D01*
X182243Y21697D01*
X182539Y21796D01*
X182736Y21993D01*
X182834Y22288D01*
X182834Y22386D01*
X182736Y22682D01*
X182539Y22878D01*
X182243Y22977D01*
X182145Y22977D01*
X181850Y22878D01*
X181653Y22682D01*
X181554Y22386D01*
X185393Y23075D02*
X185393Y21697D01*
X185393Y22682D02*
X185688Y22977D01*
X185885Y23075D01*
X186180Y23075D01*
X186377Y22977D01*
X186476Y22682D01*
X186476Y21697D01*
X186476Y22682D02*
X186771Y22977D01*
X186968Y23075D01*
X187263Y23075D01*
X187460Y22977D01*
X187558Y22682D01*
X187558Y21697D01*
X188149Y23075D02*
X188149Y21697D01*
X188149Y22682D02*
X188444Y22977D01*
X188641Y23075D01*
X188936Y23075D01*
X189133Y22977D01*
X189232Y22682D01*
X189232Y21697D01*
X189232Y22682D02*
X189527Y22977D01*
X189724Y23075D01*
X190019Y23075D01*
X190216Y22977D01*
X190314Y22682D01*
X190314Y21697D01*
%LNSolderPasteTop*%
G54D10*
X23327Y211811D02*
X21555Y211811D01*
X21555Y210732D01*
G75*
G03
X23327Y210732
I00886J-00004
D01*
G74*
G01*
X23327Y211811D01*
X37500Y211811D02*
X35728Y211811D01*
X35728Y210732D01*
G75*
G03
X37500Y210732
I00886J-00004
D01*
G74*
G01*
X37500Y211811D01*
X32776Y211811D02*
X31004Y211811D01*
X31004Y210732D01*
G75*
G03
X32776Y210732
I00886J-00004
D01*
G74*
G01*
X32776Y211811D01*
X28051Y211811D02*
X26279Y211811D01*
X26279Y210732D01*
G75*
G03
X28051Y210732
I00886J-00004
D01*
G74*
G01*
X28051Y211811D01*
X51673Y211811D02*
X49902Y211811D01*
X49902Y210732D01*
G75*
G03
X51673Y210732
I00886J-00004
D01*
G74*
G01*
X51673Y211811D01*
X46949Y211811D02*
X45177Y211811D01*
X45177Y210732D01*
G75*
G03
X46949Y210732
I00886J-00004
D01*
G74*
G01*
X46949Y211811D01*
X42224Y211811D02*
X40453Y211811D01*
X40453Y210732D01*
G75*
G03
X42224Y210732
I00886J-00004
D01*
G74*
G01*
X42224Y211811D01*
X65846Y211811D02*
X64075Y211811D01*
X64075Y210732D01*
G75*
G03
X65846Y210732
I00886J-00004
D01*
G74*
G01*
X65846Y211811D01*
X61122Y211811D02*
X59350Y211811D01*
X59350Y210732D01*
G75*
G03
X61122Y210732
I00886J-00004
D01*
G74*
G01*
X61122Y211811D01*
X56398Y211811D02*
X54626Y211811D01*
X54626Y210732D01*
G75*
G03
X56398Y210732
I00886J-00004
D01*
G74*
G01*
X56398Y211811D01*
X80020Y211811D02*
X78248Y211811D01*
X78248Y210732D01*
G75*
G03
X80020Y210732
I00886J-00004
D01*
G74*
G01*
X80020Y211811D01*
X75295Y211811D02*
X73524Y211811D01*
X73524Y210732D01*
G75*
G03
X75295Y210732
I00886J-00004
D01*
G74*
G01*
X75295Y211811D01*
X70571Y211811D02*
X68799Y211811D01*
X68799Y210732D01*
G75*
G03
X70571Y210732
I00886J-00004
D01*
G74*
G01*
X70571Y211811D01*
X94193Y211811D02*
X92421Y211811D01*
X92421Y210732D01*
G75*
G03
X94193Y210732
I00886J-00004
D01*
G74*
G01*
X94193Y211811D01*
X89468Y211811D02*
X87697Y211811D01*
X87697Y210732D01*
G75*
G03
X89468Y210732
I00886J-00004
D01*
G74*
G01*
X89468Y211811D01*
X84744Y211811D02*
X82972Y211811D01*
X82972Y210732D01*
G75*
G03
X84744Y210732
I00886J-00004
D01*
G74*
G01*
X84744Y211811D01*
X108366Y211811D02*
X106594Y211811D01*
X106594Y210732D01*
G75*
G03
X108366Y210732
I00886J-00004
D01*
G74*
G01*
X108366Y211811D01*
X103642Y211811D02*
X101870Y211811D01*
X101870Y210732D01*
G75*
G03
X103642Y210732
I00886J-00004
D01*
G74*
G01*
X103642Y211811D01*
X98917Y211811D02*
X97146Y211811D01*
X97146Y210732D01*
G75*
G03
X98917Y210732
I00886J-00004
D01*
G74*
G01*
X98917Y211811D01*
X122539Y211811D02*
X120768Y211811D01*
X120768Y210732D01*
G75*
G03
X122539Y210732
I00886J-00004
D01*
G74*
G01*
X122539Y211811D01*
X117815Y211811D02*
X116043Y211811D01*
X116043Y210732D01*
G75*
G03
X117815Y210732
I00886J-00004
D01*
G74*
G01*
X117815Y211811D01*
X113091Y211811D02*
X111319Y211811D01*
X111319Y210732D01*
G75*
G03
X113091Y210732
I00886J-00004
D01*
G74*
G01*
X113091Y211811D01*
X136713Y211811D02*
X134941Y211811D01*
X134941Y210732D01*
G75*
G03
X136713Y210732
I00886J-00004
D01*
G74*
G01*
X136713Y211811D01*
X131988Y211811D02*
X130217Y211811D01*
X130217Y210732D01*
G75*
G03
X131988Y210732
I00886J-00004
D01*
G74*
G01*
X131988Y211811D01*
X127264Y211811D02*
X125492Y211811D01*
X125492Y210732D01*
G75*
G03
X127264Y210732
I00886J-00004
D01*
G74*
G01*
X127264Y211811D01*
X150886Y211811D02*
X149114Y211811D01*
X149114Y210732D01*
G75*
G03
X150886Y210732
I00886J-00004
D01*
G74*
G01*
X150886Y211811D01*
X146161Y211811D02*
X144390Y211811D01*
X144390Y210732D01*
G75*
G03
X146161Y210732
I00886J-00004
D01*
G74*
G01*
X146161Y211811D01*
X141437Y211811D02*
X139665Y211811D01*
X139665Y210732D01*
G75*
G03
X141437Y210732
I00886J-00004
D01*
G74*
G01*
X141437Y211811D01*
X165059Y211811D02*
X163287Y211811D01*
X163287Y210732D01*
G75*
G03
X165059Y210732
I00886J-00004
D01*
G74*
G01*
X165059Y211811D01*
X160335Y211811D02*
X158563Y211811D01*
X158563Y210732D01*
G75*
G03
X160335Y210732
I00886J-00004
D01*
G74*
G01*
X160335Y211811D01*
X155610Y211811D02*
X153839Y211811D01*
X153839Y210732D01*
G75*
G03
X155610Y210732
I00886J-00004
D01*
G74*
G01*
X155610Y211811D01*
X179232Y211811D02*
X177461Y211811D01*
X177461Y210732D01*
G75*
G03
X179232Y210732
I00886J-00004
D01*
G74*
G01*
X179232Y211811D01*
X174508Y211811D02*
X172736Y211811D01*
X172736Y210732D01*
G75*
G03
X174508Y210732
I00886J-00004
D01*
G74*
G01*
X174508Y211811D01*
X169783Y211811D02*
X168012Y211811D01*
X168012Y210732D01*
G75*
G03
X169783Y210732
I00886J-00004
D01*
G74*
G01*
X169783Y211811D01*
X193405Y211811D02*
X191634Y211811D01*
X191634Y210732D01*
G75*
G03
X193405Y210732
I00886J-00004
D01*
G74*
G01*
X193405Y211811D01*
X188681Y211811D02*
X186909Y211811D01*
X186909Y210732D01*
G75*
G03
X188681Y210732
I00886J-00004
D01*
G74*
G01*
X188681Y211811D01*
X183957Y211811D02*
X182185Y211811D01*
X182185Y210732D01*
G75*
G03
X183957Y210732
I00886J-00004
D01*
G74*
G01*
X183957Y211811D01*
X211811Y191634D02*
X211811Y193406D01*
X210732Y193406D01*
G75*
G03
X210732Y191634
I-00004J-00886
D01*
G74*
G01*
X211811Y191634D01*
X211811Y177461D02*
X211811Y179232D01*
X210732Y179232D01*
G75*
G03
X210732Y177461
I-00004J-00886
D01*
G74*
G01*
X211811Y177461D01*
X211811Y182185D02*
X211811Y183957D01*
X210732Y183957D01*
G75*
G03
X210732Y182185
I-00004J-00886
D01*
G74*
G01*
X211811Y182185D01*
X211811Y186909D02*
X211811Y188681D01*
X210732Y188681D01*
G75*
G03
X210732Y186909
I-00004J-00886
D01*
G74*
G01*
X211811Y186909D01*
X211811Y163287D02*
X211811Y165059D01*
X210732Y165059D01*
G75*
G03
X210732Y163287
I-00004J-00886
D01*
G74*
G01*
X211811Y163287D01*
X211811Y168012D02*
X211811Y169783D01*
X210732Y169783D01*
G75*
G03
X210732Y168012
I-00004J-00886
D01*
G74*
G01*
X211811Y168012D01*
X211811Y172736D02*
X211811Y174508D01*
X210732Y174508D01*
G75*
G03
X210732Y172736
I-00004J-00886
D01*
G74*
G01*
X211811Y172736D01*
X211811Y149114D02*
X211811Y150886D01*
X210732Y150886D01*
G75*
G03
X210732Y149114
I-00004J-00886
D01*
G74*
G01*
X211811Y149114D01*
X211811Y153839D02*
X211811Y155610D01*
X210732Y155610D01*
G75*
G03
X210732Y153839
I-00004J-00886
D01*
G74*
G01*
X211811Y153839D01*
X211811Y158563D02*
X211811Y160335D01*
X210732Y160335D01*
G75*
G03
X210732Y158563
I-00004J-00886
D01*
G74*
G01*
X211811Y158563D01*
X211811Y134941D02*
X211811Y136713D01*
X210732Y136713D01*
G75*
G03
X210732Y134941
I-00004J-00886
D01*
G74*
G01*
X211811Y134941D01*
X211811Y139665D02*
X211811Y141437D01*
X210732Y141437D01*
G75*
G03
X210732Y139665
I-00004J-00886
D01*
G74*
G01*
X211811Y139665D01*
X211811Y144390D02*
X211811Y146161D01*
X210732Y146161D01*
G75*
G03
X210732Y144390
I-00004J-00886
D01*
G74*
G01*
X211811Y144390D01*
X211811Y120768D02*
X211811Y122539D01*
X210732Y122539D01*
G75*
G03
X210732Y120768
I-00004J-00886
D01*
G74*
G01*
X211811Y120768D01*
X211811Y125492D02*
X211811Y127264D01*
X210732Y127264D01*
G75*
G03
X210732Y125492
I-00004J-00886
D01*
G74*
G01*
X211811Y125492D01*
X211811Y130217D02*
X211811Y131988D01*
X210732Y131988D01*
G75*
G03
X210732Y130217
I-00004J-00886
D01*
G74*
G01*
X211811Y130217D01*
X211811Y106594D02*
X211811Y108366D01*
X210732Y108366D01*
G75*
G03
X210732Y106594
I-00004J-00886
D01*
G74*
G01*
X211811Y106594D01*
X211811Y111319D02*
X211811Y113091D01*
X210732Y113091D01*
G75*
G03
X210732Y111319
I-00004J-00886
D01*
G74*
G01*
X211811Y111319D01*
X211811Y116043D02*
X211811Y117815D01*
X210732Y117815D01*
G75*
G03
X210732Y116043
I-00004J-00886
D01*
G74*
G01*
X211811Y116043D01*
X211811Y92421D02*
X211811Y94193D01*
X210732Y94193D01*
G75*
G03
X210732Y92421
I-00004J-00886
D01*
G74*
G01*
X211811Y92421D01*
X211811Y97146D02*
X211811Y98917D01*
X210732Y98917D01*
G75*
G03
X210732Y97146
I-00004J-00886
D01*
G74*
G01*
X211811Y97146D01*
X211811Y101870D02*
X211811Y103642D01*
X210732Y103642D01*
G75*
G03
X210732Y101870
I-00004J-00886
D01*
G74*
G01*
X211811Y101870D01*
X211811Y78248D02*
X211811Y80020D01*
X210732Y80020D01*
G75*
G03
X210732Y78248
I-00004J-00886
D01*
G74*
G01*
X211811Y78248D01*
X211811Y82972D02*
X211811Y84744D01*
X210732Y84744D01*
G75*
G03
X210732Y82972
I-00004J-00886
D01*
G74*
G01*
X211811Y82972D01*
X211811Y87697D02*
X211811Y89469D01*
X210732Y89469D01*
G75*
G03
X210732Y87697
I-00004J-00886
D01*
G74*
G01*
X211811Y87697D01*
X211811Y64075D02*
X211811Y65846D01*
X210732Y65846D01*
G75*
G03
X210732Y64075
I-00004J-00886
D01*
G74*
G01*
X211811Y64075D01*
X211811Y68799D02*
X211811Y70571D01*
X210732Y70571D01*
G75*
G03
X210732Y68799
I-00004J-00886
D01*
G74*
G01*
X211811Y68799D01*
X211811Y73524D02*
X211811Y75295D01*
X210732Y75295D01*
G75*
G03
X210732Y73524
I-00004J-00886
D01*
G74*
G01*
X211811Y73524D01*
X211811Y49902D02*
X211811Y51673D01*
X210732Y51673D01*
G75*
G03
X210732Y49902
I-00004J-00886
D01*
G74*
G01*
X211811Y49902D01*
X211811Y54626D02*
X211811Y56398D01*
X210732Y56398D01*
G75*
G03
X210732Y54626
I-00004J-00886
D01*
G74*
G01*
X211811Y54626D01*
X211811Y59350D02*
X211811Y61122D01*
X210732Y61122D01*
G75*
G03
X210732Y59350
I-00004J-00886
D01*
G74*
G01*
X211811Y59350D01*
X211811Y35728D02*
X211811Y37500D01*
X210732Y37500D01*
G75*
G03
X210732Y35728
I-00004J-00886
D01*
G74*
G01*
X211811Y35728D01*
X211811Y40453D02*
X211811Y42224D01*
X210732Y42224D01*
G75*
G03
X210732Y40453
I-00004J-00886
D01*
G74*
G01*
X211811Y40453D01*
X211811Y45177D02*
X211811Y46949D01*
X210732Y46949D01*
G75*
G03
X210732Y45177
I-00004J-00886
D01*
G74*
G01*
X211811Y45177D01*
X211811Y21555D02*
X211811Y23327D01*
X210732Y23327D01*
G75*
G03
X210732Y21555
I-00004J-00886
D01*
G74*
G01*
X211811Y21555D01*
X211811Y26280D02*
X211811Y28051D01*
X210732Y28051D01*
G75*
G03
X210732Y26280
I-00004J-00886
D01*
G74*
G01*
X211811Y26280D01*
X211811Y31004D02*
X211811Y32776D01*
X210732Y32776D01*
G75*
G03
X210732Y31004
I-00004J-00886
D01*
G74*
G01*
X211811Y31004D01*
X03150Y23327D02*
X03150Y21555D01*
X04228Y21555D01*
G75*
G03
X04228Y23327
I00004J00886
D01*
G74*
G01*
X03150Y23327D01*
X03150Y37500D02*
X03150Y35728D01*
X04228Y35728D01*
G75*
G03
X04228Y37500
I00004J00886
D01*
G74*
G01*
X03150Y37500D01*
X03150Y32776D02*
X03150Y31004D01*
X04228Y31004D01*
G75*
G03
X04228Y32776
I00004J00886
D01*
G74*
G01*
X03150Y32776D01*
X03150Y28051D02*
X03150Y26280D01*
X04228Y26280D01*
G75*
G03
X04228Y28051
I00004J00886
D01*
G74*
G01*
X03150Y28051D01*
X03150Y51673D02*
X03150Y49902D01*
X04228Y49902D01*
G75*
G03
X04228Y51673
I00004J00886
D01*
G74*
G01*
X03150Y51673D01*
X03150Y46949D02*
X03150Y45177D01*
X04228Y45177D01*
G75*
G03
X04228Y46949
I00004J00886
D01*
G74*
G01*
X03150Y46949D01*
X03150Y42224D02*
X03150Y40453D01*
X04228Y40453D01*
G75*
G03
X04228Y42224
I00004J00886
D01*
G74*
G01*
X03150Y42224D01*
X03150Y65846D02*
X03150Y64075D01*
X04228Y64075D01*
G75*
G03
X04228Y65846
I00004J00886
D01*
G74*
G01*
X03150Y65846D01*
X03150Y61122D02*
X03150Y59350D01*
X04228Y59350D01*
G75*
G03
X04228Y61122
I00004J00886
D01*
G74*
G01*
X03150Y61122D01*
X03150Y56398D02*
X03150Y54626D01*
X04228Y54626D01*
G75*
G03
X04228Y56398
I00004J00886
D01*
G74*
G01*
X03150Y56398D01*
X03150Y80020D02*
X03150Y78248D01*
X04228Y78248D01*
G75*
G03
X04228Y80020
I00004J00886
D01*
G74*
G01*
X03150Y80020D01*
X03150Y75295D02*
X03150Y73524D01*
X04228Y73524D01*
G75*
G03
X04228Y75295
I00004J00886
D01*
G74*
G01*
X03150Y75295D01*
X03150Y70571D02*
X03150Y68799D01*
X04228Y68799D01*
G75*
G03
X04228Y70571
I00004J00886
D01*
G74*
G01*
X03150Y70571D01*
X03150Y94193D02*
X03150Y92421D01*
X04228Y92421D01*
G75*
G03
X04228Y94193
I00004J00886
D01*
G74*
G01*
X03150Y94193D01*
X03150Y89468D02*
X03150Y87697D01*
X04228Y87697D01*
G75*
G03
X04228Y89468
I00004J00886
D01*
G74*
G01*
X03150Y89468D01*
X03150Y84744D02*
X03150Y82972D01*
X04228Y82972D01*
G75*
G03
X04228Y84744
I00004J00886
D01*
G74*
G01*
X03150Y84744D01*
X03150Y108366D02*
X03150Y106594D01*
X04228Y106594D01*
G75*
G03
X04228Y108366
I00004J00886
D01*
G74*
G01*
X03150Y108366D01*
X03150Y103642D02*
X03150Y101870D01*
X04228Y101870D01*
G75*
G03
X04228Y103642
I00004J00886
D01*
G74*
G01*
X03150Y103642D01*
X03150Y98917D02*
X03150Y97146D01*
X04228Y97146D01*
G75*
G03
X04228Y98917
I00004J00886
D01*
G74*
G01*
X03150Y98917D01*
X03150Y122539D02*
X03150Y120768D01*
X04228Y120768D01*
G75*
G03
X04228Y122539
I00004J00886
D01*
G74*
G01*
X03150Y122539D01*
X03150Y117815D02*
X03150Y116043D01*
X04228Y116043D01*
G75*
G03
X04228Y117815
I00004J00886
D01*
G74*
G01*
X03150Y117815D01*
X03150Y113091D02*
X03150Y111319D01*
X04228Y111319D01*
G75*
G03
X04228Y113091
I00004J00886
D01*
G74*
G01*
X03150Y113091D01*
X03150Y136713D02*
X03150Y134941D01*
X04228Y134941D01*
G75*
G03
X04228Y136713
I00004J00886
D01*
G74*
G01*
X03150Y136713D01*
X03150Y131988D02*
X03150Y130217D01*
X04228Y130217D01*
G75*
G03
X04228Y131988
I00004J00886
D01*
G74*
G01*
X03150Y131988D01*
X03150Y127264D02*
X03150Y125492D01*
X04228Y125492D01*
G75*
G03
X04228Y127264
I00004J00886
D01*
G74*
G01*
X03150Y127264D01*
X03150Y150886D02*
X03150Y149114D01*
X04228Y149114D01*
G75*
G03
X04228Y150886
I00004J00886
D01*
G74*
G01*
X03150Y150886D01*
X03150Y146161D02*
X03150Y144390D01*
X04228Y144390D01*
G75*
G03
X04228Y146161
I00004J00886
D01*
G74*
G01*
X03150Y146161D01*
X03150Y141437D02*
X03150Y139665D01*
X04228Y139665D01*
G75*
G03
X04228Y141437
I00004J00886
D01*
G74*
G01*
X03150Y141437D01*
X03150Y165059D02*
X03150Y163287D01*
X04228Y163287D01*
G75*
G03
X04228Y165059
I00004J00886
D01*
G74*
G01*
X03150Y165059D01*
X03150Y160335D02*
X03150Y158563D01*
X04228Y158563D01*
G75*
G03
X04228Y160335
I00004J00886
D01*
G74*
G01*
X03150Y160335D01*
X03150Y155610D02*
X03150Y153839D01*
X04228Y153839D01*
G75*
G03
X04228Y155610
I00004J00886
D01*
G74*
G01*
X03150Y155610D01*
X03150Y179232D02*
X03150Y177461D01*
X04228Y177461D01*
G75*
G03
X04228Y179232
I00004J00886
D01*
G74*
G01*
X03150Y179232D01*
X03150Y174508D02*
X03150Y172736D01*
X04228Y172736D01*
G75*
G03
X04228Y174508
I00004J00886
D01*
G74*
G01*
X03150Y174508D01*
X03150Y169783D02*
X03150Y168012D01*
X04228Y168012D01*
G75*
G03
X04228Y169783
I00004J00886
D01*
G74*
G01*
X03150Y169783D01*
X03150Y193405D02*
X03150Y191634D01*
X04228Y191634D01*
G75*
G03
X04228Y193405
I00004J00886
D01*
G74*
G01*
X03150Y193405D01*
X03150Y188681D02*
X03150Y186909D01*
X04228Y186909D01*
G75*
G03
X04228Y188681
I00004J00886
D01*
G74*
G01*
X03150Y188681D01*
X03150Y183957D02*
X03150Y182185D01*
X04228Y182185D01*
G75*
G03
X04228Y183957
I00004J00886
D01*
G74*
G01*
X03150Y183957D01*
X191634Y03150D02*
X193406Y03150D01*
X193406Y04228D01*
G75*
G03
X191634Y04228
I-00886J00004
D01*
G74*
G01*
X191634Y03150D01*
X177461Y03150D02*
X179232Y03150D01*
X179232Y04228D01*
G75*
G03
X177461Y04228
I-00886J00004
D01*
G74*
G01*
X177461Y03150D01*
X182185Y03150D02*
X183957Y03150D01*
X183957Y04228D01*
G75*
G03
X182185Y04228
I-00886J00004
D01*
G74*
G01*
X182185Y03150D01*
X186909Y03150D02*
X188681Y03150D01*
X188681Y04228D01*
G75*
G03
X186909Y04228
I-00886J00004
D01*
G74*
G01*
X186909Y03150D01*
X163287Y03150D02*
X165059Y03150D01*
X165059Y04228D01*
G75*
G03
X163287Y04228
I-00886J00004
D01*
G74*
G01*
X163287Y03150D01*
X168012Y03150D02*
X169783Y03150D01*
X169783Y04228D01*
G75*
G03
X168012Y04228
I-00886J00004
D01*
G74*
G01*
X168012Y03150D01*
X172736Y03150D02*
X174508Y03150D01*
X174508Y04228D01*
G75*
G03
X172736Y04228
I-00886J00004
D01*
G74*
G01*
X172736Y03150D01*
X149114Y03150D02*
X150886Y03150D01*
X150886Y04228D01*
G75*
G03
X149114Y04228
I-00886J00004
D01*
G74*
G01*
X149114Y03150D01*
X153839Y03150D02*
X155610Y03150D01*
X155610Y04228D01*
G75*
G03
X153839Y04228
I-00886J00004
D01*
G74*
G01*
X153839Y03150D01*
X158563Y03150D02*
X160335Y03150D01*
X160335Y04228D01*
G75*
G03
X158563Y04228
I-00886J00004
D01*
G74*
G01*
X158563Y03150D01*
X134941Y03150D02*
X136713Y03150D01*
X136713Y04228D01*
G75*
G03
X134941Y04228
I-00886J00004
D01*
G74*
G01*
X134941Y03150D01*
X139665Y03150D02*
X141437Y03150D01*
X141437Y04228D01*
G75*
G03
X139665Y04228
I-00886J00004
D01*
G74*
G01*
X139665Y03150D01*
X144390Y03150D02*
X146161Y03150D01*
X146161Y04228D01*
G75*
G03
X144390Y04228
I-00886J00004
D01*
G74*
G01*
X144390Y03150D01*
X120768Y03150D02*
X122539Y03150D01*
X122539Y04228D01*
G75*
G03
X120768Y04228
I-00886J00004
D01*
G74*
G01*
X120768Y03150D01*
X125492Y03150D02*
X127264Y03150D01*
X127264Y04228D01*
G75*
G03
X125492Y04228
I-00886J00004
D01*
G74*
G01*
X125492Y03150D01*
X130217Y03150D02*
X131988Y03150D01*
X131988Y04228D01*
G75*
G03
X130217Y04228
I-00886J00004
D01*
G74*
G01*
X130217Y03150D01*
X106594Y03150D02*
X108366Y03150D01*
X108366Y04228D01*
G75*
G03
X106594Y04228
I-00886J00004
D01*
G74*
G01*
X106594Y03150D01*
X111319Y03150D02*
X113091Y03150D01*
X113091Y04228D01*
G75*
G03
X111319Y04228
I-00886J00004
D01*
G74*
G01*
X111319Y03150D01*
X116043Y03150D02*
X117815Y03150D01*
X117815Y04228D01*
G75*
G03
X116043Y04228
I-00886J00004
D01*
G74*
G01*
X116043Y03150D01*
X92421Y03150D02*
X94193Y03150D01*
X94193Y04228D01*
G75*
G03
X92421Y04228
I-00886J00004
D01*
G74*
G01*
X92421Y03150D01*
X97146Y03150D02*
X98917Y03150D01*
X98917Y04228D01*
G75*
G03
X97146Y04228
I-00886J00004
D01*
G74*
G01*
X97146Y03150D01*
X101870Y03150D02*
X103642Y03150D01*
X103642Y04228D01*
G75*
G03
X101870Y04228
I-00886J00004
D01*
G74*
G01*
X101870Y03150D01*
X78248Y03150D02*
X80020Y03150D01*
X80020Y04228D01*
G75*
G03
X78248Y04228
I-00886J00004
D01*
G74*
G01*
X78248Y03150D01*
X82972Y03150D02*
X84744Y03150D01*
X84744Y04228D01*
G75*
G03
X82972Y04228
I-00886J00004
D01*
G74*
G01*
X82972Y03150D01*
X87697Y03150D02*
X89469Y03150D01*
X89469Y04228D01*
G75*
G03
X87697Y04228
I-00886J00004
D01*
G74*
G01*
X87697Y03150D01*
X64075Y03150D02*
X65846Y03150D01*
X65846Y04228D01*
G75*
G03
X64075Y04228
I-00886J00004
D01*
G74*
G01*
X64075Y03150D01*
X68799Y03150D02*
X70571Y03150D01*
X70571Y04228D01*
G75*
G03
X68799Y04228
I-00886J00004
D01*
G74*
G01*
X68799Y03150D01*
X73524Y03150D02*
X75295Y03150D01*
X75295Y04228D01*
G75*
G03
X73524Y04228
I-00886J00004
D01*
G74*
G01*
X73524Y03150D01*
X49902Y03150D02*
X51673Y03150D01*
X51673Y04228D01*
G75*
G03
X49902Y04228
I-00886J00004
D01*
G74*
G01*
X49902Y03150D01*
X54626Y03150D02*
X56398Y03150D01*
X56398Y04228D01*
G75*
G03
X54626Y04228
I-00886J00004
D01*
G74*
G01*
X54626Y03150D01*
X59350Y03150D02*
X61122Y03150D01*
X61122Y04228D01*
G75*
G03
X59350Y04228
I-00886J00004
D01*
G74*
G01*
X59350Y03150D01*
X35728Y03150D02*
X37500Y03150D01*
X37500Y04228D01*
G75*
G03
X35728Y04228
I-00886J00004
D01*
G74*
G01*
X35728Y03150D01*
X40453Y03150D02*
X42224Y03150D01*
X42224Y04228D01*
G75*
G03
X40453Y04228
I-00886J00004
D01*
G74*
G01*
X40453Y03150D01*
X45177Y03150D02*
X46949Y03150D01*
X46949Y04228D01*
G75*
G03
X45177Y04228
I-00886J00004
D01*
G74*
G01*
X45177Y03150D01*
X21555Y03150D02*
X23327Y03150D01*
X23327Y04228D01*
G75*
G03
X21555Y04228
I-00886J00004
D01*
G74*
G01*
X21555Y03150D01*
X26280Y03150D02*
X28051Y03150D01*
X28051Y04228D01*
G75*
G03
X26280Y04228
I-00886J00004
D01*
G74*
G01*
X26280Y03150D01*
X31004Y03150D02*
X32776Y03150D01*
X32776Y04228D01*
G75*
G03
X31004Y04228
I-00886J00004
D01*
G74*
G01*
X31004Y03150D01*
M02*
